<svg xmlns="http://www.w3.org/2000/svg" width="1200" height="720" viewBox="0 0 1200 720">
<rect width="100%" height="100%" fill="#fffaf2"/>
<text x="90" y="30" font-size="28" font-family="Helvetica, Arial, sans-serif" fill="#222">CIFAR-10 NN-only MLP Search: Best-So-Far Validation</text>
<line x1="90" y1="50.0" x2="920" y2="50.0" stroke="#e4dccf" stroke-width="1"/>
<text x="78" y="55.0" text-anchor="end" font-size="16" font-family="Helvetica, Arial, sans-serif" fill="#444">0.407</text>
<line x1="90" y1="168.0" x2="920" y2="168.0" stroke="#e4dccf" stroke-width="1"/>
<text x="78" y="173.0" text-anchor="end" font-size="16" font-family="Helvetica, Arial, sans-serif" fill="#444">0.395</text>
<line x1="90" y1="286.0" x2="920" y2="286.0" stroke="#e4dccf" stroke-width="1"/>
<text x="78" y="291.0" text-anchor="end" font-size="16" font-family="Helvetica, Arial, sans-serif" fill="#444">0.383</text>
<line x1="90" y1="404.0" x2="920" y2="404.0" stroke="#e4dccf" stroke-width="1"/>
<text x="78" y="409.0" text-anchor="end" font-size="16" font-family="Helvetica, Arial, sans-serif" fill="#444">0.372</text>
<line x1="90" y1="522.0" x2="920" y2="522.0" stroke="#e4dccf" stroke-width="1"/>
<text x="78" y="527.0" text-anchor="end" font-size="16" font-family="Helvetica, Arial, sans-serif" fill="#444">0.360</text>
<line x1="90" y1="640.0" x2="920" y2="640.0" stroke="#e4dccf" stroke-width="1"/>
<text x="78" y="645.0" text-anchor="end" font-size="16" font-family="Helvetica, Arial, sans-serif" fill="#444">0.348</text>
<line x1="90.0" y1="50" x2="90.0" y2="640" stroke="#efe7da" stroke-width="1"/>
<text x="90.0" y="668" text-anchor="middle" font-size="16" font-family="Helvetica, Arial, sans-serif" fill="#444">1</text>
<line x1="190.1" y1="50" x2="190.1" y2="640" stroke="#efe7da" stroke-width="1"/>
<text x="190.1" y="668" text-anchor="middle" font-size="16" font-family="Helvetica, Arial, sans-serif" fill="#444">25</text>
<line x1="294.4" y1="50" x2="294.4" y2="640" stroke="#efe7da" stroke-width="1"/>
<text x="294.4" y="668" text-anchor="middle" font-size="16" font-family="Helvetica, Arial, sans-serif" fill="#444">50</text>
<line x1="502.9" y1="50" x2="502.9" y2="640" stroke="#efe7da" stroke-width="1"/>
<text x="502.9" y="668" text-anchor="middle" font-size="16" font-family="Helvetica, Arial, sans-serif" fill="#444">100</text>
<line x1="711.5" y1="50" x2="711.5" y2="640" stroke="#efe7da" stroke-width="1"/>
<text x="711.5" y="668" text-anchor="middle" font-size="16" font-family="Helvetica, Arial, sans-serif" fill="#444">150</text>
<line x1="920.0" y1="50" x2="920.0" y2="640" stroke="#efe7da" stroke-width="1"/>
<text x="920.0" y="668" text-anchor="middle" font-size="16" font-family="Helvetica, Arial, sans-serif" fill="#444">200</text>
<text x="505.0" y="698" text-anchor="middle" font-size="18" font-family="Helvetica, Arial, sans-serif" fill="#333">Round</text>
<text x="24" y="345.0" transform="rotate(-90 24 345.0)" text-anchor="middle" font-size="18" font-family="Helvetica, Arial, sans-serif" fill="#333">Validation Accuracy</text>
<polyline fill="none" stroke="#1768AC" stroke-width="4" points="90.00,404.00 94.17,404.00 98.34,404.00 102.51,404.00 106.68,404.00 110.85,404.00 115.03,404.00 119.20,404.00 123.37,404.00 127.54,404.00 131.71,404.00 135.88,404.00 140.05,404.00 144.22,404.00 148.39,404.00 152.56,404.00 156.73,404.00 160.90,404.00 165.08,404.00 169.25,404.00 173.42,404.00 177.59,404.00 181.76,404.00 185.93,404.00 190.10,404.00 194.27,404.00 198.44,404.00 202.61,404.00 206.78,404.00 210.95,404.00 215.13,404.00 219.30,404.00 223.47,404.00 227.64,404.00 231.81,404.00 235.98,404.00 240.15,404.00 244.32,404.00 248.49,404.00 252.66,404.00 256.83,404.00 261.01,404.00 265.18,404.00 269.35,404.00 273.52,404.00 277.69,404.00 281.86,404.00 286.03,404.00 290.20,404.00 294.37,404.00 298.54,404.00 302.71,404.00 306.88,404.00 311.06,404.00 315.23,404.00 319.40,404.00 323.57,404.00 327.74,404.00 331.91,404.00 336.08,404.00 340.25,404.00 344.42,404.00 348.59,404.00 352.76,404.00 356.93,404.00 361.11,404.00 365.28,404.00 369.45,404.00 373.62,404.00 377.79,404.00 381.96,404.00 386.13,404.00 390.30,404.00 394.47,404.00 398.64,404.00 402.81,404.00 406.98,404.00 411.16,404.00 415.33,404.00 419.50,404.00 423.67,404.00 427.84,404.00 432.01,404.00 436.18,404.00 440.35,404.00 444.52,404.00 448.69,404.00 452.86,404.00 457.04,404.00 461.21,404.00 465.38,404.00 469.55,404.00 473.72,404.00 477.89,404.00 482.06,404.00 486.23,404.00 490.40,404.00 494.57,404.00 498.74,404.00 502.91,404.00 507.09,404.00 511.26,404.00 515.43,404.00 519.60,404.00 523.77,404.00 527.94,404.00 532.11,404.00 536.28,404.00 540.45,404.00 544.62,404.00 548.79,404.00 552.96,404.00 557.14,404.00 561.31,404.00 565.48,404.00 569.65,404.00 573.82,404.00 577.99,404.00 582.16,404.00 586.33,404.00 590.50,404.00 594.67,404.00 598.84,404.00 603.02,404.00 607.19,404.00 611.36,404.00 615.53,404.00 619.70,404.00 623.87,404.00 628.04,404.00 632.21,404.00 636.38,404.00 640.55,404.00 644.72,404.00 648.89,404.00 653.07,404.00 657.24,404.00 661.41,404.00 665.58,404.00 669.75,404.00 673.92,404.00 678.09,404.00 682.26,404.00 686.43,404.00 690.60,404.00 694.77,404.00 698.94,404.00 703.12,404.00 707.29,404.00 711.46,404.00 715.63,404.00 719.80,404.00 723.97,404.00 728.14,404.00 732.31,404.00 736.48,404.00 740.65,404.00 744.82,404.00 748.99,404.00 753.17,404.00 757.34,404.00 761.51,404.00 765.68,404.00 769.85,404.00 774.02,404.00 778.19,404.00 782.36,404.00 786.53,404.00 790.70,404.00 794.87,404.00 799.05,404.00 803.22,404.00 807.39,404.00 811.56,404.00 815.73,404.00 819.90,404.00 824.07,404.00 828.24,404.00 832.41,404.00 836.58,404.00 840.75,404.00 844.92,404.00 849.10,404.00 853.27,404.00 857.44,404.00 861.61,404.00 865.78,404.00 869.95,404.00 874.12,404.00 878.29,404.00 882.46,404.00 886.63,404.00 890.80,404.00 894.97,404.00 899.15,404.00 903.32,404.00 907.49,404.00 911.66,404.00 915.83,404.00 920.00,404.00"/>
<circle cx="90.00" cy="404.00" r="3.2" fill="#1768AC"/>
<circle cx="94.17" cy="404.00" r="3.2" fill="#1768AC"/>
<circle cx="98.34" cy="404.00" r="3.2" fill="#1768AC"/>
<circle cx="102.51" cy="404.00" r="3.2" fill="#1768AC"/>
<circle cx="106.68" cy="404.00" r="3.2" fill="#1768AC"/>
<circle cx="110.85" cy="404.00" r="3.2" fill="#1768AC"/>
<circle cx="115.03" cy="404.00" r="3.2" fill="#1768AC"/>
<circle cx="119.20" cy="404.00" r="3.2" fill="#1768AC"/>
<circle cx="123.37" cy="404.00" r="3.2" fill="#1768AC"/>
<circle cx="127.54" cy="404.00" r="3.2" fill="#1768AC"/>
<circle cx="131.71" cy="404.00" r="3.2" fill="#1768AC"/>
<circle cx="135.88" cy="404.00" r="3.2" fill="#1768AC"/>
<circle cx="140.05" cy="404.00" r="3.2" fill="#1768AC"/>
<circle cx="144.22" cy="404.00" r="3.2" fill="#1768AC"/>
<circle cx="148.39" cy="404.00" r="3.2" fill="#1768AC"/>
<circle cx="152.56" cy="404.00" r="3.2" fill="#1768AC"/>
<circle cx="156.73" cy="404.00" r="3.2" fill="#1768AC"/>
<circle cx="160.90" cy="404.00" r="3.2" fill="#1768AC"/>
<circle cx="165.08" cy="404.00" r="3.2" fill="#1768AC"/>
<circle cx="169.25" cy="404.00" r="3.2" fill="#1768AC"/>
<circle cx="173.42" cy="404.00" r="3.2" fill="#1768AC"/>
<circle cx="177.59" cy="404.00" r="3.2" fill="#1768AC"/>
<circle cx="181.76" cy="404.00" r="3.2" fill="#1768AC"/>
<circle cx="185.93" cy="404.00" r="3.2" fill="#1768AC"/>
<circle cx="190.10" cy="404.00" r="3.2" fill="#1768AC"/>
<circle cx="194.27" cy="404.00" r="3.2" fill="#1768AC"/>
<circle cx="198.44" cy="404.00" r="3.2" fill="#1768AC"/>
<circle cx="202.61" cy="404.00" r="3.2" fill="#1768AC"/>
<circle cx="206.78" cy="404.00" r="3.2" fill="#1768AC"/>
<circle cx="210.95" cy="404.00" r="3.2" fill="#1768AC"/>
<circle cx="215.13" cy="404.00" r="3.2" fill="#1768AC"/>
<circle cx="219.30" cy="404.00" r="3.2" fill="#1768AC"/>
<circle cx="223.47" cy="404.00" r="3.2" fill="#1768AC"/>
<circle cx="227.64" cy="404.00" r="3.2" fill="#1768AC"/>
<circle cx="231.81" cy="404.00" r="3.2" fill="#1768AC"/>
<circle cx="235.98" cy="404.00" r="3.2" fill="#1768AC"/>
<circle cx="240.15" cy="404.00" r="3.2" fill="#1768AC"/>
<circle cx="244.32" cy="404.00" r="3.2" fill="#1768AC"/>
<circle cx="248.49" cy="404.00" r="3.2" fill="#1768AC"/>
<circle cx="252.66" cy="404.00" r="3.2" fill="#1768AC"/>
<circle cx="256.83" cy="404.00" r="3.2" fill="#1768AC"/>
<circle cx="261.01" cy="404.00" r="3.2" fill="#1768AC"/>
<circle cx="265.18" cy="404.00" r="3.2" fill="#1768AC"/>
<circle cx="269.35" cy="404.00" r="3.2" fill="#1768AC"/>
<circle cx="273.52" cy="404.00" r="3.2" fill="#1768AC"/>
<circle cx="277.69" cy="404.00" r="3.2" fill="#1768AC"/>
<circle cx="281.86" cy="404.00" r="3.2" fill="#1768AC"/>
<circle cx="286.03" cy="404.00" r="3.2" fill="#1768AC"/>
<circle cx="290.20" cy="404.00" r="3.2" fill="#1768AC"/>
<circle cx="294.37" cy="404.00" r="3.2" fill="#1768AC"/>
<circle cx="298.54" cy="404.00" r="3.2" fill="#1768AC"/>
<circle cx="302.71" cy="404.00" r="3.2" fill="#1768AC"/>
<circle cx="306.88" cy="404.00" r="3.2" fill="#1768AC"/>
<circle cx="311.06" cy="404.00" r="3.2" fill="#1768AC"/>
<circle cx="315.23" cy="404.00" r="3.2" fill="#1768AC"/>
<circle cx="319.40" cy="404.00" r="3.2" fill="#1768AC"/>
<circle cx="323.57" cy="404.00" r="3.2" fill="#1768AC"/>
<circle cx="327.74" cy="404.00" r="3.2" fill="#1768AC"/>
<circle cx="331.91" cy="404.00" r="3.2" fill="#1768AC"/>
<circle cx="336.08" cy="404.00" r="3.2" fill="#1768AC"/>
<circle cx="340.25" cy="404.00" r="3.2" fill="#1768AC"/>
<circle cx="344.42" cy="404.00" r="3.2" fill="#1768AC"/>
<circle cx="348.59" cy="404.00" r="3.2" fill="#1768AC"/>
<circle cx="352.76" cy="404.00" r="3.2" fill="#1768AC"/>
<circle cx="356.93" cy="404.00" r="3.2" fill="#1768AC"/>
<circle cx="361.11" cy="404.00" r="3.2" fill="#1768AC"/>
<circle cx="365.28" cy="404.00" r="3.2" fill="#1768AC"/>
<circle cx="369.45" cy="404.00" r="3.2" fill="#1768AC"/>
<circle cx="373.62" cy="404.00" r="3.2" fill="#1768AC"/>
<circle cx="377.79" cy="404.00" r="3.2" fill="#1768AC"/>
<circle cx="381.96" cy="404.00" r="3.2" fill="#1768AC"/>
<circle cx="386.13" cy="404.00" r="3.2" fill="#1768AC"/>
<circle cx="390.30" cy="404.00" r="3.2" fill="#1768AC"/>
<circle cx="394.47" cy="404.00" r="3.2" fill="#1768AC"/>
<circle cx="398.64" cy="404.00" r="3.2" fill="#1768AC"/>
<circle cx="402.81" cy="404.00" r="3.2" fill="#1768AC"/>
<circle cx="406.98" cy="404.00" r="3.2" fill="#1768AC"/>
<circle cx="411.16" cy="404.00" r="3.2" fill="#1768AC"/>
<circle cx="415.33" cy="404.00" r="3.2" fill="#1768AC"/>
<circle cx="419.50" cy="404.00" r="3.2" fill="#1768AC"/>
<circle cx="423.67" cy="404.00" r="3.2" fill="#1768AC"/>
<circle cx="427.84" cy="404.00" r="3.2" fill="#1768AC"/>
<circle cx="432.01" cy="404.00" r="3.2" fill="#1768AC"/>
<circle cx="436.18" cy="404.00" r="3.2" fill="#1768AC"/>
<circle cx="440.35" cy="404.00" r="3.2" fill="#1768AC"/>
<circle cx="444.52" cy="404.00" r="3.2" fill="#1768AC"/>
<circle cx="448.69" cy="404.00" r="3.2" fill="#1768AC"/>
<circle cx="452.86" cy="404.00" r="3.2" fill="#1768AC"/>
<circle cx="457.04" cy="404.00" r="3.2" fill="#1768AC"/>
<circle cx="461.21" cy="404.00" r="3.2" fill="#1768AC"/>
<circle cx="465.38" cy="404.00" r="3.2" fill="#1768AC"/>
<circle cx="469.55" cy="404.00" r="3.2" fill="#1768AC"/>
<circle cx="473.72" cy="404.00" r="3.2" fill="#1768AC"/>
<circle cx="477.89" cy="404.00" r="3.2" fill="#1768AC"/>
<circle cx="482.06" cy="404.00" r="3.2" fill="#1768AC"/>
<circle cx="486.23" cy="404.00" r="3.2" fill="#1768AC"/>
<circle cx="490.40" cy="404.00" r="3.2" fill="#1768AC"/>
<circle cx="494.57" cy="404.00" r="3.2" fill="#1768AC"/>
<circle cx="498.74" cy="404.00" r="3.2" fill="#1768AC"/>
<circle cx="502.91" cy="404.00" r="3.2" fill="#1768AC"/>
<circle cx="507.09" cy="404.00" r="3.2" fill="#1768AC"/>
<circle cx="511.26" cy="404.00" r="3.2" fill="#1768AC"/>
<circle cx="515.43" cy="404.00" r="3.2" fill="#1768AC"/>
<circle cx="519.60" cy="404.00" r="3.2" fill="#1768AC"/>
<circle cx="523.77" cy="404.00" r="3.2" fill="#1768AC"/>
<circle cx="527.94" cy="404.00" r="3.2" fill="#1768AC"/>
<circle cx="532.11" cy="404.00" r="3.2" fill="#1768AC"/>
<circle cx="536.28" cy="404.00" r="3.2" fill="#1768AC"/>
<circle cx="540.45" cy="404.00" r="3.2" fill="#1768AC"/>
<circle cx="544.62" cy="404.00" r="3.2" fill="#1768AC"/>
<circle cx="548.79" cy="404.00" r="3.2" fill="#1768AC"/>
<circle cx="552.96" cy="404.00" r="3.2" fill="#1768AC"/>
<circle cx="557.14" cy="404.00" r="3.2" fill="#1768AC"/>
<circle cx="561.31" cy="404.00" r="3.2" fill="#1768AC"/>
<circle cx="565.48" cy="404.00" r="3.2" fill="#1768AC"/>
<circle cx="569.65" cy="404.00" r="3.2" fill="#1768AC"/>
<circle cx="573.82" cy="404.00" r="3.2" fill="#1768AC"/>
<circle cx="577.99" cy="404.00" r="3.2" fill="#1768AC"/>
<circle cx="582.16" cy="404.00" r="3.2" fill="#1768AC"/>
<circle cx="586.33" cy="404.00" r="3.2" fill="#1768AC"/>
<circle cx="590.50" cy="404.00" r="3.2" fill="#1768AC"/>
<circle cx="594.67" cy="404.00" r="3.2" fill="#1768AC"/>
<circle cx="598.84" cy="404.00" r="3.2" fill="#1768AC"/>
<circle cx="603.02" cy="404.00" r="3.2" fill="#1768AC"/>
<circle cx="607.19" cy="404.00" r="3.2" fill="#1768AC"/>
<circle cx="611.36" cy="404.00" r="3.2" fill="#1768AC"/>
<circle cx="615.53" cy="404.00" r="3.2" fill="#1768AC"/>
<circle cx="619.70" cy="404.00" r="3.2" fill="#1768AC"/>
<circle cx="623.87" cy="404.00" r="3.2" fill="#1768AC"/>
<circle cx="628.04" cy="404.00" r="3.2" fill="#1768AC"/>
<circle cx="632.21" cy="404.00" r="3.2" fill="#1768AC"/>
<circle cx="636.38" cy="404.00" r="3.2" fill="#1768AC"/>
<circle cx="640.55" cy="404.00" r="3.2" fill="#1768AC"/>
<circle cx="644.72" cy="404.00" r="3.2" fill="#1768AC"/>
<circle cx="648.89" cy="404.00" r="3.2" fill="#1768AC"/>
<circle cx="653.07" cy="404.00" r="3.2" fill="#1768AC"/>
<circle cx="657.24" cy="404.00" r="3.2" fill="#1768AC"/>
<circle cx="661.41" cy="404.00" r="3.2" fill="#1768AC"/>
<circle cx="665.58" cy="404.00" r="3.2" fill="#1768AC"/>
<circle cx="669.75" cy="404.00" r="3.2" fill="#1768AC"/>
<circle cx="673.92" cy="404.00" r="3.2" fill="#1768AC"/>
<circle cx="678.09" cy="404.00" r="3.2" fill="#1768AC"/>
<circle cx="682.26" cy="404.00" r="3.2" fill="#1768AC"/>
<circle cx="686.43" cy="404.00" r="3.2" fill="#1768AC"/>
<circle cx="690.60" cy="404.00" r="3.2" fill="#1768AC"/>
<circle cx="694.77" cy="404.00" r="3.2" fill="#1768AC"/>
<circle cx="698.94" cy="404.00" r="3.2" fill="#1768AC"/>
<circle cx="703.12" cy="404.00" r="3.2" fill="#1768AC"/>
<circle cx="707.29" cy="404.00" r="3.2" fill="#1768AC"/>
<circle cx="711.46" cy="404.00" r="3.2" fill="#1768AC"/>
<circle cx="715.63" cy="404.00" r="3.2" fill="#1768AC"/>
<circle cx="719.80" cy="404.00" r="3.2" fill="#1768AC"/>
<circle cx="723.97" cy="404.00" r="3.2" fill="#1768AC"/>
<circle cx="728.14" cy="404.00" r="3.2" fill="#1768AC"/>
<circle cx="732.31" cy="404.00" r="3.2" fill="#1768AC"/>
<circle cx="736.48" cy="404.00" r="3.2" fill="#1768AC"/>
<circle cx="740.65" cy="404.00" r="3.2" fill="#1768AC"/>
<circle cx="744.82" cy="404.00" r="3.2" fill="#1768AC"/>
<circle cx="748.99" cy="404.00" r="3.2" fill="#1768AC"/>
<circle cx="753.17" cy="404.00" r="3.2" fill="#1768AC"/>
<circle cx="757.34" cy="404.00" r="3.2" fill="#1768AC"/>
<circle cx="761.51" cy="404.00" r="3.2" fill="#1768AC"/>
<circle cx="765.68" cy="404.00" r="3.2" fill="#1768AC"/>
<circle cx="769.85" cy="404.00" r="3.2" fill="#1768AC"/>
<circle cx="774.02" cy="404.00" r="3.2" fill="#1768AC"/>
<circle cx="778.19" cy="404.00" r="3.2" fill="#1768AC"/>
<circle cx="782.36" cy="404.00" r="3.2" fill="#1768AC"/>
<circle cx="786.53" cy="404.00" r="3.2" fill="#1768AC"/>
<circle cx="790.70" cy="404.00" r="3.2" fill="#1768AC"/>
<circle cx="794.87" cy="404.00" r="3.2" fill="#1768AC"/>
<circle cx="799.05" cy="404.00" r="3.2" fill="#1768AC"/>
<circle cx="803.22" cy="404.00" r="3.2" fill="#1768AC"/>
<circle cx="807.39" cy="404.00" r="3.2" fill="#1768AC"/>
<circle cx="811.56" cy="404.00" r="3.2" fill="#1768AC"/>
<circle cx="815.73" cy="404.00" r="3.2" fill="#1768AC"/>
<circle cx="819.90" cy="404.00" r="3.2" fill="#1768AC"/>
<circle cx="824.07" cy="404.00" r="3.2" fill="#1768AC"/>
<circle cx="828.24" cy="404.00" r="3.2" fill="#1768AC"/>
<circle cx="832.41" cy="404.00" r="3.2" fill="#1768AC"/>
<circle cx="836.58" cy="404.00" r="3.2" fill="#1768AC"/>
<circle cx="840.75" cy="404.00" r="3.2" fill="#1768AC"/>
<circle cx="844.92" cy="404.00" r="3.2" fill="#1768AC"/>
<circle cx="849.10" cy="404.00" r="3.2" fill="#1768AC"/>
<circle cx="853.27" cy="404.00" r="3.2" fill="#1768AC"/>
<circle cx="857.44" cy="404.00" r="3.2" fill="#1768AC"/>
<circle cx="861.61" cy="404.00" r="3.2" fill="#1768AC"/>
<circle cx="865.78" cy="404.00" r="3.2" fill="#1768AC"/>
<circle cx="869.95" cy="404.00" r="3.2" fill="#1768AC"/>
<circle cx="874.12" cy="404.00" r="3.2" fill="#1768AC"/>
<circle cx="878.29" cy="404.00" r="3.2" fill="#1768AC"/>
<circle cx="882.46" cy="404.00" r="3.2" fill="#1768AC"/>
<circle cx="886.63" cy="404.00" r="3.2" fill="#1768AC"/>
<circle cx="890.80" cy="404.00" r="3.2" fill="#1768AC"/>
<circle cx="894.97" cy="404.00" r="3.2" fill="#1768AC"/>
<circle cx="899.15" cy="404.00" r="3.2" fill="#1768AC"/>
<circle cx="903.32" cy="404.00" r="3.2" fill="#1768AC"/>
<circle cx="907.49" cy="404.00" r="3.2" fill="#1768AC"/>
<circle cx="911.66" cy="404.00" r="3.2" fill="#1768AC"/>
<circle cx="915.83" cy="404.00" r="3.2" fill="#1768AC"/>
<circle cx="920.00" cy="404.00" r="3.2" fill="#1768AC"/>
<line x1="944" y1="82" x2="966" y2="82" stroke="#1768AC" stroke-width="4"/>
<text x="976" y="87" font-size="17" font-family="Helvetica, Arial, sans-serif" fill="#222">01 Sequential</text>
<text x="976" y="108" font-size="14" font-family="Helvetica, Arial, sans-serif" fill="#555">best val 0.372 / hidden 0.342</text>
<polyline fill="none" stroke="#D7263D" stroke-width="4" points="90.00,538.86 94.17,404.00 98.34,404.00 102.51,404.00 106.68,404.00 110.85,404.00 115.03,404.00 119.20,218.57 123.37,218.57 127.54,218.57 131.71,218.57 135.88,218.57 140.05,218.57 144.22,201.71 148.39,201.71 152.56,201.71 156.73,201.71 160.90,201.71 165.08,201.71 169.25,201.71 173.42,201.71 177.59,201.71 181.76,201.71 185.93,201.71 190.10,201.71 194.27,184.86 198.44,184.86 202.61,184.86 206.78,184.86 210.95,184.86 215.13,184.86 219.30,184.86 223.47,184.86 227.64,184.86 231.81,184.86 235.98,184.86 240.15,184.86 244.32,184.86 248.49,184.86 252.66,184.86 256.83,184.86 261.01,184.86 265.18,184.86 269.35,184.86 273.52,184.86 277.69,184.86 281.86,184.86 286.03,184.86 290.20,184.86 294.37,184.86 298.54,184.86 302.71,184.86 306.88,184.86 311.06,184.86 315.23,184.86 319.40,184.86 323.57,184.86 327.74,184.86 331.91,184.86 336.08,184.86 340.25,184.86 344.42,184.86 348.59,184.86 352.76,184.86 356.93,184.86 361.11,184.86 365.28,184.86 369.45,184.86 373.62,184.86 377.79,184.86 381.96,184.86 386.13,184.86 390.30,184.86 394.47,184.86 398.64,184.86 402.81,184.86 406.98,184.86 411.16,184.86 415.33,184.86 419.50,184.86 423.67,184.86 427.84,184.86 432.01,184.86 436.18,184.86 440.35,184.86 444.52,184.86 448.69,184.86 452.86,184.86 457.04,184.86 461.21,184.86 465.38,184.86 469.55,184.86 473.72,184.86 477.89,184.86 482.06,184.86 486.23,184.86 490.40,184.86 494.57,184.86 498.74,184.86 502.91,184.86 507.09,184.86 511.26,184.86 515.43,184.86 519.60,184.86 523.77,184.86 527.94,184.86 532.11,184.86 536.28,184.86 540.45,184.86 544.62,184.86 548.79,184.86 552.96,184.86 557.14,184.86 561.31,184.86 565.48,184.86 569.65,184.86 573.82,184.86 577.99,184.86 582.16,184.86 586.33,184.86 590.50,184.86 594.67,184.86 598.84,184.86 603.02,184.86 607.19,184.86 611.36,184.86 615.53,184.86 619.70,184.86 623.87,184.86 628.04,184.86 632.21,184.86 636.38,184.86 640.55,184.86 644.72,184.86 648.89,184.86 653.07,184.86 657.24,184.86 661.41,184.86 665.58,184.86 669.75,184.86 673.92,184.86 678.09,184.86 682.26,184.86 686.43,184.86 690.60,184.86 694.77,184.86 698.94,184.86 703.12,184.86 707.29,184.86 711.46,184.86 715.63,184.86 719.80,184.86 723.97,184.86 728.14,184.86 732.31,184.86 736.48,184.86 740.65,184.86 744.82,184.86 748.99,184.86 753.17,184.86 757.34,184.86 761.51,184.86 765.68,184.86 769.85,184.86 774.02,184.86 778.19,184.86 782.36,184.86 786.53,184.86 790.70,184.86 794.87,184.86 799.05,184.86 803.22,184.86 807.39,184.86 811.56,184.86 815.73,184.86 819.90,184.86 824.07,184.86 828.24,184.86 832.41,184.86 836.58,184.86 840.75,184.86 844.92,184.86 849.10,184.86 853.27,184.86 857.44,184.86 861.61,184.86 865.78,184.86 869.95,184.86 874.12,184.86 878.29,184.86 882.46,184.86 886.63,184.86 890.80,184.86 894.97,184.86 899.15,184.86 903.32,184.86 907.49,184.86 911.66,184.86 915.83,184.86 920.00,184.86"/>
<circle cx="90.00" cy="538.86" r="3.2" fill="#D7263D"/>
<circle cx="94.17" cy="404.00" r="3.2" fill="#D7263D"/>
<circle cx="98.34" cy="404.00" r="3.2" fill="#D7263D"/>
<circle cx="102.51" cy="404.00" r="3.2" fill="#D7263D"/>
<circle cx="106.68" cy="404.00" r="3.2" fill="#D7263D"/>
<circle cx="110.85" cy="404.00" r="3.2" fill="#D7263D"/>
<circle cx="115.03" cy="404.00" r="3.2" fill="#D7263D"/>
<circle cx="119.20" cy="218.57" r="3.2" fill="#D7263D"/>
<circle cx="123.37" cy="218.57" r="3.2" fill="#D7263D"/>
<circle cx="127.54" cy="218.57" r="3.2" fill="#D7263D"/>
<circle cx="131.71" cy="218.57" r="3.2" fill="#D7263D"/>
<circle cx="135.88" cy="218.57" r="3.2" fill="#D7263D"/>
<circle cx="140.05" cy="218.57" r="3.2" fill="#D7263D"/>
<circle cx="144.22" cy="201.71" r="3.2" fill="#D7263D"/>
<circle cx="148.39" cy="201.71" r="3.2" fill="#D7263D"/>
<circle cx="152.56" cy="201.71" r="3.2" fill="#D7263D"/>
<circle cx="156.73" cy="201.71" r="3.2" fill="#D7263D"/>
<circle cx="160.90" cy="201.71" r="3.2" fill="#D7263D"/>
<circle cx="165.08" cy="201.71" r="3.2" fill="#D7263D"/>
<circle cx="169.25" cy="201.71" r="3.2" fill="#D7263D"/>
<circle cx="173.42" cy="201.71" r="3.2" fill="#D7263D"/>
<circle cx="177.59" cy="201.71" r="3.2" fill="#D7263D"/>
<circle cx="181.76" cy="201.71" r="3.2" fill="#D7263D"/>
<circle cx="185.93" cy="201.71" r="3.2" fill="#D7263D"/>
<circle cx="190.10" cy="201.71" r="3.2" fill="#D7263D"/>
<circle cx="194.27" cy="184.86" r="3.2" fill="#D7263D"/>
<circle cx="198.44" cy="184.86" r="3.2" fill="#D7263D"/>
<circle cx="202.61" cy="184.86" r="3.2" fill="#D7263D"/>
<circle cx="206.78" cy="184.86" r="3.2" fill="#D7263D"/>
<circle cx="210.95" cy="184.86" r="3.2" fill="#D7263D"/>
<circle cx="215.13" cy="184.86" r="3.2" fill="#D7263D"/>
<circle cx="219.30" cy="184.86" r="3.2" fill="#D7263D"/>
<circle cx="223.47" cy="184.86" r="3.2" fill="#D7263D"/>
<circle cx="227.64" cy="184.86" r="3.2" fill="#D7263D"/>
<circle cx="231.81" cy="184.86" r="3.2" fill="#D7263D"/>
<circle cx="235.98" cy="184.86" r="3.2" fill="#D7263D"/>
<circle cx="240.15" cy="184.86" r="3.2" fill="#D7263D"/>
<circle cx="244.32" cy="184.86" r="3.2" fill="#D7263D"/>
<circle cx="248.49" cy="184.86" r="3.2" fill="#D7263D"/>
<circle cx="252.66" cy="184.86" r="3.2" fill="#D7263D"/>
<circle cx="256.83" cy="184.86" r="3.2" fill="#D7263D"/>
<circle cx="261.01" cy="184.86" r="3.2" fill="#D7263D"/>
<circle cx="265.18" cy="184.86" r="3.2" fill="#D7263D"/>
<circle cx="269.35" cy="184.86" r="3.2" fill="#D7263D"/>
<circle cx="273.52" cy="184.86" r="3.2" fill="#D7263D"/>
<circle cx="277.69" cy="184.86" r="3.2" fill="#D7263D"/>
<circle cx="281.86" cy="184.86" r="3.2" fill="#D7263D"/>
<circle cx="286.03" cy="184.86" r="3.2" fill="#D7263D"/>
<circle cx="290.20" cy="184.86" r="3.2" fill="#D7263D"/>
<circle cx="294.37" cy="184.86" r="3.2" fill="#D7263D"/>
<circle cx="298.54" cy="184.86" r="3.2" fill="#D7263D"/>
<circle cx="302.71" cy="184.86" r="3.2" fill="#D7263D"/>
<circle cx="306.88" cy="184.86" r="3.2" fill="#D7263D"/>
<circle cx="311.06" cy="184.86" r="3.2" fill="#D7263D"/>
<circle cx="315.23" cy="184.86" r="3.2" fill="#D7263D"/>
<circle cx="319.40" cy="184.86" r="3.2" fill="#D7263D"/>
<circle cx="323.57" cy="184.86" r="3.2" fill="#D7263D"/>
<circle cx="327.74" cy="184.86" r="3.2" fill="#D7263D"/>
<circle cx="331.91" cy="184.86" r="3.2" fill="#D7263D"/>
<circle cx="336.08" cy="184.86" r="3.2" fill="#D7263D"/>
<circle cx="340.25" cy="184.86" r="3.2" fill="#D7263D"/>
<circle cx="344.42" cy="184.86" r="3.2" fill="#D7263D"/>
<circle cx="348.59" cy="184.86" r="3.2" fill="#D7263D"/>
<circle cx="352.76" cy="184.86" r="3.2" fill="#D7263D"/>
<circle cx="356.93" cy="184.86" r="3.2" fill="#D7263D"/>
<circle cx="361.11" cy="184.86" r="3.2" fill="#D7263D"/>
<circle cx="365.28" cy="184.86" r="3.2" fill="#D7263D"/>
<circle cx="369.45" cy="184.86" r="3.2" fill="#D7263D"/>
<circle cx="373.62" cy="184.86" r="3.2" fill="#D7263D"/>
<circle cx="377.79" cy="184.86" r="3.2" fill="#D7263D"/>
<circle cx="381.96" cy="184.86" r="3.2" fill="#D7263D"/>
<circle cx="386.13" cy="184.86" r="3.2" fill="#D7263D"/>
<circle cx="390.30" cy="184.86" r="3.2" fill="#D7263D"/>
<circle cx="394.47" cy="184.86" r="3.2" fill="#D7263D"/>
<circle cx="398.64" cy="184.86" r="3.2" fill="#D7263D"/>
<circle cx="402.81" cy="184.86" r="3.2" fill="#D7263D"/>
<circle cx="406.98" cy="184.86" r="3.2" fill="#D7263D"/>
<circle cx="411.16" cy="184.86" r="3.2" fill="#D7263D"/>
<circle cx="415.33" cy="184.86" r="3.2" fill="#D7263D"/>
<circle cx="419.50" cy="184.86" r="3.2" fill="#D7263D"/>
<circle cx="423.67" cy="184.86" r="3.2" fill="#D7263D"/>
<circle cx="427.84" cy="184.86" r="3.2" fill="#D7263D"/>
<circle cx="432.01" cy="184.86" r="3.2" fill="#D7263D"/>
<circle cx="436.18" cy="184.86" r="3.2" fill="#D7263D"/>
<circle cx="440.35" cy="184.86" r="3.2" fill="#D7263D"/>
<circle cx="444.52" cy="184.86" r="3.2" fill="#D7263D"/>
<circle cx="448.69" cy="184.86" r="3.2" fill="#D7263D"/>
<circle cx="452.86" cy="184.86" r="3.2" fill="#D7263D"/>
<circle cx="457.04" cy="184.86" r="3.2" fill="#D7263D"/>
<circle cx="461.21" cy="184.86" r="3.2" fill="#D7263D"/>
<circle cx="465.38" cy="184.86" r="3.2" fill="#D7263D"/>
<circle cx="469.55" cy="184.86" r="3.2" fill="#D7263D"/>
<circle cx="473.72" cy="184.86" r="3.2" fill="#D7263D"/>
<circle cx="477.89" cy="184.86" r="3.2" fill="#D7263D"/>
<circle cx="482.06" cy="184.86" r="3.2" fill="#D7263D"/>
<circle cx="486.23" cy="184.86" r="3.2" fill="#D7263D"/>
<circle cx="490.40" cy="184.86" r="3.2" fill="#D7263D"/>
<circle cx="494.57" cy="184.86" r="3.2" fill="#D7263D"/>
<circle cx="498.74" cy="184.86" r="3.2" fill="#D7263D"/>
<circle cx="502.91" cy="184.86" r="3.2" fill="#D7263D"/>
<circle cx="507.09" cy="184.86" r="3.2" fill="#D7263D"/>
<circle cx="511.26" cy="184.86" r="3.2" fill="#D7263D"/>
<circle cx="515.43" cy="184.86" r="3.2" fill="#D7263D"/>
<circle cx="519.60" cy="184.86" r="3.2" fill="#D7263D"/>
<circle cx="523.77" cy="184.86" r="3.2" fill="#D7263D"/>
<circle cx="527.94" cy="184.86" r="3.2" fill="#D7263D"/>
<circle cx="532.11" cy="184.86" r="3.2" fill="#D7263D"/>
<circle cx="536.28" cy="184.86" r="3.2" fill="#D7263D"/>
<circle cx="540.45" cy="184.86" r="3.2" fill="#D7263D"/>
<circle cx="544.62" cy="184.86" r="3.2" fill="#D7263D"/>
<circle cx="548.79" cy="184.86" r="3.2" fill="#D7263D"/>
<circle cx="552.96" cy="184.86" r="3.2" fill="#D7263D"/>
<circle cx="557.14" cy="184.86" r="3.2" fill="#D7263D"/>
<circle cx="561.31" cy="184.86" r="3.2" fill="#D7263D"/>
<circle cx="565.48" cy="184.86" r="3.2" fill="#D7263D"/>
<circle cx="569.65" cy="184.86" r="3.2" fill="#D7263D"/>
<circle cx="573.82" cy="184.86" r="3.2" fill="#D7263D"/>
<circle cx="577.99" cy="184.86" r="3.2" fill="#D7263D"/>
<circle cx="582.16" cy="184.86" r="3.2" fill="#D7263D"/>
<circle cx="586.33" cy="184.86" r="3.2" fill="#D7263D"/>
<circle cx="590.50" cy="184.86" r="3.2" fill="#D7263D"/>
<circle cx="594.67" cy="184.86" r="3.2" fill="#D7263D"/>
<circle cx="598.84" cy="184.86" r="3.2" fill="#D7263D"/>
<circle cx="603.02" cy="184.86" r="3.2" fill="#D7263D"/>
<circle cx="607.19" cy="184.86" r="3.2" fill="#D7263D"/>
<circle cx="611.36" cy="184.86" r="3.2" fill="#D7263D"/>
<circle cx="615.53" cy="184.86" r="3.2" fill="#D7263D"/>
<circle cx="619.70" cy="184.86" r="3.2" fill="#D7263D"/>
<circle cx="623.87" cy="184.86" r="3.2" fill="#D7263D"/>
<circle cx="628.04" cy="184.86" r="3.2" fill="#D7263D"/>
<circle cx="632.21" cy="184.86" r="3.2" fill="#D7263D"/>
<circle cx="636.38" cy="184.86" r="3.2" fill="#D7263D"/>
<circle cx="640.55" cy="184.86" r="3.2" fill="#D7263D"/>
<circle cx="644.72" cy="184.86" r="3.2" fill="#D7263D"/>
<circle cx="648.89" cy="184.86" r="3.2" fill="#D7263D"/>
<circle cx="653.07" cy="184.86" r="3.2" fill="#D7263D"/>
<circle cx="657.24" cy="184.86" r="3.2" fill="#D7263D"/>
<circle cx="661.41" cy="184.86" r="3.2" fill="#D7263D"/>
<circle cx="665.58" cy="184.86" r="3.2" fill="#D7263D"/>
<circle cx="669.75" cy="184.86" r="3.2" fill="#D7263D"/>
<circle cx="673.92" cy="184.86" r="3.2" fill="#D7263D"/>
<circle cx="678.09" cy="184.86" r="3.2" fill="#D7263D"/>
<circle cx="682.26" cy="184.86" r="3.2" fill="#D7263D"/>
<circle cx="686.43" cy="184.86" r="3.2" fill="#D7263D"/>
<circle cx="690.60" cy="184.86" r="3.2" fill="#D7263D"/>
<circle cx="694.77" cy="184.86" r="3.2" fill="#D7263D"/>
<circle cx="698.94" cy="184.86" r="3.2" fill="#D7263D"/>
<circle cx="703.12" cy="184.86" r="3.2" fill="#D7263D"/>
<circle cx="707.29" cy="184.86" r="3.2" fill="#D7263D"/>
<circle cx="711.46" cy="184.86" r="3.2" fill="#D7263D"/>
<circle cx="715.63" cy="184.86" r="3.2" fill="#D7263D"/>
<circle cx="719.80" cy="184.86" r="3.2" fill="#D7263D"/>
<circle cx="723.97" cy="184.86" r="3.2" fill="#D7263D"/>
<circle cx="728.14" cy="184.86" r="3.2" fill="#D7263D"/>
<circle cx="732.31" cy="184.86" r="3.2" fill="#D7263D"/>
<circle cx="736.48" cy="184.86" r="3.2" fill="#D7263D"/>
<circle cx="740.65" cy="184.86" r="3.2" fill="#D7263D"/>
<circle cx="744.82" cy="184.86" r="3.2" fill="#D7263D"/>
<circle cx="748.99" cy="184.86" r="3.2" fill="#D7263D"/>
<circle cx="753.17" cy="184.86" r="3.2" fill="#D7263D"/>
<circle cx="757.34" cy="184.86" r="3.2" fill="#D7263D"/>
<circle cx="761.51" cy="184.86" r="3.2" fill="#D7263D"/>
<circle cx="765.68" cy="184.86" r="3.2" fill="#D7263D"/>
<circle cx="769.85" cy="184.86" r="3.2" fill="#D7263D"/>
<circle cx="774.02" cy="184.86" r="3.2" fill="#D7263D"/>
<circle cx="778.19" cy="184.86" r="3.2" fill="#D7263D"/>
<circle cx="782.36" cy="184.86" r="3.2" fill="#D7263D"/>
<circle cx="786.53" cy="184.86" r="3.2" fill="#D7263D"/>
<circle cx="790.70" cy="184.86" r="3.2" fill="#D7263D"/>
<circle cx="794.87" cy="184.86" r="3.2" fill="#D7263D"/>
<circle cx="799.05" cy="184.86" r="3.2" fill="#D7263D"/>
<circle cx="803.22" cy="184.86" r="3.2" fill="#D7263D"/>
<circle cx="807.39" cy="184.86" r="3.2" fill="#D7263D"/>
<circle cx="811.56" cy="184.86" r="3.2" fill="#D7263D"/>
<circle cx="815.73" cy="184.86" r="3.2" fill="#D7263D"/>
<circle cx="819.90" cy="184.86" r="3.2" fill="#D7263D"/>
<circle cx="824.07" cy="184.86" r="3.2" fill="#D7263D"/>
<circle cx="828.24" cy="184.86" r="3.2" fill="#D7263D"/>
<circle cx="832.41" cy="184.86" r="3.2" fill="#D7263D"/>
<circle cx="836.58" cy="184.86" r="3.2" fill="#D7263D"/>
<circle cx="840.75" cy="184.86" r="3.2" fill="#D7263D"/>
<circle cx="844.92" cy="184.86" r="3.2" fill="#D7263D"/>
<circle cx="849.10" cy="184.86" r="3.2" fill="#D7263D"/>
<circle cx="853.27" cy="184.86" r="3.2" fill="#D7263D"/>
<circle cx="857.44" cy="184.86" r="3.2" fill="#D7263D"/>
<circle cx="861.61" cy="184.86" r="3.2" fill="#D7263D"/>
<circle cx="865.78" cy="184.86" r="3.2" fill="#D7263D"/>
<circle cx="869.95" cy="184.86" r="3.2" fill="#D7263D"/>
<circle cx="874.12" cy="184.86" r="3.2" fill="#D7263D"/>
<circle cx="878.29" cy="184.86" r="3.2" fill="#D7263D"/>
<circle cx="882.46" cy="184.86" r="3.2" fill="#D7263D"/>
<circle cx="886.63" cy="184.86" r="3.2" fill="#D7263D"/>
<circle cx="890.80" cy="184.86" r="3.2" fill="#D7263D"/>
<circle cx="894.97" cy="184.86" r="3.2" fill="#D7263D"/>
<circle cx="899.15" cy="184.86" r="3.2" fill="#D7263D"/>
<circle cx="903.32" cy="184.86" r="3.2" fill="#D7263D"/>
<circle cx="907.49" cy="184.86" r="3.2" fill="#D7263D"/>
<circle cx="911.66" cy="184.86" r="3.2" fill="#D7263D"/>
<circle cx="915.83" cy="184.86" r="3.2" fill="#D7263D"/>
<circle cx="920.00" cy="184.86" r="3.2" fill="#D7263D"/>
<line x1="944" y1="136" x2="966" y2="136" stroke="#D7263D" stroke-width="4"/>
<text x="976" y="141" font-size="17" font-family="Helvetica, Arial, sans-serif" fill="#222">02 Simple DoE</text>
<text x="976" y="162" font-size="14" font-family="Helvetica, Arial, sans-serif" fill="#555">best val 0.393 / hidden 0.392</text>
<polyline fill="none" stroke="#1B998B" stroke-width="4" points="90.00,538.86 94.17,404.00 98.34,404.00 102.51,404.00 106.68,404.00 110.85,404.00 115.03,404.00 119.20,404.00 123.37,404.00 127.54,404.00 131.71,404.00 135.88,404.00 140.05,404.00 144.22,404.00 148.39,404.00 152.56,404.00 156.73,404.00 160.90,404.00 165.08,404.00 169.25,404.00 173.42,404.00 177.59,336.57 181.76,336.57 185.93,336.57 190.10,336.57 194.27,336.57 198.44,336.57 202.61,336.57 206.78,336.57 210.95,336.57 215.13,336.57 219.30,336.57 223.47,336.57 227.64,319.71 231.81,319.71 235.98,319.71 240.15,319.71 244.32,319.71 248.49,319.71 252.66,319.71 256.83,151.14 261.01,151.14 265.18,151.14 269.35,151.14 273.52,151.14 277.69,151.14 281.86,151.14 286.03,151.14 290.20,151.14 294.37,151.14 298.54,151.14 302.71,151.14 306.88,151.14 311.06,151.14 315.23,151.14 319.40,151.14 323.57,151.14 327.74,151.14 331.91,151.14 336.08,151.14 340.25,151.14 344.42,151.14 348.59,151.14 352.76,151.14 356.93,151.14 361.11,151.14 365.28,151.14 369.45,151.14 373.62,151.14 377.79,151.14 381.96,151.14 386.13,151.14 390.30,151.14 394.47,151.14 398.64,151.14 402.81,151.14 406.98,151.14 411.16,151.14 415.33,151.14 419.50,151.14 423.67,151.14 427.84,151.14 432.01,151.14 436.18,151.14 440.35,151.14 444.52,151.14 448.69,151.14 452.86,151.14 457.04,151.14 461.21,151.14 465.38,151.14 469.55,151.14 473.72,151.14 477.89,151.14 482.06,151.14 486.23,151.14 490.40,151.14 494.57,151.14 498.74,151.14 502.91,151.14 507.09,151.14 511.26,151.14 515.43,151.14 519.60,151.14 523.77,151.14 527.94,151.14 532.11,151.14 536.28,151.14 540.45,151.14 544.62,151.14 548.79,151.14 552.96,151.14 557.14,151.14 561.31,151.14 565.48,151.14 569.65,151.14 573.82,151.14 577.99,151.14 582.16,151.14 586.33,151.14 590.50,151.14 594.67,151.14 598.84,151.14 603.02,151.14 607.19,151.14 611.36,151.14 615.53,151.14 619.70,151.14 623.87,151.14 628.04,151.14 632.21,151.14 636.38,151.14 640.55,151.14 644.72,151.14 648.89,151.14 653.07,151.14 657.24,151.14 661.41,151.14 665.58,151.14 669.75,151.14 673.92,151.14 678.09,151.14 682.26,151.14 686.43,151.14 690.60,151.14 694.77,151.14 698.94,151.14 703.12,151.14 707.29,151.14 711.46,151.14 715.63,151.14 719.80,151.14 723.97,151.14 728.14,151.14 732.31,151.14 736.48,151.14 740.65,151.14 744.82,151.14 748.99,151.14 753.17,151.14 757.34,151.14 761.51,151.14 765.68,151.14 769.85,151.14 774.02,151.14 778.19,151.14 782.36,151.14 786.53,151.14 790.70,151.14 794.87,151.14 799.05,151.14 803.22,151.14 807.39,151.14 811.56,151.14 815.73,151.14 819.90,151.14 824.07,151.14 828.24,151.14 832.41,151.14 836.58,151.14 840.75,151.14 844.92,151.14 849.10,151.14 853.27,151.14 857.44,151.14 861.61,151.14 865.78,151.14 869.95,151.14 874.12,151.14 878.29,151.14 882.46,151.14 886.63,151.14 890.80,151.14 894.97,151.14 899.15,151.14 903.32,151.14 907.49,151.14 911.66,151.14 915.83,151.14 920.00,151.14"/>
<circle cx="90.00" cy="538.86" r="3.2" fill="#1B998B"/>
<circle cx="94.17" cy="404.00" r="3.2" fill="#1B998B"/>
<circle cx="98.34" cy="404.00" r="3.2" fill="#1B998B"/>
<circle cx="102.51" cy="404.00" r="3.2" fill="#1B998B"/>
<circle cx="106.68" cy="404.00" r="3.2" fill="#1B998B"/>
<circle cx="110.85" cy="404.00" r="3.2" fill="#1B998B"/>
<circle cx="115.03" cy="404.00" r="3.2" fill="#1B998B"/>
<circle cx="119.20" cy="404.00" r="3.2" fill="#1B998B"/>
<circle cx="123.37" cy="404.00" r="3.2" fill="#1B998B"/>
<circle cx="127.54" cy="404.00" r="3.2" fill="#1B998B"/>
<circle cx="131.71" cy="404.00" r="3.2" fill="#1B998B"/>
<circle cx="135.88" cy="404.00" r="3.2" fill="#1B998B"/>
<circle cx="140.05" cy="404.00" r="3.2" fill="#1B998B"/>
<circle cx="144.22" cy="404.00" r="3.2" fill="#1B998B"/>
<circle cx="148.39" cy="404.00" r="3.2" fill="#1B998B"/>
<circle cx="152.56" cy="404.00" r="3.2" fill="#1B998B"/>
<circle cx="156.73" cy="404.00" r="3.2" fill="#1B998B"/>
<circle cx="160.90" cy="404.00" r="3.2" fill="#1B998B"/>
<circle cx="165.08" cy="404.00" r="3.2" fill="#1B998B"/>
<circle cx="169.25" cy="404.00" r="3.2" fill="#1B998B"/>
<circle cx="173.42" cy="404.00" r="3.2" fill="#1B998B"/>
<circle cx="177.59" cy="336.57" r="3.2" fill="#1B998B"/>
<circle cx="181.76" cy="336.57" r="3.2" fill="#1B998B"/>
<circle cx="185.93" cy="336.57" r="3.2" fill="#1B998B"/>
<circle cx="190.10" cy="336.57" r="3.2" fill="#1B998B"/>
<circle cx="194.27" cy="336.57" r="3.2" fill="#1B998B"/>
<circle cx="198.44" cy="336.57" r="3.2" fill="#1B998B"/>
<circle cx="202.61" cy="336.57" r="3.2" fill="#1B998B"/>
<circle cx="206.78" cy="336.57" r="3.2" fill="#1B998B"/>
<circle cx="210.95" cy="336.57" r="3.2" fill="#1B998B"/>
<circle cx="215.13" cy="336.57" r="3.2" fill="#1B998B"/>
<circle cx="219.30" cy="336.57" r="3.2" fill="#1B998B"/>
<circle cx="223.47" cy="336.57" r="3.2" fill="#1B998B"/>
<circle cx="227.64" cy="319.71" r="3.2" fill="#1B998B"/>
<circle cx="231.81" cy="319.71" r="3.2" fill="#1B998B"/>
<circle cx="235.98" cy="319.71" r="3.2" fill="#1B998B"/>
<circle cx="240.15" cy="319.71" r="3.2" fill="#1B998B"/>
<circle cx="244.32" cy="319.71" r="3.2" fill="#1B998B"/>
<circle cx="248.49" cy="319.71" r="3.2" fill="#1B998B"/>
<circle cx="252.66" cy="319.71" r="3.2" fill="#1B998B"/>
<circle cx="256.83" cy="151.14" r="3.2" fill="#1B998B"/>
<circle cx="261.01" cy="151.14" r="3.2" fill="#1B998B"/>
<circle cx="265.18" cy="151.14" r="3.2" fill="#1B998B"/>
<circle cx="269.35" cy="151.14" r="3.2" fill="#1B998B"/>
<circle cx="273.52" cy="151.14" r="3.2" fill="#1B998B"/>
<circle cx="277.69" cy="151.14" r="3.2" fill="#1B998B"/>
<circle cx="281.86" cy="151.14" r="3.2" fill="#1B998B"/>
<circle cx="286.03" cy="151.14" r="3.2" fill="#1B998B"/>
<circle cx="290.20" cy="151.14" r="3.2" fill="#1B998B"/>
<circle cx="294.37" cy="151.14" r="3.2" fill="#1B998B"/>
<circle cx="298.54" cy="151.14" r="3.2" fill="#1B998B"/>
<circle cx="302.71" cy="151.14" r="3.2" fill="#1B998B"/>
<circle cx="306.88" cy="151.14" r="3.2" fill="#1B998B"/>
<circle cx="311.06" cy="151.14" r="3.2" fill="#1B998B"/>
<circle cx="315.23" cy="151.14" r="3.2" fill="#1B998B"/>
<circle cx="319.40" cy="151.14" r="3.2" fill="#1B998B"/>
<circle cx="323.57" cy="151.14" r="3.2" fill="#1B998B"/>
<circle cx="327.74" cy="151.14" r="3.2" fill="#1B998B"/>
<circle cx="331.91" cy="151.14" r="3.2" fill="#1B998B"/>
<circle cx="336.08" cy="151.14" r="3.2" fill="#1B998B"/>
<circle cx="340.25" cy="151.14" r="3.2" fill="#1B998B"/>
<circle cx="344.42" cy="151.14" r="3.2" fill="#1B998B"/>
<circle cx="348.59" cy="151.14" r="3.2" fill="#1B998B"/>
<circle cx="352.76" cy="151.14" r="3.2" fill="#1B998B"/>
<circle cx="356.93" cy="151.14" r="3.2" fill="#1B998B"/>
<circle cx="361.11" cy="151.14" r="3.2" fill="#1B998B"/>
<circle cx="365.28" cy="151.14" r="3.2" fill="#1B998B"/>
<circle cx="369.45" cy="151.14" r="3.2" fill="#1B998B"/>
<circle cx="373.62" cy="151.14" r="3.2" fill="#1B998B"/>
<circle cx="377.79" cy="151.14" r="3.2" fill="#1B998B"/>
<circle cx="381.96" cy="151.14" r="3.2" fill="#1B998B"/>
<circle cx="386.13" cy="151.14" r="3.2" fill="#1B998B"/>
<circle cx="390.30" cy="151.14" r="3.2" fill="#1B998B"/>
<circle cx="394.47" cy="151.14" r="3.2" fill="#1B998B"/>
<circle cx="398.64" cy="151.14" r="3.2" fill="#1B998B"/>
<circle cx="402.81" cy="151.14" r="3.2" fill="#1B998B"/>
<circle cx="406.98" cy="151.14" r="3.2" fill="#1B998B"/>
<circle cx="411.16" cy="151.14" r="3.2" fill="#1B998B"/>
<circle cx="415.33" cy="151.14" r="3.2" fill="#1B998B"/>
<circle cx="419.50" cy="151.14" r="3.2" fill="#1B998B"/>
<circle cx="423.67" cy="151.14" r="3.2" fill="#1B998B"/>
<circle cx="427.84" cy="151.14" r="3.2" fill="#1B998B"/>
<circle cx="432.01" cy="151.14" r="3.2" fill="#1B998B"/>
<circle cx="436.18" cy="151.14" r="3.2" fill="#1B998B"/>
<circle cx="440.35" cy="151.14" r="3.2" fill="#1B998B"/>
<circle cx="444.52" cy="151.14" r="3.2" fill="#1B998B"/>
<circle cx="448.69" cy="151.14" r="3.2" fill="#1B998B"/>
<circle cx="452.86" cy="151.14" r="3.2" fill="#1B998B"/>
<circle cx="457.04" cy="151.14" r="3.2" fill="#1B998B"/>
<circle cx="461.21" cy="151.14" r="3.2" fill="#1B998B"/>
<circle cx="465.38" cy="151.14" r="3.2" fill="#1B998B"/>
<circle cx="469.55" cy="151.14" r="3.2" fill="#1B998B"/>
<circle cx="473.72" cy="151.14" r="3.2" fill="#1B998B"/>
<circle cx="477.89" cy="151.14" r="3.2" fill="#1B998B"/>
<circle cx="482.06" cy="151.14" r="3.2" fill="#1B998B"/>
<circle cx="486.23" cy="151.14" r="3.2" fill="#1B998B"/>
<circle cx="490.40" cy="151.14" r="3.2" fill="#1B998B"/>
<circle cx="494.57" cy="151.14" r="3.2" fill="#1B998B"/>
<circle cx="498.74" cy="151.14" r="3.2" fill="#1B998B"/>
<circle cx="502.91" cy="151.14" r="3.2" fill="#1B998B"/>
<circle cx="507.09" cy="151.14" r="3.2" fill="#1B998B"/>
<circle cx="511.26" cy="151.14" r="3.2" fill="#1B998B"/>
<circle cx="515.43" cy="151.14" r="3.2" fill="#1B998B"/>
<circle cx="519.60" cy="151.14" r="3.2" fill="#1B998B"/>
<circle cx="523.77" cy="151.14" r="3.2" fill="#1B998B"/>
<circle cx="527.94" cy="151.14" r="3.2" fill="#1B998B"/>
<circle cx="532.11" cy="151.14" r="3.2" fill="#1B998B"/>
<circle cx="536.28" cy="151.14" r="3.2" fill="#1B998B"/>
<circle cx="540.45" cy="151.14" r="3.2" fill="#1B998B"/>
<circle cx="544.62" cy="151.14" r="3.2" fill="#1B998B"/>
<circle cx="548.79" cy="151.14" r="3.2" fill="#1B998B"/>
<circle cx="552.96" cy="151.14" r="3.2" fill="#1B998B"/>
<circle cx="557.14" cy="151.14" r="3.2" fill="#1B998B"/>
<circle cx="561.31" cy="151.14" r="3.2" fill="#1B998B"/>
<circle cx="565.48" cy="151.14" r="3.2" fill="#1B998B"/>
<circle cx="569.65" cy="151.14" r="3.2" fill="#1B998B"/>
<circle cx="573.82" cy="151.14" r="3.2" fill="#1B998B"/>
<circle cx="577.99" cy="151.14" r="3.2" fill="#1B998B"/>
<circle cx="582.16" cy="151.14" r="3.2" fill="#1B998B"/>
<circle cx="586.33" cy="151.14" r="3.2" fill="#1B998B"/>
<circle cx="590.50" cy="151.14" r="3.2" fill="#1B998B"/>
<circle cx="594.67" cy="151.14" r="3.2" fill="#1B998B"/>
<circle cx="598.84" cy="151.14" r="3.2" fill="#1B998B"/>
<circle cx="603.02" cy="151.14" r="3.2" fill="#1B998B"/>
<circle cx="607.19" cy="151.14" r="3.2" fill="#1B998B"/>
<circle cx="611.36" cy="151.14" r="3.2" fill="#1B998B"/>
<circle cx="615.53" cy="151.14" r="3.2" fill="#1B998B"/>
<circle cx="619.70" cy="151.14" r="3.2" fill="#1B998B"/>
<circle cx="623.87" cy="151.14" r="3.2" fill="#1B998B"/>
<circle cx="628.04" cy="151.14" r="3.2" fill="#1B998B"/>
<circle cx="632.21" cy="151.14" r="3.2" fill="#1B998B"/>
<circle cx="636.38" cy="151.14" r="3.2" fill="#1B998B"/>
<circle cx="640.55" cy="151.14" r="3.2" fill="#1B998B"/>
<circle cx="644.72" cy="151.14" r="3.2" fill="#1B998B"/>
<circle cx="648.89" cy="151.14" r="3.2" fill="#1B998B"/>
<circle cx="653.07" cy="151.14" r="3.2" fill="#1B998B"/>
<circle cx="657.24" cy="151.14" r="3.2" fill="#1B998B"/>
<circle cx="661.41" cy="151.14" r="3.2" fill="#1B998B"/>
<circle cx="665.58" cy="151.14" r="3.2" fill="#1B998B"/>
<circle cx="669.75" cy="151.14" r="3.2" fill="#1B998B"/>
<circle cx="673.92" cy="151.14" r="3.2" fill="#1B998B"/>
<circle cx="678.09" cy="151.14" r="3.2" fill="#1B998B"/>
<circle cx="682.26" cy="151.14" r="3.2" fill="#1B998B"/>
<circle cx="686.43" cy="151.14" r="3.2" fill="#1B998B"/>
<circle cx="690.60" cy="151.14" r="3.2" fill="#1B998B"/>
<circle cx="694.77" cy="151.14" r="3.2" fill="#1B998B"/>
<circle cx="698.94" cy="151.14" r="3.2" fill="#1B998B"/>
<circle cx="703.12" cy="151.14" r="3.2" fill="#1B998B"/>
<circle cx="707.29" cy="151.14" r="3.2" fill="#1B998B"/>
<circle cx="711.46" cy="151.14" r="3.2" fill="#1B998B"/>
<circle cx="715.63" cy="151.14" r="3.2" fill="#1B998B"/>
<circle cx="719.80" cy="151.14" r="3.2" fill="#1B998B"/>
<circle cx="723.97" cy="151.14" r="3.2" fill="#1B998B"/>
<circle cx="728.14" cy="151.14" r="3.2" fill="#1B998B"/>
<circle cx="732.31" cy="151.14" r="3.2" fill="#1B998B"/>
<circle cx="736.48" cy="151.14" r="3.2" fill="#1B998B"/>
<circle cx="740.65" cy="151.14" r="3.2" fill="#1B998B"/>
<circle cx="744.82" cy="151.14" r="3.2" fill="#1B998B"/>
<circle cx="748.99" cy="151.14" r="3.2" fill="#1B998B"/>
<circle cx="753.17" cy="151.14" r="3.2" fill="#1B998B"/>
<circle cx="757.34" cy="151.14" r="3.2" fill="#1B998B"/>
<circle cx="761.51" cy="151.14" r="3.2" fill="#1B998B"/>
<circle cx="765.68" cy="151.14" r="3.2" fill="#1B998B"/>
<circle cx="769.85" cy="151.14" r="3.2" fill="#1B998B"/>
<circle cx="774.02" cy="151.14" r="3.2" fill="#1B998B"/>
<circle cx="778.19" cy="151.14" r="3.2" fill="#1B998B"/>
<circle cx="782.36" cy="151.14" r="3.2" fill="#1B998B"/>
<circle cx="786.53" cy="151.14" r="3.2" fill="#1B998B"/>
<circle cx="790.70" cy="151.14" r="3.2" fill="#1B998B"/>
<circle cx="794.87" cy="151.14" r="3.2" fill="#1B998B"/>
<circle cx="799.05" cy="151.14" r="3.2" fill="#1B998B"/>
<circle cx="803.22" cy="151.14" r="3.2" fill="#1B998B"/>
<circle cx="807.39" cy="151.14" r="3.2" fill="#1B998B"/>
<circle cx="811.56" cy="151.14" r="3.2" fill="#1B998B"/>
<circle cx="815.73" cy="151.14" r="3.2" fill="#1B998B"/>
<circle cx="819.90" cy="151.14" r="3.2" fill="#1B998B"/>
<circle cx="824.07" cy="151.14" r="3.2" fill="#1B998B"/>
<circle cx="828.24" cy="151.14" r="3.2" fill="#1B998B"/>
<circle cx="832.41" cy="151.14" r="3.2" fill="#1B998B"/>
<circle cx="836.58" cy="151.14" r="3.2" fill="#1B998B"/>
<circle cx="840.75" cy="151.14" r="3.2" fill="#1B998B"/>
<circle cx="844.92" cy="151.14" r="3.2" fill="#1B998B"/>
<circle cx="849.10" cy="151.14" r="3.2" fill="#1B998B"/>
<circle cx="853.27" cy="151.14" r="3.2" fill="#1B998B"/>
<circle cx="857.44" cy="151.14" r="3.2" fill="#1B998B"/>
<circle cx="861.61" cy="151.14" r="3.2" fill="#1B998B"/>
<circle cx="865.78" cy="151.14" r="3.2" fill="#1B998B"/>
<circle cx="869.95" cy="151.14" r="3.2" fill="#1B998B"/>
<circle cx="874.12" cy="151.14" r="3.2" fill="#1B998B"/>
<circle cx="878.29" cy="151.14" r="3.2" fill="#1B998B"/>
<circle cx="882.46" cy="151.14" r="3.2" fill="#1B998B"/>
<circle cx="886.63" cy="151.14" r="3.2" fill="#1B998B"/>
<circle cx="890.80" cy="151.14" r="3.2" fill="#1B998B"/>
<circle cx="894.97" cy="151.14" r="3.2" fill="#1B998B"/>
<circle cx="899.15" cy="151.14" r="3.2" fill="#1B998B"/>
<circle cx="903.32" cy="151.14" r="3.2" fill="#1B998B"/>
<circle cx="907.49" cy="151.14" r="3.2" fill="#1B998B"/>
<circle cx="911.66" cy="151.14" r="3.2" fill="#1B998B"/>
<circle cx="915.83" cy="151.14" r="3.2" fill="#1B998B"/>
<circle cx="920.00" cy="151.14" r="3.2" fill="#1B998B"/>
<line x1="944" y1="190" x2="966" y2="190" stroke="#1B998B" stroke-width="4"/>
<text x="976" y="195" font-size="17" font-family="Helvetica, Arial, sans-serif" fill="#222">03 Advanced DoE + Tic-Tac-To</text>
<text x="976" y="216" font-size="14" font-family="Helvetica, Arial, sans-serif" fill="#555">best val 0.397 / hidden 0.385</text>
</svg>