<svg xmlns="http://www.w3.org/2000/svg" width="1200" height="720" viewBox="0 0 1200 720">
<rect width="100%" height="100%" fill="#fffaf2"/>
<text x="90" y="30" font-size="28" font-family="Helvetica, Arial, sans-serif" fill="#222">CIFAR-10 MLP Best-So-Far (100 Runs, Program v1)</text>
<line x1="90" y1="50.0" x2="920" y2="50.0" stroke="#e4dccf" stroke-width="1"/>
<text x="78" y="55.0" text-anchor="end" font-size="16" font-family="Helvetica, Arial, sans-serif" fill="#444">0.382</text>
<line x1="90" y1="168.0" x2="920" y2="168.0" stroke="#e4dccf" stroke-width="1"/>
<text x="78" y="173.0" text-anchor="end" font-size="16" font-family="Helvetica, Arial, sans-serif" fill="#444">0.375</text>
<line x1="90" y1="286.0" x2="920" y2="286.0" stroke="#e4dccf" stroke-width="1"/>
<text x="78" y="291.0" text-anchor="end" font-size="16" font-family="Helvetica, Arial, sans-serif" fill="#444">0.368</text>
<line x1="90" y1="404.0" x2="920" y2="404.0" stroke="#e4dccf" stroke-width="1"/>
<text x="78" y="409.0" text-anchor="end" font-size="16" font-family="Helvetica, Arial, sans-serif" fill="#444">0.362</text>
<line x1="90" y1="522.0" x2="920" y2="522.0" stroke="#e4dccf" stroke-width="1"/>
<text x="78" y="527.0" text-anchor="end" font-size="16" font-family="Helvetica, Arial, sans-serif" fill="#444">0.355</text>
<line x1="90" y1="640.0" x2="920" y2="640.0" stroke="#e4dccf" stroke-width="1"/>
<text x="78" y="645.0" text-anchor="end" font-size="16" font-family="Helvetica, Arial, sans-serif" fill="#444">0.348</text>
<line x1="90.0" y1="50" x2="90.0" y2="640" stroke="#efe7da" stroke-width="1"/>
<text x="90.0" y="668" text-anchor="middle" font-size="16" font-family="Helvetica, Arial, sans-serif" fill="#444">1</text>
<line x1="165.5" y1="50" x2="165.5" y2="640" stroke="#efe7da" stroke-width="1"/>
<text x="165.5" y="668" text-anchor="middle" font-size="16" font-family="Helvetica, Arial, sans-serif" fill="#444">10</text>
<line x1="249.3" y1="50" x2="249.3" y2="640" stroke="#efe7da" stroke-width="1"/>
<text x="249.3" y="668" text-anchor="middle" font-size="16" font-family="Helvetica, Arial, sans-serif" fill="#444">20</text>
<line x1="333.1" y1="50" x2="333.1" y2="640" stroke="#efe7da" stroke-width="1"/>
<text x="333.1" y="668" text-anchor="middle" font-size="16" font-family="Helvetica, Arial, sans-serif" fill="#444">30</text>
<line x1="417.0" y1="50" x2="417.0" y2="640" stroke="#efe7da" stroke-width="1"/>
<text x="417.0" y="668" text-anchor="middle" font-size="16" font-family="Helvetica, Arial, sans-serif" fill="#444">40</text>
<line x1="500.8" y1="50" x2="500.8" y2="640" stroke="#efe7da" stroke-width="1"/>
<text x="500.8" y="668" text-anchor="middle" font-size="16" font-family="Helvetica, Arial, sans-serif" fill="#444">50</text>
<line x1="710.4" y1="50" x2="710.4" y2="640" stroke="#efe7da" stroke-width="1"/>
<text x="710.4" y="668" text-anchor="middle" font-size="16" font-family="Helvetica, Arial, sans-serif" fill="#444">75</text>
<line x1="920.0" y1="50" x2="920.0" y2="640" stroke="#efe7da" stroke-width="1"/>
<text x="920.0" y="668" text-anchor="middle" font-size="16" font-family="Helvetica, Arial, sans-serif" fill="#444">100</text>
<text x="505.0" y="698" text-anchor="middle" font-size="18" font-family="Helvetica, Arial, sans-serif" fill="#333">Round</text>
<text x="24" y="345.0" transform="rotate(-90 24 345.0)" text-anchor="middle" font-size="18" font-family="Helvetica, Arial, sans-serif" fill="#333">Validation Accuracy</text>
<polyline fill="none" stroke="#1768AC" stroke-width="4" points="90.00,463.00 98.38,227.00 106.77,227.00 115.15,227.00 123.54,227.00 131.92,227.00 140.30,227.00 148.69,227.00 157.07,227.00 165.45,227.00 173.84,227.00 182.22,227.00 190.61,227.00 198.99,227.00 207.37,227.00 215.76,227.00 224.14,227.00 232.53,227.00 240.91,227.00 249.29,227.00 257.68,227.00 266.06,227.00 274.44,227.00 282.83,227.00 291.21,227.00 299.60,227.00 307.98,227.00 316.36,227.00 324.75,227.00 333.13,227.00 341.52,227.00 349.90,227.00 358.28,227.00 366.67,227.00 375.05,227.00 383.43,227.00 391.82,227.00 400.20,227.00 408.59,227.00 416.97,227.00 425.35,227.00 433.74,227.00 442.12,227.00 450.51,227.00 458.89,227.00 467.27,227.00 475.66,227.00 484.04,227.00 492.42,227.00 500.81,227.00 509.19,227.00 517.58,227.00 525.96,227.00 534.34,227.00 542.73,227.00 551.11,227.00 559.49,227.00 567.88,227.00 576.26,227.00 584.65,227.00 593.03,227.00 601.41,227.00 609.80,227.00 618.18,227.00 626.57,227.00 634.95,227.00 643.33,227.00 651.72,227.00 660.10,227.00 668.48,227.00 676.87,227.00 685.25,227.00 693.64,227.00 702.02,227.00 710.40,227.00 718.79,227.00 727.17,227.00 735.56,227.00 743.94,227.00 752.32,227.00 760.71,227.00 769.09,227.00 777.47,227.00 785.86,227.00 794.24,227.00 802.63,227.00 811.01,227.00 819.39,227.00 827.78,227.00 836.16,227.00 844.55,227.00 852.93,227.00 861.31,227.00 869.70,227.00 878.08,227.00 886.46,227.00 894.85,227.00 903.23,227.00 911.62,227.00 920.00,227.00"/>
<circle cx="90.00" cy="463.00" r="3.2" fill="#1768AC"/>
<circle cx="98.38" cy="227.00" r="3.2" fill="#1768AC"/>
<circle cx="106.77" cy="227.00" r="3.2" fill="#1768AC"/>
<circle cx="115.15" cy="227.00" r="3.2" fill="#1768AC"/>
<circle cx="123.54" cy="227.00" r="3.2" fill="#1768AC"/>
<circle cx="131.92" cy="227.00" r="3.2" fill="#1768AC"/>
<circle cx="140.30" cy="227.00" r="3.2" fill="#1768AC"/>
<circle cx="148.69" cy="227.00" r="3.2" fill="#1768AC"/>
<circle cx="157.07" cy="227.00" r="3.2" fill="#1768AC"/>
<circle cx="165.45" cy="227.00" r="3.2" fill="#1768AC"/>
<circle cx="173.84" cy="227.00" r="3.2" fill="#1768AC"/>
<circle cx="182.22" cy="227.00" r="3.2" fill="#1768AC"/>
<circle cx="190.61" cy="227.00" r="3.2" fill="#1768AC"/>
<circle cx="198.99" cy="227.00" r="3.2" fill="#1768AC"/>
<circle cx="207.37" cy="227.00" r="3.2" fill="#1768AC"/>
<circle cx="215.76" cy="227.00" r="3.2" fill="#1768AC"/>
<circle cx="224.14" cy="227.00" r="3.2" fill="#1768AC"/>
<circle cx="232.53" cy="227.00" r="3.2" fill="#1768AC"/>
<circle cx="240.91" cy="227.00" r="3.2" fill="#1768AC"/>
<circle cx="249.29" cy="227.00" r="3.2" fill="#1768AC"/>
<circle cx="257.68" cy="227.00" r="3.2" fill="#1768AC"/>
<circle cx="266.06" cy="227.00" r="3.2" fill="#1768AC"/>
<circle cx="274.44" cy="227.00" r="3.2" fill="#1768AC"/>
<circle cx="282.83" cy="227.00" r="3.2" fill="#1768AC"/>
<circle cx="291.21" cy="227.00" r="3.2" fill="#1768AC"/>
<circle cx="299.60" cy="227.00" r="3.2" fill="#1768AC"/>
<circle cx="307.98" cy="227.00" r="3.2" fill="#1768AC"/>
<circle cx="316.36" cy="227.00" r="3.2" fill="#1768AC"/>
<circle cx="324.75" cy="227.00" r="3.2" fill="#1768AC"/>
<circle cx="333.13" cy="227.00" r="3.2" fill="#1768AC"/>
<circle cx="341.52" cy="227.00" r="3.2" fill="#1768AC"/>
<circle cx="349.90" cy="227.00" r="3.2" fill="#1768AC"/>
<circle cx="358.28" cy="227.00" r="3.2" fill="#1768AC"/>
<circle cx="366.67" cy="227.00" r="3.2" fill="#1768AC"/>
<circle cx="375.05" cy="227.00" r="3.2" fill="#1768AC"/>
<circle cx="383.43" cy="227.00" r="3.2" fill="#1768AC"/>
<circle cx="391.82" cy="227.00" r="3.2" fill="#1768AC"/>
<circle cx="400.20" cy="227.00" r="3.2" fill="#1768AC"/>
<circle cx="408.59" cy="227.00" r="3.2" fill="#1768AC"/>
<circle cx="416.97" cy="227.00" r="3.2" fill="#1768AC"/>
<circle cx="425.35" cy="227.00" r="3.2" fill="#1768AC"/>
<circle cx="433.74" cy="227.00" r="3.2" fill="#1768AC"/>
<circle cx="442.12" cy="227.00" r="3.2" fill="#1768AC"/>
<circle cx="450.51" cy="227.00" r="3.2" fill="#1768AC"/>
<circle cx="458.89" cy="227.00" r="3.2" fill="#1768AC"/>
<circle cx="467.27" cy="227.00" r="3.2" fill="#1768AC"/>
<circle cx="475.66" cy="227.00" r="3.2" fill="#1768AC"/>
<circle cx="484.04" cy="227.00" r="3.2" fill="#1768AC"/>
<circle cx="492.42" cy="227.00" r="3.2" fill="#1768AC"/>
<circle cx="500.81" cy="227.00" r="3.2" fill="#1768AC"/>
<circle cx="509.19" cy="227.00" r="3.2" fill="#1768AC"/>
<circle cx="517.58" cy="227.00" r="3.2" fill="#1768AC"/>
<circle cx="525.96" cy="227.00" r="3.2" fill="#1768AC"/>
<circle cx="534.34" cy="227.00" r="3.2" fill="#1768AC"/>
<circle cx="542.73" cy="227.00" r="3.2" fill="#1768AC"/>
<circle cx="551.11" cy="227.00" r="3.2" fill="#1768AC"/>
<circle cx="559.49" cy="227.00" r="3.2" fill="#1768AC"/>
<circle cx="567.88" cy="227.00" r="3.2" fill="#1768AC"/>
<circle cx="576.26" cy="227.00" r="3.2" fill="#1768AC"/>
<circle cx="584.65" cy="227.00" r="3.2" fill="#1768AC"/>
<circle cx="593.03" cy="227.00" r="3.2" fill="#1768AC"/>
<circle cx="601.41" cy="227.00" r="3.2" fill="#1768AC"/>
<circle cx="609.80" cy="227.00" r="3.2" fill="#1768AC"/>
<circle cx="618.18" cy="227.00" r="3.2" fill="#1768AC"/>
<circle cx="626.57" cy="227.00" r="3.2" fill="#1768AC"/>
<circle cx="634.95" cy="227.00" r="3.2" fill="#1768AC"/>
<circle cx="643.33" cy="227.00" r="3.2" fill="#1768AC"/>
<circle cx="651.72" cy="227.00" r="3.2" fill="#1768AC"/>
<circle cx="660.10" cy="227.00" r="3.2" fill="#1768AC"/>
<circle cx="668.48" cy="227.00" r="3.2" fill="#1768AC"/>
<circle cx="676.87" cy="227.00" r="3.2" fill="#1768AC"/>
<circle cx="685.25" cy="227.00" r="3.2" fill="#1768AC"/>
<circle cx="693.64" cy="227.00" r="3.2" fill="#1768AC"/>
<circle cx="702.02" cy="227.00" r="3.2" fill="#1768AC"/>
<circle cx="710.40" cy="227.00" r="3.2" fill="#1768AC"/>
<circle cx="718.79" cy="227.00" r="3.2" fill="#1768AC"/>
<circle cx="727.17" cy="227.00" r="3.2" fill="#1768AC"/>
<circle cx="735.56" cy="227.00" r="3.2" fill="#1768AC"/>
<circle cx="743.94" cy="227.00" r="3.2" fill="#1768AC"/>
<circle cx="752.32" cy="227.00" r="3.2" fill="#1768AC"/>
<circle cx="760.71" cy="227.00" r="3.2" fill="#1768AC"/>
<circle cx="769.09" cy="227.00" r="3.2" fill="#1768AC"/>
<circle cx="777.47" cy="227.00" r="3.2" fill="#1768AC"/>
<circle cx="785.86" cy="227.00" r="3.2" fill="#1768AC"/>
<circle cx="794.24" cy="227.00" r="3.2" fill="#1768AC"/>
<circle cx="802.63" cy="227.00" r="3.2" fill="#1768AC"/>
<circle cx="811.01" cy="227.00" r="3.2" fill="#1768AC"/>
<circle cx="819.39" cy="227.00" r="3.2" fill="#1768AC"/>
<circle cx="827.78" cy="227.00" r="3.2" fill="#1768AC"/>
<circle cx="836.16" cy="227.00" r="3.2" fill="#1768AC"/>
<circle cx="844.55" cy="227.00" r="3.2" fill="#1768AC"/>
<circle cx="852.93" cy="227.00" r="3.2" fill="#1768AC"/>
<circle cx="861.31" cy="227.00" r="3.2" fill="#1768AC"/>
<circle cx="869.70" cy="227.00" r="3.2" fill="#1768AC"/>
<circle cx="878.08" cy="227.00" r="3.2" fill="#1768AC"/>
<circle cx="886.46" cy="227.00" r="3.2" fill="#1768AC"/>
<circle cx="894.85" cy="227.00" r="3.2" fill="#1768AC"/>
<circle cx="903.23" cy="227.00" r="3.2" fill="#1768AC"/>
<circle cx="911.62" cy="227.00" r="3.2" fill="#1768AC"/>
<circle cx="920.00" cy="227.00" r="3.2" fill="#1768AC"/>
<line x1="944" y1="82" x2="966" y2="82" stroke="#1768AC" stroke-width="4"/>
<text x="976" y="87" font-size="17" font-family="Helvetica, Arial, sans-serif" fill="#222">01 Ratchet</text>
<text x="976" y="108" font-size="14" font-family="Helvetica, Arial, sans-serif" fill="#555">best val 0.372 / hidden 0.342</text>
<polyline fill="none" stroke="#D7263D" stroke-width="4" points="90.00,463.00 98.38,227.00 106.77,227.00 115.15,227.00 123.54,227.00 131.92,227.00 140.30,227.00 148.69,227.00 157.07,227.00 165.45,227.00 173.84,227.00 182.22,227.00 190.61,227.00 198.99,227.00 207.37,227.00 215.76,227.00 224.14,227.00 232.53,227.00 240.91,227.00 249.29,227.00 257.68,227.00 266.06,227.00 274.44,227.00 282.83,227.00 291.21,227.00 299.60,227.00 307.98,227.00 316.36,227.00 324.75,227.00 333.13,227.00 341.52,227.00 349.90,227.00 358.28,227.00 366.67,227.00 375.05,227.00 383.43,227.00 391.82,227.00 400.20,227.00 408.59,227.00 416.97,227.00 425.35,227.00 433.74,227.00 442.12,227.00 450.51,227.00 458.89,227.00 467.27,227.00 475.66,227.00 484.04,227.00 492.42,227.00 500.81,227.00 509.19,227.00 517.58,227.00 525.96,227.00 534.34,227.00 542.73,227.00 551.11,227.00 559.49,227.00 567.88,227.00 576.26,227.00 584.65,227.00 593.03,227.00 601.41,227.00 609.80,227.00 618.18,227.00 626.57,227.00 634.95,227.00 643.33,227.00 651.72,227.00 660.10,227.00 668.48,227.00 676.87,227.00 685.25,227.00 693.64,227.00 702.02,227.00 710.40,227.00 718.79,227.00 727.17,227.00 735.56,227.00 743.94,227.00 752.32,227.00 760.71,227.00 769.09,227.00 777.47,227.00 785.86,227.00 794.24,227.00 802.63,227.00 811.01,227.00 819.39,227.00 827.78,227.00 836.16,227.00 844.55,227.00 852.93,227.00 861.31,227.00 869.70,227.00 878.08,227.00 886.46,227.00 894.85,227.00 903.23,227.00 911.62,227.00 920.00,227.00"/>
<circle cx="90.00" cy="463.00" r="3.2" fill="#D7263D"/>
<circle cx="98.38" cy="227.00" r="3.2" fill="#D7263D"/>
<circle cx="106.77" cy="227.00" r="3.2" fill="#D7263D"/>
<circle cx="115.15" cy="227.00" r="3.2" fill="#D7263D"/>
<circle cx="123.54" cy="227.00" r="3.2" fill="#D7263D"/>
<circle cx="131.92" cy="227.00" r="3.2" fill="#D7263D"/>
<circle cx="140.30" cy="227.00" r="3.2" fill="#D7263D"/>
<circle cx="148.69" cy="227.00" r="3.2" fill="#D7263D"/>
<circle cx="157.07" cy="227.00" r="3.2" fill="#D7263D"/>
<circle cx="165.45" cy="227.00" r="3.2" fill="#D7263D"/>
<circle cx="173.84" cy="227.00" r="3.2" fill="#D7263D"/>
<circle cx="182.22" cy="227.00" r="3.2" fill="#D7263D"/>
<circle cx="190.61" cy="227.00" r="3.2" fill="#D7263D"/>
<circle cx="198.99" cy="227.00" r="3.2" fill="#D7263D"/>
<circle cx="207.37" cy="227.00" r="3.2" fill="#D7263D"/>
<circle cx="215.76" cy="227.00" r="3.2" fill="#D7263D"/>
<circle cx="224.14" cy="227.00" r="3.2" fill="#D7263D"/>
<circle cx="232.53" cy="227.00" r="3.2" fill="#D7263D"/>
<circle cx="240.91" cy="227.00" r="3.2" fill="#D7263D"/>
<circle cx="249.29" cy="227.00" r="3.2" fill="#D7263D"/>
<circle cx="257.68" cy="227.00" r="3.2" fill="#D7263D"/>
<circle cx="266.06" cy="227.00" r="3.2" fill="#D7263D"/>
<circle cx="274.44" cy="227.00" r="3.2" fill="#D7263D"/>
<circle cx="282.83" cy="227.00" r="3.2" fill="#D7263D"/>
<circle cx="291.21" cy="227.00" r="3.2" fill="#D7263D"/>
<circle cx="299.60" cy="227.00" r="3.2" fill="#D7263D"/>
<circle cx="307.98" cy="227.00" r="3.2" fill="#D7263D"/>
<circle cx="316.36" cy="227.00" r="3.2" fill="#D7263D"/>
<circle cx="324.75" cy="227.00" r="3.2" fill="#D7263D"/>
<circle cx="333.13" cy="227.00" r="3.2" fill="#D7263D"/>
<circle cx="341.52" cy="227.00" r="3.2" fill="#D7263D"/>
<circle cx="349.90" cy="227.00" r="3.2" fill="#D7263D"/>
<circle cx="358.28" cy="227.00" r="3.2" fill="#D7263D"/>
<circle cx="366.67" cy="227.00" r="3.2" fill="#D7263D"/>
<circle cx="375.05" cy="227.00" r="3.2" fill="#D7263D"/>
<circle cx="383.43" cy="227.00" r="3.2" fill="#D7263D"/>
<circle cx="391.82" cy="227.00" r="3.2" fill="#D7263D"/>
<circle cx="400.20" cy="227.00" r="3.2" fill="#D7263D"/>
<circle cx="408.59" cy="227.00" r="3.2" fill="#D7263D"/>
<circle cx="416.97" cy="227.00" r="3.2" fill="#D7263D"/>
<circle cx="425.35" cy="227.00" r="3.2" fill="#D7263D"/>
<circle cx="433.74" cy="227.00" r="3.2" fill="#D7263D"/>
<circle cx="442.12" cy="227.00" r="3.2" fill="#D7263D"/>
<circle cx="450.51" cy="227.00" r="3.2" fill="#D7263D"/>
<circle cx="458.89" cy="227.00" r="3.2" fill="#D7263D"/>
<circle cx="467.27" cy="227.00" r="3.2" fill="#D7263D"/>
<circle cx="475.66" cy="227.00" r="3.2" fill="#D7263D"/>
<circle cx="484.04" cy="227.00" r="3.2" fill="#D7263D"/>
<circle cx="492.42" cy="227.00" r="3.2" fill="#D7263D"/>
<circle cx="500.81" cy="227.00" r="3.2" fill="#D7263D"/>
<circle cx="509.19" cy="227.00" r="3.2" fill="#D7263D"/>
<circle cx="517.58" cy="227.00" r="3.2" fill="#D7263D"/>
<circle cx="525.96" cy="227.00" r="3.2" fill="#D7263D"/>
<circle cx="534.34" cy="227.00" r="3.2" fill="#D7263D"/>
<circle cx="542.73" cy="227.00" r="3.2" fill="#D7263D"/>
<circle cx="551.11" cy="227.00" r="3.2" fill="#D7263D"/>
<circle cx="559.49" cy="227.00" r="3.2" fill="#D7263D"/>
<circle cx="567.88" cy="227.00" r="3.2" fill="#D7263D"/>
<circle cx="576.26" cy="227.00" r="3.2" fill="#D7263D"/>
<circle cx="584.65" cy="227.00" r="3.2" fill="#D7263D"/>
<circle cx="593.03" cy="227.00" r="3.2" fill="#D7263D"/>
<circle cx="601.41" cy="227.00" r="3.2" fill="#D7263D"/>
<circle cx="609.80" cy="227.00" r="3.2" fill="#D7263D"/>
<circle cx="618.18" cy="227.00" r="3.2" fill="#D7263D"/>
<circle cx="626.57" cy="227.00" r="3.2" fill="#D7263D"/>
<circle cx="634.95" cy="227.00" r="3.2" fill="#D7263D"/>
<circle cx="643.33" cy="227.00" r="3.2" fill="#D7263D"/>
<circle cx="651.72" cy="227.00" r="3.2" fill="#D7263D"/>
<circle cx="660.10" cy="227.00" r="3.2" fill="#D7263D"/>
<circle cx="668.48" cy="227.00" r="3.2" fill="#D7263D"/>
<circle cx="676.87" cy="227.00" r="3.2" fill="#D7263D"/>
<circle cx="685.25" cy="227.00" r="3.2" fill="#D7263D"/>
<circle cx="693.64" cy="227.00" r="3.2" fill="#D7263D"/>
<circle cx="702.02" cy="227.00" r="3.2" fill="#D7263D"/>
<circle cx="710.40" cy="227.00" r="3.2" fill="#D7263D"/>
<circle cx="718.79" cy="227.00" r="3.2" fill="#D7263D"/>
<circle cx="727.17" cy="227.00" r="3.2" fill="#D7263D"/>
<circle cx="735.56" cy="227.00" r="3.2" fill="#D7263D"/>
<circle cx="743.94" cy="227.00" r="3.2" fill="#D7263D"/>
<circle cx="752.32" cy="227.00" r="3.2" fill="#D7263D"/>
<circle cx="760.71" cy="227.00" r="3.2" fill="#D7263D"/>
<circle cx="769.09" cy="227.00" r="3.2" fill="#D7263D"/>
<circle cx="777.47" cy="227.00" r="3.2" fill="#D7263D"/>
<circle cx="785.86" cy="227.00" r="3.2" fill="#D7263D"/>
<circle cx="794.24" cy="227.00" r="3.2" fill="#D7263D"/>
<circle cx="802.63" cy="227.00" r="3.2" fill="#D7263D"/>
<circle cx="811.01" cy="227.00" r="3.2" fill="#D7263D"/>
<circle cx="819.39" cy="227.00" r="3.2" fill="#D7263D"/>
<circle cx="827.78" cy="227.00" r="3.2" fill="#D7263D"/>
<circle cx="836.16" cy="227.00" r="3.2" fill="#D7263D"/>
<circle cx="844.55" cy="227.00" r="3.2" fill="#D7263D"/>
<circle cx="852.93" cy="227.00" r="3.2" fill="#D7263D"/>
<circle cx="861.31" cy="227.00" r="3.2" fill="#D7263D"/>
<circle cx="869.70" cy="227.00" r="3.2" fill="#D7263D"/>
<circle cx="878.08" cy="227.00" r="3.2" fill="#D7263D"/>
<circle cx="886.46" cy="227.00" r="3.2" fill="#D7263D"/>
<circle cx="894.85" cy="227.00" r="3.2" fill="#D7263D"/>
<circle cx="903.23" cy="227.00" r="3.2" fill="#D7263D"/>
<circle cx="911.62" cy="227.00" r="3.2" fill="#D7263D"/>
<circle cx="920.00" cy="227.00" r="3.2" fill="#D7263D"/>
<line x1="944" y1="136" x2="966" y2="136" stroke="#D7263D" stroke-width="4"/>
<text x="976" y="141" font-size="17" font-family="Helvetica, Arial, sans-serif" fill="#222">02 Screening DoE</text>
<text x="976" y="162" font-size="14" font-family="Helvetica, Arial, sans-serif" fill="#555">best val 0.372 / hidden 0.342</text>
<polyline fill="none" stroke="#1B998B" stroke-width="4" points="90.00,463.00 98.38,227.00 106.77,227.00 115.15,227.00 123.54,227.00 131.92,227.00 140.30,227.00 148.69,227.00 157.07,227.00 165.45,227.00 173.84,227.00 182.22,227.00 190.61,227.00 198.99,227.00 207.37,227.00 215.76,227.00 224.14,227.00 232.53,227.00 240.91,227.00 249.29,227.00 257.68,227.00 266.06,227.00 274.44,227.00 282.83,227.00 291.21,227.00 299.60,227.00 307.98,227.00 316.36,227.00 324.75,227.00 333.13,227.00 341.52,227.00 349.90,227.00 358.28,227.00 366.67,227.00 375.05,227.00 383.43,227.00 391.82,227.00 400.20,227.00 408.59,227.00 416.97,227.00 425.35,227.00 433.74,227.00 442.12,227.00 450.51,227.00 458.89,227.00 467.27,227.00 475.66,227.00 484.04,227.00 492.42,227.00 500.81,227.00 509.19,227.00 517.58,227.00 525.96,227.00 534.34,227.00 542.73,227.00 551.11,227.00 559.49,227.00 567.88,227.00 576.26,227.00 584.65,227.00 593.03,227.00 601.41,227.00 609.80,227.00 618.18,227.00 626.57,227.00 634.95,227.00 643.33,227.00 651.72,227.00 660.10,227.00 668.48,227.00 676.87,227.00 685.25,227.00 693.64,227.00 702.02,227.00 710.40,227.00 718.79,227.00 727.17,227.00 735.56,227.00 743.94,227.00 752.32,227.00 760.71,227.00 769.09,227.00 777.47,227.00 785.86,227.00 794.24,227.00 802.63,227.00 811.01,227.00 819.39,227.00 827.78,227.00 836.16,227.00 844.55,227.00 852.93,227.00 861.31,227.00 869.70,227.00 878.08,227.00 886.46,227.00 894.85,227.00 903.23,227.00 911.62,227.00 920.00,227.00"/>
<circle cx="90.00" cy="463.00" r="3.2" fill="#1B998B"/>
<circle cx="98.38" cy="227.00" r="3.2" fill="#1B998B"/>
<circle cx="106.77" cy="227.00" r="3.2" fill="#1B998B"/>
<circle cx="115.15" cy="227.00" r="3.2" fill="#1B998B"/>
<circle cx="123.54" cy="227.00" r="3.2" fill="#1B998B"/>
<circle cx="131.92" cy="227.00" r="3.2" fill="#1B998B"/>
<circle cx="140.30" cy="227.00" r="3.2" fill="#1B998B"/>
<circle cx="148.69" cy="227.00" r="3.2" fill="#1B998B"/>
<circle cx="157.07" cy="227.00" r="3.2" fill="#1B998B"/>
<circle cx="165.45" cy="227.00" r="3.2" fill="#1B998B"/>
<circle cx="173.84" cy="227.00" r="3.2" fill="#1B998B"/>
<circle cx="182.22" cy="227.00" r="3.2" fill="#1B998B"/>
<circle cx="190.61" cy="227.00" r="3.2" fill="#1B998B"/>
<circle cx="198.99" cy="227.00" r="3.2" fill="#1B998B"/>
<circle cx="207.37" cy="227.00" r="3.2" fill="#1B998B"/>
<circle cx="215.76" cy="227.00" r="3.2" fill="#1B998B"/>
<circle cx="224.14" cy="227.00" r="3.2" fill="#1B998B"/>
<circle cx="232.53" cy="227.00" r="3.2" fill="#1B998B"/>
<circle cx="240.91" cy="227.00" r="3.2" fill="#1B998B"/>
<circle cx="249.29" cy="227.00" r="3.2" fill="#1B998B"/>
<circle cx="257.68" cy="227.00" r="3.2" fill="#1B998B"/>
<circle cx="266.06" cy="227.00" r="3.2" fill="#1B998B"/>
<circle cx="274.44" cy="227.00" r="3.2" fill="#1B998B"/>
<circle cx="282.83" cy="227.00" r="3.2" fill="#1B998B"/>
<circle cx="291.21" cy="227.00" r="3.2" fill="#1B998B"/>
<circle cx="299.60" cy="227.00" r="3.2" fill="#1B998B"/>
<circle cx="307.98" cy="227.00" r="3.2" fill="#1B998B"/>
<circle cx="316.36" cy="227.00" r="3.2" fill="#1B998B"/>
<circle cx="324.75" cy="227.00" r="3.2" fill="#1B998B"/>
<circle cx="333.13" cy="227.00" r="3.2" fill="#1B998B"/>
<circle cx="341.52" cy="227.00" r="3.2" fill="#1B998B"/>
<circle cx="349.90" cy="227.00" r="3.2" fill="#1B998B"/>
<circle cx="358.28" cy="227.00" r="3.2" fill="#1B998B"/>
<circle cx="366.67" cy="227.00" r="3.2" fill="#1B998B"/>
<circle cx="375.05" cy="227.00" r="3.2" fill="#1B998B"/>
<circle cx="383.43" cy="227.00" r="3.2" fill="#1B998B"/>
<circle cx="391.82" cy="227.00" r="3.2" fill="#1B998B"/>
<circle cx="400.20" cy="227.00" r="3.2" fill="#1B998B"/>
<circle cx="408.59" cy="227.00" r="3.2" fill="#1B998B"/>
<circle cx="416.97" cy="227.00" r="3.2" fill="#1B998B"/>
<circle cx="425.35" cy="227.00" r="3.2" fill="#1B998B"/>
<circle cx="433.74" cy="227.00" r="3.2" fill="#1B998B"/>
<circle cx="442.12" cy="227.00" r="3.2" fill="#1B998B"/>
<circle cx="450.51" cy="227.00" r="3.2" fill="#1B998B"/>
<circle cx="458.89" cy="227.00" r="3.2" fill="#1B998B"/>
<circle cx="467.27" cy="227.00" r="3.2" fill="#1B998B"/>
<circle cx="475.66" cy="227.00" r="3.2" fill="#1B998B"/>
<circle cx="484.04" cy="227.00" r="3.2" fill="#1B998B"/>
<circle cx="492.42" cy="227.00" r="3.2" fill="#1B998B"/>
<circle cx="500.81" cy="227.00" r="3.2" fill="#1B998B"/>
<circle cx="509.19" cy="227.00" r="3.2" fill="#1B998B"/>
<circle cx="517.58" cy="227.00" r="3.2" fill="#1B998B"/>
<circle cx="525.96" cy="227.00" r="3.2" fill="#1B998B"/>
<circle cx="534.34" cy="227.00" r="3.2" fill="#1B998B"/>
<circle cx="542.73" cy="227.00" r="3.2" fill="#1B998B"/>
<circle cx="551.11" cy="227.00" r="3.2" fill="#1B998B"/>
<circle cx="559.49" cy="227.00" r="3.2" fill="#1B998B"/>
<circle cx="567.88" cy="227.00" r="3.2" fill="#1B998B"/>
<circle cx="576.26" cy="227.00" r="3.2" fill="#1B998B"/>
<circle cx="584.65" cy="227.00" r="3.2" fill="#1B998B"/>
<circle cx="593.03" cy="227.00" r="3.2" fill="#1B998B"/>
<circle cx="601.41" cy="227.00" r="3.2" fill="#1B998B"/>
<circle cx="609.80" cy="227.00" r="3.2" fill="#1B998B"/>
<circle cx="618.18" cy="227.00" r="3.2" fill="#1B998B"/>
<circle cx="626.57" cy="227.00" r="3.2" fill="#1B998B"/>
<circle cx="634.95" cy="227.00" r="3.2" fill="#1B998B"/>
<circle cx="643.33" cy="227.00" r="3.2" fill="#1B998B"/>
<circle cx="651.72" cy="227.00" r="3.2" fill="#1B998B"/>
<circle cx="660.10" cy="227.00" r="3.2" fill="#1B998B"/>
<circle cx="668.48" cy="227.00" r="3.2" fill="#1B998B"/>
<circle cx="676.87" cy="227.00" r="3.2" fill="#1B998B"/>
<circle cx="685.25" cy="227.00" r="3.2" fill="#1B998B"/>
<circle cx="693.64" cy="227.00" r="3.2" fill="#1B998B"/>
<circle cx="702.02" cy="227.00" r="3.2" fill="#1B998B"/>
<circle cx="710.40" cy="227.00" r="3.2" fill="#1B998B"/>
<circle cx="718.79" cy="227.00" r="3.2" fill="#1B998B"/>
<circle cx="727.17" cy="227.00" r="3.2" fill="#1B998B"/>
<circle cx="735.56" cy="227.00" r="3.2" fill="#1B998B"/>
<circle cx="743.94" cy="227.00" r="3.2" fill="#1B998B"/>
<circle cx="752.32" cy="227.00" r="3.2" fill="#1B998B"/>
<circle cx="760.71" cy="227.00" r="3.2" fill="#1B998B"/>
<circle cx="769.09" cy="227.00" r="3.2" fill="#1B998B"/>
<circle cx="777.47" cy="227.00" r="3.2" fill="#1B998B"/>
<circle cx="785.86" cy="227.00" r="3.2" fill="#1B998B"/>
<circle cx="794.24" cy="227.00" r="3.2" fill="#1B998B"/>
<circle cx="802.63" cy="227.00" r="3.2" fill="#1B998B"/>
<circle cx="811.01" cy="227.00" r="3.2" fill="#1B998B"/>
<circle cx="819.39" cy="227.00" r="3.2" fill="#1B998B"/>
<circle cx="827.78" cy="227.00" r="3.2" fill="#1B998B"/>
<circle cx="836.16" cy="227.00" r="3.2" fill="#1B998B"/>
<circle cx="844.55" cy="227.00" r="3.2" fill="#1B998B"/>
<circle cx="852.93" cy="227.00" r="3.2" fill="#1B998B"/>
<circle cx="861.31" cy="227.00" r="3.2" fill="#1B998B"/>
<circle cx="869.70" cy="227.00" r="3.2" fill="#1B998B"/>
<circle cx="878.08" cy="227.00" r="3.2" fill="#1B998B"/>
<circle cx="886.46" cy="227.00" r="3.2" fill="#1B998B"/>
<circle cx="894.85" cy="227.00" r="3.2" fill="#1B998B"/>
<circle cx="903.23" cy="227.00" r="3.2" fill="#1B998B"/>
<circle cx="911.62" cy="227.00" r="3.2" fill="#1B998B"/>
<circle cx="920.00" cy="227.00" r="3.2" fill="#1B998B"/>
<line x1="944" y1="190" x2="966" y2="190" stroke="#1B998B" stroke-width="4"/>
<text x="976" y="195" font-size="17" font-family="Helvetica, Arial, sans-serif" fill="#222">03 Advanced DoE</text>
<text x="976" y="216" font-size="14" font-family="Helvetica, Arial, sans-serif" fill="#555">best val 0.372 / hidden 0.342</text>
</svg>