<svg xmlns="http://www.w3.org/2000/svg" width="1460" height="820" viewBox="0 0 1460 820">
<style>
.bg{fill:#fffdf8;}
.title{font-family:Helvetica,Arial,sans-serif;font-size:30px;font-weight:700;fill:#1f2328;}
.subtitle{font-family:Helvetica,Arial,sans-serif;font-size:16px;fill:#5b6470;}
.label{font-family:Helvetica,Arial,sans-serif;fill:#1f2328;}
.subtle{font-family:Helvetica,Arial,sans-serif;fill:#5b6470;}
.grid{stroke:#e8ebf0;stroke-width:1;}
</style>
<rect class="bg" width="1460" height="820"/>
<text class="title" x="54" y="38">Experiment 1: Dataset Winners</text>
<text class="subtitle" x="54" y="63">Best validation vs best hidden among 14 isolated conditions per dataset.</text>
<line class="grid" x1="78" y1="670.0" x2="1404" y2="670.0"/>
<text class="subtle" x="68" y="675.0" text-anchor="end" font-size="15">0.0</text>
<line class="grid" x1="78" y1="555.2" x2="1404" y2="555.2"/>
<text class="subtle" x="68" y="560.2" text-anchor="end" font-size="15">0.2</text>
<line class="grid" x1="78" y1="440.4" x2="1404" y2="440.4"/>
<text class="subtle" x="68" y="445.4" text-anchor="end" font-size="15">0.4</text>
<line class="grid" x1="78" y1="325.6" x2="1404" y2="325.6"/>
<text class="subtle" x="68" y="330.6" text-anchor="end" font-size="15">0.6</text>
<line class="grid" x1="78" y1="210.8" x2="1404" y2="210.8"/>
<text class="subtle" x="68" y="215.8" text-anchor="end" font-size="15">0.8</text>
<line class="grid" x1="78" y1="96.0" x2="1404" y2="96.0"/>
<text class="subtle" x="68" y="101.0" text-anchor="end" font-size="15">1.0</text>
<line x1="78" y1="670" x2="1404" y2="670" stroke="#1f2328" stroke-width="1.5"/>
<rect x="137.8" y="173.5" width="92.0" height="496.5" rx="12" fill="#2f6fed"/>
<rect x="257.8" y="180.2" width="92.0" height="489.8" rx="12" fill="#e4572e"/>
<text class="label" x="183.8" y="163.5" text-anchor="middle" font-size="18" font-weight="700">0.865</text>
<text class="label" x="303.8" y="170.2" text-anchor="middle" font-size="18" font-weight="700">0.853</text>
<text class="subtle" x="183.8" y="694.0" text-anchor="middle" font-size="14">best val</text>
<text class="subtle" x="303.8" y="694.0" text-anchor="middle" font-size="14">best hidden</text>
<text class="subtle" x="183.8" y="714.0" text-anchor="middle" font-size="13">tie x2</text>
<text class="subtle" x="303.8" y="714.0" text-anchor="middle" font-size="13">tie x4</text>
<text class="label" x="243.8" y="748.0" text-anchor="middle" font-size="18" font-weight="700">Fashion-MNIST</text>
<rect x="469.2" y="345.2" width="92.0" height="324.8" rx="12" fill="#2f6fed"/>
<rect x="589.2" y="339.0" width="92.0" height="331.0" rx="12" fill="#e4572e"/>
<text class="label" x="515.2" y="335.2" text-anchor="middle" font-size="18" font-weight="700">0.566</text>
<text class="label" x="635.2" y="329.0" text-anchor="middle" font-size="18" font-weight="700">0.577</text>
<text class="subtle" x="515.2" y="694.0" text-anchor="middle" font-size="14">best val</text>
<text class="subtle" x="635.2" y="694.0" text-anchor="middle" font-size="14">best hidden</text>
<text class="subtle" x="515.2" y="714.0" text-anchor="middle" font-size="13">Rat Plain</text>
<text class="subtle" x="635.2" y="714.0" text-anchor="middle" font-size="13">Rat Plain</text>
<text class="label" x="575.2" y="748.0" text-anchor="middle" font-size="18" font-weight="700">Twenty Newsgroups</text>
<rect x="800.8" y="100.8" width="92.0" height="569.2" rx="12" fill="#2f6fed"/>
<rect x="920.8" y="105.6" width="92.0" height="564.4" rx="12" fill="#e4572e"/>
<text class="label" x="846.8" y="90.8" text-anchor="middle" font-size="18" font-weight="700">0.992</text>
<text class="label" x="966.8" y="95.6" text-anchor="middle" font-size="18" font-weight="700">0.983</text>
<text class="subtle" x="846.8" y="694.0" text-anchor="middle" font-size="14">best val</text>
<text class="subtle" x="966.8" y="694.0" text-anchor="middle" font-size="14">best hidden</text>
<text class="subtle" x="846.8" y="714.0" text-anchor="middle" font-size="13">Scr Plain</text>
<text class="subtle" x="966.8" y="714.0" text-anchor="middle" font-size="13">Adv T+S</text>
<text class="label" x="906.8" y="748.0" text-anchor="middle" font-size="18" font-weight="700">SMS Spam</text>
<rect x="1132.2" y="417.4" width="92.0" height="252.6" rx="12" fill="#2f6fed"/>
<rect x="1252.2" y="445.2" width="92.0" height="224.8" rx="12" fill="#e4572e"/>
<text class="label" x="1178.2" y="407.4" text-anchor="middle" font-size="18" font-weight="700">0.440</text>
<text class="label" x="1298.2" y="435.2" text-anchor="middle" font-size="18" font-weight="700">0.392</text>
<text class="subtle" x="1178.2" y="694.0" text-anchor="middle" font-size="14">best val</text>
<text class="subtle" x="1298.2" y="694.0" text-anchor="middle" font-size="14">best hidden</text>
<text class="subtle" x="1178.2" y="714.0" text-anchor="middle" font-size="13">Rat T+S</text>
<text class="subtle" x="1298.2" y="714.0" text-anchor="middle" font-size="13">Scr Plain</text>
<text class="label" x="1238.2" y="748.0" text-anchor="middle" font-size="18" font-weight="700">CIFAR-10</text>
<rect x="78" y="780" width="22" height="12" rx="4" fill="#2f6fed"/>
<text class="subtle" x="108" y="791" font-size="14">Best validation found in the run history</text>
<rect x="438" y="780" width="22" height="12" rx="4" fill="#e4572e"/>
<text class="subtle" x="468" y="791" font-size="14">Best hidden-test score after finalize</text>
<text class="subtle" x="868" y="791" font-size="14">labels show winner name or tie count</text>
</svg>