<svg xmlns="http://www.w3.org/2000/svg" width="1200" height="600" viewBox="0 0 1200 600">
  <rect width="1200" height="600" fill="#f7f3ea"/>
  <rect x="70" y="70" width="250" height="120" rx="28" fill="#d8e7d1" stroke="#1f3b2d" stroke-width="4"/>
  <text x="195" y="118" text-anchor="middle" font-family="Helvetica, Arial, sans-serif" font-size="34" fill="#1f3b2d">Past Trials</text>
  <text x="195" y="155" text-anchor="middle" font-family="Helvetica, Arial, sans-serif" font-size="26" fill="#1f3b2d">scores + params</text>

  <rect x="440" y="60" width="300" height="140" rx="28" fill="#ffd9c7" stroke="#6e2f1f" stroke-width="4"/>
  <text x="590" y="108" text-anchor="middle" font-family="Helvetica, Arial, sans-serif" font-size="34" fill="#6e2f1f">Good Trials</text>
  <text x="590" y="145" text-anchor="middle" font-family="Helvetica, Arial, sans-serif" font-size="26" fill="#6e2f1f">fit l(x)</text>
  <text x="590" y="176" text-anchor="middle" font-family="Helvetica, Arial, sans-serif" font-size="22" fill="#6e2f1f">high-score region</text>

  <rect x="440" y="260" width="300" height="140" rx="28" fill="#d9e6ff" stroke="#1f3e7a" stroke-width="4"/>
  <text x="590" y="308" text-anchor="middle" font-family="Helvetica, Arial, sans-serif" font-size="34" fill="#1f3e7a">Rest Trials</text>
  <text x="590" y="345" text-anchor="middle" font-family="Helvetica, Arial, sans-serif" font-size="26" fill="#1f3e7a">fit g(x)</text>
  <text x="590" y="376" text-anchor="middle" font-family="Helvetica, Arial, sans-serif" font-size="22" fill="#1f3e7a">background region</text>

  <rect x="840" y="165" width="290" height="130" rx="28" fill="#f8e7b7" stroke="#5d4300" stroke-width="4"/>
  <text x="985" y="210" text-anchor="middle" font-family="Helvetica, Arial, sans-serif" font-size="34" fill="#5d4300">Sample x</text>
  <text x="985" y="247" text-anchor="middle" font-family="Helvetica, Arial, sans-serif" font-size="26" fill="#5d4300">maximize l(x)/g(x)</text>

  <rect x="870" y="365" width="230" height="100" rx="24" fill="#fff8ea" stroke="#5d4300" stroke-width="3"/>
  <text x="985" y="407" text-anchor="middle" font-family="Helvetica, Arial, sans-serif" font-size="26" fill="#5d4300">Exploit</text>
  <text x="985" y="438" text-anchor="middle" font-family="Helvetica, Arial, sans-serif" font-size="22" fill="#5d4300">promising zone</text>

  <path d="M320 130 C365 130, 385 120, 440 115" fill="none" stroke="#1f3b2d" stroke-width="5"/>
  <polygon points="431,104 454,114 432,126" fill="#1f3b2d"/>

  <path d="M320 130 C365 130, 385 310, 440 330" fill="none" stroke="#1f3b2d" stroke-width="5"/>
  <polygon points="430,317 452,332 426,338" fill="#1f3b2d"/>

  <path d="M740 130 C790 130, 800 180, 840 210" fill="none" stroke="#6e2f1f" stroke-width="5"/>
  <polygon points="829,193 852,209 826,214" fill="#6e2f1f"/>

  <path d="M740 330 C790 330, 800 255, 840 235" fill="none" stroke="#1f3e7a" stroke-width="5"/>
  <polygon points="828,226 852,229 832,245" fill="#1f3e7a"/>

  <text x="600" y="525" text-anchor="middle" font-family="Helvetica, Arial, sans-serif" font-size="28" fill="#50381a">
    TPE: split trials, estimate two densities, sample where the good density dominates
  </text>
</svg>
