<svg xmlns="http://www.w3.org/2000/svg" width="1460" height="820" viewBox="0 0 1460 820">
<style>
.bg{fill:#fffdf8;}
.title{font-family:Helvetica,Arial,sans-serif;font-size:30px;font-weight:700;fill:#1f2328;}
.subtitle{font-family:Helvetica,Arial,sans-serif;font-size:16px;fill:#5b6470;}
.label{font-family:Helvetica,Arial,sans-serif;fill:#1f2328;}
.subtle{font-family:Helvetica,Arial,sans-serif;fill:#5b6470;}
.grid{stroke:#e8ebf0;stroke-width:1;}
</style>
<rect class="bg" width="1460" height="820"/>
<text class="title" x="54" y="38">Question 1: Best-Val History</text>
<line x1="54.0" y1="86" x2="78.0" y2="86" stroke="#6d28d9" stroke-width="3.5" stroke-dasharray="10 6"/>
<circle cx="66.0" cy="96" r="4" fill="#6d28d9" opacity="0.28"/>
<text class="label" x="88.0" y="91" font-size="16">TPE Direct</text>
<line x1="504.6666666666667" y1="86" x2="528.6666666666667" y2="86" stroke="#111827" stroke-width="3.5" stroke-dasharray="2 4"/>
<circle cx="516.6666666666667" cy="96" r="4" fill="#111827" opacity="0.28"/>
<text class="label" x="538.6666666666667" y="91" font-size="16">SMAC Direct</text>
<line x1="955.3333333333334" y1="86" x2="979.3333333333334" y2="86" stroke="#2563eb" stroke-width="3.5"/>
<circle cx="967.3333333333334" cy="96" r="4" fill="#2563eb" opacity="0.28"/>
<text class="label" x="989.3333333333334" y="91" font-size="16">Plain Agent</text>
<rect x="54.0" y="134" width="660.0" height="646" rx="24" fill="#ffffff" stroke="#d7dce3" stroke-width="1.1"/>
<text class="label" x="72.0" y="156" font-size="20" font-weight="700">Fashion-MNIST</text>
<text class="subtle" x="696.0" y="156" text-anchor="end" font-size="13">lower-tail clip at 0.842 (135 evals)</text>
<line class="grid" x1="116.0" y1="168.0" x2="690.0" y2="168.0"/>
<text class="subtle" x="106.0" y="173.0" text-anchor="end" font-size="13">0.869</text>
<line class="grid" x1="116.0" y1="311.5" x2="690.0" y2="311.5"/>
<text class="subtle" x="106.0" y="316.5" text-anchor="end" font-size="13">0.863</text>
<line class="grid" x1="116.0" y1="455.0" x2="690.0" y2="455.0"/>
<text class="subtle" x="106.0" y="460.0" text-anchor="end" font-size="13">0.856</text>
<line class="grid" x1="116.0" y1="598.5" x2="690.0" y2="598.5"/>
<text class="subtle" x="106.0" y="603.5" text-anchor="end" font-size="13">0.849</text>
<line class="grid" x1="116.0" y1="742.0" x2="690.0" y2="742.0"/>
<text class="subtle" x="106.0" y="747.0" text-anchor="end" font-size="13">&lt;=0.842</text>
<line class="grid" x1="116.0" y1="168" x2="116.0" y2="742"/>
<text class="subtle" x="116.0" y="764.0" text-anchor="middle" font-size="13">1</text>
<line class="grid" x1="255.2" y1="168" x2="255.2" y2="742"/>
<text class="subtle" x="255.2" y="764.0" text-anchor="middle" font-size="13">25</text>
<line class="grid" x1="400.1" y1="168" x2="400.1" y2="742"/>
<text class="subtle" x="400.1" y="764.0" text-anchor="middle" font-size="13">50</text>
<line class="grid" x1="545.1" y1="168" x2="545.1" y2="742"/>
<text class="subtle" x="545.1" y="764.0" text-anchor="middle" font-size="13">75</text>
<line class="grid" x1="690.0" y1="168" x2="690.0" y2="742"/>
<text class="subtle" x="690.0" y="764.0" text-anchor="middle" font-size="13">100</text>
<line x1="116.0" y1="168" x2="116.0" y2="742" stroke="#1f2328" stroke-width="1.2"/>
<line x1="116.0" y1="742" x2="690.0" y2="742" stroke="#1f2328" stroke-width="1.2"/>
<text class="subtle" x="403.0" y="788.0" text-anchor="middle" font-size="14">Round index per condition (1-100 budget)</text>
<circle cx="127.60" cy="718.54" r="2.2" fill="#6d28d9" opacity="0.08"/>
<circle cx="133.39" cy="742.00" r="2.2" fill="#6d28d9" opacity="0.08"/>
<circle cx="139.19" cy="742.00" r="2.2" fill="#6d28d9" opacity="0.08"/>
<circle cx="144.99" cy="742.00" r="2.2" fill="#6d28d9" opacity="0.08"/>
<circle cx="150.79" cy="742.00" r="2.2" fill="#6d28d9" opacity="0.08"/>
<circle cx="156.59" cy="742.00" r="2.2" fill="#6d28d9" opacity="0.08"/>
<circle cx="162.38" cy="742.00" r="2.2" fill="#6d28d9" opacity="0.08"/>
<circle cx="168.18" cy="742.00" r="2.2" fill="#6d28d9" opacity="0.08"/>
<circle cx="173.98" cy="742.00" r="2.2" fill="#6d28d9" opacity="0.08"/>
<circle cx="179.78" cy="742.00" r="2.2" fill="#6d28d9" opacity="0.08"/>
<circle cx="185.58" cy="490.16" r="2.2" fill="#6d28d9" opacity="0.08"/>
<circle cx="191.37" cy="742.00" r="2.2" fill="#6d28d9" opacity="0.08"/>
<circle cx="197.17" cy="578.00" r="2.2" fill="#6d28d9" opacity="0.08"/>
<circle cx="202.97" cy="742.00" r="2.2" fill="#6d28d9" opacity="0.08"/>
<circle cx="208.77" cy="630.70" r="2.2" fill="#6d28d9" opacity="0.08"/>
<circle cx="214.57" cy="648.26" r="2.2" fill="#6d28d9" opacity="0.08"/>
<circle cx="220.36" cy="648.26" r="2.2" fill="#6d28d9" opacity="0.08"/>
<circle cx="226.16" cy="742.00" r="2.2" fill="#6d28d9" opacity="0.08"/>
<circle cx="231.96" cy="742.00" r="2.2" fill="#6d28d9" opacity="0.08"/>
<circle cx="237.76" cy="490.16" r="2.2" fill="#6d28d9" opacity="0.08"/>
<circle cx="243.56" cy="648.26" r="2.2" fill="#6d28d9" opacity="0.08"/>
<circle cx="249.35" cy="648.26" r="2.2" fill="#6d28d9" opacity="0.08"/>
<circle cx="255.15" cy="718.54" r="2.2" fill="#6d28d9" opacity="0.08"/>
<circle cx="260.95" cy="742.00" r="2.2" fill="#6d28d9" opacity="0.08"/>
<circle cx="266.75" cy="613.14" r="2.2" fill="#6d28d9" opacity="0.08"/>
<circle cx="272.55" cy="742.00" r="2.2" fill="#6d28d9" opacity="0.08"/>
<circle cx="278.34" cy="700.96" r="2.2" fill="#6d28d9" opacity="0.08"/>
<circle cx="284.14" cy="718.54" r="2.2" fill="#6d28d9" opacity="0.08"/>
<circle cx="289.94" cy="742.00" r="2.2" fill="#6d28d9" opacity="0.08"/>
<circle cx="295.74" cy="578.00" r="2.2" fill="#6d28d9" opacity="0.08"/>
<circle cx="301.54" cy="742.00" r="2.2" fill="#6d28d9" opacity="0.08"/>
<circle cx="307.33" cy="718.54" r="2.2" fill="#6d28d9" opacity="0.08"/>
<circle cx="313.13" cy="683.40" r="2.2" fill="#6d28d9" opacity="0.08"/>
<circle cx="318.93" cy="700.96" r="2.2" fill="#6d28d9" opacity="0.08"/>
<circle cx="324.73" cy="742.00" r="2.2" fill="#6d28d9" opacity="0.08"/>
<circle cx="330.53" cy="742.00" r="2.2" fill="#6d28d9" opacity="0.08"/>
<circle cx="336.32" cy="736.10" r="2.2" fill="#6d28d9" opacity="0.08"/>
<circle cx="342.12" cy="742.00" r="2.2" fill="#6d28d9" opacity="0.08"/>
<circle cx="347.92" cy="742.00" r="2.2" fill="#6d28d9" opacity="0.08"/>
<circle cx="353.72" cy="578.00" r="2.2" fill="#6d28d9" opacity="0.08"/>
<circle cx="359.52" cy="560.44" r="2.2" fill="#6d28d9" opacity="0.08"/>
<circle cx="365.31" cy="525.30" r="2.2" fill="#6d28d9" opacity="0.08"/>
<circle cx="371.11" cy="742.00" r="2.2" fill="#6d28d9" opacity="0.08"/>
<circle cx="376.91" cy="742.00" r="2.2" fill="#6d28d9" opacity="0.08"/>
<circle cx="382.71" cy="742.00" r="2.2" fill="#6d28d9" opacity="0.08"/>
<circle cx="388.51" cy="742.00" r="2.2" fill="#6d28d9" opacity="0.08"/>
<circle cx="394.30" cy="742.00" r="2.2" fill="#6d28d9" opacity="0.08"/>
<circle cx="400.10" cy="742.00" r="2.2" fill="#6d28d9" opacity="0.08"/>
<circle cx="405.90" cy="742.00" r="2.2" fill="#6d28d9" opacity="0.08"/>
<circle cx="411.70" cy="742.00" r="2.2" fill="#6d28d9" opacity="0.08"/>
<circle cx="417.49" cy="507.74" r="2.2" fill="#6d28d9" opacity="0.08"/>
<circle cx="423.29" cy="525.30" r="2.2" fill="#6d28d9" opacity="0.08"/>
<circle cx="429.09" cy="665.84" r="2.2" fill="#6d28d9" opacity="0.08"/>
<circle cx="434.89" cy="742.00" r="2.2" fill="#6d28d9" opacity="0.08"/>
<circle cx="440.69" cy="742.00" r="2.2" fill="#6d28d9" opacity="0.08"/>
<circle cx="446.48" cy="683.40" r="2.2" fill="#6d28d9" opacity="0.08"/>
<circle cx="452.28" cy="742.00" r="2.2" fill="#6d28d9" opacity="0.08"/>
<circle cx="458.08" cy="507.74" r="2.2" fill="#6d28d9" opacity="0.08"/>
<circle cx="463.88" cy="648.26" r="2.2" fill="#6d28d9" opacity="0.08"/>
<circle cx="469.68" cy="736.10" r="2.2" fill="#6d28d9" opacity="0.08"/>
<circle cx="475.47" cy="595.56" r="2.2" fill="#6d28d9" opacity="0.08"/>
<circle cx="481.27" cy="742.00" r="2.2" fill="#6d28d9" opacity="0.08"/>
<circle cx="487.07" cy="525.30" r="2.2" fill="#6d28d9" opacity="0.08"/>
<circle cx="492.87" cy="718.54" r="2.2" fill="#6d28d9" opacity="0.08"/>
<circle cx="498.67" cy="742.00" r="2.2" fill="#6d28d9" opacity="0.08"/>
<circle cx="504.46" cy="742.00" r="2.2" fill="#6d28d9" opacity="0.08"/>
<circle cx="510.26" cy="648.26" r="2.2" fill="#6d28d9" opacity="0.08"/>
<circle cx="516.06" cy="742.00" r="2.2" fill="#6d28d9" opacity="0.08"/>
<circle cx="521.86" cy="742.00" r="2.2" fill="#6d28d9" opacity="0.08"/>
<circle cx="527.66" cy="665.84" r="2.2" fill="#6d28d9" opacity="0.08"/>
<circle cx="533.45" cy="742.00" r="2.2" fill="#6d28d9" opacity="0.08"/>
<circle cx="539.25" cy="595.56" r="2.2" fill="#6d28d9" opacity="0.08"/>
<circle cx="545.05" cy="490.16" r="2.2" fill="#6d28d9" opacity="0.08"/>
<circle cx="550.85" cy="648.26" r="2.2" fill="#6d28d9" opacity="0.08"/>
<circle cx="556.65" cy="742.00" r="2.2" fill="#6d28d9" opacity="0.08"/>
<circle cx="562.44" cy="742.00" r="2.2" fill="#6d28d9" opacity="0.08"/>
<circle cx="568.24" cy="742.00" r="2.2" fill="#6d28d9" opacity="0.08"/>
<circle cx="574.04" cy="665.84" r="2.2" fill="#6d28d9" opacity="0.08"/>
<circle cx="579.84" cy="742.00" r="2.2" fill="#6d28d9" opacity="0.08"/>
<circle cx="585.64" cy="700.96" r="2.2" fill="#6d28d9" opacity="0.08"/>
<circle cx="591.43" cy="542.86" r="2.2" fill="#6d28d9" opacity="0.08"/>
<circle cx="597.23" cy="613.14" r="2.2" fill="#6d28d9" opacity="0.08"/>
<circle cx="603.03" cy="507.74" r="2.2" fill="#6d28d9" opacity="0.08"/>
<circle cx="608.83" cy="560.44" r="2.2" fill="#6d28d9" opacity="0.08"/>
<circle cx="614.63" cy="630.70" r="2.2" fill="#6d28d9" opacity="0.08"/>
<circle cx="620.42" cy="630.70" r="2.2" fill="#6d28d9" opacity="0.08"/>
<circle cx="626.22" cy="742.00" r="2.2" fill="#6d28d9" opacity="0.08"/>
<circle cx="632.02" cy="742.00" r="2.2" fill="#6d28d9" opacity="0.08"/>
<circle cx="637.82" cy="665.84" r="2.2" fill="#6d28d9" opacity="0.08"/>
<circle cx="643.62" cy="490.16" r="2.2" fill="#6d28d9" opacity="0.08"/>
<circle cx="649.41" cy="665.84" r="2.2" fill="#6d28d9" opacity="0.08"/>
<circle cx="655.21" cy="630.70" r="2.2" fill="#6d28d9" opacity="0.08"/>
<circle cx="661.01" cy="665.84" r="2.2" fill="#6d28d9" opacity="0.08"/>
<circle cx="666.81" cy="630.70" r="2.2" fill="#6d28d9" opacity="0.08"/>
<circle cx="672.61" cy="742.00" r="2.2" fill="#6d28d9" opacity="0.08"/>
<circle cx="678.40" cy="742.00" r="2.2" fill="#6d28d9" opacity="0.08"/>
<circle cx="684.20" cy="736.10" r="2.2" fill="#6d28d9" opacity="0.08"/>
<circle cx="690.00" cy="742.00" r="2.2" fill="#6d28d9" opacity="0.08"/>
<circle cx="127.60" cy="742.00" r="2.2" fill="#111827" opacity="0.08"/>
<circle cx="133.39" cy="742.00" r="2.2" fill="#111827" opacity="0.08"/>
<circle cx="139.19" cy="742.00" r="2.2" fill="#111827" opacity="0.08"/>
<circle cx="144.99" cy="742.00" r="2.2" fill="#111827" opacity="0.08"/>
<circle cx="150.79" cy="742.00" r="2.2" fill="#111827" opacity="0.08"/>
<circle cx="156.59" cy="742.00" r="2.2" fill="#111827" opacity="0.08"/>
<circle cx="162.38" cy="742.00" r="2.2" fill="#111827" opacity="0.08"/>
<circle cx="173.98" cy="736.10" r="2.2" fill="#111827" opacity="0.08"/>
<circle cx="179.78" cy="742.00" r="2.2" fill="#111827" opacity="0.08"/>
<circle cx="191.37" cy="613.14" r="2.2" fill="#111827" opacity="0.08"/>
<circle cx="197.17" cy="648.26" r="2.2" fill="#111827" opacity="0.08"/>
<circle cx="202.97" cy="742.00" r="2.2" fill="#111827" opacity="0.08"/>
<circle cx="214.57" cy="742.00" r="2.2" fill="#111827" opacity="0.08"/>
<circle cx="220.36" cy="560.44" r="2.2" fill="#111827" opacity="0.08"/>
<circle cx="226.16" cy="742.00" r="2.2" fill="#111827" opacity="0.08"/>
<circle cx="237.76" cy="700.96" r="2.2" fill="#111827" opacity="0.08"/>
<circle cx="243.56" cy="542.86" r="2.2" fill="#111827" opacity="0.08"/>
<circle cx="249.35" cy="742.00" r="2.2" fill="#111827" opacity="0.08"/>
<circle cx="255.15" cy="742.00" r="2.2" fill="#111827" opacity="0.08"/>
<circle cx="260.95" cy="683.40" r="2.2" fill="#111827" opacity="0.08"/>
<circle cx="266.75" cy="578.00" r="2.2" fill="#111827" opacity="0.08"/>
<circle cx="272.55" cy="742.00" r="2.2" fill="#111827" opacity="0.08"/>
<circle cx="278.34" cy="613.14" r="2.2" fill="#111827" opacity="0.08"/>
<circle cx="284.14" cy="542.86" r="2.2" fill="#111827" opacity="0.08"/>
<circle cx="289.94" cy="742.00" r="2.2" fill="#111827" opacity="0.08"/>
<circle cx="295.74" cy="736.10" r="2.2" fill="#111827" opacity="0.08"/>
<circle cx="301.54" cy="507.74" r="2.2" fill="#111827" opacity="0.08"/>
<circle cx="307.33" cy="595.56" r="2.2" fill="#111827" opacity="0.08"/>
<circle cx="313.13" cy="742.00" r="2.2" fill="#111827" opacity="0.08"/>
<circle cx="318.93" cy="665.84" r="2.2" fill="#111827" opacity="0.08"/>
<circle cx="324.73" cy="542.86" r="2.2" fill="#111827" opacity="0.08"/>
<circle cx="330.53" cy="490.16" r="2.2" fill="#111827" opacity="0.08"/>
<circle cx="336.32" cy="683.40" r="2.2" fill="#111827" opacity="0.08"/>
<circle cx="342.12" cy="742.00" r="2.2" fill="#111827" opacity="0.08"/>
<circle cx="347.92" cy="525.30" r="2.2" fill="#111827" opacity="0.08"/>
<circle cx="353.72" cy="742.00" r="2.2" fill="#111827" opacity="0.08"/>
<circle cx="359.52" cy="542.86" r="2.2" fill="#111827" opacity="0.08"/>
<circle cx="365.31" cy="700.96" r="2.2" fill="#111827" opacity="0.08"/>
<circle cx="371.11" cy="683.40" r="2.2" fill="#111827" opacity="0.08"/>
<circle cx="376.91" cy="742.00" r="2.2" fill="#111827" opacity="0.08"/>
<circle cx="382.71" cy="490.16" r="2.2" fill="#111827" opacity="0.08"/>
<circle cx="388.51" cy="742.00" r="2.2" fill="#111827" opacity="0.08"/>
<circle cx="394.30" cy="490.16" r="2.2" fill="#111827" opacity="0.08"/>
<circle cx="405.90" cy="742.00" r="2.2" fill="#111827" opacity="0.08"/>
<circle cx="411.70" cy="742.00" r="2.2" fill="#111827" opacity="0.08"/>
<circle cx="417.49" cy="742.00" r="2.2" fill="#111827" opacity="0.08"/>
<circle cx="423.29" cy="578.00" r="2.2" fill="#111827" opacity="0.08"/>
<circle cx="429.09" cy="648.26" r="2.2" fill="#111827" opacity="0.08"/>
<circle cx="434.89" cy="742.00" r="2.2" fill="#111827" opacity="0.08"/>
<circle cx="440.69" cy="630.70" r="2.2" fill="#111827" opacity="0.08"/>
<circle cx="446.48" cy="742.00" r="2.2" fill="#111827" opacity="0.08"/>
<circle cx="452.28" cy="507.74" r="2.2" fill="#111827" opacity="0.08"/>
<circle cx="458.08" cy="742.00" r="2.2" fill="#111827" opacity="0.08"/>
<circle cx="463.88" cy="472.60" r="2.2" fill="#111827" opacity="0.08"/>
<circle cx="469.68" cy="560.44" r="2.2" fill="#111827" opacity="0.08"/>
<circle cx="475.47" cy="648.26" r="2.2" fill="#111827" opacity="0.08"/>
<circle cx="481.27" cy="742.00" r="2.2" fill="#111827" opacity="0.08"/>
<circle cx="487.07" cy="437.46" r="2.2" fill="#111827" opacity="0.08"/>
<circle cx="492.87" cy="490.16" r="2.2" fill="#111827" opacity="0.08"/>
<circle cx="498.67" cy="630.70" r="2.2" fill="#111827" opacity="0.08"/>
<circle cx="504.46" cy="742.00" r="2.2" fill="#111827" opacity="0.08"/>
<circle cx="510.26" cy="490.16" r="2.2" fill="#111827" opacity="0.08"/>
<circle cx="516.06" cy="595.56" r="2.2" fill="#111827" opacity="0.08"/>
<circle cx="521.86" cy="613.14" r="2.2" fill="#111827" opacity="0.08"/>
<circle cx="533.45" cy="648.26" r="2.2" fill="#111827" opacity="0.08"/>
<circle cx="539.25" cy="742.00" r="2.2" fill="#111827" opacity="0.08"/>
<circle cx="545.05" cy="742.00" r="2.2" fill="#111827" opacity="0.08"/>
<circle cx="550.85" cy="742.00" r="2.2" fill="#111827" opacity="0.08"/>
<circle cx="556.65" cy="490.16" r="2.2" fill="#111827" opacity="0.08"/>
<circle cx="562.44" cy="472.60" r="2.2" fill="#111827" opacity="0.08"/>
<circle cx="568.24" cy="437.46" r="2.2" fill="#111827" opacity="0.08"/>
<circle cx="574.04" cy="742.00" r="2.2" fill="#111827" opacity="0.08"/>
<circle cx="579.84" cy="742.00" r="2.2" fill="#111827" opacity="0.08"/>
<circle cx="591.43" cy="507.74" r="2.2" fill="#111827" opacity="0.08"/>
<circle cx="597.23" cy="742.00" r="2.2" fill="#111827" opacity="0.08"/>
<circle cx="603.03" cy="578.00" r="2.2" fill="#111827" opacity="0.08"/>
<circle cx="608.83" cy="742.00" r="2.2" fill="#111827" opacity="0.08"/>
<circle cx="614.63" cy="630.70" r="2.2" fill="#111827" opacity="0.08"/>
<circle cx="620.42" cy="665.84" r="2.2" fill="#111827" opacity="0.08"/>
<circle cx="626.22" cy="455.04" r="2.2" fill="#111827" opacity="0.08"/>
<circle cx="632.02" cy="402.34" r="2.2" fill="#111827" opacity="0.08"/>
<circle cx="637.82" cy="742.00" r="2.2" fill="#111827" opacity="0.08"/>
<circle cx="643.62" cy="683.40" r="2.2" fill="#111827" opacity="0.08"/>
<circle cx="649.41" cy="613.14" r="2.2" fill="#111827" opacity="0.08"/>
<circle cx="655.21" cy="437.46" r="2.2" fill="#111827" opacity="0.08"/>
<circle cx="661.01" cy="455.04" r="2.2" fill="#111827" opacity="0.08"/>
<circle cx="666.81" cy="542.86" r="2.2" fill="#111827" opacity="0.08"/>
<circle cx="672.61" cy="384.76" r="2.2" fill="#111827" opacity="0.08"/>
<circle cx="684.20" cy="437.46" r="2.2" fill="#111827" opacity="0.08"/>
<circle cx="690.00" cy="742.00" r="2.2" fill="#111827" opacity="0.08"/>
<circle cx="121.80" cy="630.70" r="2.2" fill="#2563eb" opacity="0.08"/>
<circle cx="127.60" cy="736.10" r="2.2" fill="#2563eb" opacity="0.08"/>
<circle cx="133.39" cy="736.10" r="2.2" fill="#2563eb" opacity="0.08"/>
<circle cx="139.19" cy="742.00" r="2.2" fill="#2563eb" opacity="0.08"/>
<circle cx="144.99" cy="595.56" r="2.2" fill="#2563eb" opacity="0.08"/>
<circle cx="150.79" cy="736.10" r="2.2" fill="#2563eb" opacity="0.08"/>
<circle cx="156.59" cy="718.54" r="2.2" fill="#2563eb" opacity="0.08"/>
<circle cx="162.38" cy="630.70" r="2.2" fill="#2563eb" opacity="0.08"/>
<circle cx="168.18" cy="683.40" r="2.2" fill="#2563eb" opacity="0.08"/>
<circle cx="179.78" cy="742.00" r="2.2" fill="#2563eb" opacity="0.08"/>
<circle cx="185.58" cy="742.00" r="2.2" fill="#2563eb" opacity="0.08"/>
<circle cx="191.37" cy="742.00" r="2.2" fill="#2563eb" opacity="0.08"/>
<circle cx="197.17" cy="742.00" r="2.2" fill="#2563eb" opacity="0.08"/>
<circle cx="202.97" cy="742.00" r="2.2" fill="#2563eb" opacity="0.08"/>
<circle cx="214.57" cy="648.26" r="2.2" fill="#2563eb" opacity="0.08"/>
<circle cx="220.36" cy="742.00" r="2.2" fill="#2563eb" opacity="0.08"/>
<circle cx="226.16" cy="742.00" r="2.2" fill="#2563eb" opacity="0.08"/>
<circle cx="231.96" cy="700.96" r="2.2" fill="#2563eb" opacity="0.08"/>
<circle cx="237.76" cy="742.00" r="2.2" fill="#2563eb" opacity="0.08"/>
<circle cx="243.56" cy="742.00" r="2.2" fill="#2563eb" opacity="0.08"/>
<circle cx="249.35" cy="683.40" r="2.2" fill="#2563eb" opacity="0.08"/>
<circle cx="255.15" cy="742.00" r="2.2" fill="#2563eb" opacity="0.08"/>
<circle cx="260.95" cy="613.14" r="2.2" fill="#2563eb" opacity="0.08"/>
<circle cx="266.75" cy="736.10" r="2.2" fill="#2563eb" opacity="0.08"/>
<circle cx="272.55" cy="742.00" r="2.2" fill="#2563eb" opacity="0.08"/>
<circle cx="278.34" cy="742.00" r="2.2" fill="#2563eb" opacity="0.08"/>
<circle cx="284.14" cy="742.00" r="2.2" fill="#2563eb" opacity="0.08"/>
<circle cx="289.94" cy="742.00" r="2.2" fill="#2563eb" opacity="0.08"/>
<circle cx="295.74" cy="700.96" r="2.2" fill="#2563eb" opacity="0.08"/>
<circle cx="301.54" cy="648.26" r="2.2" fill="#2563eb" opacity="0.08"/>
<circle cx="307.33" cy="742.00" r="2.2" fill="#2563eb" opacity="0.08"/>
<circle cx="313.13" cy="742.00" r="2.2" fill="#2563eb" opacity="0.08"/>
<circle cx="318.93" cy="683.40" r="2.2" fill="#2563eb" opacity="0.08"/>
<circle cx="324.73" cy="578.00" r="2.2" fill="#2563eb" opacity="0.08"/>
<circle cx="330.53" cy="742.00" r="2.2" fill="#2563eb" opacity="0.08"/>
<circle cx="336.32" cy="742.00" r="2.2" fill="#2563eb" opacity="0.08"/>
<circle cx="342.12" cy="742.00" r="2.2" fill="#2563eb" opacity="0.08"/>
<circle cx="347.92" cy="542.86" r="2.2" fill="#2563eb" opacity="0.08"/>
<circle cx="353.72" cy="742.00" r="2.2" fill="#2563eb" opacity="0.08"/>
<circle cx="359.52" cy="742.00" r="2.2" fill="#2563eb" opacity="0.08"/>
<circle cx="365.31" cy="630.70" r="2.2" fill="#2563eb" opacity="0.08"/>
<circle cx="371.11" cy="683.40" r="2.2" fill="#2563eb" opacity="0.08"/>
<circle cx="376.91" cy="736.10" r="2.2" fill="#2563eb" opacity="0.08"/>
<circle cx="382.71" cy="718.54" r="2.2" fill="#2563eb" opacity="0.08"/>
<circle cx="388.51" cy="613.14" r="2.2" fill="#2563eb" opacity="0.08"/>
<circle cx="394.30" cy="742.00" r="2.2" fill="#2563eb" opacity="0.08"/>
<circle cx="400.10" cy="742.00" r="2.2" fill="#2563eb" opacity="0.08"/>
<circle cx="405.90" cy="665.84" r="2.2" fill="#2563eb" opacity="0.08"/>
<circle cx="411.70" cy="595.56" r="2.2" fill="#2563eb" opacity="0.08"/>
<circle cx="417.49" cy="742.00" r="2.2" fill="#2563eb" opacity="0.08"/>
<circle cx="423.29" cy="525.30" r="2.2" fill="#2563eb" opacity="0.08"/>
<circle cx="429.09" cy="613.14" r="2.2" fill="#2563eb" opacity="0.08"/>
<circle cx="434.89" cy="560.44" r="2.2" fill="#2563eb" opacity="0.08"/>
<circle cx="440.69" cy="742.00" r="2.2" fill="#2563eb" opacity="0.08"/>
<circle cx="446.48" cy="742.00" r="2.2" fill="#2563eb" opacity="0.08"/>
<circle cx="452.28" cy="742.00" r="2.2" fill="#2563eb" opacity="0.08"/>
<circle cx="458.08" cy="742.00" r="2.2" fill="#2563eb" opacity="0.08"/>
<circle cx="463.88" cy="742.00" r="2.2" fill="#2563eb" opacity="0.08"/>
<circle cx="469.68" cy="742.00" r="2.2" fill="#2563eb" opacity="0.08"/>
<circle cx="475.47" cy="742.00" r="2.2" fill="#2563eb" opacity="0.08"/>
<circle cx="481.27" cy="613.14" r="2.2" fill="#2563eb" opacity="0.08"/>
<circle cx="487.07" cy="595.56" r="2.2" fill="#2563eb" opacity="0.08"/>
<circle cx="492.87" cy="736.10" r="2.2" fill="#2563eb" opacity="0.08"/>
<circle cx="498.67" cy="525.30" r="2.2" fill="#2563eb" opacity="0.08"/>
<circle cx="504.46" cy="742.00" r="2.2" fill="#2563eb" opacity="0.08"/>
<circle cx="510.26" cy="742.00" r="2.2" fill="#2563eb" opacity="0.08"/>
<circle cx="516.06" cy="742.00" r="2.2" fill="#2563eb" opacity="0.08"/>
<circle cx="521.86" cy="648.26" r="2.2" fill="#2563eb" opacity="0.08"/>
<circle cx="527.66" cy="736.10" r="2.2" fill="#2563eb" opacity="0.08"/>
<circle cx="533.45" cy="736.10" r="2.2" fill="#2563eb" opacity="0.08"/>
<circle cx="539.25" cy="665.84" r="2.2" fill="#2563eb" opacity="0.08"/>
<circle cx="545.05" cy="742.00" r="2.2" fill="#2563eb" opacity="0.08"/>
<circle cx="550.85" cy="742.00" r="2.2" fill="#2563eb" opacity="0.08"/>
<circle cx="556.65" cy="742.00" r="2.2" fill="#2563eb" opacity="0.08"/>
<circle cx="562.44" cy="742.00" r="2.2" fill="#2563eb" opacity="0.08"/>
<circle cx="568.24" cy="648.26" r="2.2" fill="#2563eb" opacity="0.08"/>
<circle cx="574.04" cy="595.56" r="2.2" fill="#2563eb" opacity="0.08"/>
<circle cx="579.84" cy="742.00" r="2.2" fill="#2563eb" opacity="0.08"/>
<circle cx="585.64" cy="736.10" r="2.2" fill="#2563eb" opacity="0.08"/>
<circle cx="591.43" cy="700.96" r="2.2" fill="#2563eb" opacity="0.08"/>
<circle cx="597.23" cy="742.00" r="2.2" fill="#2563eb" opacity="0.08"/>
<circle cx="603.03" cy="560.44" r="2.2" fill="#2563eb" opacity="0.08"/>
<circle cx="608.83" cy="700.96" r="2.2" fill="#2563eb" opacity="0.08"/>
<circle cx="614.63" cy="742.00" r="2.2" fill="#2563eb" opacity="0.08"/>
<circle cx="620.42" cy="613.14" r="2.2" fill="#2563eb" opacity="0.08"/>
<circle cx="626.22" cy="742.00" r="2.2" fill="#2563eb" opacity="0.08"/>
<circle cx="632.02" cy="560.44" r="2.2" fill="#2563eb" opacity="0.08"/>
<circle cx="637.82" cy="742.00" r="2.2" fill="#2563eb" opacity="0.08"/>
<circle cx="643.62" cy="742.00" r="2.2" fill="#2563eb" opacity="0.08"/>
<circle cx="649.41" cy="742.00" r="2.2" fill="#2563eb" opacity="0.08"/>
<circle cx="655.21" cy="648.26" r="2.2" fill="#2563eb" opacity="0.08"/>
<circle cx="661.01" cy="595.56" r="2.2" fill="#2563eb" opacity="0.08"/>
<circle cx="666.81" cy="742.00" r="2.2" fill="#2563eb" opacity="0.08"/>
<circle cx="672.61" cy="736.10" r="2.2" fill="#2563eb" opacity="0.08"/>
<circle cx="678.40" cy="700.96" r="2.2" fill="#2563eb" opacity="0.08"/>
<circle cx="684.20" cy="742.00" r="2.2" fill="#2563eb" opacity="0.08"/>
<circle cx="690.00" cy="560.44" r="2.2" fill="#2563eb" opacity="0.08"/>
<polyline fill="none" stroke="#ffffff" stroke-width="7.6" stroke-linecap="round" stroke-linejoin="round" points="116.00,595.56 121.80,595.56 127.60,595.56 133.39,595.56 139.19,595.56 144.99,595.56 150.79,595.56 156.59,595.56 162.38,595.56 168.18,595.56 173.98,490.16 179.78,490.16 185.58,490.16 191.37,490.16 197.17,490.16 202.97,490.16 208.77,472.60 214.57,472.60 220.36,472.60 226.16,472.60 231.96,472.60 237.76,472.60 243.56,472.60 249.35,472.60 255.15,472.60 260.95,472.60 266.75,472.60 272.55,472.60 278.34,472.60 284.14,472.60 289.94,472.60 295.74,472.60 301.54,472.60 307.33,472.60 313.13,472.60 318.93,472.60 324.73,472.60 330.53,472.60 336.32,472.60 342.12,472.60 347.92,472.60 353.72,472.60 359.52,472.60 365.31,472.60 371.11,472.60 376.91,472.60 382.71,472.60 388.51,472.60 394.30,472.60 400.10,472.60 405.90,472.60 411.70,472.60 417.49,472.60 423.29,472.60 429.09,472.60 434.89,472.60 440.69,472.60 446.48,472.60 452.28,472.60 458.08,472.60 463.88,472.60 469.68,472.60 475.47,472.60 481.27,472.60 487.07,472.60 492.87,472.60 498.67,472.60 504.46,472.60 510.26,472.60 516.06,472.60 521.86,472.60 527.66,472.60 533.45,472.60 539.25,472.60 545.05,472.60 550.85,472.60 556.65,472.60 562.44,472.60 568.24,472.60 574.04,472.60 579.84,472.60 585.64,472.60 591.43,472.60 597.23,472.60 603.03,472.60 608.83,472.60 614.63,472.60 620.42,472.60 626.22,472.60 632.02,472.60 637.82,472.60 643.62,472.60 649.41,472.60 655.21,472.60 661.01,472.60 666.81,472.60 672.61,472.60 678.40,472.60 684.20,472.60 690.00,472.60"/>
<polyline fill="none" stroke="#2563eb" stroke-width="4.2" stroke-linecap="round" stroke-linejoin="round" points="116.00,595.56 121.80,595.56 127.60,595.56 133.39,595.56 139.19,595.56 144.99,595.56 150.79,595.56 156.59,595.56 162.38,595.56 168.18,595.56 173.98,490.16 179.78,490.16 185.58,490.16 191.37,490.16 197.17,490.16 202.97,490.16 208.77,472.60 214.57,472.60 220.36,472.60 226.16,472.60 231.96,472.60 237.76,472.60 243.56,472.60 249.35,472.60 255.15,472.60 260.95,472.60 266.75,472.60 272.55,472.60 278.34,472.60 284.14,472.60 289.94,472.60 295.74,472.60 301.54,472.60 307.33,472.60 313.13,472.60 318.93,472.60 324.73,472.60 330.53,472.60 336.32,472.60 342.12,472.60 347.92,472.60 353.72,472.60 359.52,472.60 365.31,472.60 371.11,472.60 376.91,472.60 382.71,472.60 388.51,472.60 394.30,472.60 400.10,472.60 405.90,472.60 411.70,472.60 417.49,472.60 423.29,472.60 429.09,472.60 434.89,472.60 440.69,472.60 446.48,472.60 452.28,472.60 458.08,472.60 463.88,472.60 469.68,472.60 475.47,472.60 481.27,472.60 487.07,472.60 492.87,472.60 498.67,472.60 504.46,472.60 510.26,472.60 516.06,472.60 521.86,472.60 527.66,472.60 533.45,472.60 539.25,472.60 545.05,472.60 550.85,472.60 556.65,472.60 562.44,472.60 568.24,472.60 574.04,472.60 579.84,472.60 585.64,472.60 591.43,472.60 597.23,472.60 603.03,472.60 608.83,472.60 614.63,472.60 620.42,472.60 626.22,472.60 632.02,472.60 637.82,472.60 643.62,472.60 649.41,472.60 655.21,472.60 661.01,472.60 666.81,472.60 672.61,472.60 678.40,472.60 684.20,472.60 690.00,472.60"/>
<circle cx="690.00" cy="472.60" r="4.4" fill="#2563eb" stroke="#ffffff" stroke-width="1.6"/>
<polyline fill="none" stroke="#ffffff" stroke-width="9.0" stroke-linecap="round" stroke-linejoin="round" stroke-dasharray="10 6" points="116.00,742.00 121.80,490.16 127.60,490.16 133.39,490.16 139.19,490.16 144.99,490.16 150.79,490.16 156.59,490.16 162.38,490.16 168.18,490.16 173.98,490.16 179.78,490.16 185.58,490.16 191.37,490.16 197.17,490.16 202.97,490.16 208.77,490.16 214.57,490.16 220.36,490.16 226.16,490.16 231.96,490.16 237.76,490.16 243.56,490.16 249.35,490.16 255.15,490.16 260.95,490.16 266.75,490.16 272.55,490.16 278.34,490.16 284.14,490.16 289.94,490.16 295.74,490.16 301.54,490.16 307.33,490.16 313.13,490.16 318.93,490.16 324.73,490.16 330.53,490.16 336.32,490.16 342.12,490.16 347.92,490.16 353.72,490.16 359.52,490.16 365.31,490.16 371.11,490.16 376.91,490.16 382.71,490.16 388.51,490.16 394.30,490.16 400.10,490.16 405.90,490.16 411.70,490.16 417.49,490.16 423.29,490.16 429.09,490.16 434.89,490.16 440.69,490.16 446.48,490.16 452.28,490.16 458.08,490.16 463.88,490.16 469.68,490.16 475.47,490.16 481.27,490.16 487.07,490.16 492.87,490.16 498.67,490.16 504.46,490.16 510.26,490.16 516.06,490.16 521.86,490.16 527.66,490.16 533.45,490.16 539.25,490.16 545.05,490.16 550.85,490.16 556.65,490.16 562.44,490.16 568.24,490.16 574.04,490.16 579.84,490.16 585.64,490.16 591.43,490.16 597.23,490.16 603.03,490.16 608.83,490.16 614.63,490.16 620.42,490.16 626.22,490.16 632.02,490.16 637.82,490.16 643.62,490.16 649.41,490.16 655.21,490.16 661.01,490.16 666.81,490.16 672.61,490.16 678.40,490.16 684.20,490.16 690.00,490.16"/>
<polyline fill="none" stroke="#6d28d9" stroke-width="5.2" stroke-linecap="round" stroke-linejoin="round" stroke-dasharray="10 6" points="116.00,742.00 121.80,490.16 127.60,490.16 133.39,490.16 139.19,490.16 144.99,490.16 150.79,490.16 156.59,490.16 162.38,490.16 168.18,490.16 173.98,490.16 179.78,490.16 185.58,490.16 191.37,490.16 197.17,490.16 202.97,490.16 208.77,490.16 214.57,490.16 220.36,490.16 226.16,490.16 231.96,490.16 237.76,490.16 243.56,490.16 249.35,490.16 255.15,490.16 260.95,490.16 266.75,490.16 272.55,490.16 278.34,490.16 284.14,490.16 289.94,490.16 295.74,490.16 301.54,490.16 307.33,490.16 313.13,490.16 318.93,490.16 324.73,490.16 330.53,490.16 336.32,490.16 342.12,490.16 347.92,490.16 353.72,490.16 359.52,490.16 365.31,490.16 371.11,490.16 376.91,490.16 382.71,490.16 388.51,490.16 394.30,490.16 400.10,490.16 405.90,490.16 411.70,490.16 417.49,490.16 423.29,490.16 429.09,490.16 434.89,490.16 440.69,490.16 446.48,490.16 452.28,490.16 458.08,490.16 463.88,490.16 469.68,490.16 475.47,490.16 481.27,490.16 487.07,490.16 492.87,490.16 498.67,490.16 504.46,490.16 510.26,490.16 516.06,490.16 521.86,490.16 527.66,490.16 533.45,490.16 539.25,490.16 545.05,490.16 550.85,490.16 556.65,490.16 562.44,490.16 568.24,490.16 574.04,490.16 579.84,490.16 585.64,490.16 591.43,490.16 597.23,490.16 603.03,490.16 608.83,490.16 614.63,490.16 620.42,490.16 626.22,490.16 632.02,490.16 637.82,490.16 643.62,490.16 649.41,490.16 655.21,490.16 661.01,490.16 666.81,490.16 672.61,490.16 678.40,490.16 684.20,490.16 690.00,490.16"/>
<rect x="112.00" y="738.00" width="8.00" height="8.00" rx="1.8" fill="#6d28d9" stroke="#ffffff" stroke-width="1.2"/>
<rect x="251.15" y="486.16" width="8.00" height="8.00" rx="1.8" fill="#6d28d9" stroke="#ffffff" stroke-width="1.2"/>
<rect x="396.10" y="486.16" width="8.00" height="8.00" rx="1.8" fill="#6d28d9" stroke="#ffffff" stroke-width="1.2"/>
<rect x="541.05" y="486.16" width="8.00" height="8.00" rx="1.8" fill="#6d28d9" stroke="#ffffff" stroke-width="1.2"/>
<rect x="686.00" y="486.16" width="8.00" height="8.00" rx="1.8" fill="#6d28d9" stroke="#ffffff" stroke-width="1.2"/>
<circle cx="690.00" cy="490.16" r="5.6" fill="#6d28d9" stroke="#ffffff" stroke-width="1.6"/>
<rect x="591.00" y="474.16" width="89.00" height="22" rx="11" fill="#ffffff" stroke="#6d28d9" stroke-width="1.4"/>
<text x="635.50" y="489.16" text-anchor="middle" font-family="Helvetica,Arial,sans-serif" font-size="12.5" font-weight="700" fill="#6d28d9">TPE Direct</text>
<polyline fill="none" stroke="#ffffff" stroke-width="9.0" stroke-linecap="round" stroke-linejoin="round" stroke-dasharray="2 4" points="116.00,742.00 121.80,742.00 127.60,742.00 133.39,742.00 139.19,742.00 144.99,742.00 150.79,742.00 156.59,742.00 162.38,742.00 168.18,665.84 173.98,665.84 179.78,665.84 185.58,578.00 191.37,578.00 197.17,578.00 202.97,578.00 208.77,560.44 214.57,560.44 220.36,560.44 226.16,560.44 231.96,490.16 237.76,490.16 243.56,490.16 249.35,490.16 255.15,490.16 260.95,490.16 266.75,490.16 272.55,490.16 278.34,490.16 284.14,490.16 289.94,490.16 295.74,490.16 301.54,490.16 307.33,490.16 313.13,490.16 318.93,490.16 324.73,490.16 330.53,490.16 336.32,490.16 342.12,490.16 347.92,490.16 353.72,490.16 359.52,490.16 365.31,490.16 371.11,490.16 376.91,490.16 382.71,490.16 388.51,490.16 394.30,490.16 400.10,437.46 405.90,437.46 411.70,437.46 417.49,437.46 423.29,437.46 429.09,437.46 434.89,437.46 440.69,437.46 446.48,437.46 452.28,437.46 458.08,437.46 463.88,437.46 469.68,437.46 475.47,437.46 481.27,437.46 487.07,437.46 492.87,437.46 498.67,437.46 504.46,437.46 510.26,437.46 516.06,437.46 521.86,437.46 527.66,419.90 533.45,419.90 539.25,419.90 545.05,419.90 550.85,419.90 556.65,419.90 562.44,419.90 568.24,419.90 574.04,419.90 579.84,419.90 585.64,384.76 591.43,384.76 597.23,384.76 603.03,384.76 608.83,384.76 614.63,384.76 620.42,384.76 626.22,384.76 632.02,384.76 637.82,384.76 643.62,384.76 649.41,384.76 655.21,384.76 661.01,384.76 666.81,384.76 672.61,384.76 678.40,314.50 684.20,314.50 690.00,314.50"/>
<polyline fill="none" stroke="#111827" stroke-width="5.2" stroke-linecap="round" stroke-linejoin="round" stroke-dasharray="2 4" points="116.00,742.00 121.80,742.00 127.60,742.00 133.39,742.00 139.19,742.00 144.99,742.00 150.79,742.00 156.59,742.00 162.38,742.00 168.18,665.84 173.98,665.84 179.78,665.84 185.58,578.00 191.37,578.00 197.17,578.00 202.97,578.00 208.77,560.44 214.57,560.44 220.36,560.44 226.16,560.44 231.96,490.16 237.76,490.16 243.56,490.16 249.35,490.16 255.15,490.16 260.95,490.16 266.75,490.16 272.55,490.16 278.34,490.16 284.14,490.16 289.94,490.16 295.74,490.16 301.54,490.16 307.33,490.16 313.13,490.16 318.93,490.16 324.73,490.16 330.53,490.16 336.32,490.16 342.12,490.16 347.92,490.16 353.72,490.16 359.52,490.16 365.31,490.16 371.11,490.16 376.91,490.16 382.71,490.16 388.51,490.16 394.30,490.16 400.10,437.46 405.90,437.46 411.70,437.46 417.49,437.46 423.29,437.46 429.09,437.46 434.89,437.46 440.69,437.46 446.48,437.46 452.28,437.46 458.08,437.46 463.88,437.46 469.68,437.46 475.47,437.46 481.27,437.46 487.07,437.46 492.87,437.46 498.67,437.46 504.46,437.46 510.26,437.46 516.06,437.46 521.86,437.46 527.66,419.90 533.45,419.90 539.25,419.90 545.05,419.90 550.85,419.90 556.65,419.90 562.44,419.90 568.24,419.90 574.04,419.90 579.84,419.90 585.64,384.76 591.43,384.76 597.23,384.76 603.03,384.76 608.83,384.76 614.63,384.76 620.42,384.76 626.22,384.76 632.02,384.76 637.82,384.76 643.62,384.76 649.41,384.76 655.21,384.76 661.01,384.76 666.81,384.76 672.61,384.76 678.40,314.50 684.20,314.50 690.00,314.50"/>
<rect x="111.60" y="737.60" width="8.80" height="8.80" rx="1.8" fill="#111827" stroke="#ffffff" stroke-width="1.2"/>
<rect x="250.75" y="485.76" width="8.80" height="8.80" rx="1.8" fill="#111827" stroke="#ffffff" stroke-width="1.2"/>
<rect x="395.70" y="433.06" width="8.80" height="8.80" rx="1.8" fill="#111827" stroke="#ffffff" stroke-width="1.2"/>
<rect x="540.65" y="415.50" width="8.80" height="8.80" rx="1.8" fill="#111827" stroke="#ffffff" stroke-width="1.2"/>
<rect x="685.60" y="310.10" width="8.80" height="8.80" rx="1.8" fill="#111827" stroke="#ffffff" stroke-width="1.2"/>
<circle cx="690.00" cy="314.50" r="5.6" fill="#111827" stroke="#ffffff" stroke-width="1.6"/>
<rect x="583.90" y="332.50" width="96.10" height="22" rx="11" fill="#ffffff" stroke="#111827" stroke-width="1.4"/>
<text x="631.95" y="347.50" text-anchor="middle" font-family="Helvetica,Arial,sans-serif" font-size="12.5" font-weight="700" fill="#111827">SMAC Direct</text>
<rect x="746.0" y="134" width="660.0" height="646" rx="24" fill="#ffffff" stroke="#d7dce3" stroke-width="1.1"/>
<text class="label" x="764.0" y="156" font-size="20" font-weight="700">Twenty Newsgroups</text>
<text class="subtle" x="1388.0" y="156" text-anchor="end" font-size="13">lower-tail clip at 0.526 (136 evals)</text>
<line class="grid" x1="808.0" y1="168.0" x2="1382.0" y2="168.0"/>
<text class="subtle" x="798.0" y="173.0" text-anchor="end" font-size="13">0.576</text>
<line class="grid" x1="808.0" y1="311.5" x2="1382.0" y2="311.5"/>
<text class="subtle" x="798.0" y="316.5" text-anchor="end" font-size="13">0.564</text>
<line class="grid" x1="808.0" y1="455.0" x2="1382.0" y2="455.0"/>
<text class="subtle" x="798.0" y="460.0" text-anchor="end" font-size="13">0.551</text>
<line class="grid" x1="808.0" y1="598.5" x2="1382.0" y2="598.5"/>
<text class="subtle" x="798.0" y="603.5" text-anchor="end" font-size="13">0.538</text>
<line class="grid" x1="808.0" y1="742.0" x2="1382.0" y2="742.0"/>
<text class="subtle" x="798.0" y="747.0" text-anchor="end" font-size="13">&lt;=0.526</text>
<line class="grid" x1="808.0" y1="168" x2="808.0" y2="742"/>
<text class="subtle" x="808.0" y="764.0" text-anchor="middle" font-size="13">1</text>
<line class="grid" x1="947.2" y1="168" x2="947.2" y2="742"/>
<text class="subtle" x="947.2" y="764.0" text-anchor="middle" font-size="13">25</text>
<line class="grid" x1="1092.1" y1="168" x2="1092.1" y2="742"/>
<text class="subtle" x="1092.1" y="764.0" text-anchor="middle" font-size="13">50</text>
<line class="grid" x1="1237.1" y1="168" x2="1237.1" y2="742"/>
<text class="subtle" x="1237.1" y="764.0" text-anchor="middle" font-size="13">75</text>
<line class="grid" x1="1382.0" y1="168" x2="1382.0" y2="742"/>
<text class="subtle" x="1382.0" y="764.0" text-anchor="middle" font-size="13">100</text>
<line x1="808.0" y1="168" x2="808.0" y2="742" stroke="#1f2328" stroke-width="1.2"/>
<line x1="808.0" y1="742" x2="1382.0" y2="742" stroke="#1f2328" stroke-width="1.2"/>
<text class="subtle" x="1095.0" y="788.0" text-anchor="middle" font-size="14">Round index per condition (1-100 budget)</text>
<circle cx="819.60" cy="742.00" r="2.2" fill="#6d28d9" opacity="0.08"/>
<circle cx="831.19" cy="742.00" r="2.2" fill="#6d28d9" opacity="0.08"/>
<circle cx="836.99" cy="742.00" r="2.2" fill="#6d28d9" opacity="0.08"/>
<circle cx="842.79" cy="742.00" r="2.2" fill="#6d28d9" opacity="0.08"/>
<circle cx="854.38" cy="742.00" r="2.2" fill="#6d28d9" opacity="0.08"/>
<circle cx="860.18" cy="742.00" r="2.2" fill="#6d28d9" opacity="0.08"/>
<circle cx="865.98" cy="742.00" r="2.2" fill="#6d28d9" opacity="0.08"/>
<circle cx="871.78" cy="742.00" r="2.2" fill="#6d28d9" opacity="0.08"/>
<circle cx="883.37" cy="742.00" r="2.2" fill="#6d28d9" opacity="0.08"/>
<circle cx="889.17" cy="742.00" r="2.2" fill="#6d28d9" opacity="0.08"/>
<circle cx="894.97" cy="742.00" r="2.2" fill="#6d28d9" opacity="0.08"/>
<circle cx="906.57" cy="694.62" r="2.2" fill="#6d28d9" opacity="0.08"/>
<circle cx="912.36" cy="742.00" r="2.2" fill="#6d28d9" opacity="0.08"/>
<circle cx="918.16" cy="723.09" r="2.2" fill="#6d28d9" opacity="0.08"/>
<circle cx="923.96" cy="628.18" r="2.2" fill="#6d28d9" opacity="0.08"/>
<circle cx="929.76" cy="637.66" r="2.2" fill="#6d28d9" opacity="0.08"/>
<circle cx="935.56" cy="628.18" r="2.2" fill="#6d28d9" opacity="0.08"/>
<circle cx="941.35" cy="656.65" r="2.2" fill="#6d28d9" opacity="0.08"/>
<circle cx="947.15" cy="628.18" r="2.2" fill="#6d28d9" opacity="0.08"/>
<circle cx="958.75" cy="514.27" r="2.2" fill="#6d28d9" opacity="0.08"/>
<circle cx="964.55" cy="533.25" r="2.2" fill="#6d28d9" opacity="0.08"/>
<circle cx="970.34" cy="742.00" r="2.2" fill="#6d28d9" opacity="0.08"/>
<circle cx="976.14" cy="742.00" r="2.2" fill="#6d28d9" opacity="0.08"/>
<circle cx="981.94" cy="742.00" r="2.2" fill="#6d28d9" opacity="0.08"/>
<circle cx="987.74" cy="618.68" r="2.2" fill="#6d28d9" opacity="0.08"/>
<circle cx="993.54" cy="713.60" r="2.2" fill="#6d28d9" opacity="0.08"/>
<circle cx="999.33" cy="628.18" r="2.2" fill="#6d28d9" opacity="0.08"/>
<circle cx="1005.13" cy="742.00" r="2.2" fill="#6d28d9" opacity="0.08"/>
<circle cx="1010.93" cy="742.00" r="2.2" fill="#6d28d9" opacity="0.08"/>
<circle cx="1016.73" cy="742.00" r="2.2" fill="#6d28d9" opacity="0.08"/>
<circle cx="1022.53" cy="742.00" r="2.2" fill="#6d28d9" opacity="0.08"/>
<circle cx="1028.32" cy="742.00" r="2.2" fill="#6d28d9" opacity="0.08"/>
<circle cx="1034.12" cy="742.00" r="2.2" fill="#6d28d9" opacity="0.08"/>
<circle cx="1039.92" cy="647.15" r="2.2" fill="#6d28d9" opacity="0.08"/>
<circle cx="1051.52" cy="628.18" r="2.2" fill="#6d28d9" opacity="0.08"/>
<circle cx="1057.31" cy="742.00" r="2.2" fill="#6d28d9" opacity="0.08"/>
<circle cx="1063.11" cy="618.68" r="2.2" fill="#6d28d9" opacity="0.08"/>
<circle cx="1068.91" cy="742.00" r="2.2" fill="#6d28d9" opacity="0.08"/>
<circle cx="1074.71" cy="742.00" r="2.2" fill="#6d28d9" opacity="0.08"/>
<circle cx="1080.51" cy="742.00" r="2.2" fill="#6d28d9" opacity="0.08"/>
<circle cx="1086.30" cy="713.60" r="2.2" fill="#6d28d9" opacity="0.08"/>
<circle cx="1092.10" cy="742.00" r="2.2" fill="#6d28d9" opacity="0.08"/>
<circle cx="1097.90" cy="742.00" r="2.2" fill="#6d28d9" opacity="0.08"/>
<circle cx="1103.70" cy="675.63" r="2.2" fill="#6d28d9" opacity="0.08"/>
<circle cx="1109.49" cy="618.68" r="2.2" fill="#6d28d9" opacity="0.08"/>
<circle cx="1115.29" cy="694.62" r="2.2" fill="#6d28d9" opacity="0.08"/>
<circle cx="1121.09" cy="599.70" r="2.2" fill="#6d28d9" opacity="0.08"/>
<circle cx="1126.89" cy="742.00" r="2.2" fill="#6d28d9" opacity="0.08"/>
<circle cx="1132.69" cy="742.00" r="2.2" fill="#6d28d9" opacity="0.08"/>
<circle cx="1138.48" cy="637.66" r="2.2" fill="#6d28d9" opacity="0.08"/>
<circle cx="1144.28" cy="656.65" r="2.2" fill="#6d28d9" opacity="0.08"/>
<circle cx="1150.08" cy="742.00" r="2.2" fill="#6d28d9" opacity="0.08"/>
<circle cx="1155.88" cy="704.10" r="2.2" fill="#6d28d9" opacity="0.08"/>
<circle cx="1161.68" cy="742.00" r="2.2" fill="#6d28d9" opacity="0.08"/>
<circle cx="1167.47" cy="742.00" r="2.2" fill="#6d28d9" opacity="0.08"/>
<circle cx="1173.27" cy="742.00" r="2.2" fill="#6d28d9" opacity="0.08"/>
<circle cx="1179.07" cy="675.63" r="2.2" fill="#6d28d9" opacity="0.08"/>
<circle cx="1184.87" cy="609.19" r="2.2" fill="#6d28d9" opacity="0.08"/>
<circle cx="1190.67" cy="637.66" r="2.2" fill="#6d28d9" opacity="0.08"/>
<circle cx="1196.46" cy="742.00" r="2.2" fill="#6d28d9" opacity="0.08"/>
<circle cx="1202.26" cy="742.00" r="2.2" fill="#6d28d9" opacity="0.08"/>
<circle cx="1208.06" cy="628.18" r="2.2" fill="#6d28d9" opacity="0.08"/>
<circle cx="1213.86" cy="637.66" r="2.2" fill="#6d28d9" opacity="0.08"/>
<circle cx="1219.66" cy="571.22" r="2.2" fill="#6d28d9" opacity="0.08"/>
<circle cx="1225.45" cy="533.25" r="2.2" fill="#6d28d9" opacity="0.08"/>
<circle cx="1231.25" cy="552.23" r="2.2" fill="#6d28d9" opacity="0.08"/>
<circle cx="1237.05" cy="552.23" r="2.2" fill="#6d28d9" opacity="0.08"/>
<circle cx="1242.85" cy="552.23" r="2.2" fill="#6d28d9" opacity="0.08"/>
<circle cx="1248.65" cy="552.23" r="2.2" fill="#6d28d9" opacity="0.08"/>
<circle cx="1254.44" cy="742.00" r="2.2" fill="#6d28d9" opacity="0.08"/>
<circle cx="1260.24" cy="552.23" r="2.2" fill="#6d28d9" opacity="0.08"/>
<circle cx="1266.04" cy="742.00" r="2.2" fill="#6d28d9" opacity="0.08"/>
<circle cx="1271.84" cy="694.62" r="2.2" fill="#6d28d9" opacity="0.08"/>
<circle cx="1277.64" cy="713.60" r="2.2" fill="#6d28d9" opacity="0.08"/>
<circle cx="1283.43" cy="542.75" r="2.2" fill="#6d28d9" opacity="0.08"/>
<circle cx="1289.23" cy="571.22" r="2.2" fill="#6d28d9" opacity="0.08"/>
<circle cx="1295.03" cy="542.75" r="2.2" fill="#6d28d9" opacity="0.08"/>
<circle cx="1300.83" cy="742.00" r="2.2" fill="#6d28d9" opacity="0.08"/>
<circle cx="1306.63" cy="704.10" r="2.2" fill="#6d28d9" opacity="0.08"/>
<circle cx="1312.42" cy="742.00" r="2.2" fill="#6d28d9" opacity="0.08"/>
<circle cx="1318.22" cy="675.63" r="2.2" fill="#6d28d9" opacity="0.08"/>
<circle cx="1324.02" cy="542.75" r="2.2" fill="#6d28d9" opacity="0.08"/>
<circle cx="1329.82" cy="618.68" r="2.2" fill="#6d28d9" opacity="0.08"/>
<circle cx="1335.62" cy="732.58" r="2.2" fill="#6d28d9" opacity="0.08"/>
<circle cx="1341.41" cy="580.71" r="2.2" fill="#6d28d9" opacity="0.08"/>
<circle cx="1347.21" cy="656.65" r="2.2" fill="#6d28d9" opacity="0.08"/>
<circle cx="1353.01" cy="704.10" r="2.2" fill="#6d28d9" opacity="0.08"/>
<circle cx="1358.81" cy="533.25" r="2.2" fill="#6d28d9" opacity="0.08"/>
<circle cx="1364.61" cy="742.00" r="2.2" fill="#6d28d9" opacity="0.08"/>
<circle cx="1370.40" cy="742.00" r="2.2" fill="#6d28d9" opacity="0.08"/>
<circle cx="1376.20" cy="742.00" r="2.2" fill="#6d28d9" opacity="0.08"/>
<circle cx="1382.00" cy="618.68" r="2.2" fill="#6d28d9" opacity="0.08"/>
<circle cx="813.80" cy="742.00" r="2.2" fill="#111827" opacity="0.08"/>
<circle cx="819.60" cy="742.00" r="2.2" fill="#111827" opacity="0.08"/>
<circle cx="831.19" cy="742.00" r="2.2" fill="#111827" opacity="0.08"/>
<circle cx="836.99" cy="694.62" r="2.2" fill="#111827" opacity="0.08"/>
<circle cx="842.79" cy="742.00" r="2.2" fill="#111827" opacity="0.08"/>
<circle cx="848.59" cy="742.00" r="2.2" fill="#111827" opacity="0.08"/>
<circle cx="854.38" cy="742.00" r="2.2" fill="#111827" opacity="0.08"/>
<circle cx="860.18" cy="742.00" r="2.2" fill="#111827" opacity="0.08"/>
<circle cx="871.78" cy="742.00" r="2.2" fill="#111827" opacity="0.08"/>
<circle cx="877.58" cy="742.00" r="2.2" fill="#111827" opacity="0.08"/>
<circle cx="883.37" cy="742.00" r="2.2" fill="#111827" opacity="0.08"/>
<circle cx="889.17" cy="675.63" r="2.2" fill="#111827" opacity="0.08"/>
<circle cx="894.97" cy="742.00" r="2.2" fill="#111827" opacity="0.08"/>
<circle cx="900.77" cy="647.15" r="2.2" fill="#111827" opacity="0.08"/>
<circle cx="906.57" cy="742.00" r="2.2" fill="#111827" opacity="0.08"/>
<circle cx="912.36" cy="742.00" r="2.2" fill="#111827" opacity="0.08"/>
<circle cx="918.16" cy="742.00" r="2.2" fill="#111827" opacity="0.08"/>
<circle cx="923.96" cy="647.15" r="2.2" fill="#111827" opacity="0.08"/>
<circle cx="929.76" cy="742.00" r="2.2" fill="#111827" opacity="0.08"/>
<circle cx="935.56" cy="599.70" r="2.2" fill="#111827" opacity="0.08"/>
<circle cx="941.35" cy="742.00" r="2.2" fill="#111827" opacity="0.08"/>
<circle cx="947.15" cy="637.66" r="2.2" fill="#111827" opacity="0.08"/>
<circle cx="952.95" cy="742.00" r="2.2" fill="#111827" opacity="0.08"/>
<circle cx="964.55" cy="742.00" r="2.2" fill="#111827" opacity="0.08"/>
<circle cx="970.34" cy="656.65" r="2.2" fill="#111827" opacity="0.08"/>
<circle cx="976.14" cy="742.00" r="2.2" fill="#111827" opacity="0.08"/>
<circle cx="981.94" cy="590.20" r="2.2" fill="#111827" opacity="0.08"/>
<circle cx="987.74" cy="742.00" r="2.2" fill="#111827" opacity="0.08"/>
<circle cx="993.54" cy="723.09" r="2.2" fill="#111827" opacity="0.08"/>
<circle cx="999.33" cy="637.66" r="2.2" fill="#111827" opacity="0.08"/>
<circle cx="1005.13" cy="742.00" r="2.2" fill="#111827" opacity="0.08"/>
<circle cx="1010.93" cy="742.00" r="2.2" fill="#111827" opacity="0.08"/>
<circle cx="1016.73" cy="590.20" r="2.2" fill="#111827" opacity="0.08"/>
<circle cx="1022.53" cy="742.00" r="2.2" fill="#111827" opacity="0.08"/>
<circle cx="1028.32" cy="742.00" r="2.2" fill="#111827" opacity="0.08"/>
<circle cx="1034.12" cy="742.00" r="2.2" fill="#111827" opacity="0.08"/>
<circle cx="1045.72" cy="580.71" r="2.2" fill="#111827" opacity="0.08"/>
<circle cx="1051.52" cy="580.71" r="2.2" fill="#111827" opacity="0.08"/>
<circle cx="1057.31" cy="742.00" r="2.2" fill="#111827" opacity="0.08"/>
<circle cx="1063.11" cy="656.65" r="2.2" fill="#111827" opacity="0.08"/>
<circle cx="1068.91" cy="580.71" r="2.2" fill="#111827" opacity="0.08"/>
<circle cx="1074.71" cy="571.22" r="2.2" fill="#111827" opacity="0.08"/>
<circle cx="1080.51" cy="742.00" r="2.2" fill="#111827" opacity="0.08"/>
<circle cx="1086.30" cy="637.66" r="2.2" fill="#111827" opacity="0.08"/>
<circle cx="1092.10" cy="580.71" r="2.2" fill="#111827" opacity="0.08"/>
<circle cx="1097.90" cy="599.70" r="2.2" fill="#111827" opacity="0.08"/>
<circle cx="1103.70" cy="742.00" r="2.2" fill="#111827" opacity="0.08"/>
<circle cx="1115.29" cy="571.22" r="2.2" fill="#111827" opacity="0.08"/>
<circle cx="1121.09" cy="561.72" r="2.2" fill="#111827" opacity="0.08"/>
<circle cx="1126.89" cy="694.62" r="2.2" fill="#111827" opacity="0.08"/>
<circle cx="1132.69" cy="561.72" r="2.2" fill="#111827" opacity="0.08"/>
<circle cx="1138.48" cy="599.70" r="2.2" fill="#111827" opacity="0.08"/>
<circle cx="1144.28" cy="561.72" r="2.2" fill="#111827" opacity="0.08"/>
<circle cx="1150.08" cy="742.00" r="2.2" fill="#111827" opacity="0.08"/>
<circle cx="1155.88" cy="742.00" r="2.2" fill="#111827" opacity="0.08"/>
<circle cx="1167.47" cy="580.71" r="2.2" fill="#111827" opacity="0.08"/>
<circle cx="1173.27" cy="742.00" r="2.2" fill="#111827" opacity="0.08"/>
<circle cx="1179.07" cy="742.00" r="2.2" fill="#111827" opacity="0.08"/>
<circle cx="1184.87" cy="552.23" r="2.2" fill="#111827" opacity="0.08"/>
<circle cx="1190.67" cy="742.00" r="2.2" fill="#111827" opacity="0.08"/>
<circle cx="1196.46" cy="742.00" r="2.2" fill="#111827" opacity="0.08"/>
<circle cx="1202.26" cy="618.68" r="2.2" fill="#111827" opacity="0.08"/>
<circle cx="1208.06" cy="742.00" r="2.2" fill="#111827" opacity="0.08"/>
<circle cx="1213.86" cy="571.22" r="2.2" fill="#111827" opacity="0.08"/>
<circle cx="1219.66" cy="742.00" r="2.2" fill="#111827" opacity="0.08"/>
<circle cx="1225.45" cy="552.23" r="2.2" fill="#111827" opacity="0.08"/>
<circle cx="1231.25" cy="542.75" r="2.2" fill="#111827" opacity="0.08"/>
<circle cx="1237.05" cy="685.13" r="2.2" fill="#111827" opacity="0.08"/>
<circle cx="1242.85" cy="742.00" r="2.2" fill="#111827" opacity="0.08"/>
<circle cx="1248.65" cy="542.75" r="2.2" fill="#111827" opacity="0.08"/>
<circle cx="1254.44" cy="542.75" r="2.2" fill="#111827" opacity="0.08"/>
<circle cx="1260.24" cy="542.75" r="2.2" fill="#111827" opacity="0.08"/>
<circle cx="1266.04" cy="742.00" r="2.2" fill="#111827" opacity="0.08"/>
<circle cx="1271.84" cy="742.00" r="2.2" fill="#111827" opacity="0.08"/>
<circle cx="1277.64" cy="742.00" r="2.2" fill="#111827" opacity="0.08"/>
<circle cx="1283.43" cy="742.00" r="2.2" fill="#111827" opacity="0.08"/>
<circle cx="1289.23" cy="742.00" r="2.2" fill="#111827" opacity="0.08"/>
<circle cx="1295.03" cy="542.75" r="2.2" fill="#111827" opacity="0.08"/>
<circle cx="1300.83" cy="742.00" r="2.2" fill="#111827" opacity="0.08"/>
<circle cx="1306.63" cy="732.58" r="2.2" fill="#111827" opacity="0.08"/>
<circle cx="1312.42" cy="742.00" r="2.2" fill="#111827" opacity="0.08"/>
<circle cx="1318.22" cy="742.00" r="2.2" fill="#111827" opacity="0.08"/>
<circle cx="1324.02" cy="742.00" r="2.2" fill="#111827" opacity="0.08"/>
<circle cx="1329.82" cy="742.00" r="2.2" fill="#111827" opacity="0.08"/>
<circle cx="1335.62" cy="742.00" r="2.2" fill="#111827" opacity="0.08"/>
<circle cx="1341.41" cy="742.00" r="2.2" fill="#111827" opacity="0.08"/>
<circle cx="1347.21" cy="685.13" r="2.2" fill="#111827" opacity="0.08"/>
<circle cx="1353.01" cy="542.75" r="2.2" fill="#111827" opacity="0.08"/>
<circle cx="1358.81" cy="742.00" r="2.2" fill="#111827" opacity="0.08"/>
<circle cx="1364.61" cy="542.75" r="2.2" fill="#111827" opacity="0.08"/>
<circle cx="1370.40" cy="666.14" r="2.2" fill="#111827" opacity="0.08"/>
<circle cx="1376.20" cy="742.00" r="2.2" fill="#111827" opacity="0.08"/>
<circle cx="1382.00" cy="742.00" r="2.2" fill="#111827" opacity="0.08"/>
<circle cx="813.80" cy="742.00" r="2.2" fill="#2563eb" opacity="0.08"/>
<circle cx="819.60" cy="742.00" r="2.2" fill="#2563eb" opacity="0.08"/>
<circle cx="825.39" cy="742.00" r="2.2" fill="#2563eb" opacity="0.08"/>
<circle cx="831.19" cy="742.00" r="2.2" fill="#2563eb" opacity="0.08"/>
<circle cx="842.79" cy="742.00" r="2.2" fill="#2563eb" opacity="0.08"/>
<circle cx="848.59" cy="742.00" r="2.2" fill="#2563eb" opacity="0.08"/>
<circle cx="854.38" cy="742.00" r="2.2" fill="#2563eb" opacity="0.08"/>
<circle cx="860.18" cy="742.00" r="2.2" fill="#2563eb" opacity="0.08"/>
<circle cx="865.98" cy="637.66" r="2.2" fill="#2563eb" opacity="0.08"/>
<circle cx="871.78" cy="742.00" r="2.2" fill="#2563eb" opacity="0.08"/>
<circle cx="877.58" cy="742.00" r="2.2" fill="#2563eb" opacity="0.08"/>
<circle cx="894.97" cy="637.66" r="2.2" fill="#2563eb" opacity="0.08"/>
<circle cx="900.77" cy="371.89" r="2.2" fill="#2563eb" opacity="0.08"/>
<circle cx="906.57" cy="742.00" r="2.2" fill="#2563eb" opacity="0.08"/>
<circle cx="912.36" cy="637.66" r="2.2" fill="#2563eb" opacity="0.08"/>
<circle cx="918.16" cy="438.33" r="2.2" fill="#2563eb" opacity="0.08"/>
<circle cx="923.96" cy="428.84" r="2.2" fill="#2563eb" opacity="0.08"/>
<circle cx="929.76" cy="742.00" r="2.2" fill="#2563eb" opacity="0.08"/>
<circle cx="935.56" cy="742.00" r="2.2" fill="#2563eb" opacity="0.08"/>
<circle cx="941.35" cy="742.00" r="2.2" fill="#2563eb" opacity="0.08"/>
<circle cx="947.15" cy="723.09" r="2.2" fill="#2563eb" opacity="0.08"/>
<circle cx="952.95" cy="533.25" r="2.2" fill="#2563eb" opacity="0.08"/>
<circle cx="964.55" cy="352.90" r="2.2" fill="#2563eb" opacity="0.08"/>
<circle cx="970.34" cy="552.23" r="2.2" fill="#2563eb" opacity="0.08"/>
<circle cx="976.14" cy="742.00" r="2.2" fill="#2563eb" opacity="0.08"/>
<circle cx="981.94" cy="552.23" r="2.2" fill="#2563eb" opacity="0.08"/>
<circle cx="987.74" cy="381.38" r="2.2" fill="#2563eb" opacity="0.08"/>
<circle cx="999.33" cy="438.33" r="2.2" fill="#2563eb" opacity="0.08"/>
<circle cx="1005.13" cy="742.00" r="2.2" fill="#2563eb" opacity="0.08"/>
<circle cx="1010.93" cy="742.00" r="2.2" fill="#2563eb" opacity="0.08"/>
<circle cx="1016.73" cy="656.65" r="2.2" fill="#2563eb" opacity="0.08"/>
<circle cx="1022.53" cy="656.65" r="2.2" fill="#2563eb" opacity="0.08"/>
<circle cx="1028.32" cy="656.65" r="2.2" fill="#2563eb" opacity="0.08"/>
<circle cx="1034.12" cy="742.00" r="2.2" fill="#2563eb" opacity="0.08"/>
<circle cx="1039.92" cy="400.37" r="2.2" fill="#2563eb" opacity="0.08"/>
<circle cx="1045.72" cy="466.81" r="2.2" fill="#2563eb" opacity="0.08"/>
<circle cx="1051.52" cy="514.27" r="2.2" fill="#2563eb" opacity="0.08"/>
<circle cx="1057.31" cy="466.81" r="2.2" fill="#2563eb" opacity="0.08"/>
<circle cx="1063.11" cy="390.87" r="2.2" fill="#2563eb" opacity="0.08"/>
<circle cx="1068.91" cy="371.89" r="2.2" fill="#2563eb" opacity="0.08"/>
<circle cx="1074.71" cy="324.43" r="2.2" fill="#2563eb" opacity="0.08"/>
<circle cx="1080.51" cy="742.00" r="2.2" fill="#2563eb" opacity="0.08"/>
<circle cx="1086.30" cy="713.60" r="2.2" fill="#2563eb" opacity="0.08"/>
<circle cx="1092.10" cy="314.94" r="2.2" fill="#2563eb" opacity="0.08"/>
<circle cx="1097.90" cy="419.34" r="2.2" fill="#2563eb" opacity="0.08"/>
<circle cx="1103.70" cy="542.75" r="2.2" fill="#2563eb" opacity="0.08"/>
<circle cx="1109.49" cy="419.34" r="2.2" fill="#2563eb" opacity="0.08"/>
<circle cx="1115.29" cy="742.00" r="2.2" fill="#2563eb" opacity="0.08"/>
<circle cx="1121.09" cy="542.75" r="2.2" fill="#2563eb" opacity="0.08"/>
<circle cx="1126.89" cy="495.28" r="2.2" fill="#2563eb" opacity="0.08"/>
<circle cx="1132.69" cy="419.34" r="2.2" fill="#2563eb" opacity="0.08"/>
<circle cx="1138.48" cy="742.00" r="2.2" fill="#2563eb" opacity="0.08"/>
<circle cx="1144.28" cy="742.00" r="2.2" fill="#2563eb" opacity="0.08"/>
<circle cx="1150.08" cy="742.00" r="2.2" fill="#2563eb" opacity="0.08"/>
<circle cx="1155.88" cy="685.13" r="2.2" fill="#2563eb" opacity="0.08"/>
<circle cx="1161.68" cy="647.15" r="2.2" fill="#2563eb" opacity="0.08"/>
<circle cx="1167.47" cy="742.00" r="2.2" fill="#2563eb" opacity="0.08"/>
<circle cx="1173.27" cy="447.82" r="2.2" fill="#2563eb" opacity="0.08"/>
<circle cx="1179.07" cy="742.00" r="2.2" fill="#2563eb" opacity="0.08"/>
<circle cx="1184.87" cy="400.37" r="2.2" fill="#2563eb" opacity="0.08"/>
<circle cx="1190.67" cy="457.32" r="2.2" fill="#2563eb" opacity="0.08"/>
<circle cx="1196.46" cy="476.29" r="2.2" fill="#2563eb" opacity="0.08"/>
<circle cx="1202.26" cy="419.34" r="2.2" fill="#2563eb" opacity="0.08"/>
<circle cx="1208.06" cy="419.34" r="2.2" fill="#2563eb" opacity="0.08"/>
<circle cx="1213.86" cy="371.89" r="2.2" fill="#2563eb" opacity="0.08"/>
<circle cx="1219.66" cy="400.37" r="2.2" fill="#2563eb" opacity="0.08"/>
<circle cx="1225.45" cy="742.00" r="2.2" fill="#2563eb" opacity="0.08"/>
<circle cx="1231.25" cy="742.00" r="2.2" fill="#2563eb" opacity="0.08"/>
<circle cx="1237.05" cy="324.43" r="2.2" fill="#2563eb" opacity="0.08"/>
<circle cx="1248.65" cy="371.89" r="2.2" fill="#2563eb" opacity="0.08"/>
<circle cx="1254.44" cy="571.22" r="2.2" fill="#2563eb" opacity="0.08"/>
<circle cx="1260.24" cy="371.89" r="2.2" fill="#2563eb" opacity="0.08"/>
<circle cx="1266.04" cy="713.60" r="2.2" fill="#2563eb" opacity="0.08"/>
<circle cx="1271.84" cy="571.22" r="2.2" fill="#2563eb" opacity="0.08"/>
<circle cx="1277.64" cy="552.23" r="2.2" fill="#2563eb" opacity="0.08"/>
<circle cx="1283.43" cy="305.44" r="2.2" fill="#2563eb" opacity="0.08"/>
<circle cx="1289.23" cy="742.00" r="2.2" fill="#2563eb" opacity="0.08"/>
<circle cx="1295.03" cy="742.00" r="2.2" fill="#2563eb" opacity="0.08"/>
<circle cx="1300.83" cy="742.00" r="2.2" fill="#2563eb" opacity="0.08"/>
<circle cx="1306.63" cy="742.00" r="2.2" fill="#2563eb" opacity="0.08"/>
<circle cx="1312.42" cy="742.00" r="2.2" fill="#2563eb" opacity="0.08"/>
<circle cx="1318.22" cy="552.23" r="2.2" fill="#2563eb" opacity="0.08"/>
<circle cx="1324.02" cy="371.89" r="2.2" fill="#2563eb" opacity="0.08"/>
<circle cx="1329.82" cy="742.00" r="2.2" fill="#2563eb" opacity="0.08"/>
<circle cx="1341.41" cy="333.91" r="2.2" fill="#2563eb" opacity="0.08"/>
<circle cx="1347.21" cy="637.66" r="2.2" fill="#2563eb" opacity="0.08"/>
<circle cx="1353.01" cy="333.91" r="2.2" fill="#2563eb" opacity="0.08"/>
<circle cx="1358.81" cy="742.00" r="2.2" fill="#2563eb" opacity="0.08"/>
<circle cx="1364.61" cy="637.66" r="2.2" fill="#2563eb" opacity="0.08"/>
<circle cx="1370.40" cy="485.79" r="2.2" fill="#2563eb" opacity="0.08"/>
<circle cx="1376.20" cy="400.37" r="2.2" fill="#2563eb" opacity="0.08"/>
<circle cx="1382.00" cy="742.00" r="2.2" fill="#2563eb" opacity="0.08"/>
<polyline fill="none" stroke="#ffffff" stroke-width="7.6" stroke-linecap="round" stroke-linejoin="round" points="808.00,742.00 813.80,742.00 819.60,742.00 825.39,742.00 831.19,742.00 836.99,590.20 842.79,590.20 848.59,590.20 854.38,590.20 860.18,590.20 865.98,590.20 871.78,590.20 877.58,590.20 883.37,580.71 889.17,371.89 894.97,371.89 900.77,371.89 906.57,371.89 912.36,371.89 918.16,371.89 923.96,371.89 929.76,371.89 935.56,371.89 941.35,371.89 947.15,371.89 952.95,371.89 958.75,352.90 964.55,352.90 970.34,352.90 976.14,352.90 981.94,352.90 987.74,352.90 993.54,314.94 999.33,314.94 1005.13,314.94 1010.93,314.94 1016.73,314.94 1022.53,314.94 1028.32,314.94 1034.12,314.94 1039.92,314.94 1045.72,314.94 1051.52,314.94 1057.31,314.94 1063.11,314.94 1068.91,314.94 1074.71,314.94 1080.51,314.94 1086.30,314.94 1092.10,314.94 1097.90,314.94 1103.70,314.94 1109.49,314.94 1115.29,314.94 1121.09,314.94 1126.89,314.94 1132.69,314.94 1138.48,314.94 1144.28,314.94 1150.08,314.94 1155.88,314.94 1161.68,314.94 1167.47,314.94 1173.27,314.94 1179.07,314.94 1184.87,314.94 1190.67,314.94 1196.46,314.94 1202.26,314.94 1208.06,314.94 1213.86,314.94 1219.66,314.94 1225.45,314.94 1231.25,314.94 1237.05,314.94 1242.85,305.44 1248.65,305.44 1254.44,305.44 1260.24,305.44 1266.04,305.44 1271.84,305.44 1277.64,305.44 1283.43,305.44 1289.23,305.44 1295.03,305.44 1300.83,305.44 1306.63,305.44 1312.42,305.44 1318.22,305.44 1324.02,305.44 1329.82,305.44 1335.62,286.46 1341.41,286.46 1347.21,286.46 1353.01,286.46 1358.81,286.46 1364.61,286.46 1370.40,286.46 1376.20,286.46 1382.00,286.46"/>
<polyline fill="none" stroke="#2563eb" stroke-width="4.2" stroke-linecap="round" stroke-linejoin="round" points="808.00,742.00 813.80,742.00 819.60,742.00 825.39,742.00 831.19,742.00 836.99,590.20 842.79,590.20 848.59,590.20 854.38,590.20 860.18,590.20 865.98,590.20 871.78,590.20 877.58,590.20 883.37,580.71 889.17,371.89 894.97,371.89 900.77,371.89 906.57,371.89 912.36,371.89 918.16,371.89 923.96,371.89 929.76,371.89 935.56,371.89 941.35,371.89 947.15,371.89 952.95,371.89 958.75,352.90 964.55,352.90 970.34,352.90 976.14,352.90 981.94,352.90 987.74,352.90 993.54,314.94 999.33,314.94 1005.13,314.94 1010.93,314.94 1016.73,314.94 1022.53,314.94 1028.32,314.94 1034.12,314.94 1039.92,314.94 1045.72,314.94 1051.52,314.94 1057.31,314.94 1063.11,314.94 1068.91,314.94 1074.71,314.94 1080.51,314.94 1086.30,314.94 1092.10,314.94 1097.90,314.94 1103.70,314.94 1109.49,314.94 1115.29,314.94 1121.09,314.94 1126.89,314.94 1132.69,314.94 1138.48,314.94 1144.28,314.94 1150.08,314.94 1155.88,314.94 1161.68,314.94 1167.47,314.94 1173.27,314.94 1179.07,314.94 1184.87,314.94 1190.67,314.94 1196.46,314.94 1202.26,314.94 1208.06,314.94 1213.86,314.94 1219.66,314.94 1225.45,314.94 1231.25,314.94 1237.05,314.94 1242.85,305.44 1248.65,305.44 1254.44,305.44 1260.24,305.44 1266.04,305.44 1271.84,305.44 1277.64,305.44 1283.43,305.44 1289.23,305.44 1295.03,305.44 1300.83,305.44 1306.63,305.44 1312.42,305.44 1318.22,305.44 1324.02,305.44 1329.82,305.44 1335.62,286.46 1341.41,286.46 1347.21,286.46 1353.01,286.46 1358.81,286.46 1364.61,286.46 1370.40,286.46 1376.20,286.46 1382.00,286.46"/>
<circle cx="1382.00" cy="286.46" r="4.4" fill="#2563eb" stroke="#ffffff" stroke-width="1.6"/>
<polyline fill="none" stroke="#ffffff" stroke-width="9.0" stroke-linecap="round" stroke-linejoin="round" stroke-dasharray="10 6" points="808.00,742.00 813.80,742.00 819.60,742.00 825.39,742.00 831.19,742.00 836.99,742.00 842.79,742.00 848.59,742.00 854.38,742.00 860.18,742.00 865.98,742.00 871.78,742.00 877.58,742.00 883.37,742.00 889.17,742.00 894.97,742.00 900.77,628.18 906.57,628.18 912.36,628.18 918.16,628.18 923.96,628.18 929.76,628.18 935.56,628.18 941.35,628.18 947.15,628.18 952.95,514.27 958.75,514.27 964.55,514.27 970.34,514.27 976.14,514.27 981.94,514.27 987.74,514.27 993.54,514.27 999.33,514.27 1005.13,514.27 1010.93,514.27 1016.73,514.27 1022.53,514.27 1028.32,514.27 1034.12,514.27 1039.92,514.27 1045.72,457.32 1051.52,457.32 1057.31,457.32 1063.11,457.32 1068.91,457.32 1074.71,457.32 1080.51,457.32 1086.30,457.32 1092.10,457.32 1097.90,457.32 1103.70,457.32 1109.49,457.32 1115.29,457.32 1121.09,457.32 1126.89,457.32 1132.69,457.32 1138.48,457.32 1144.28,457.32 1150.08,457.32 1155.88,457.32 1161.68,457.32 1167.47,457.32 1173.27,457.32 1179.07,457.32 1184.87,457.32 1190.67,457.32 1196.46,457.32 1202.26,457.32 1208.06,457.32 1213.86,457.32 1219.66,457.32 1225.45,457.32 1231.25,457.32 1237.05,457.32 1242.85,457.32 1248.65,457.32 1254.44,457.32 1260.24,457.32 1266.04,457.32 1271.84,457.32 1277.64,457.32 1283.43,457.32 1289.23,457.32 1295.03,457.32 1300.83,457.32 1306.63,457.32 1312.42,457.32 1318.22,457.32 1324.02,457.32 1329.82,457.32 1335.62,457.32 1341.41,457.32 1347.21,457.32 1353.01,457.32 1358.81,457.32 1364.61,457.32 1370.40,457.32 1376.20,457.32 1382.00,457.32"/>
<polyline fill="none" stroke="#6d28d9" stroke-width="5.2" stroke-linecap="round" stroke-linejoin="round" stroke-dasharray="10 6" points="808.00,742.00 813.80,742.00 819.60,742.00 825.39,742.00 831.19,742.00 836.99,742.00 842.79,742.00 848.59,742.00 854.38,742.00 860.18,742.00 865.98,742.00 871.78,742.00 877.58,742.00 883.37,742.00 889.17,742.00 894.97,742.00 900.77,628.18 906.57,628.18 912.36,628.18 918.16,628.18 923.96,628.18 929.76,628.18 935.56,628.18 941.35,628.18 947.15,628.18 952.95,514.27 958.75,514.27 964.55,514.27 970.34,514.27 976.14,514.27 981.94,514.27 987.74,514.27 993.54,514.27 999.33,514.27 1005.13,514.27 1010.93,514.27 1016.73,514.27 1022.53,514.27 1028.32,514.27 1034.12,514.27 1039.92,514.27 1045.72,457.32 1051.52,457.32 1057.31,457.32 1063.11,457.32 1068.91,457.32 1074.71,457.32 1080.51,457.32 1086.30,457.32 1092.10,457.32 1097.90,457.32 1103.70,457.32 1109.49,457.32 1115.29,457.32 1121.09,457.32 1126.89,457.32 1132.69,457.32 1138.48,457.32 1144.28,457.32 1150.08,457.32 1155.88,457.32 1161.68,457.32 1167.47,457.32 1173.27,457.32 1179.07,457.32 1184.87,457.32 1190.67,457.32 1196.46,457.32 1202.26,457.32 1208.06,457.32 1213.86,457.32 1219.66,457.32 1225.45,457.32 1231.25,457.32 1237.05,457.32 1242.85,457.32 1248.65,457.32 1254.44,457.32 1260.24,457.32 1266.04,457.32 1271.84,457.32 1277.64,457.32 1283.43,457.32 1289.23,457.32 1295.03,457.32 1300.83,457.32 1306.63,457.32 1312.42,457.32 1318.22,457.32 1324.02,457.32 1329.82,457.32 1335.62,457.32 1341.41,457.32 1347.21,457.32 1353.01,457.32 1358.81,457.32 1364.61,457.32 1370.40,457.32 1376.20,457.32 1382.00,457.32"/>
<rect x="804.00" y="738.00" width="8.00" height="8.00" rx="1.8" fill="#6d28d9" stroke="#ffffff" stroke-width="1.2"/>
<rect x="943.15" y="624.18" width="8.00" height="8.00" rx="1.8" fill="#6d28d9" stroke="#ffffff" stroke-width="1.2"/>
<rect x="1088.10" y="453.32" width="8.00" height="8.00" rx="1.8" fill="#6d28d9" stroke="#ffffff" stroke-width="1.2"/>
<rect x="1233.05" y="453.32" width="8.00" height="8.00" rx="1.8" fill="#6d28d9" stroke="#ffffff" stroke-width="1.2"/>
<rect x="1378.00" y="453.32" width="8.00" height="8.00" rx="1.8" fill="#6d28d9" stroke="#ffffff" stroke-width="1.2"/>
<circle cx="1382.00" cy="457.32" r="5.6" fill="#6d28d9" stroke="#ffffff" stroke-width="1.6"/>
<rect x="1283.00" y="441.32" width="89.00" height="22" rx="11" fill="#ffffff" stroke="#6d28d9" stroke-width="1.4"/>
<text x="1327.50" y="456.32" text-anchor="middle" font-family="Helvetica,Arial,sans-serif" font-size="12.5" font-weight="700" fill="#6d28d9">TPE Direct</text>
<polyline fill="none" stroke="#ffffff" stroke-width="9.0" stroke-linecap="round" stroke-linejoin="round" stroke-dasharray="2 4" points="808.00,742.00 813.80,742.00 819.60,742.00 825.39,694.62 831.19,694.62 836.99,694.62 842.79,694.62 848.59,694.62 854.38,694.62 860.18,694.62 865.98,599.70 871.78,599.70 877.58,599.70 883.37,599.70 889.17,599.70 894.97,599.70 900.77,599.70 906.57,599.70 912.36,599.70 918.16,599.70 923.96,599.70 929.76,599.70 935.56,599.70 941.35,599.70 947.15,599.70 952.95,599.70 958.75,590.20 964.55,590.20 970.34,590.20 976.14,590.20 981.94,590.20 987.74,590.20 993.54,590.20 999.33,590.20 1005.13,590.20 1010.93,590.20 1016.73,590.20 1022.53,590.20 1028.32,590.20 1034.12,590.20 1039.92,571.22 1045.72,571.22 1051.52,571.22 1057.31,571.22 1063.11,571.22 1068.91,571.22 1074.71,571.22 1080.51,571.22 1086.30,571.22 1092.10,571.22 1097.90,571.22 1103.70,571.22 1109.49,552.23 1115.29,552.23 1121.09,552.23 1126.89,552.23 1132.69,552.23 1138.48,552.23 1144.28,552.23 1150.08,552.23 1155.88,552.23 1161.68,542.75 1167.47,542.75 1173.27,542.75 1179.07,542.75 1184.87,542.75 1190.67,542.75 1196.46,542.75 1202.26,542.75 1208.06,542.75 1213.86,542.75 1219.66,542.75 1225.45,542.75 1231.25,542.75 1237.05,542.75 1242.85,542.75 1248.65,542.75 1254.44,542.75 1260.24,542.75 1266.04,542.75 1271.84,542.75 1277.64,542.75 1283.43,542.75 1289.23,542.75 1295.03,542.75 1300.83,542.75 1306.63,542.75 1312.42,542.75 1318.22,542.75 1324.02,542.75 1329.82,542.75 1335.62,542.75 1341.41,542.75 1347.21,542.75 1353.01,542.75 1358.81,542.75 1364.61,542.75 1370.40,542.75 1376.20,542.75 1382.00,542.75"/>
<polyline fill="none" stroke="#111827" stroke-width="5.2" stroke-linecap="round" stroke-linejoin="round" stroke-dasharray="2 4" points="808.00,742.00 813.80,742.00 819.60,742.00 825.39,694.62 831.19,694.62 836.99,694.62 842.79,694.62 848.59,694.62 854.38,694.62 860.18,694.62 865.98,599.70 871.78,599.70 877.58,599.70 883.37,599.70 889.17,599.70 894.97,599.70 900.77,599.70 906.57,599.70 912.36,599.70 918.16,599.70 923.96,599.70 929.76,599.70 935.56,599.70 941.35,599.70 947.15,599.70 952.95,599.70 958.75,590.20 964.55,590.20 970.34,590.20 976.14,590.20 981.94,590.20 987.74,590.20 993.54,590.20 999.33,590.20 1005.13,590.20 1010.93,590.20 1016.73,590.20 1022.53,590.20 1028.32,590.20 1034.12,590.20 1039.92,571.22 1045.72,571.22 1051.52,571.22 1057.31,571.22 1063.11,571.22 1068.91,571.22 1074.71,571.22 1080.51,571.22 1086.30,571.22 1092.10,571.22 1097.90,571.22 1103.70,571.22 1109.49,552.23 1115.29,552.23 1121.09,552.23 1126.89,552.23 1132.69,552.23 1138.48,552.23 1144.28,552.23 1150.08,552.23 1155.88,552.23 1161.68,542.75 1167.47,542.75 1173.27,542.75 1179.07,542.75 1184.87,542.75 1190.67,542.75 1196.46,542.75 1202.26,542.75 1208.06,542.75 1213.86,542.75 1219.66,542.75 1225.45,542.75 1231.25,542.75 1237.05,542.75 1242.85,542.75 1248.65,542.75 1254.44,542.75 1260.24,542.75 1266.04,542.75 1271.84,542.75 1277.64,542.75 1283.43,542.75 1289.23,542.75 1295.03,542.75 1300.83,542.75 1306.63,542.75 1312.42,542.75 1318.22,542.75 1324.02,542.75 1329.82,542.75 1335.62,542.75 1341.41,542.75 1347.21,542.75 1353.01,542.75 1358.81,542.75 1364.61,542.75 1370.40,542.75 1376.20,542.75 1382.00,542.75"/>
<rect x="803.60" y="737.60" width="8.80" height="8.80" rx="1.8" fill="#111827" stroke="#ffffff" stroke-width="1.2"/>
<rect x="942.75" y="595.30" width="8.80" height="8.80" rx="1.8" fill="#111827" stroke="#ffffff" stroke-width="1.2"/>
<rect x="1087.70" y="566.82" width="8.80" height="8.80" rx="1.8" fill="#111827" stroke="#ffffff" stroke-width="1.2"/>
<rect x="1232.65" y="538.35" width="8.80" height="8.80" rx="1.8" fill="#111827" stroke="#ffffff" stroke-width="1.2"/>
<rect x="1377.60" y="538.35" width="8.80" height="8.80" rx="1.8" fill="#111827" stroke="#ffffff" stroke-width="1.2"/>
<circle cx="1382.00" cy="542.75" r="5.6" fill="#111827" stroke="#ffffff" stroke-width="1.6"/>
<rect x="1275.90" y="560.75" width="96.10" height="22" rx="11" fill="#ffffff" stroke="#111827" stroke-width="1.4"/>
<text x="1323.95" y="575.75" text-anchor="middle" font-family="Helvetica,Arial,sans-serif" font-size="12.5" font-weight="700" fill="#111827">SMAC Direct</text>
</svg>