<svg xmlns="http://www.w3.org/2000/svg" width="1460" height="820" viewBox="0 0 1460 820">
<style>
.bg{fill:#fffdf8;}
.title{font-family:Helvetica,Arial,sans-serif;font-size:30px;font-weight:700;fill:#1f2328;}
.subtitle{font-family:Helvetica,Arial,sans-serif;font-size:16px;fill:#5b6470;}
.label{font-family:Helvetica,Arial,sans-serif;fill:#1f2328;}
.subtle{font-family:Helvetica,Arial,sans-serif;fill:#5b6470;}
.grid{stroke:#e8ebf0;stroke-width:1;}
</style>
<rect class="bg" width="1460" height="820"/>
<text class="title" x="54" y="38">Question 1: Best-Val History</text>
<line x1="54.0" y1="86" x2="78.0" y2="86" stroke="#6d28d9" stroke-width="3.5" stroke-dasharray="10 6"/>
<circle cx="66.0" cy="96" r="4" fill="#6d28d9" opacity="0.28"/>
<text class="label" x="88.0" y="91" font-size="16">TPE Direct</text>
<line x1="504.6666666666667" y1="86" x2="528.6666666666667" y2="86" stroke="#111827" stroke-width="3.5" stroke-dasharray="2 4"/>
<circle cx="516.6666666666667" cy="96" r="4" fill="#111827" opacity="0.28"/>
<text class="label" x="538.6666666666667" y="91" font-size="16">SMAC Direct</text>
<line x1="955.3333333333334" y1="86" x2="979.3333333333334" y2="86" stroke="#2563eb" stroke-width="3.5"/>
<circle cx="967.3333333333334" cy="96" r="4" fill="#2563eb" opacity="0.28"/>
<text class="label" x="989.3333333333334" y="91" font-size="16">Plain Agent</text>
<rect x="54.0" y="134" width="660.0" height="646" rx="24" fill="#ffffff" stroke="#d7dce3" stroke-width="1.1"/>
<text class="label" x="72.0" y="156" font-size="20" font-weight="700">SMS Spam</text>
<text class="subtle" x="696.0" y="156" text-anchor="end" font-size="13">lower-tail clip at 0.986 (124 evals)</text>
<line class="grid" x1="116.0" y1="168.0" x2="690.0" y2="168.0"/>
<text class="subtle" x="106.0" y="173.0" text-anchor="end" font-size="13">0.991</text>
<line class="grid" x1="116.0" y1="311.5" x2="690.0" y2="311.5"/>
<text class="subtle" x="106.0" y="316.5" text-anchor="end" font-size="13">0.990</text>
<line class="grid" x1="116.0" y1="455.0" x2="690.0" y2="455.0"/>
<text class="subtle" x="106.0" y="460.0" text-anchor="end" font-size="13">0.989</text>
<line class="grid" x1="116.0" y1="598.5" x2="690.0" y2="598.5"/>
<text class="subtle" x="106.0" y="603.5" text-anchor="end" font-size="13">0.987</text>
<line class="grid" x1="116.0" y1="742.0" x2="690.0" y2="742.0"/>
<text class="subtle" x="106.0" y="747.0" text-anchor="end" font-size="13">&lt;=0.986</text>
<line class="grid" x1="116.0" y1="168" x2="116.0" y2="742"/>
<text class="subtle" x="116.0" y="764.0" text-anchor="middle" font-size="13">1</text>
<line class="grid" x1="255.2" y1="168" x2="255.2" y2="742"/>
<text class="subtle" x="255.2" y="764.0" text-anchor="middle" font-size="13">25</text>
<line class="grid" x1="400.1" y1="168" x2="400.1" y2="742"/>
<text class="subtle" x="400.1" y="764.0" text-anchor="middle" font-size="13">50</text>
<line class="grid" x1="545.1" y1="168" x2="545.1" y2="742"/>
<text class="subtle" x="545.1" y="764.0" text-anchor="middle" font-size="13">75</text>
<line class="grid" x1="690.0" y1="168" x2="690.0" y2="742"/>
<text class="subtle" x="690.0" y="764.0" text-anchor="middle" font-size="13">100</text>
<line x1="116.0" y1="168" x2="116.0" y2="742" stroke="#1f2328" stroke-width="1.2"/>
<line x1="116.0" y1="742" x2="690.0" y2="742" stroke="#1f2328" stroke-width="1.2"/>
<text class="subtle" x="403.0" y="788.0" text-anchor="middle" font-size="14">Round index per condition (1-100 budget)</text>
<circle cx="127.60" cy="742.00" r="2.2" fill="#6d28d9" opacity="0.08"/>
<circle cx="133.39" cy="742.00" r="2.2" fill="#6d28d9" opacity="0.08"/>
<circle cx="139.19" cy="742.00" r="2.2" fill="#6d28d9" opacity="0.08"/>
<circle cx="144.99" cy="742.00" r="2.2" fill="#6d28d9" opacity="0.08"/>
<circle cx="150.79" cy="742.00" r="2.2" fill="#6d28d9" opacity="0.08"/>
<circle cx="156.59" cy="742.00" r="2.2" fill="#6d28d9" opacity="0.08"/>
<circle cx="162.38" cy="742.00" r="2.2" fill="#6d28d9" opacity="0.08"/>
<circle cx="168.18" cy="742.00" r="2.2" fill="#6d28d9" opacity="0.08"/>
<circle cx="173.98" cy="742.00" r="2.2" fill="#6d28d9" opacity="0.08"/>
<circle cx="179.78" cy="742.00" r="2.2" fill="#6d28d9" opacity="0.08"/>
<circle cx="185.58" cy="742.00" r="2.2" fill="#6d28d9" opacity="0.08"/>
<circle cx="191.37" cy="639.30" r="2.2" fill="#6d28d9" opacity="0.08"/>
<circle cx="197.17" cy="742.00" r="2.2" fill="#6d28d9" opacity="0.08"/>
<circle cx="202.97" cy="742.00" r="2.2" fill="#6d28d9" opacity="0.08"/>
<circle cx="208.77" cy="742.00" r="2.2" fill="#6d28d9" opacity="0.08"/>
<circle cx="214.57" cy="742.00" r="2.2" fill="#6d28d9" opacity="0.08"/>
<circle cx="220.36" cy="639.30" r="2.2" fill="#6d28d9" opacity="0.08"/>
<circle cx="226.16" cy="742.00" r="2.2" fill="#6d28d9" opacity="0.08"/>
<circle cx="231.96" cy="742.00" r="2.2" fill="#6d28d9" opacity="0.08"/>
<circle cx="237.76" cy="639.30" r="2.2" fill="#6d28d9" opacity="0.08"/>
<circle cx="243.56" cy="639.30" r="2.2" fill="#6d28d9" opacity="0.08"/>
<circle cx="249.35" cy="639.30" r="2.2" fill="#6d28d9" opacity="0.08"/>
<circle cx="255.15" cy="639.30" r="2.2" fill="#6d28d9" opacity="0.08"/>
<circle cx="260.95" cy="742.00" r="2.2" fill="#6d28d9" opacity="0.08"/>
<circle cx="266.75" cy="742.00" r="2.2" fill="#6d28d9" opacity="0.08"/>
<circle cx="272.55" cy="742.00" r="2.2" fill="#6d28d9" opacity="0.08"/>
<circle cx="278.34" cy="742.00" r="2.2" fill="#6d28d9" opacity="0.08"/>
<circle cx="284.14" cy="742.00" r="2.2" fill="#6d28d9" opacity="0.08"/>
<circle cx="289.94" cy="742.00" r="2.2" fill="#6d28d9" opacity="0.08"/>
<circle cx="295.74" cy="639.30" r="2.2" fill="#6d28d9" opacity="0.08"/>
<circle cx="301.54" cy="639.30" r="2.2" fill="#6d28d9" opacity="0.08"/>
<circle cx="307.33" cy="639.30" r="2.2" fill="#6d28d9" opacity="0.08"/>
<circle cx="313.13" cy="742.00" r="2.2" fill="#6d28d9" opacity="0.08"/>
<circle cx="318.93" cy="639.30" r="2.2" fill="#6d28d9" opacity="0.08"/>
<circle cx="324.73" cy="639.30" r="2.2" fill="#6d28d9" opacity="0.08"/>
<circle cx="330.53" cy="742.00" r="2.2" fill="#6d28d9" opacity="0.08"/>
<circle cx="336.32" cy="742.00" r="2.2" fill="#6d28d9" opacity="0.08"/>
<circle cx="342.12" cy="742.00" r="2.2" fill="#6d28d9" opacity="0.08"/>
<circle cx="347.92" cy="742.00" r="2.2" fill="#6d28d9" opacity="0.08"/>
<circle cx="353.72" cy="639.30" r="2.2" fill="#6d28d9" opacity="0.08"/>
<circle cx="359.52" cy="639.30" r="2.2" fill="#6d28d9" opacity="0.08"/>
<circle cx="365.31" cy="639.30" r="2.2" fill="#6d28d9" opacity="0.08"/>
<circle cx="371.11" cy="742.00" r="2.2" fill="#6d28d9" opacity="0.08"/>
<circle cx="376.91" cy="639.30" r="2.2" fill="#6d28d9" opacity="0.08"/>
<circle cx="382.71" cy="639.30" r="2.2" fill="#6d28d9" opacity="0.08"/>
<circle cx="388.51" cy="742.00" r="2.2" fill="#6d28d9" opacity="0.08"/>
<circle cx="394.30" cy="742.00" r="2.2" fill="#6d28d9" opacity="0.08"/>
<circle cx="400.10" cy="742.00" r="2.2" fill="#6d28d9" opacity="0.08"/>
<circle cx="405.90" cy="742.00" r="2.2" fill="#6d28d9" opacity="0.08"/>
<circle cx="411.70" cy="639.30" r="2.2" fill="#6d28d9" opacity="0.08"/>
<circle cx="417.49" cy="639.30" r="2.2" fill="#6d28d9" opacity="0.08"/>
<circle cx="423.29" cy="639.30" r="2.2" fill="#6d28d9" opacity="0.08"/>
<circle cx="429.09" cy="639.30" r="2.2" fill="#6d28d9" opacity="0.08"/>
<circle cx="434.89" cy="742.00" r="2.2" fill="#6d28d9" opacity="0.08"/>
<circle cx="440.69" cy="742.00" r="2.2" fill="#6d28d9" opacity="0.08"/>
<circle cx="446.48" cy="639.30" r="2.2" fill="#6d28d9" opacity="0.08"/>
<circle cx="452.28" cy="742.00" r="2.2" fill="#6d28d9" opacity="0.08"/>
<circle cx="458.08" cy="742.00" r="2.2" fill="#6d28d9" opacity="0.08"/>
<circle cx="463.88" cy="742.00" r="2.2" fill="#6d28d9" opacity="0.08"/>
<circle cx="469.68" cy="639.30" r="2.2" fill="#6d28d9" opacity="0.08"/>
<circle cx="475.47" cy="639.30" r="2.2" fill="#6d28d9" opacity="0.08"/>
<circle cx="487.07" cy="639.30" r="2.2" fill="#6d28d9" opacity="0.08"/>
<circle cx="498.67" cy="516.47" r="2.2" fill="#6d28d9" opacity="0.08"/>
<circle cx="504.46" cy="742.00" r="2.2" fill="#6d28d9" opacity="0.08"/>
<circle cx="510.26" cy="742.00" r="2.2" fill="#6d28d9" opacity="0.08"/>
<circle cx="516.06" cy="639.30" r="2.2" fill="#6d28d9" opacity="0.08"/>
<circle cx="521.86" cy="742.00" r="2.2" fill="#6d28d9" opacity="0.08"/>
<circle cx="527.66" cy="639.30" r="2.2" fill="#6d28d9" opacity="0.08"/>
<circle cx="533.45" cy="393.64" r="2.2" fill="#6d28d9" opacity="0.08"/>
<circle cx="539.25" cy="393.64" r="2.2" fill="#6d28d9" opacity="0.08"/>
<circle cx="545.05" cy="393.64" r="2.2" fill="#6d28d9" opacity="0.08"/>
<circle cx="550.85" cy="393.64" r="2.2" fill="#6d28d9" opacity="0.08"/>
<circle cx="556.65" cy="742.00" r="2.2" fill="#6d28d9" opacity="0.08"/>
<circle cx="562.44" cy="270.70" r="2.2" fill="#6d28d9" opacity="0.08"/>
<circle cx="568.24" cy="393.64" r="2.2" fill="#6d28d9" opacity="0.08"/>
<circle cx="574.04" cy="393.64" r="2.2" fill="#6d28d9" opacity="0.08"/>
<circle cx="579.84" cy="742.00" r="2.2" fill="#6d28d9" opacity="0.08"/>
<circle cx="585.64" cy="393.64" r="2.2" fill="#6d28d9" opacity="0.08"/>
<circle cx="591.43" cy="639.30" r="2.2" fill="#6d28d9" opacity="0.08"/>
<circle cx="597.23" cy="639.30" r="2.2" fill="#6d28d9" opacity="0.08"/>
<circle cx="603.03" cy="742.00" r="2.2" fill="#6d28d9" opacity="0.08"/>
<circle cx="608.83" cy="393.64" r="2.2" fill="#6d28d9" opacity="0.08"/>
<circle cx="614.63" cy="742.00" r="2.2" fill="#6d28d9" opacity="0.08"/>
<circle cx="620.42" cy="393.64" r="2.2" fill="#6d28d9" opacity="0.08"/>
<circle cx="626.22" cy="742.00" r="2.2" fill="#6d28d9" opacity="0.08"/>
<circle cx="632.02" cy="742.00" r="2.2" fill="#6d28d9" opacity="0.08"/>
<circle cx="637.82" cy="516.47" r="2.2" fill="#6d28d9" opacity="0.08"/>
<circle cx="643.62" cy="270.70" r="2.2" fill="#6d28d9" opacity="0.08"/>
<circle cx="649.41" cy="393.64" r="2.2" fill="#6d28d9" opacity="0.08"/>
<circle cx="655.21" cy="270.70" r="2.2" fill="#6d28d9" opacity="0.08"/>
<circle cx="661.01" cy="270.70" r="2.2" fill="#6d28d9" opacity="0.08"/>
<circle cx="666.81" cy="393.64" r="2.2" fill="#6d28d9" opacity="0.08"/>
<circle cx="672.61" cy="270.70" r="2.2" fill="#6d28d9" opacity="0.08"/>
<circle cx="678.40" cy="270.70" r="2.2" fill="#6d28d9" opacity="0.08"/>
<circle cx="684.20" cy="742.00" r="2.2" fill="#6d28d9" opacity="0.08"/>
<circle cx="690.00" cy="639.30" r="2.2" fill="#6d28d9" opacity="0.08"/>
<circle cx="121.80" cy="742.00" r="2.2" fill="#111827" opacity="0.08"/>
<circle cx="127.60" cy="742.00" r="2.2" fill="#111827" opacity="0.08"/>
<circle cx="133.39" cy="742.00" r="2.2" fill="#111827" opacity="0.08"/>
<circle cx="139.19" cy="742.00" r="2.2" fill="#111827" opacity="0.08"/>
<circle cx="144.99" cy="742.00" r="2.2" fill="#111827" opacity="0.08"/>
<circle cx="150.79" cy="742.00" r="2.2" fill="#111827" opacity="0.08"/>
<circle cx="156.59" cy="639.30" r="2.2" fill="#111827" opacity="0.08"/>
<circle cx="162.38" cy="742.00" r="2.2" fill="#111827" opacity="0.08"/>
<circle cx="168.18" cy="742.00" r="2.2" fill="#111827" opacity="0.08"/>
<circle cx="173.98" cy="639.30" r="2.2" fill="#111827" opacity="0.08"/>
<circle cx="179.78" cy="742.00" r="2.2" fill="#111827" opacity="0.08"/>
<circle cx="185.58" cy="393.64" r="2.2" fill="#111827" opacity="0.08"/>
<circle cx="191.37" cy="393.64" r="2.2" fill="#111827" opacity="0.08"/>
<circle cx="197.17" cy="393.64" r="2.2" fill="#111827" opacity="0.08"/>
<circle cx="202.97" cy="639.30" r="2.2" fill="#111827" opacity="0.08"/>
<circle cx="208.77" cy="742.00" r="2.2" fill="#111827" opacity="0.08"/>
<circle cx="214.57" cy="639.30" r="2.2" fill="#111827" opacity="0.08"/>
<circle cx="220.36" cy="393.64" r="2.2" fill="#111827" opacity="0.08"/>
<circle cx="226.16" cy="742.00" r="2.2" fill="#111827" opacity="0.08"/>
<circle cx="231.96" cy="742.00" r="2.2" fill="#111827" opacity="0.08"/>
<circle cx="237.76" cy="393.64" r="2.2" fill="#111827" opacity="0.08"/>
<circle cx="243.56" cy="742.00" r="2.2" fill="#111827" opacity="0.08"/>
<circle cx="249.35" cy="742.00" r="2.2" fill="#111827" opacity="0.08"/>
<circle cx="255.15" cy="639.30" r="2.2" fill="#111827" opacity="0.08"/>
<circle cx="260.95" cy="393.64" r="2.2" fill="#111827" opacity="0.08"/>
<circle cx="266.75" cy="742.00" r="2.2" fill="#111827" opacity="0.08"/>
<circle cx="272.55" cy="742.00" r="2.2" fill="#111827" opacity="0.08"/>
<circle cx="278.34" cy="742.00" r="2.2" fill="#111827" opacity="0.08"/>
<circle cx="284.14" cy="742.00" r="2.2" fill="#111827" opacity="0.08"/>
<circle cx="289.94" cy="742.00" r="2.2" fill="#111827" opacity="0.08"/>
<circle cx="295.74" cy="742.00" r="2.2" fill="#111827" opacity="0.08"/>
<circle cx="301.54" cy="393.64" r="2.2" fill="#111827" opacity="0.08"/>
<circle cx="307.33" cy="393.64" r="2.2" fill="#111827" opacity="0.08"/>
<circle cx="313.13" cy="742.00" r="2.2" fill="#111827" opacity="0.08"/>
<circle cx="318.93" cy="516.47" r="2.2" fill="#111827" opacity="0.08"/>
<circle cx="324.73" cy="393.64" r="2.2" fill="#111827" opacity="0.08"/>
<circle cx="330.53" cy="393.64" r="2.2" fill="#111827" opacity="0.08"/>
<circle cx="336.32" cy="742.00" r="2.2" fill="#111827" opacity="0.08"/>
<circle cx="342.12" cy="742.00" r="2.2" fill="#111827" opacity="0.08"/>
<circle cx="347.92" cy="393.64" r="2.2" fill="#111827" opacity="0.08"/>
<circle cx="353.72" cy="393.64" r="2.2" fill="#111827" opacity="0.08"/>
<circle cx="359.52" cy="393.64" r="2.2" fill="#111827" opacity="0.08"/>
<circle cx="365.31" cy="742.00" r="2.2" fill="#111827" opacity="0.08"/>
<circle cx="371.11" cy="393.64" r="2.2" fill="#111827" opacity="0.08"/>
<circle cx="376.91" cy="393.64" r="2.2" fill="#111827" opacity="0.08"/>
<circle cx="382.71" cy="393.64" r="2.2" fill="#111827" opacity="0.08"/>
<circle cx="388.51" cy="742.00" r="2.2" fill="#111827" opacity="0.08"/>
<circle cx="394.30" cy="393.64" r="2.2" fill="#111827" opacity="0.08"/>
<circle cx="400.10" cy="393.64" r="2.2" fill="#111827" opacity="0.08"/>
<circle cx="405.90" cy="393.64" r="2.2" fill="#111827" opacity="0.08"/>
<circle cx="411.70" cy="742.00" r="2.2" fill="#111827" opacity="0.08"/>
<circle cx="417.49" cy="516.47" r="2.2" fill="#111827" opacity="0.08"/>
<circle cx="423.29" cy="742.00" r="2.2" fill="#111827" opacity="0.08"/>
<circle cx="429.09" cy="639.30" r="2.2" fill="#111827" opacity="0.08"/>
<circle cx="434.89" cy="742.00" r="2.2" fill="#111827" opacity="0.08"/>
<circle cx="440.69" cy="393.64" r="2.2" fill="#111827" opacity="0.08"/>
<circle cx="446.48" cy="393.64" r="2.2" fill="#111827" opacity="0.08"/>
<circle cx="452.28" cy="742.00" r="2.2" fill="#111827" opacity="0.08"/>
<circle cx="458.08" cy="742.00" r="2.2" fill="#111827" opacity="0.08"/>
<circle cx="463.88" cy="742.00" r="2.2" fill="#111827" opacity="0.08"/>
<circle cx="469.68" cy="393.64" r="2.2" fill="#111827" opacity="0.08"/>
<circle cx="475.47" cy="393.64" r="2.2" fill="#111827" opacity="0.08"/>
<circle cx="481.27" cy="742.00" r="2.2" fill="#111827" opacity="0.08"/>
<circle cx="487.07" cy="393.64" r="2.2" fill="#111827" opacity="0.08"/>
<circle cx="492.87" cy="393.64" r="2.2" fill="#111827" opacity="0.08"/>
<circle cx="498.67" cy="393.64" r="2.2" fill="#111827" opacity="0.08"/>
<circle cx="504.46" cy="742.00" r="2.2" fill="#111827" opacity="0.08"/>
<circle cx="510.26" cy="393.64" r="2.2" fill="#111827" opacity="0.08"/>
<circle cx="516.06" cy="393.64" r="2.2" fill="#111827" opacity="0.08"/>
<circle cx="521.86" cy="393.64" r="2.2" fill="#111827" opacity="0.08"/>
<circle cx="527.66" cy="639.30" r="2.2" fill="#111827" opacity="0.08"/>
<circle cx="533.45" cy="393.64" r="2.2" fill="#111827" opacity="0.08"/>
<circle cx="539.25" cy="393.64" r="2.2" fill="#111827" opacity="0.08"/>
<circle cx="545.05" cy="393.64" r="2.2" fill="#111827" opacity="0.08"/>
<circle cx="550.85" cy="742.00" r="2.2" fill="#111827" opacity="0.08"/>
<circle cx="556.65" cy="639.30" r="2.2" fill="#111827" opacity="0.08"/>
<circle cx="562.44" cy="393.64" r="2.2" fill="#111827" opacity="0.08"/>
<circle cx="568.24" cy="393.64" r="2.2" fill="#111827" opacity="0.08"/>
<circle cx="574.04" cy="742.00" r="2.2" fill="#111827" opacity="0.08"/>
<circle cx="579.84" cy="393.64" r="2.2" fill="#111827" opacity="0.08"/>
<circle cx="585.64" cy="393.64" r="2.2" fill="#111827" opacity="0.08"/>
<circle cx="591.43" cy="393.64" r="2.2" fill="#111827" opacity="0.08"/>
<circle cx="597.23" cy="742.00" r="2.2" fill="#111827" opacity="0.08"/>
<circle cx="603.03" cy="393.64" r="2.2" fill="#111827" opacity="0.08"/>
<circle cx="608.83" cy="393.64" r="2.2" fill="#111827" opacity="0.08"/>
<circle cx="614.63" cy="393.64" r="2.2" fill="#111827" opacity="0.08"/>
<circle cx="620.42" cy="742.00" r="2.2" fill="#111827" opacity="0.08"/>
<circle cx="626.22" cy="393.64" r="2.2" fill="#111827" opacity="0.08"/>
<circle cx="632.02" cy="639.30" r="2.2" fill="#111827" opacity="0.08"/>
<circle cx="637.82" cy="393.64" r="2.2" fill="#111827" opacity="0.08"/>
<circle cx="643.62" cy="742.00" r="2.2" fill="#111827" opacity="0.08"/>
<circle cx="649.41" cy="393.64" r="2.2" fill="#111827" opacity="0.08"/>
<circle cx="655.21" cy="393.64" r="2.2" fill="#111827" opacity="0.08"/>
<circle cx="661.01" cy="393.64" r="2.2" fill="#111827" opacity="0.08"/>
<circle cx="666.81" cy="742.00" r="2.2" fill="#111827" opacity="0.08"/>
<circle cx="672.61" cy="393.64" r="2.2" fill="#111827" opacity="0.08"/>
<circle cx="678.40" cy="393.64" r="2.2" fill="#111827" opacity="0.08"/>
<circle cx="684.20" cy="393.64" r="2.2" fill="#111827" opacity="0.08"/>
<circle cx="690.00" cy="742.00" r="2.2" fill="#111827" opacity="0.08"/>
<circle cx="121.80" cy="742.00" r="2.2" fill="#2563eb" opacity="0.08"/>
<circle cx="133.39" cy="742.00" r="2.2" fill="#2563eb" opacity="0.08"/>
<circle cx="139.19" cy="742.00" r="2.2" fill="#2563eb" opacity="0.08"/>
<circle cx="150.79" cy="742.00" r="2.2" fill="#2563eb" opacity="0.08"/>
<circle cx="156.59" cy="742.00" r="2.2" fill="#2563eb" opacity="0.08"/>
<circle cx="162.38" cy="742.00" r="2.2" fill="#2563eb" opacity="0.08"/>
<circle cx="168.18" cy="742.00" r="2.2" fill="#2563eb" opacity="0.08"/>
<circle cx="173.98" cy="742.00" r="2.2" fill="#2563eb" opacity="0.08"/>
<circle cx="179.78" cy="742.00" r="2.2" fill="#2563eb" opacity="0.08"/>
<circle cx="185.58" cy="742.00" r="2.2" fill="#2563eb" opacity="0.08"/>
<circle cx="191.37" cy="742.00" r="2.2" fill="#2563eb" opacity="0.08"/>
<circle cx="202.97" cy="742.00" r="2.2" fill="#2563eb" opacity="0.08"/>
<circle cx="208.77" cy="742.00" r="2.2" fill="#2563eb" opacity="0.08"/>
<circle cx="214.57" cy="742.00" r="2.2" fill="#2563eb" opacity="0.08"/>
<circle cx="220.36" cy="742.00" r="2.2" fill="#2563eb" opacity="0.08"/>
<circle cx="226.16" cy="742.00" r="2.2" fill="#2563eb" opacity="0.08"/>
<circle cx="231.96" cy="516.47" r="2.2" fill="#2563eb" opacity="0.08"/>
<circle cx="237.76" cy="516.47" r="2.2" fill="#2563eb" opacity="0.08"/>
<circle cx="243.56" cy="516.47" r="2.2" fill="#2563eb" opacity="0.08"/>
<circle cx="249.35" cy="516.47" r="2.2" fill="#2563eb" opacity="0.08"/>
<circle cx="255.15" cy="516.47" r="2.2" fill="#2563eb" opacity="0.08"/>
<circle cx="260.95" cy="516.47" r="2.2" fill="#2563eb" opacity="0.08"/>
<circle cx="266.75" cy="516.47" r="2.2" fill="#2563eb" opacity="0.08"/>
<circle cx="278.34" cy="393.64" r="2.2" fill="#2563eb" opacity="0.08"/>
<circle cx="284.14" cy="270.70" r="2.2" fill="#2563eb" opacity="0.08"/>
<circle cx="289.94" cy="393.64" r="2.2" fill="#2563eb" opacity="0.08"/>
<circle cx="295.74" cy="270.70" r="2.2" fill="#2563eb" opacity="0.08"/>
<circle cx="301.54" cy="393.64" r="2.2" fill="#2563eb" opacity="0.08"/>
<circle cx="307.33" cy="270.70" r="2.2" fill="#2563eb" opacity="0.08"/>
<circle cx="313.13" cy="393.64" r="2.2" fill="#2563eb" opacity="0.08"/>
<circle cx="318.93" cy="393.64" r="2.2" fill="#2563eb" opacity="0.08"/>
<circle cx="324.73" cy="393.64" r="2.2" fill="#2563eb" opacity="0.08"/>
<circle cx="330.53" cy="393.64" r="2.2" fill="#2563eb" opacity="0.08"/>
<circle cx="336.32" cy="393.64" r="2.2" fill="#2563eb" opacity="0.08"/>
<circle cx="342.12" cy="393.64" r="2.2" fill="#2563eb" opacity="0.08"/>
<circle cx="347.92" cy="393.64" r="2.2" fill="#2563eb" opacity="0.08"/>
<circle cx="353.72" cy="393.64" r="2.2" fill="#2563eb" opacity="0.08"/>
<circle cx="359.52" cy="393.64" r="2.2" fill="#2563eb" opacity="0.08"/>
<circle cx="365.31" cy="516.47" r="2.2" fill="#2563eb" opacity="0.08"/>
<circle cx="371.11" cy="742.00" r="2.2" fill="#2563eb" opacity="0.08"/>
<circle cx="376.91" cy="516.47" r="2.2" fill="#2563eb" opacity="0.08"/>
<circle cx="382.71" cy="742.00" r="2.2" fill="#2563eb" opacity="0.08"/>
<circle cx="388.51" cy="516.47" r="2.2" fill="#2563eb" opacity="0.08"/>
<circle cx="394.30" cy="742.00" r="2.2" fill="#2563eb" opacity="0.08"/>
<circle cx="400.10" cy="516.47" r="2.2" fill="#2563eb" opacity="0.08"/>
<circle cx="405.90" cy="742.00" r="2.2" fill="#2563eb" opacity="0.08"/>
<circle cx="411.70" cy="270.70" r="2.2" fill="#2563eb" opacity="0.08"/>
<circle cx="417.49" cy="393.64" r="2.2" fill="#2563eb" opacity="0.08"/>
<circle cx="423.29" cy="270.70" r="2.2" fill="#2563eb" opacity="0.08"/>
<circle cx="429.09" cy="393.64" r="2.2" fill="#2563eb" opacity="0.08"/>
<circle cx="434.89" cy="270.70" r="2.2" fill="#2563eb" opacity="0.08"/>
<circle cx="440.69" cy="393.64" r="2.2" fill="#2563eb" opacity="0.08"/>
<circle cx="446.48" cy="270.70" r="2.2" fill="#2563eb" opacity="0.08"/>
<circle cx="452.28" cy="393.64" r="2.2" fill="#2563eb" opacity="0.08"/>
<circle cx="458.08" cy="270.70" r="2.2" fill="#2563eb" opacity="0.08"/>
<circle cx="463.88" cy="393.64" r="2.2" fill="#2563eb" opacity="0.08"/>
<circle cx="469.68" cy="270.70" r="2.2" fill="#2563eb" opacity="0.08"/>
<circle cx="475.47" cy="393.64" r="2.2" fill="#2563eb" opacity="0.08"/>
<circle cx="481.27" cy="270.70" r="2.2" fill="#2563eb" opacity="0.08"/>
<circle cx="487.07" cy="393.64" r="2.2" fill="#2563eb" opacity="0.08"/>
<circle cx="492.87" cy="270.70" r="2.2" fill="#2563eb" opacity="0.08"/>
<circle cx="498.67" cy="393.64" r="2.2" fill="#2563eb" opacity="0.08"/>
<circle cx="504.46" cy="516.47" r="2.2" fill="#2563eb" opacity="0.08"/>
<circle cx="510.26" cy="742.00" r="2.2" fill="#2563eb" opacity="0.08"/>
<circle cx="516.06" cy="516.47" r="2.2" fill="#2563eb" opacity="0.08"/>
<circle cx="521.86" cy="742.00" r="2.2" fill="#2563eb" opacity="0.08"/>
<circle cx="527.66" cy="516.47" r="2.2" fill="#2563eb" opacity="0.08"/>
<circle cx="533.45" cy="742.00" r="2.2" fill="#2563eb" opacity="0.08"/>
<circle cx="539.25" cy="516.47" r="2.2" fill="#2563eb" opacity="0.08"/>
<circle cx="545.05" cy="742.00" r="2.2" fill="#2563eb" opacity="0.08"/>
<circle cx="550.85" cy="639.30" r="2.2" fill="#2563eb" opacity="0.08"/>
<circle cx="556.65" cy="393.64" r="2.2" fill="#2563eb" opacity="0.08"/>
<circle cx="562.44" cy="639.30" r="2.2" fill="#2563eb" opacity="0.08"/>
<circle cx="568.24" cy="393.64" r="2.2" fill="#2563eb" opacity="0.08"/>
<circle cx="574.04" cy="639.30" r="2.2" fill="#2563eb" opacity="0.08"/>
<circle cx="579.84" cy="393.64" r="2.2" fill="#2563eb" opacity="0.08"/>
<circle cx="585.64" cy="639.30" r="2.2" fill="#2563eb" opacity="0.08"/>
<circle cx="591.43" cy="393.64" r="2.2" fill="#2563eb" opacity="0.08"/>
<circle cx="597.23" cy="742.00" r="2.2" fill="#2563eb" opacity="0.08"/>
<circle cx="603.03" cy="393.64" r="2.2" fill="#2563eb" opacity="0.08"/>
<circle cx="608.83" cy="742.00" r="2.2" fill="#2563eb" opacity="0.08"/>
<circle cx="614.63" cy="393.64" r="2.2" fill="#2563eb" opacity="0.08"/>
<circle cx="620.42" cy="742.00" r="2.2" fill="#2563eb" opacity="0.08"/>
<circle cx="626.22" cy="393.64" r="2.2" fill="#2563eb" opacity="0.08"/>
<circle cx="632.02" cy="742.00" r="2.2" fill="#2563eb" opacity="0.08"/>
<circle cx="637.82" cy="393.64" r="2.2" fill="#2563eb" opacity="0.08"/>
<circle cx="643.62" cy="742.00" r="2.2" fill="#2563eb" opacity="0.08"/>
<circle cx="649.41" cy="393.64" r="2.2" fill="#2563eb" opacity="0.08"/>
<circle cx="655.21" cy="742.00" r="2.2" fill="#2563eb" opacity="0.08"/>
<circle cx="661.01" cy="393.64" r="2.2" fill="#2563eb" opacity="0.08"/>
<circle cx="666.81" cy="742.00" r="2.2" fill="#2563eb" opacity="0.08"/>
<circle cx="672.61" cy="393.64" r="2.2" fill="#2563eb" opacity="0.08"/>
<circle cx="678.40" cy="742.00" r="2.2" fill="#2563eb" opacity="0.08"/>
<circle cx="684.20" cy="393.64" r="2.2" fill="#2563eb" opacity="0.08"/>
<circle cx="690.00" cy="516.47" r="2.2" fill="#2563eb" opacity="0.08"/>
<polyline fill="none" stroke="#ffffff" stroke-width="7.6" stroke-linecap="round" stroke-linejoin="round" points="116.00,742.00 121.80,742.00 127.60,742.00 133.39,742.00 139.19,742.00 144.99,742.00 150.79,742.00 156.59,742.00 162.38,742.00 168.18,742.00 173.98,742.00 179.78,742.00 185.58,742.00 191.37,742.00 197.17,516.47 202.97,516.47 208.77,516.47 214.57,516.47 220.36,516.47 226.16,516.47 231.96,516.47 237.76,516.47 243.56,516.47 249.35,516.47 255.15,516.47 260.95,516.47 266.75,516.47 272.55,270.70 278.34,270.70 284.14,270.70 289.94,270.70 295.74,270.70 301.54,270.70 307.33,270.70 313.13,270.70 318.93,270.70 324.73,270.70 330.53,270.70 336.32,270.70 342.12,270.70 347.92,270.70 353.72,270.70 359.52,270.70 365.31,270.70 371.11,270.70 376.91,270.70 382.71,270.70 388.51,270.70 394.30,270.70 400.10,270.70 405.90,270.70 411.70,270.70 417.49,270.70 423.29,270.70 429.09,270.70 434.89,270.70 440.69,270.70 446.48,270.70 452.28,270.70 458.08,270.70 463.88,270.70 469.68,270.70 475.47,270.70 481.27,270.70 487.07,270.70 492.87,270.70 498.67,270.70 504.46,270.70 510.26,270.70 516.06,270.70 521.86,270.70 527.66,270.70 533.45,270.70 539.25,270.70 545.05,270.70 550.85,270.70 556.65,270.70 562.44,270.70 568.24,270.70 574.04,270.70 579.84,270.70 585.64,270.70 591.43,270.70 597.23,270.70 603.03,270.70 608.83,270.70 614.63,270.70 620.42,270.70 626.22,270.70 632.02,270.70 637.82,270.70 643.62,270.70 649.41,270.70 655.21,270.70 661.01,270.70 666.81,270.70 672.61,270.70 678.40,270.70 684.20,270.70 690.00,270.70"/>
<polyline fill="none" stroke="#2563eb" stroke-width="4.2" stroke-linecap="round" stroke-linejoin="round" points="116.00,742.00 121.80,742.00 127.60,742.00 133.39,742.00 139.19,742.00 144.99,742.00 150.79,742.00 156.59,742.00 162.38,742.00 168.18,742.00 173.98,742.00 179.78,742.00 185.58,742.00 191.37,742.00 197.17,516.47 202.97,516.47 208.77,516.47 214.57,516.47 220.36,516.47 226.16,516.47 231.96,516.47 237.76,516.47 243.56,516.47 249.35,516.47 255.15,516.47 260.95,516.47 266.75,516.47 272.55,270.70 278.34,270.70 284.14,270.70 289.94,270.70 295.74,270.70 301.54,270.70 307.33,270.70 313.13,270.70 318.93,270.70 324.73,270.70 330.53,270.70 336.32,270.70 342.12,270.70 347.92,270.70 353.72,270.70 359.52,270.70 365.31,270.70 371.11,270.70 376.91,270.70 382.71,270.70 388.51,270.70 394.30,270.70 400.10,270.70 405.90,270.70 411.70,270.70 417.49,270.70 423.29,270.70 429.09,270.70 434.89,270.70 440.69,270.70 446.48,270.70 452.28,270.70 458.08,270.70 463.88,270.70 469.68,270.70 475.47,270.70 481.27,270.70 487.07,270.70 492.87,270.70 498.67,270.70 504.46,270.70 510.26,270.70 516.06,270.70 521.86,270.70 527.66,270.70 533.45,270.70 539.25,270.70 545.05,270.70 550.85,270.70 556.65,270.70 562.44,270.70 568.24,270.70 574.04,270.70 579.84,270.70 585.64,270.70 591.43,270.70 597.23,270.70 603.03,270.70 608.83,270.70 614.63,270.70 620.42,270.70 626.22,270.70 632.02,270.70 637.82,270.70 643.62,270.70 649.41,270.70 655.21,270.70 661.01,270.70 666.81,270.70 672.61,270.70 678.40,270.70 684.20,270.70 690.00,270.70"/>
<circle cx="690.00" cy="270.70" r="4.4" fill="#2563eb" stroke="#ffffff" stroke-width="1.6"/>
<polyline fill="none" stroke="#ffffff" stroke-width="9.0" stroke-linecap="round" stroke-linejoin="round" stroke-dasharray="10 6" points="116.00,742.00 121.80,639.30 127.60,639.30 133.39,639.30 139.19,639.30 144.99,639.30 150.79,639.30 156.59,639.30 162.38,639.30 168.18,639.30 173.98,639.30 179.78,639.30 185.58,639.30 191.37,639.30 197.17,639.30 202.97,639.30 208.77,639.30 214.57,639.30 220.36,639.30 226.16,639.30 231.96,639.30 237.76,639.30 243.56,639.30 249.35,639.30 255.15,639.30 260.95,639.30 266.75,639.30 272.55,639.30 278.34,639.30 284.14,639.30 289.94,639.30 295.74,639.30 301.54,639.30 307.33,639.30 313.13,639.30 318.93,639.30 324.73,639.30 330.53,639.30 336.32,639.30 342.12,639.30 347.92,639.30 353.72,639.30 359.52,639.30 365.31,639.30 371.11,639.30 376.91,639.30 382.71,639.30 388.51,639.30 394.30,639.30 400.10,639.30 405.90,639.30 411.70,639.30 417.49,639.30 423.29,639.30 429.09,639.30 434.89,639.30 440.69,639.30 446.48,639.30 452.28,639.30 458.08,639.30 463.88,639.30 469.68,639.30 475.47,639.30 481.27,516.47 487.07,516.47 492.87,270.70 498.67,270.70 504.46,270.70 510.26,270.70 516.06,270.70 521.86,270.70 527.66,270.70 533.45,270.70 539.25,270.70 545.05,270.70 550.85,270.70 556.65,270.70 562.44,270.70 568.24,270.70 574.04,270.70 579.84,270.70 585.64,270.70 591.43,270.70 597.23,270.70 603.03,270.70 608.83,270.70 614.63,270.70 620.42,270.70 626.22,270.70 632.02,270.70 637.82,270.70 643.62,270.70 649.41,270.70 655.21,270.70 661.01,270.70 666.81,270.70 672.61,270.70 678.40,270.70 684.20,270.70 690.00,270.70"/>
<polyline fill="none" stroke="#6d28d9" stroke-width="5.2" stroke-linecap="round" stroke-linejoin="round" stroke-dasharray="10 6" points="116.00,742.00 121.80,639.30 127.60,639.30 133.39,639.30 139.19,639.30 144.99,639.30 150.79,639.30 156.59,639.30 162.38,639.30 168.18,639.30 173.98,639.30 179.78,639.30 185.58,639.30 191.37,639.30 197.17,639.30 202.97,639.30 208.77,639.30 214.57,639.30 220.36,639.30 226.16,639.30 231.96,639.30 237.76,639.30 243.56,639.30 249.35,639.30 255.15,639.30 260.95,639.30 266.75,639.30 272.55,639.30 278.34,639.30 284.14,639.30 289.94,639.30 295.74,639.30 301.54,639.30 307.33,639.30 313.13,639.30 318.93,639.30 324.73,639.30 330.53,639.30 336.32,639.30 342.12,639.30 347.92,639.30 353.72,639.30 359.52,639.30 365.31,639.30 371.11,639.30 376.91,639.30 382.71,639.30 388.51,639.30 394.30,639.30 400.10,639.30 405.90,639.30 411.70,639.30 417.49,639.30 423.29,639.30 429.09,639.30 434.89,639.30 440.69,639.30 446.48,639.30 452.28,639.30 458.08,639.30 463.88,639.30 469.68,639.30 475.47,639.30 481.27,516.47 487.07,516.47 492.87,270.70 498.67,270.70 504.46,270.70 510.26,270.70 516.06,270.70 521.86,270.70 527.66,270.70 533.45,270.70 539.25,270.70 545.05,270.70 550.85,270.70 556.65,270.70 562.44,270.70 568.24,270.70 574.04,270.70 579.84,270.70 585.64,270.70 591.43,270.70 597.23,270.70 603.03,270.70 608.83,270.70 614.63,270.70 620.42,270.70 626.22,270.70 632.02,270.70 637.82,270.70 643.62,270.70 649.41,270.70 655.21,270.70 661.01,270.70 666.81,270.70 672.61,270.70 678.40,270.70 684.20,270.70 690.00,270.70"/>
<rect x="112.00" y="738.00" width="8.00" height="8.00" rx="1.8" fill="#6d28d9" stroke="#ffffff" stroke-width="1.2"/>
<rect x="251.15" y="635.30" width="8.00" height="8.00" rx="1.8" fill="#6d28d9" stroke="#ffffff" stroke-width="1.2"/>
<rect x="396.10" y="635.30" width="8.00" height="8.00" rx="1.8" fill="#6d28d9" stroke="#ffffff" stroke-width="1.2"/>
<rect x="541.05" y="266.70" width="8.00" height="8.00" rx="1.8" fill="#6d28d9" stroke="#ffffff" stroke-width="1.2"/>
<rect x="686.00" y="266.70" width="8.00" height="8.00" rx="1.8" fill="#6d28d9" stroke="#ffffff" stroke-width="1.2"/>
<circle cx="690.00" cy="270.70" r="5.6" fill="#6d28d9" stroke="#ffffff" stroke-width="1.6"/>
<rect x="591.00" y="254.70" width="89.00" height="22" rx="11" fill="#ffffff" stroke="#6d28d9" stroke-width="1.4"/>
<text x="635.50" y="269.70" text-anchor="middle" font-family="Helvetica,Arial,sans-serif" font-size="12.5" font-weight="700" fill="#6d28d9">TPE Direct</text>
<polyline fill="none" stroke="#ffffff" stroke-width="9.0" stroke-linecap="round" stroke-linejoin="round" stroke-dasharray="2 4" points="116.00,393.64 121.80,393.64 127.60,393.64 133.39,393.64 139.19,393.64 144.99,393.64 150.79,393.64 156.59,393.64 162.38,393.64 168.18,393.64 173.98,393.64 179.78,393.64 185.58,393.64 191.37,393.64 197.17,393.64 202.97,393.64 208.77,393.64 214.57,393.64 220.36,393.64 226.16,393.64 231.96,393.64 237.76,393.64 243.56,393.64 249.35,393.64 255.15,393.64 260.95,393.64 266.75,393.64 272.55,393.64 278.34,393.64 284.14,393.64 289.94,393.64 295.74,393.64 301.54,393.64 307.33,393.64 313.13,393.64 318.93,393.64 324.73,393.64 330.53,393.64 336.32,393.64 342.12,393.64 347.92,393.64 353.72,393.64 359.52,393.64 365.31,393.64 371.11,393.64 376.91,393.64 382.71,393.64 388.51,393.64 394.30,393.64 400.10,393.64 405.90,393.64 411.70,393.64 417.49,393.64 423.29,393.64 429.09,393.64 434.89,393.64 440.69,393.64 446.48,393.64 452.28,393.64 458.08,393.64 463.88,393.64 469.68,393.64 475.47,393.64 481.27,393.64 487.07,393.64 492.87,393.64 498.67,393.64 504.46,393.64 510.26,393.64 516.06,393.64 521.86,393.64 527.66,393.64 533.45,393.64 539.25,393.64 545.05,393.64 550.85,393.64 556.65,393.64 562.44,393.64 568.24,393.64 574.04,393.64 579.84,393.64 585.64,393.64 591.43,393.64 597.23,393.64 603.03,393.64 608.83,393.64 614.63,393.64 620.42,393.64 626.22,393.64 632.02,393.64 637.82,393.64 643.62,393.64 649.41,393.64 655.21,393.64 661.01,393.64 666.81,393.64 672.61,393.64 678.40,393.64 684.20,393.64 690.00,393.64"/>
<polyline fill="none" stroke="#111827" stroke-width="5.2" stroke-linecap="round" stroke-linejoin="round" stroke-dasharray="2 4" points="116.00,393.64 121.80,393.64 127.60,393.64 133.39,393.64 139.19,393.64 144.99,393.64 150.79,393.64 156.59,393.64 162.38,393.64 168.18,393.64 173.98,393.64 179.78,393.64 185.58,393.64 191.37,393.64 197.17,393.64 202.97,393.64 208.77,393.64 214.57,393.64 220.36,393.64 226.16,393.64 231.96,393.64 237.76,393.64 243.56,393.64 249.35,393.64 255.15,393.64 260.95,393.64 266.75,393.64 272.55,393.64 278.34,393.64 284.14,393.64 289.94,393.64 295.74,393.64 301.54,393.64 307.33,393.64 313.13,393.64 318.93,393.64 324.73,393.64 330.53,393.64 336.32,393.64 342.12,393.64 347.92,393.64 353.72,393.64 359.52,393.64 365.31,393.64 371.11,393.64 376.91,393.64 382.71,393.64 388.51,393.64 394.30,393.64 400.10,393.64 405.90,393.64 411.70,393.64 417.49,393.64 423.29,393.64 429.09,393.64 434.89,393.64 440.69,393.64 446.48,393.64 452.28,393.64 458.08,393.64 463.88,393.64 469.68,393.64 475.47,393.64 481.27,393.64 487.07,393.64 492.87,393.64 498.67,393.64 504.46,393.64 510.26,393.64 516.06,393.64 521.86,393.64 527.66,393.64 533.45,393.64 539.25,393.64 545.05,393.64 550.85,393.64 556.65,393.64 562.44,393.64 568.24,393.64 574.04,393.64 579.84,393.64 585.64,393.64 591.43,393.64 597.23,393.64 603.03,393.64 608.83,393.64 614.63,393.64 620.42,393.64 626.22,393.64 632.02,393.64 637.82,393.64 643.62,393.64 649.41,393.64 655.21,393.64 661.01,393.64 666.81,393.64 672.61,393.64 678.40,393.64 684.20,393.64 690.00,393.64"/>
<rect x="111.60" y="389.24" width="8.80" height="8.80" rx="1.8" fill="#111827" stroke="#ffffff" stroke-width="1.2"/>
<rect x="250.75" y="389.24" width="8.80" height="8.80" rx="1.8" fill="#111827" stroke="#ffffff" stroke-width="1.2"/>
<rect x="395.70" y="389.24" width="8.80" height="8.80" rx="1.8" fill="#111827" stroke="#ffffff" stroke-width="1.2"/>
<rect x="540.65" y="389.24" width="8.80" height="8.80" rx="1.8" fill="#111827" stroke="#ffffff" stroke-width="1.2"/>
<rect x="685.60" y="389.24" width="8.80" height="8.80" rx="1.8" fill="#111827" stroke="#ffffff" stroke-width="1.2"/>
<circle cx="690.00" cy="393.64" r="5.6" fill="#111827" stroke="#ffffff" stroke-width="1.6"/>
<rect x="583.90" y="411.64" width="96.10" height="22" rx="11" fill="#ffffff" stroke="#111827" stroke-width="1.4"/>
<text x="631.95" y="426.64" text-anchor="middle" font-family="Helvetica,Arial,sans-serif" font-size="12.5" font-weight="700" fill="#111827">SMAC Direct</text>
<rect x="746.0" y="134" width="660.0" height="646" rx="24" fill="#ffffff" stroke="#d7dce3" stroke-width="1.1"/>
<text class="label" x="764.0" y="156" font-size="20" font-weight="700">CIFAR-10</text>
<text class="subtle" x="1388.0" y="156" text-anchor="end" font-size="13">lower-tail clip at 0.357 (152 evals)</text>
<line class="grid" x1="808.0" y1="168.0" x2="1382.0" y2="168.0"/>
<text class="subtle" x="798.0" y="173.0" text-anchor="end" font-size="13">0.435</text>
<line class="grid" x1="808.0" y1="311.5" x2="1382.0" y2="311.5"/>
<text class="subtle" x="798.0" y="316.5" text-anchor="end" font-size="13">0.415</text>
<line class="grid" x1="808.0" y1="455.0" x2="1382.0" y2="455.0"/>
<text class="subtle" x="798.0" y="460.0" text-anchor="end" font-size="13">0.396</text>
<line class="grid" x1="808.0" y1="598.5" x2="1382.0" y2="598.5"/>
<text class="subtle" x="798.0" y="603.5" text-anchor="end" font-size="13">0.376</text>
<line class="grid" x1="808.0" y1="742.0" x2="1382.0" y2="742.0"/>
<text class="subtle" x="798.0" y="747.0" text-anchor="end" font-size="13">&lt;=0.357</text>
<line class="grid" x1="808.0" y1="168" x2="808.0" y2="742"/>
<text class="subtle" x="808.0" y="764.0" text-anchor="middle" font-size="13">1</text>
<line class="grid" x1="947.2" y1="168" x2="947.2" y2="742"/>
<text class="subtle" x="947.2" y="764.0" text-anchor="middle" font-size="13">25</text>
<line class="grid" x1="1092.1" y1="168" x2="1092.1" y2="742"/>
<text class="subtle" x="1092.1" y="764.0" text-anchor="middle" font-size="13">50</text>
<line class="grid" x1="1237.1" y1="168" x2="1237.1" y2="742"/>
<text class="subtle" x="1237.1" y="764.0" text-anchor="middle" font-size="13">75</text>
<line class="grid" x1="1382.0" y1="168" x2="1382.0" y2="742"/>
<text class="subtle" x="1382.0" y="764.0" text-anchor="middle" font-size="13">100</text>
<line x1="808.0" y1="168" x2="808.0" y2="742" stroke="#1f2328" stroke-width="1.2"/>
<line x1="808.0" y1="742" x2="1382.0" y2="742" stroke="#1f2328" stroke-width="1.2"/>
<text class="subtle" x="1095.0" y="788.0" text-anchor="middle" font-size="14">Round index per condition (1-100 budget)</text>
<circle cx="825.39" cy="742.00" r="2.2" fill="#6d28d9" opacity="0.08"/>
<circle cx="831.19" cy="742.00" r="2.2" fill="#6d28d9" opacity="0.08"/>
<circle cx="836.99" cy="742.00" r="2.2" fill="#6d28d9" opacity="0.08"/>
<circle cx="842.79" cy="742.00" r="2.2" fill="#6d28d9" opacity="0.08"/>
<circle cx="848.59" cy="742.00" r="2.2" fill="#6d28d9" opacity="0.08"/>
<circle cx="854.38" cy="742.00" r="2.2" fill="#6d28d9" opacity="0.08"/>
<circle cx="860.18" cy="742.00" r="2.2" fill="#6d28d9" opacity="0.08"/>
<circle cx="871.78" cy="387.29" r="2.2" fill="#6d28d9" opacity="0.08"/>
<circle cx="877.58" cy="423.92" r="2.2" fill="#6d28d9" opacity="0.08"/>
<circle cx="883.37" cy="411.71" r="2.2" fill="#6d28d9" opacity="0.08"/>
<circle cx="889.17" cy="741.39" r="2.2" fill="#6d28d9" opacity="0.08"/>
<circle cx="894.97" cy="460.55" r="2.2" fill="#6d28d9" opacity="0.08"/>
<circle cx="900.77" cy="436.14" r="2.2" fill="#6d28d9" opacity="0.08"/>
<circle cx="906.57" cy="423.92" r="2.2" fill="#6d28d9" opacity="0.08"/>
<circle cx="912.36" cy="742.00" r="2.2" fill="#6d28d9" opacity="0.08"/>
<circle cx="918.16" cy="742.00" r="2.2" fill="#6d28d9" opacity="0.08"/>
<circle cx="929.76" cy="436.14" r="2.2" fill="#6d28d9" opacity="0.08"/>
<circle cx="935.56" cy="375.08" r="2.2" fill="#6d28d9" opacity="0.08"/>
<circle cx="941.35" cy="411.71" r="2.2" fill="#6d28d9" opacity="0.08"/>
<circle cx="947.15" cy="484.97" r="2.2" fill="#6d28d9" opacity="0.08"/>
<circle cx="952.95" cy="375.08" r="2.2" fill="#6d28d9" opacity="0.08"/>
<circle cx="958.75" cy="742.00" r="2.2" fill="#6d28d9" opacity="0.08"/>
<circle cx="964.55" cy="742.00" r="2.2" fill="#6d28d9" opacity="0.08"/>
<circle cx="970.34" cy="742.00" r="2.2" fill="#6d28d9" opacity="0.08"/>
<circle cx="976.14" cy="742.00" r="2.2" fill="#6d28d9" opacity="0.08"/>
<circle cx="981.94" cy="643.71" r="2.2" fill="#6d28d9" opacity="0.08"/>
<circle cx="987.74" cy="546.03" r="2.2" fill="#6d28d9" opacity="0.08"/>
<circle cx="993.54" cy="533.82" r="2.2" fill="#6d28d9" opacity="0.08"/>
<circle cx="999.33" cy="314.03" r="2.2" fill="#6d28d9" opacity="0.08"/>
<circle cx="1005.13" cy="411.71" r="2.2" fill="#6d28d9" opacity="0.08"/>
<circle cx="1010.93" cy="655.92" r="2.2" fill="#6d28d9" opacity="0.08"/>
<circle cx="1016.73" cy="742.00" r="2.2" fill="#6d28d9" opacity="0.08"/>
<circle cx="1028.32" cy="742.00" r="2.2" fill="#6d28d9" opacity="0.08"/>
<circle cx="1034.12" cy="742.00" r="2.2" fill="#6d28d9" opacity="0.08"/>
<circle cx="1039.92" cy="742.00" r="2.2" fill="#6d28d9" opacity="0.08"/>
<circle cx="1045.72" cy="252.98" r="2.2" fill="#6d28d9" opacity="0.08"/>
<circle cx="1051.52" cy="277.40" r="2.2" fill="#6d28d9" opacity="0.08"/>
<circle cx="1057.31" cy="301.82" r="2.2" fill="#6d28d9" opacity="0.08"/>
<circle cx="1063.11" cy="375.08" r="2.2" fill="#6d28d9" opacity="0.08"/>
<circle cx="1068.91" cy="742.00" r="2.2" fill="#6d28d9" opacity="0.08"/>
<circle cx="1074.71" cy="314.03" r="2.2" fill="#6d28d9" opacity="0.08"/>
<circle cx="1080.51" cy="472.77" r="2.2" fill="#6d28d9" opacity="0.08"/>
<circle cx="1086.30" cy="742.00" r="2.2" fill="#6d28d9" opacity="0.08"/>
<circle cx="1092.10" cy="375.08" r="2.2" fill="#6d28d9" opacity="0.08"/>
<circle cx="1097.90" cy="742.00" r="2.2" fill="#6d28d9" opacity="0.08"/>
<circle cx="1103.70" cy="301.82" r="2.2" fill="#6d28d9" opacity="0.08"/>
<circle cx="1109.49" cy="742.00" r="2.2" fill="#6d28d9" opacity="0.08"/>
<circle cx="1115.29" cy="411.71" r="2.2" fill="#6d28d9" opacity="0.08"/>
<circle cx="1121.09" cy="338.45" r="2.2" fill="#6d28d9" opacity="0.08"/>
<circle cx="1126.89" cy="265.19" r="2.2" fill="#6d28d9" opacity="0.08"/>
<circle cx="1132.69" cy="631.50" r="2.2" fill="#6d28d9" opacity="0.08"/>
<circle cx="1138.48" cy="680.34" r="2.2" fill="#6d28d9" opacity="0.08"/>
<circle cx="1144.28" cy="423.92" r="2.2" fill="#6d28d9" opacity="0.08"/>
<circle cx="1150.08" cy="742.00" r="2.2" fill="#6d28d9" opacity="0.08"/>
<circle cx="1155.88" cy="741.39" r="2.2" fill="#6d28d9" opacity="0.08"/>
<circle cx="1161.68" cy="375.08" r="2.2" fill="#6d28d9" opacity="0.08"/>
<circle cx="1167.47" cy="375.08" r="2.2" fill="#6d28d9" opacity="0.08"/>
<circle cx="1173.27" cy="277.40" r="2.2" fill="#6d28d9" opacity="0.08"/>
<circle cx="1179.07" cy="301.82" r="2.2" fill="#6d28d9" opacity="0.08"/>
<circle cx="1184.87" cy="436.14" r="2.2" fill="#6d28d9" opacity="0.08"/>
<circle cx="1190.67" cy="265.19" r="2.2" fill="#6d28d9" opacity="0.08"/>
<circle cx="1196.46" cy="387.29" r="2.2" fill="#6d28d9" opacity="0.08"/>
<circle cx="1202.26" cy="742.00" r="2.2" fill="#6d28d9" opacity="0.08"/>
<circle cx="1208.06" cy="742.00" r="2.2" fill="#6d28d9" opacity="0.08"/>
<circle cx="1213.86" cy="252.98" r="2.2" fill="#6d28d9" opacity="0.08"/>
<circle cx="1219.66" cy="399.51" r="2.2" fill="#6d28d9" opacity="0.08"/>
<circle cx="1225.45" cy="387.29" r="2.2" fill="#6d28d9" opacity="0.08"/>
<circle cx="1231.25" cy="399.51" r="2.2" fill="#6d28d9" opacity="0.08"/>
<circle cx="1242.85" cy="362.88" r="2.2" fill="#6d28d9" opacity="0.08"/>
<circle cx="1248.65" cy="742.00" r="2.2" fill="#6d28d9" opacity="0.08"/>
<circle cx="1254.44" cy="350.66" r="2.2" fill="#6d28d9" opacity="0.08"/>
<circle cx="1260.24" cy="742.00" r="2.2" fill="#6d28d9" opacity="0.08"/>
<circle cx="1266.04" cy="326.24" r="2.2" fill="#6d28d9" opacity="0.08"/>
<circle cx="1271.84" cy="387.29" r="2.2" fill="#6d28d9" opacity="0.08"/>
<circle cx="1277.64" cy="350.66" r="2.2" fill="#6d28d9" opacity="0.08"/>
<circle cx="1283.43" cy="362.88" r="2.2" fill="#6d28d9" opacity="0.08"/>
<circle cx="1289.23" cy="216.35" r="2.2" fill="#6d28d9" opacity="0.08"/>
<circle cx="1295.03" cy="314.03" r="2.2" fill="#6d28d9" opacity="0.08"/>
<circle cx="1300.83" cy="228.56" r="2.2" fill="#6d28d9" opacity="0.08"/>
<circle cx="1306.63" cy="742.00" r="2.2" fill="#6d28d9" opacity="0.08"/>
<circle cx="1312.42" cy="375.08" r="2.2" fill="#6d28d9" opacity="0.08"/>
<circle cx="1318.22" cy="742.00" r="2.2" fill="#6d28d9" opacity="0.08"/>
<circle cx="1324.02" cy="742.00" r="2.2" fill="#6d28d9" opacity="0.08"/>
<circle cx="1329.82" cy="570.45" r="2.2" fill="#6d28d9" opacity="0.08"/>
<circle cx="1335.62" cy="411.71" r="2.2" fill="#6d28d9" opacity="0.08"/>
<circle cx="1341.41" cy="289.61" r="2.2" fill="#6d28d9" opacity="0.08"/>
<circle cx="1347.21" cy="277.40" r="2.2" fill="#6d28d9" opacity="0.08"/>
<circle cx="1353.01" cy="350.66" r="2.2" fill="#6d28d9" opacity="0.08"/>
<circle cx="1358.81" cy="314.03" r="2.2" fill="#6d28d9" opacity="0.08"/>
<circle cx="1364.61" cy="643.71" r="2.2" fill="#6d28d9" opacity="0.08"/>
<circle cx="1370.40" cy="742.00" r="2.2" fill="#6d28d9" opacity="0.08"/>
<circle cx="1376.20" cy="742.00" r="2.2" fill="#6d28d9" opacity="0.08"/>
<circle cx="1382.00" cy="375.08" r="2.2" fill="#6d28d9" opacity="0.08"/>
<circle cx="813.80" cy="742.00" r="2.2" fill="#111827" opacity="0.08"/>
<circle cx="819.60" cy="716.97" r="2.2" fill="#111827" opacity="0.08"/>
<circle cx="831.19" cy="742.00" r="2.2" fill="#111827" opacity="0.08"/>
<circle cx="836.99" cy="742.00" r="2.2" fill="#111827" opacity="0.08"/>
<circle cx="842.79" cy="742.00" r="2.2" fill="#111827" opacity="0.08"/>
<circle cx="848.59" cy="742.00" r="2.2" fill="#111827" opacity="0.08"/>
<circle cx="854.38" cy="742.00" r="2.2" fill="#111827" opacity="0.08"/>
<circle cx="860.18" cy="742.00" r="2.2" fill="#111827" opacity="0.08"/>
<circle cx="865.98" cy="619.29" r="2.2" fill="#111827" opacity="0.08"/>
<circle cx="871.78" cy="742.00" r="2.2" fill="#111827" opacity="0.08"/>
<circle cx="877.58" cy="742.00" r="2.2" fill="#111827" opacity="0.08"/>
<circle cx="894.97" cy="619.29" r="2.2" fill="#111827" opacity="0.08"/>
<circle cx="900.77" cy="742.00" r="2.2" fill="#111827" opacity="0.08"/>
<circle cx="912.36" cy="497.19" r="2.2" fill="#111827" opacity="0.08"/>
<circle cx="918.16" cy="742.00" r="2.2" fill="#111827" opacity="0.08"/>
<circle cx="929.76" cy="742.00" r="2.2" fill="#111827" opacity="0.08"/>
<circle cx="935.56" cy="497.19" r="2.2" fill="#111827" opacity="0.08"/>
<circle cx="941.35" cy="742.00" r="2.2" fill="#111827" opacity="0.08"/>
<circle cx="947.15" cy="546.03" r="2.2" fill="#111827" opacity="0.08"/>
<circle cx="952.95" cy="742.00" r="2.2" fill="#111827" opacity="0.08"/>
<circle cx="958.75" cy="326.24" r="2.2" fill="#111827" opacity="0.08"/>
<circle cx="964.55" cy="742.00" r="2.2" fill="#111827" opacity="0.08"/>
<circle cx="970.34" cy="742.00" r="2.2" fill="#111827" opacity="0.08"/>
<circle cx="976.14" cy="338.45" r="2.2" fill="#111827" opacity="0.08"/>
<circle cx="981.94" cy="742.00" r="2.2" fill="#111827" opacity="0.08"/>
<circle cx="987.74" cy="742.00" r="2.2" fill="#111827" opacity="0.08"/>
<circle cx="993.54" cy="326.24" r="2.2" fill="#111827" opacity="0.08"/>
<circle cx="999.33" cy="729.18" r="2.2" fill="#111827" opacity="0.08"/>
<circle cx="1005.13" cy="742.00" r="2.2" fill="#111827" opacity="0.08"/>
<circle cx="1010.93" cy="742.00" r="2.2" fill="#111827" opacity="0.08"/>
<circle cx="1016.73" cy="546.03" r="2.2" fill="#111827" opacity="0.08"/>
<circle cx="1022.53" cy="326.24" r="2.2" fill="#111827" opacity="0.08"/>
<circle cx="1028.32" cy="742.00" r="2.2" fill="#111827" opacity="0.08"/>
<circle cx="1034.12" cy="742.00" r="2.2" fill="#111827" opacity="0.08"/>
<circle cx="1039.92" cy="338.45" r="2.2" fill="#111827" opacity="0.08"/>
<circle cx="1045.72" cy="326.24" r="2.2" fill="#111827" opacity="0.08"/>
<circle cx="1051.52" cy="742.00" r="2.2" fill="#111827" opacity="0.08"/>
<circle cx="1057.31" cy="582.66" r="2.2" fill="#111827" opacity="0.08"/>
<circle cx="1063.11" cy="742.00" r="2.2" fill="#111827" opacity="0.08"/>
<circle cx="1068.91" cy="326.24" r="2.2" fill="#111827" opacity="0.08"/>
<circle cx="1074.71" cy="742.00" r="2.2" fill="#111827" opacity="0.08"/>
<circle cx="1080.51" cy="742.00" r="2.2" fill="#111827" opacity="0.08"/>
<circle cx="1086.30" cy="680.34" r="2.2" fill="#111827" opacity="0.08"/>
<circle cx="1092.10" cy="338.45" r="2.2" fill="#111827" opacity="0.08"/>
<circle cx="1097.90" cy="326.24" r="2.2" fill="#111827" opacity="0.08"/>
<circle cx="1103.70" cy="704.76" r="2.2" fill="#111827" opacity="0.08"/>
<circle cx="1109.49" cy="742.00" r="2.2" fill="#111827" opacity="0.08"/>
<circle cx="1115.29" cy="741.39" r="2.2" fill="#111827" opacity="0.08"/>
<circle cx="1121.09" cy="326.24" r="2.2" fill="#111827" opacity="0.08"/>
<circle cx="1126.89" cy="742.00" r="2.2" fill="#111827" opacity="0.08"/>
<circle cx="1132.69" cy="326.24" r="2.2" fill="#111827" opacity="0.08"/>
<circle cx="1138.48" cy="326.24" r="2.2" fill="#111827" opacity="0.08"/>
<circle cx="1144.28" cy="326.24" r="2.2" fill="#111827" opacity="0.08"/>
<circle cx="1150.08" cy="742.00" r="2.2" fill="#111827" opacity="0.08"/>
<circle cx="1155.88" cy="423.92" r="2.2" fill="#111827" opacity="0.08"/>
<circle cx="1161.68" cy="741.39" r="2.2" fill="#111827" opacity="0.08"/>
<circle cx="1167.47" cy="729.18" r="2.2" fill="#111827" opacity="0.08"/>
<circle cx="1173.27" cy="729.18" r="2.2" fill="#111827" opacity="0.08"/>
<circle cx="1179.07" cy="546.03" r="2.2" fill="#111827" opacity="0.08"/>
<circle cx="1184.87" cy="326.24" r="2.2" fill="#111827" opacity="0.08"/>
<circle cx="1190.67" cy="326.24" r="2.2" fill="#111827" opacity="0.08"/>
<circle cx="1196.46" cy="742.00" r="2.2" fill="#111827" opacity="0.08"/>
<circle cx="1202.26" cy="326.24" r="2.2" fill="#111827" opacity="0.08"/>
<circle cx="1208.06" cy="326.24" r="2.2" fill="#111827" opacity="0.08"/>
<circle cx="1213.86" cy="326.24" r="2.2" fill="#111827" opacity="0.08"/>
<circle cx="1219.66" cy="742.00" r="2.2" fill="#111827" opacity="0.08"/>
<circle cx="1225.45" cy="423.92" r="2.2" fill="#111827" opacity="0.08"/>
<circle cx="1231.25" cy="326.24" r="2.2" fill="#111827" opacity="0.08"/>
<circle cx="1237.05" cy="326.24" r="2.2" fill="#111827" opacity="0.08"/>
<circle cx="1242.85" cy="742.00" r="2.2" fill="#111827" opacity="0.08"/>
<circle cx="1248.65" cy="326.24" r="2.2" fill="#111827" opacity="0.08"/>
<circle cx="1254.44" cy="741.39" r="2.2" fill="#111827" opacity="0.08"/>
<circle cx="1260.24" cy="742.00" r="2.2" fill="#111827" opacity="0.08"/>
<circle cx="1266.04" cy="742.00" r="2.2" fill="#111827" opacity="0.08"/>
<circle cx="1271.84" cy="741.39" r="2.2" fill="#111827" opacity="0.08"/>
<circle cx="1277.64" cy="607.08" r="2.2" fill="#111827" opacity="0.08"/>
<circle cx="1283.43" cy="326.24" r="2.2" fill="#111827" opacity="0.08"/>
<circle cx="1289.23" cy="742.00" r="2.2" fill="#111827" opacity="0.08"/>
<circle cx="1295.03" cy="742.00" r="2.2" fill="#111827" opacity="0.08"/>
<circle cx="1300.83" cy="326.24" r="2.2" fill="#111827" opacity="0.08"/>
<circle cx="1306.63" cy="326.24" r="2.2" fill="#111827" opacity="0.08"/>
<circle cx="1312.42" cy="716.97" r="2.2" fill="#111827" opacity="0.08"/>
<circle cx="1318.22" cy="326.24" r="2.2" fill="#111827" opacity="0.08"/>
<circle cx="1324.02" cy="326.24" r="2.2" fill="#111827" opacity="0.08"/>
<circle cx="1329.82" cy="326.24" r="2.2" fill="#111827" opacity="0.08"/>
<circle cx="1335.62" cy="729.18" r="2.2" fill="#111827" opacity="0.08"/>
<circle cx="1341.41" cy="326.24" r="2.2" fill="#111827" opacity="0.08"/>
<circle cx="1347.21" cy="326.24" r="2.2" fill="#111827" opacity="0.08"/>
<circle cx="1353.01" cy="326.24" r="2.2" fill="#111827" opacity="0.08"/>
<circle cx="1358.81" cy="704.76" r="2.2" fill="#111827" opacity="0.08"/>
<circle cx="1364.61" cy="326.24" r="2.2" fill="#111827" opacity="0.08"/>
<circle cx="1370.40" cy="326.24" r="2.2" fill="#111827" opacity="0.08"/>
<circle cx="1376.20" cy="326.24" r="2.2" fill="#111827" opacity="0.08"/>
<circle cx="1382.00" cy="742.00" r="2.2" fill="#111827" opacity="0.08"/>
<circle cx="825.39" cy="607.08" r="2.2" fill="#2563eb" opacity="0.08"/>
<circle cx="831.19" cy="558.23" r="2.2" fill="#2563eb" opacity="0.08"/>
<circle cx="836.99" cy="742.00" r="2.2" fill="#2563eb" opacity="0.08"/>
<circle cx="842.79" cy="716.97" r="2.2" fill="#2563eb" opacity="0.08"/>
<circle cx="848.59" cy="729.18" r="2.2" fill="#2563eb" opacity="0.08"/>
<circle cx="854.38" cy="692.55" r="2.2" fill="#2563eb" opacity="0.08"/>
<circle cx="860.18" cy="533.82" r="2.2" fill="#2563eb" opacity="0.08"/>
<circle cx="865.98" cy="742.00" r="2.2" fill="#2563eb" opacity="0.08"/>
<circle cx="871.78" cy="742.00" r="2.2" fill="#2563eb" opacity="0.08"/>
<circle cx="877.58" cy="742.00" r="2.2" fill="#2563eb" opacity="0.08"/>
<circle cx="883.37" cy="570.45" r="2.2" fill="#2563eb" opacity="0.08"/>
<circle cx="889.17" cy="631.50" r="2.2" fill="#2563eb" opacity="0.08"/>
<circle cx="894.97" cy="742.00" r="2.2" fill="#2563eb" opacity="0.08"/>
<circle cx="900.77" cy="742.00" r="2.2" fill="#2563eb" opacity="0.08"/>
<circle cx="906.57" cy="741.39" r="2.2" fill="#2563eb" opacity="0.08"/>
<circle cx="912.36" cy="742.00" r="2.2" fill="#2563eb" opacity="0.08"/>
<circle cx="918.16" cy="742.00" r="2.2" fill="#2563eb" opacity="0.08"/>
<circle cx="923.96" cy="742.00" r="2.2" fill="#2563eb" opacity="0.08"/>
<circle cx="929.76" cy="742.00" r="2.2" fill="#2563eb" opacity="0.08"/>
<circle cx="935.56" cy="742.00" r="2.2" fill="#2563eb" opacity="0.08"/>
<circle cx="941.35" cy="742.00" r="2.2" fill="#2563eb" opacity="0.08"/>
<circle cx="947.15" cy="742.00" r="2.2" fill="#2563eb" opacity="0.08"/>
<circle cx="952.95" cy="742.00" r="2.2" fill="#2563eb" opacity="0.08"/>
<circle cx="958.75" cy="729.18" r="2.2" fill="#2563eb" opacity="0.08"/>
<circle cx="964.55" cy="742.00" r="2.2" fill="#2563eb" opacity="0.08"/>
<circle cx="970.34" cy="742.00" r="2.2" fill="#2563eb" opacity="0.08"/>
<circle cx="976.14" cy="742.00" r="2.2" fill="#2563eb" opacity="0.08"/>
<circle cx="981.94" cy="742.00" r="2.2" fill="#2563eb" opacity="0.08"/>
<circle cx="987.74" cy="742.00" r="2.2" fill="#2563eb" opacity="0.08"/>
<circle cx="993.54" cy="742.00" r="2.2" fill="#2563eb" opacity="0.08"/>
<circle cx="999.33" cy="742.00" r="2.2" fill="#2563eb" opacity="0.08"/>
<circle cx="1005.13" cy="742.00" r="2.2" fill="#2563eb" opacity="0.08"/>
<circle cx="1010.93" cy="742.00" r="2.2" fill="#2563eb" opacity="0.08"/>
<circle cx="1016.73" cy="742.00" r="2.2" fill="#2563eb" opacity="0.08"/>
<circle cx="1022.53" cy="742.00" r="2.2" fill="#2563eb" opacity="0.08"/>
<circle cx="1028.32" cy="742.00" r="2.2" fill="#2563eb" opacity="0.08"/>
<circle cx="1034.12" cy="742.00" r="2.2" fill="#2563eb" opacity="0.08"/>
<circle cx="1039.92" cy="742.00" r="2.2" fill="#2563eb" opacity="0.08"/>
<circle cx="1045.72" cy="742.00" r="2.2" fill="#2563eb" opacity="0.08"/>
<circle cx="1051.52" cy="742.00" r="2.2" fill="#2563eb" opacity="0.08"/>
<circle cx="1057.31" cy="742.00" r="2.2" fill="#2563eb" opacity="0.08"/>
<circle cx="1063.11" cy="742.00" r="2.2" fill="#2563eb" opacity="0.08"/>
<circle cx="1068.91" cy="558.23" r="2.2" fill="#2563eb" opacity="0.08"/>
<circle cx="1074.71" cy="742.00" r="2.2" fill="#2563eb" opacity="0.08"/>
<circle cx="1080.51" cy="655.92" r="2.2" fill="#2563eb" opacity="0.08"/>
<circle cx="1086.30" cy="742.00" r="2.2" fill="#2563eb" opacity="0.08"/>
<circle cx="1092.10" cy="742.00" r="2.2" fill="#2563eb" opacity="0.08"/>
<circle cx="1097.90" cy="742.00" r="2.2" fill="#2563eb" opacity="0.08"/>
<circle cx="1103.70" cy="742.00" r="2.2" fill="#2563eb" opacity="0.08"/>
<circle cx="1109.49" cy="742.00" r="2.2" fill="#2563eb" opacity="0.08"/>
<circle cx="1115.29" cy="742.00" r="2.2" fill="#2563eb" opacity="0.08"/>
<circle cx="1121.09" cy="742.00" r="2.2" fill="#2563eb" opacity="0.08"/>
<circle cx="1126.89" cy="742.00" r="2.2" fill="#2563eb" opacity="0.08"/>
<circle cx="1132.69" cy="533.82" r="2.2" fill="#2563eb" opacity="0.08"/>
<circle cx="1138.48" cy="742.00" r="2.2" fill="#2563eb" opacity="0.08"/>
<circle cx="1144.28" cy="742.00" r="2.2" fill="#2563eb" opacity="0.08"/>
<circle cx="1150.08" cy="742.00" r="2.2" fill="#2563eb" opacity="0.08"/>
<circle cx="1155.88" cy="742.00" r="2.2" fill="#2563eb" opacity="0.08"/>
<circle cx="1161.68" cy="742.00" r="2.2" fill="#2563eb" opacity="0.08"/>
<circle cx="1167.47" cy="742.00" r="2.2" fill="#2563eb" opacity="0.08"/>
<circle cx="1173.27" cy="742.00" r="2.2" fill="#2563eb" opacity="0.08"/>
<circle cx="1179.07" cy="742.00" r="2.2" fill="#2563eb" opacity="0.08"/>
<circle cx="1184.87" cy="742.00" r="2.2" fill="#2563eb" opacity="0.08"/>
<circle cx="1190.67" cy="742.00" r="2.2" fill="#2563eb" opacity="0.08"/>
<circle cx="1196.46" cy="742.00" r="2.2" fill="#2563eb" opacity="0.08"/>
<circle cx="1202.26" cy="742.00" r="2.2" fill="#2563eb" opacity="0.08"/>
<circle cx="1208.06" cy="742.00" r="2.2" fill="#2563eb" opacity="0.08"/>
<circle cx="1213.86" cy="742.00" r="2.2" fill="#2563eb" opacity="0.08"/>
<circle cx="1219.66" cy="742.00" r="2.2" fill="#2563eb" opacity="0.08"/>
<circle cx="1225.45" cy="742.00" r="2.2" fill="#2563eb" opacity="0.08"/>
<circle cx="1231.25" cy="742.00" r="2.2" fill="#2563eb" opacity="0.08"/>
<circle cx="1237.05" cy="742.00" r="2.2" fill="#2563eb" opacity="0.08"/>
<circle cx="1242.85" cy="742.00" r="2.2" fill="#2563eb" opacity="0.08"/>
<circle cx="1248.65" cy="742.00" r="2.2" fill="#2563eb" opacity="0.08"/>
<circle cx="1254.44" cy="742.00" r="2.2" fill="#2563eb" opacity="0.08"/>
<circle cx="1260.24" cy="742.00" r="2.2" fill="#2563eb" opacity="0.08"/>
<circle cx="1266.04" cy="742.00" r="2.2" fill="#2563eb" opacity="0.08"/>
<circle cx="1271.84" cy="742.00" r="2.2" fill="#2563eb" opacity="0.08"/>
<circle cx="1277.64" cy="742.00" r="2.2" fill="#2563eb" opacity="0.08"/>
<circle cx="1283.43" cy="742.00" r="2.2" fill="#2563eb" opacity="0.08"/>
<circle cx="1289.23" cy="742.00" r="2.2" fill="#2563eb" opacity="0.08"/>
<circle cx="1295.03" cy="742.00" r="2.2" fill="#2563eb" opacity="0.08"/>
<circle cx="1300.83" cy="742.00" r="2.2" fill="#2563eb" opacity="0.08"/>
<circle cx="1306.63" cy="742.00" r="2.2" fill="#2563eb" opacity="0.08"/>
<circle cx="1312.42" cy="742.00" r="2.2" fill="#2563eb" opacity="0.08"/>
<circle cx="1318.22" cy="742.00" r="2.2" fill="#2563eb" opacity="0.08"/>
<circle cx="1324.02" cy="742.00" r="2.2" fill="#2563eb" opacity="0.08"/>
<circle cx="1329.82" cy="742.00" r="2.2" fill="#2563eb" opacity="0.08"/>
<circle cx="1335.62" cy="742.00" r="2.2" fill="#2563eb" opacity="0.08"/>
<circle cx="1341.41" cy="742.00" r="2.2" fill="#2563eb" opacity="0.08"/>
<circle cx="1347.21" cy="742.00" r="2.2" fill="#2563eb" opacity="0.08"/>
<circle cx="1353.01" cy="742.00" r="2.2" fill="#2563eb" opacity="0.08"/>
<circle cx="1358.81" cy="742.00" r="2.2" fill="#2563eb" opacity="0.08"/>
<circle cx="1364.61" cy="582.66" r="2.2" fill="#2563eb" opacity="0.08"/>
<circle cx="1370.40" cy="742.00" r="2.2" fill="#2563eb" opacity="0.08"/>
<circle cx="1376.20" cy="582.66" r="2.2" fill="#2563eb" opacity="0.08"/>
<circle cx="1382.00" cy="692.55" r="2.2" fill="#2563eb" opacity="0.08"/>
<polyline fill="none" stroke="#ffffff" stroke-width="7.6" stroke-linecap="round" stroke-linejoin="round" points="808.00,742.00 813.80,631.50 819.60,509.40 825.39,509.40 831.19,509.40 836.99,509.40 842.79,509.40 848.59,509.40 854.38,509.40 860.18,509.40 865.98,509.40 871.78,509.40 877.58,509.40 883.37,509.40 889.17,509.40 894.97,509.40 900.77,509.40 906.57,509.40 912.36,509.40 918.16,509.40 923.96,509.40 929.76,509.40 935.56,509.40 941.35,509.40 947.15,509.40 952.95,509.40 958.75,509.40 964.55,509.40 970.34,509.40 976.14,509.40 981.94,509.40 987.74,509.40 993.54,509.40 999.33,509.40 1005.13,509.40 1010.93,509.40 1016.73,509.40 1022.53,509.40 1028.32,509.40 1034.12,509.40 1039.92,509.40 1045.72,509.40 1051.52,509.40 1057.31,509.40 1063.11,509.40 1068.91,509.40 1074.71,509.40 1080.51,509.40 1086.30,509.40 1092.10,509.40 1097.90,509.40 1103.70,509.40 1109.49,509.40 1115.29,509.40 1121.09,509.40 1126.89,509.40 1132.69,509.40 1138.48,509.40 1144.28,509.40 1150.08,509.40 1155.88,509.40 1161.68,509.40 1167.47,509.40 1173.27,509.40 1179.07,509.40 1184.87,509.40 1190.67,509.40 1196.46,509.40 1202.26,509.40 1208.06,509.40 1213.86,509.40 1219.66,509.40 1225.45,509.40 1231.25,509.40 1237.05,509.40 1242.85,509.40 1248.65,509.40 1254.44,509.40 1260.24,509.40 1266.04,509.40 1271.84,509.40 1277.64,509.40 1283.43,509.40 1289.23,509.40 1295.03,509.40 1300.83,509.40 1306.63,509.40 1312.42,509.40 1318.22,509.40 1324.02,509.40 1329.82,509.40 1335.62,509.40 1341.41,509.40 1347.21,509.40 1353.01,509.40 1358.81,509.40 1364.61,509.40 1370.40,509.40 1376.20,509.40 1382.00,509.40"/>
<polyline fill="none" stroke="#2563eb" stroke-width="4.2" stroke-linecap="round" stroke-linejoin="round" points="808.00,742.00 813.80,631.50 819.60,509.40 825.39,509.40 831.19,509.40 836.99,509.40 842.79,509.40 848.59,509.40 854.38,509.40 860.18,509.40 865.98,509.40 871.78,509.40 877.58,509.40 883.37,509.40 889.17,509.40 894.97,509.40 900.77,509.40 906.57,509.40 912.36,509.40 918.16,509.40 923.96,509.40 929.76,509.40 935.56,509.40 941.35,509.40 947.15,509.40 952.95,509.40 958.75,509.40 964.55,509.40 970.34,509.40 976.14,509.40 981.94,509.40 987.74,509.40 993.54,509.40 999.33,509.40 1005.13,509.40 1010.93,509.40 1016.73,509.40 1022.53,509.40 1028.32,509.40 1034.12,509.40 1039.92,509.40 1045.72,509.40 1051.52,509.40 1057.31,509.40 1063.11,509.40 1068.91,509.40 1074.71,509.40 1080.51,509.40 1086.30,509.40 1092.10,509.40 1097.90,509.40 1103.70,509.40 1109.49,509.40 1115.29,509.40 1121.09,509.40 1126.89,509.40 1132.69,509.40 1138.48,509.40 1144.28,509.40 1150.08,509.40 1155.88,509.40 1161.68,509.40 1167.47,509.40 1173.27,509.40 1179.07,509.40 1184.87,509.40 1190.67,509.40 1196.46,509.40 1202.26,509.40 1208.06,509.40 1213.86,509.40 1219.66,509.40 1225.45,509.40 1231.25,509.40 1237.05,509.40 1242.85,509.40 1248.65,509.40 1254.44,509.40 1260.24,509.40 1266.04,509.40 1271.84,509.40 1277.64,509.40 1283.43,509.40 1289.23,509.40 1295.03,509.40 1300.83,509.40 1306.63,509.40 1312.42,509.40 1318.22,509.40 1324.02,509.40 1329.82,509.40 1335.62,509.40 1341.41,509.40 1347.21,509.40 1353.01,509.40 1358.81,509.40 1364.61,509.40 1370.40,509.40 1376.20,509.40 1382.00,509.40"/>
<circle cx="1382.00" cy="509.40" r="4.4" fill="#2563eb" stroke="#ffffff" stroke-width="1.6"/>
<polyline fill="none" stroke="#ffffff" stroke-width="9.0" stroke-linecap="round" stroke-linejoin="round" stroke-dasharray="10 6" points="808.00,742.00 813.80,742.00 819.60,716.97 825.39,716.97 831.19,716.97 836.99,716.97 842.79,716.97 848.59,716.97 854.38,716.97 860.18,716.97 865.98,387.29 871.78,387.29 877.58,387.29 883.37,387.29 889.17,387.29 894.97,387.29 900.77,387.29 906.57,387.29 912.36,387.29 918.16,387.29 923.96,289.61 929.76,289.61 935.56,289.61 941.35,289.61 947.15,289.61 952.95,289.61 958.75,289.61 964.55,289.61 970.34,289.61 976.14,289.61 981.94,289.61 987.74,289.61 993.54,289.61 999.33,289.61 1005.13,289.61 1010.93,289.61 1016.73,289.61 1022.53,252.98 1028.32,252.98 1034.12,252.98 1039.92,252.98 1045.72,252.98 1051.52,252.98 1057.31,252.98 1063.11,252.98 1068.91,252.98 1074.71,252.98 1080.51,252.98 1086.30,252.98 1092.10,252.98 1097.90,252.98 1103.70,252.98 1109.49,252.98 1115.29,252.98 1121.09,252.98 1126.89,252.98 1132.69,252.98 1138.48,252.98 1144.28,252.98 1150.08,252.98 1155.88,252.98 1161.68,252.98 1167.47,252.98 1173.27,252.98 1179.07,252.98 1184.87,252.98 1190.67,252.98 1196.46,252.98 1202.26,252.98 1208.06,252.98 1213.86,252.98 1219.66,252.98 1225.45,252.98 1231.25,252.98 1237.05,216.35 1242.85,216.35 1248.65,216.35 1254.44,216.35 1260.24,216.35 1266.04,216.35 1271.84,216.35 1277.64,216.35 1283.43,216.35 1289.23,216.35 1295.03,216.35 1300.83,216.35 1306.63,216.35 1312.42,216.35 1318.22,216.35 1324.02,216.35 1329.82,216.35 1335.62,216.35 1341.41,216.35 1347.21,216.35 1353.01,216.35 1358.81,216.35 1364.61,216.35 1370.40,216.35 1376.20,216.35 1382.00,216.35"/>
<polyline fill="none" stroke="#6d28d9" stroke-width="5.2" stroke-linecap="round" stroke-linejoin="round" stroke-dasharray="10 6" points="808.00,742.00 813.80,742.00 819.60,716.97 825.39,716.97 831.19,716.97 836.99,716.97 842.79,716.97 848.59,716.97 854.38,716.97 860.18,716.97 865.98,387.29 871.78,387.29 877.58,387.29 883.37,387.29 889.17,387.29 894.97,387.29 900.77,387.29 906.57,387.29 912.36,387.29 918.16,387.29 923.96,289.61 929.76,289.61 935.56,289.61 941.35,289.61 947.15,289.61 952.95,289.61 958.75,289.61 964.55,289.61 970.34,289.61 976.14,289.61 981.94,289.61 987.74,289.61 993.54,289.61 999.33,289.61 1005.13,289.61 1010.93,289.61 1016.73,289.61 1022.53,252.98 1028.32,252.98 1034.12,252.98 1039.92,252.98 1045.72,252.98 1051.52,252.98 1057.31,252.98 1063.11,252.98 1068.91,252.98 1074.71,252.98 1080.51,252.98 1086.30,252.98 1092.10,252.98 1097.90,252.98 1103.70,252.98 1109.49,252.98 1115.29,252.98 1121.09,252.98 1126.89,252.98 1132.69,252.98 1138.48,252.98 1144.28,252.98 1150.08,252.98 1155.88,252.98 1161.68,252.98 1167.47,252.98 1173.27,252.98 1179.07,252.98 1184.87,252.98 1190.67,252.98 1196.46,252.98 1202.26,252.98 1208.06,252.98 1213.86,252.98 1219.66,252.98 1225.45,252.98 1231.25,252.98 1237.05,216.35 1242.85,216.35 1248.65,216.35 1254.44,216.35 1260.24,216.35 1266.04,216.35 1271.84,216.35 1277.64,216.35 1283.43,216.35 1289.23,216.35 1295.03,216.35 1300.83,216.35 1306.63,216.35 1312.42,216.35 1318.22,216.35 1324.02,216.35 1329.82,216.35 1335.62,216.35 1341.41,216.35 1347.21,216.35 1353.01,216.35 1358.81,216.35 1364.61,216.35 1370.40,216.35 1376.20,216.35 1382.00,216.35"/>
<rect x="804.00" y="738.00" width="8.00" height="8.00" rx="1.8" fill="#6d28d9" stroke="#ffffff" stroke-width="1.2"/>
<rect x="943.15" y="285.61" width="8.00" height="8.00" rx="1.8" fill="#6d28d9" stroke="#ffffff" stroke-width="1.2"/>
<rect x="1088.10" y="248.98" width="8.00" height="8.00" rx="1.8" fill="#6d28d9" stroke="#ffffff" stroke-width="1.2"/>
<rect x="1233.05" y="212.35" width="8.00" height="8.00" rx="1.8" fill="#6d28d9" stroke="#ffffff" stroke-width="1.2"/>
<rect x="1378.00" y="212.35" width="8.00" height="8.00" rx="1.8" fill="#6d28d9" stroke="#ffffff" stroke-width="1.2"/>
<circle cx="1382.00" cy="216.35" r="5.6" fill="#6d28d9" stroke="#ffffff" stroke-width="1.6"/>
<rect x="1283.00" y="200.35" width="89.00" height="22" rx="11" fill="#ffffff" stroke="#6d28d9" stroke-width="1.4"/>
<text x="1327.50" y="215.35" text-anchor="middle" font-family="Helvetica,Arial,sans-serif" font-size="12.5" font-weight="700" fill="#6d28d9">TPE Direct</text>
<polyline fill="none" stroke="#ffffff" stroke-width="9.0" stroke-linecap="round" stroke-linejoin="round" stroke-dasharray="2 4" points="808.00,619.29 813.80,619.29 819.60,619.29 825.39,509.40 831.19,509.40 836.99,509.40 842.79,509.40 848.59,509.40 854.38,509.40 860.18,509.40 865.98,509.40 871.78,509.40 877.58,509.40 883.37,423.92 889.17,387.29 894.97,387.29 900.77,387.29 906.57,375.08 912.36,375.08 918.16,375.08 923.96,326.24 929.76,326.24 935.56,326.24 941.35,326.24 947.15,326.24 952.95,326.24 958.75,326.24 964.55,326.24 970.34,326.24 976.14,326.24 981.94,326.24 987.74,326.24 993.54,326.24 999.33,326.24 1005.13,326.24 1010.93,326.24 1016.73,326.24 1022.53,326.24 1028.32,326.24 1034.12,326.24 1039.92,326.24 1045.72,326.24 1051.52,326.24 1057.31,326.24 1063.11,326.24 1068.91,326.24 1074.71,326.24 1080.51,326.24 1086.30,326.24 1092.10,326.24 1097.90,326.24 1103.70,326.24 1109.49,326.24 1115.29,326.24 1121.09,326.24 1126.89,326.24 1132.69,326.24 1138.48,326.24 1144.28,326.24 1150.08,326.24 1155.88,326.24 1161.68,326.24 1167.47,326.24 1173.27,326.24 1179.07,326.24 1184.87,326.24 1190.67,326.24 1196.46,326.24 1202.26,326.24 1208.06,326.24 1213.86,326.24 1219.66,326.24 1225.45,326.24 1231.25,326.24 1237.05,326.24 1242.85,326.24 1248.65,326.24 1254.44,326.24 1260.24,326.24 1266.04,326.24 1271.84,326.24 1277.64,326.24 1283.43,326.24 1289.23,326.24 1295.03,326.24 1300.83,326.24 1306.63,326.24 1312.42,326.24 1318.22,326.24 1324.02,326.24 1329.82,326.24 1335.62,326.24 1341.41,326.24 1347.21,326.24 1353.01,326.24 1358.81,326.24 1364.61,326.24 1370.40,326.24 1376.20,326.24 1382.00,326.24"/>
<polyline fill="none" stroke="#111827" stroke-width="5.2" stroke-linecap="round" stroke-linejoin="round" stroke-dasharray="2 4" points="808.00,619.29 813.80,619.29 819.60,619.29 825.39,509.40 831.19,509.40 836.99,509.40 842.79,509.40 848.59,509.40 854.38,509.40 860.18,509.40 865.98,509.40 871.78,509.40 877.58,509.40 883.37,423.92 889.17,387.29 894.97,387.29 900.77,387.29 906.57,375.08 912.36,375.08 918.16,375.08 923.96,326.24 929.76,326.24 935.56,326.24 941.35,326.24 947.15,326.24 952.95,326.24 958.75,326.24 964.55,326.24 970.34,326.24 976.14,326.24 981.94,326.24 987.74,326.24 993.54,326.24 999.33,326.24 1005.13,326.24 1010.93,326.24 1016.73,326.24 1022.53,326.24 1028.32,326.24 1034.12,326.24 1039.92,326.24 1045.72,326.24 1051.52,326.24 1057.31,326.24 1063.11,326.24 1068.91,326.24 1074.71,326.24 1080.51,326.24 1086.30,326.24 1092.10,326.24 1097.90,326.24 1103.70,326.24 1109.49,326.24 1115.29,326.24 1121.09,326.24 1126.89,326.24 1132.69,326.24 1138.48,326.24 1144.28,326.24 1150.08,326.24 1155.88,326.24 1161.68,326.24 1167.47,326.24 1173.27,326.24 1179.07,326.24 1184.87,326.24 1190.67,326.24 1196.46,326.24 1202.26,326.24 1208.06,326.24 1213.86,326.24 1219.66,326.24 1225.45,326.24 1231.25,326.24 1237.05,326.24 1242.85,326.24 1248.65,326.24 1254.44,326.24 1260.24,326.24 1266.04,326.24 1271.84,326.24 1277.64,326.24 1283.43,326.24 1289.23,326.24 1295.03,326.24 1300.83,326.24 1306.63,326.24 1312.42,326.24 1318.22,326.24 1324.02,326.24 1329.82,326.24 1335.62,326.24 1341.41,326.24 1347.21,326.24 1353.01,326.24 1358.81,326.24 1364.61,326.24 1370.40,326.24 1376.20,326.24 1382.00,326.24"/>
<rect x="803.60" y="614.89" width="8.80" height="8.80" rx="1.8" fill="#111827" stroke="#ffffff" stroke-width="1.2"/>
<rect x="942.75" y="321.84" width="8.80" height="8.80" rx="1.8" fill="#111827" stroke="#ffffff" stroke-width="1.2"/>
<rect x="1087.70" y="321.84" width="8.80" height="8.80" rx="1.8" fill="#111827" stroke="#ffffff" stroke-width="1.2"/>
<rect x="1232.65" y="321.84" width="8.80" height="8.80" rx="1.8" fill="#111827" stroke="#ffffff" stroke-width="1.2"/>
<rect x="1377.60" y="321.84" width="8.80" height="8.80" rx="1.8" fill="#111827" stroke="#ffffff" stroke-width="1.2"/>
<circle cx="1382.00" cy="326.24" r="5.6" fill="#111827" stroke="#ffffff" stroke-width="1.6"/>
<rect x="1275.90" y="344.24" width="96.10" height="22" rx="11" fill="#ffffff" stroke="#111827" stroke-width="1.4"/>
<text x="1323.95" y="359.24" text-anchor="middle" font-family="Helvetica,Arial,sans-serif" font-size="12.5" font-weight="700" fill="#111827">SMAC Direct</text>
</svg>