<svg xmlns="http://www.w3.org/2000/svg" width="1560" height="860" viewBox="0 0 1560 860">
<style>
.bg{fill:#fffdf8;}
.grid{stroke:#ece5d8;stroke-width:1;}
.axis{stroke:#403a32;stroke-width:1.4;}
.best-line{fill:none;stroke-width:3.5;}
.raw-point{opacity:0.34;stroke-width:1.1;}
.label{font-family:Helvetica,Arial,sans-serif;fill:#222;}
.subtle{font-family:Helvetica,Arial,sans-serif;fill:#5a544d;}
</style>
<rect class="bg" width="100%" height="100%"/>
<text class="label" x="90" y="34" font-size="30">Ratchet Variants</text>
<text class="subtle" x="90" y="58" font-size="16">Line: cumulative best validation by run. Scatter: non-best candidate validations within each run.</text>
<line class="grid" x1="90" y1="56.0" x2="1140" y2="56.0"/>
<text class="subtle" x="78" y="61.0" text-anchor="end" font-size="15">0.465</text>
<line class="grid" x1="90" y1="200.0" x2="1140" y2="200.0"/>
<text class="subtle" x="78" y="205.0" text-anchor="end" font-size="15">0.384</text>
<line class="grid" x1="90" y1="344.0" x2="1140" y2="344.0"/>
<text class="subtle" x="78" y="349.0" text-anchor="end" font-size="15">0.303</text>
<line class="grid" x1="90" y1="488.0" x2="1140" y2="488.0"/>
<text class="subtle" x="78" y="493.0" text-anchor="end" font-size="15">0.222</text>
<line class="grid" x1="90" y1="632.0" x2="1140" y2="632.0"/>
<text class="subtle" x="78" y="637.0" text-anchor="end" font-size="15">0.141</text>
<line class="grid" x1="90" y1="776.0" x2="1140" y2="776.0"/>
<text class="subtle" x="78" y="781.0" text-anchor="end" font-size="15">0.059</text>
<line class="grid" x1="90.0" y1="56" x2="90.0" y2="776"/>
<text class="subtle" x="90.0" y="802" text-anchor="middle" font-size="15">1</text>
<line class="grid" x1="185.5" y1="56" x2="185.5" y2="776"/>
<text class="subtle" x="185.5" y="802" text-anchor="middle" font-size="15">10</text>
<line class="grid" x1="291.5" y1="56" x2="291.5" y2="776"/>
<text class="subtle" x="291.5" y="802" text-anchor="middle" font-size="15">20</text>
<line class="grid" x1="503.6" y1="56" x2="503.6" y2="776"/>
<text class="subtle" x="503.6" y="802" text-anchor="middle" font-size="15">40</text>
<line class="grid" x1="715.8" y1="56" x2="715.8" y2="776"/>
<text class="subtle" x="715.8" y="802" text-anchor="middle" font-size="15">60</text>
<line class="grid" x1="927.9" y1="56" x2="927.9" y2="776"/>
<text class="subtle" x="927.9" y="802" text-anchor="middle" font-size="15">80</text>
<line class="grid" x1="1140.0" y1="56" x2="1140.0" y2="776"/>
<text class="subtle" x="1140.0" y="802" text-anchor="middle" font-size="15">100</text>
<line class="axis" x1="90" y1="56" x2="90" y2="776"/>
<line class="axis" x1="90" y1="776" x2="1140" y2="776"/>
<text class="label" x="615.0" y="836" text-anchor="middle" font-size="18">Run</text>
<text class="label" x="26" y="416.0" transform="rotate(-90 26 416.0)" text-anchor="middle" font-size="18">Validation Accuracy</text>
<circle class="raw-point" cx="90.00" cy="272.47" r="4.6" fill="#1f77b4" stroke="#1f77b4"/>
<circle class="raw-point" cx="100.61" cy="269.52" r="4.6" fill="#1f77b4" stroke="#1f77b4"/>
<circle class="raw-point" cx="111.21" cy="272.47" r="4.6" fill="#1f77b4" stroke="#1f77b4"/>
<circle class="raw-point" cx="121.82" cy="216.31" r="4.6" fill="#1f77b4" stroke="#1f77b4"/>
<circle class="raw-point" cx="132.42" cy="272.47" r="4.6" fill="#1f77b4" stroke="#1f77b4"/>
<circle class="raw-point" cx="143.03" cy="263.61" r="4.6" fill="#1f77b4" stroke="#1f77b4"/>
<circle class="raw-point" cx="153.64" cy="331.59" r="4.6" fill="#1f77b4" stroke="#1f77b4"/>
<circle class="raw-point" cx="164.24" cy="239.96" r="4.6" fill="#1f77b4" stroke="#1f77b4"/>
<circle class="raw-point" cx="174.85" cy="325.68" r="4.6" fill="#1f77b4" stroke="#1f77b4"/>
<circle class="raw-point" cx="185.45" cy="228.14" r="4.6" fill="#1f77b4" stroke="#1f77b4"/>
<circle class="raw-point" cx="196.06" cy="210.40" r="4.6" fill="#1f77b4" stroke="#1f77b4"/>
<circle class="raw-point" cx="206.67" cy="198.58" r="4.6" fill="#1f77b4" stroke="#1f77b4"/>
<circle class="raw-point" cx="217.27" cy="266.56" r="4.6" fill="#1f77b4" stroke="#1f77b4"/>
<circle class="raw-point" cx="227.88" cy="234.05" r="4.6" fill="#1f77b4" stroke="#1f77b4"/>
<circle class="raw-point" cx="238.48" cy="195.62" r="4.6" fill="#1f77b4" stroke="#1f77b4"/>
<circle class="raw-point" cx="249.09" cy="216.31" r="4.6" fill="#1f77b4" stroke="#1f77b4"/>
<circle class="raw-point" cx="259.70" cy="213.36" r="4.6" fill="#1f77b4" stroke="#1f77b4"/>
<circle class="raw-point" cx="270.30" cy="210.40" r="4.6" fill="#1f77b4" stroke="#1f77b4"/>
<circle class="raw-point" cx="280.91" cy="204.49" r="4.6" fill="#1f77b4" stroke="#1f77b4"/>
<circle class="raw-point" cx="291.52" cy="313.85" r="4.6" fill="#1f77b4" stroke="#1f77b4"/>
<circle class="raw-point" cx="302.12" cy="322.72" r="4.6" fill="#1f77b4" stroke="#1f77b4"/>
<circle class="raw-point" cx="312.73" cy="195.62" r="4.6" fill="#1f77b4" stroke="#1f77b4"/>
<circle class="raw-point" cx="323.33" cy="157.20" r="4.6" fill="#1f77b4" stroke="#1f77b4"/>
<circle class="raw-point" cx="333.94" cy="171.98" r="4.6" fill="#1f77b4" stroke="#1f77b4"/>
<circle class="raw-point" cx="344.55" cy="319.76" r="4.6" fill="#1f77b4" stroke="#1f77b4"/>
<circle class="raw-point" cx="355.15" cy="171.98" r="4.6" fill="#1f77b4" stroke="#1f77b4"/>
<circle class="raw-point" cx="365.76" cy="163.11" r="4.6" fill="#1f77b4" stroke="#1f77b4"/>
<circle class="raw-point" cx="376.36" cy="177.89" r="4.6" fill="#1f77b4" stroke="#1f77b4"/>
<circle class="raw-point" cx="386.97" cy="166.07" r="4.6" fill="#1f77b4" stroke="#1f77b4"/>
<circle class="raw-point" cx="397.58" cy="275.43" r="4.6" fill="#1f77b4" stroke="#1f77b4"/>
<circle class="raw-point" cx="408.18" cy="148.34" r="4.6" fill="#1f77b4" stroke="#1f77b4"/>
<circle class="raw-point" cx="418.79" cy="136.51" r="4.6" fill="#1f77b4" stroke="#1f77b4"/>
<circle class="raw-point" cx="429.39" cy="160.16" r="4.6" fill="#1f77b4" stroke="#1f77b4"/>
<circle class="raw-point" cx="440.00" cy="136.51" r="4.6" fill="#1f77b4" stroke="#1f77b4"/>
<circle class="raw-point" cx="450.61" cy="148.34" r="4.6" fill="#1f77b4" stroke="#1f77b4"/>
<circle class="raw-point" cx="461.21" cy="136.51" r="4.6" fill="#1f77b4" stroke="#1f77b4"/>
<circle class="raw-point" cx="471.82" cy="157.20" r="4.6" fill="#1f77b4" stroke="#1f77b4"/>
<circle class="raw-point" cx="482.42" cy="328.63" r="4.6" fill="#1f77b4" stroke="#1f77b4"/>
<circle class="raw-point" cx="493.03" cy="219.27" r="4.6" fill="#1f77b4" stroke="#1f77b4"/>
<circle class="raw-point" cx="503.64" cy="228.14" r="4.6" fill="#1f77b4" stroke="#1f77b4"/>
<circle class="raw-point" cx="514.24" cy="145.38" r="4.6" fill="#1f77b4" stroke="#1f77b4"/>
<circle class="raw-point" cx="524.85" cy="192.67" r="4.6" fill="#1f77b4" stroke="#1f77b4"/>
<circle class="raw-point" cx="535.45" cy="160.16" r="4.6" fill="#1f77b4" stroke="#1f77b4"/>
<circle class="raw-point" cx="546.06" cy="130.60" r="4.6" fill="#1f77b4" stroke="#1f77b4"/>
<circle class="raw-point" cx="556.67" cy="174.94" r="4.6" fill="#1f77b4" stroke="#1f77b4"/>
<circle class="raw-point" cx="567.27" cy="192.67" r="4.6" fill="#1f77b4" stroke="#1f77b4"/>
<circle class="raw-point" cx="577.88" cy="281.34" r="4.6" fill="#1f77b4" stroke="#1f77b4"/>
<circle class="raw-point" cx="588.48" cy="130.60" r="4.6" fill="#1f77b4" stroke="#1f77b4"/>
<circle class="raw-point" cx="599.09" cy="157.20" r="4.6" fill="#1f77b4" stroke="#1f77b4"/>
<circle class="raw-point" cx="609.70" cy="328.63" r="4.6" fill="#1f77b4" stroke="#1f77b4"/>
<circle class="raw-point" cx="620.30" cy="219.27" r="4.6" fill="#1f77b4" stroke="#1f77b4"/>
<circle class="raw-point" cx="630.91" cy="145.38" r="4.6" fill="#1f77b4" stroke="#1f77b4"/>
<circle class="raw-point" cx="641.52" cy="180.85" r="4.6" fill="#1f77b4" stroke="#1f77b4"/>
<circle class="raw-point" cx="652.12" cy="228.14" r="4.6" fill="#1f77b4" stroke="#1f77b4"/>
<circle class="raw-point" cx="662.73" cy="130.60" r="4.6" fill="#1f77b4" stroke="#1f77b4"/>
<circle class="raw-point" cx="673.33" cy="154.25" r="4.6" fill="#1f77b4" stroke="#1f77b4"/>
<circle class="raw-point" cx="683.94" cy="201.54" r="4.6" fill="#1f77b4" stroke="#1f77b4"/>
<circle class="raw-point" cx="694.55" cy="237.01" r="4.6" fill="#1f77b4" stroke="#1f77b4"/>
<circle class="raw-point" cx="705.15" cy="118.78" r="4.6" fill="#1f77b4" stroke="#1f77b4"/>
<circle class="raw-point" cx="715.76" cy="207.45" r="4.6" fill="#1f77b4" stroke="#1f77b4"/>
<circle class="raw-point" cx="726.36" cy="180.85" r="4.6" fill="#1f77b4" stroke="#1f77b4"/>
<circle class="raw-point" cx="736.97" cy="109.91" r="4.6" fill="#1f77b4" stroke="#1f77b4"/>
<circle class="raw-point" cx="747.58" cy="136.51" r="4.6" fill="#1f77b4" stroke="#1f77b4"/>
<circle class="raw-point" cx="758.18" cy="115.82" r="4.6" fill="#1f77b4" stroke="#1f77b4"/>
<circle class="raw-point" cx="768.79" cy="148.34" r="4.6" fill="#1f77b4" stroke="#1f77b4"/>
<circle class="raw-point" cx="779.39" cy="109.91" r="4.6" fill="#1f77b4" stroke="#1f77b4"/>
<circle class="raw-point" cx="790.00" cy="112.87" r="4.6" fill="#1f77b4" stroke="#1f77b4"/>
<circle class="raw-point" cx="800.61" cy="180.85" r="4.6" fill="#1f77b4" stroke="#1f77b4"/>
<circle class="raw-point" cx="811.21" cy="248.83" r="4.6" fill="#1f77b4" stroke="#1f77b4"/>
<circle class="raw-point" cx="821.82" cy="219.27" r="4.6" fill="#1f77b4" stroke="#1f77b4"/>
<circle class="raw-point" cx="832.42" cy="189.71" r="4.6" fill="#1f77b4" stroke="#1f77b4"/>
<circle class="raw-point" cx="843.03" cy="154.25" r="4.6" fill="#1f77b4" stroke="#1f77b4"/>
<circle class="raw-point" cx="853.64" cy="180.85" r="4.6" fill="#1f77b4" stroke="#1f77b4"/>
<circle class="raw-point" cx="864.24" cy="228.14" r="4.6" fill="#1f77b4" stroke="#1f77b4"/>
<circle class="raw-point" cx="874.85" cy="121.73" r="4.6" fill="#1f77b4" stroke="#1f77b4"/>
<circle class="raw-point" cx="885.45" cy="186.76" r="4.6" fill="#1f77b4" stroke="#1f77b4"/>
<circle class="raw-point" cx="896.06" cy="130.60" r="4.6" fill="#1f77b4" stroke="#1f77b4"/>
<circle class="raw-point" cx="906.67" cy="148.34" r="4.6" fill="#1f77b4" stroke="#1f77b4"/>
<circle class="raw-point" cx="917.27" cy="118.78" r="4.6" fill="#1f77b4" stroke="#1f77b4"/>
<circle class="raw-point" cx="927.88" cy="207.45" r="4.6" fill="#1f77b4" stroke="#1f77b4"/>
<circle class="raw-point" cx="938.48" cy="186.76" r="4.6" fill="#1f77b4" stroke="#1f77b4"/>
<circle class="raw-point" cx="949.09" cy="121.73" r="4.6" fill="#1f77b4" stroke="#1f77b4"/>
<circle class="raw-point" cx="959.70" cy="201.54" r="4.6" fill="#1f77b4" stroke="#1f77b4"/>
<circle class="raw-point" cx="970.30" cy="239.96" r="4.6" fill="#1f77b4" stroke="#1f77b4"/>
<circle class="raw-point" cx="980.91" cy="302.03" r="4.6" fill="#1f77b4" stroke="#1f77b4"/>
<circle class="raw-point" cx="991.52" cy="192.67" r="4.6" fill="#1f77b4" stroke="#1f77b4"/>
<circle class="raw-point" cx="1002.12" cy="219.27" r="4.6" fill="#1f77b4" stroke="#1f77b4"/>
<circle class="raw-point" cx="1012.73" cy="216.31" r="4.6" fill="#1f77b4" stroke="#1f77b4"/>
<circle class="raw-point" cx="1023.33" cy="180.85" r="4.6" fill="#1f77b4" stroke="#1f77b4"/>
<circle class="raw-point" cx="1033.94" cy="118.78" r="4.6" fill="#1f77b4" stroke="#1f77b4"/>
<circle class="raw-point" cx="1044.55" cy="109.91" r="4.6" fill="#1f77b4" stroke="#1f77b4"/>
<circle class="raw-point" cx="1055.15" cy="148.34" r="4.6" fill="#1f77b4" stroke="#1f77b4"/>
<circle class="raw-point" cx="1065.76" cy="219.27" r="4.6" fill="#1f77b4" stroke="#1f77b4"/>
<circle class="raw-point" cx="1076.36" cy="189.71" r="4.6" fill="#1f77b4" stroke="#1f77b4"/>
<circle class="raw-point" cx="1086.97" cy="130.60" r="4.6" fill="#1f77b4" stroke="#1f77b4"/>
<circle class="raw-point" cx="1097.58" cy="148.34" r="4.6" fill="#1f77b4" stroke="#1f77b4"/>
<circle class="raw-point" cx="1108.18" cy="136.51" r="4.6" fill="#1f77b4" stroke="#1f77b4"/>
<circle class="raw-point" cx="1118.79" cy="115.82" r="4.6" fill="#1f77b4" stroke="#1f77b4"/>
<circle class="raw-point" cx="1129.39" cy="112.87" r="4.6" fill="#1f77b4" stroke="#1f77b4"/>
<circle class="raw-point" cx="1140.00" cy="151.29" r="4.6" fill="#1f77b4" stroke="#1f77b4"/>
<polyline class="best-line" stroke="#1f77b4" points="90.00,248.83 100.61,216.31 111.21,216.31 121.82,198.58 132.42,198.58 143.03,198.58 153.64,198.58 164.24,198.58 174.85,198.58 185.45,198.58 196.06,198.58 206.67,195.62 217.27,195.62 227.88,195.62 238.48,195.62 249.09,195.62 259.70,195.62 270.30,195.62 280.91,195.62 291.52,195.62 302.12,195.62 312.73,148.34 323.33,148.34 333.94,148.34 344.55,148.34 355.15,148.34 365.76,148.34 376.36,148.34 386.97,148.34 397.58,148.34 408.18,136.51 418.79,136.51 429.39,136.51 440.00,136.51 450.61,136.51 461.21,130.60 471.82,130.60 482.42,130.60 493.03,130.60 503.64,130.60 514.24,130.60 524.85,130.60 535.45,130.60 546.06,130.60 556.67,130.60 567.27,130.60 577.88,130.60 588.48,130.60 599.09,130.60 609.70,130.60 620.30,130.60 630.91,130.60 641.52,130.60 652.12,130.60 662.73,109.91 673.33,109.91 683.94,109.91 694.55,109.91 705.15,109.91 715.76,109.91 726.36,109.91 736.97,109.91 747.58,109.91 758.18,109.91 768.79,109.91 779.39,109.91 790.00,109.91 800.61,109.91 811.21,109.91 821.82,109.91 832.42,109.91 843.03,109.91 853.64,109.91 864.24,109.91 874.85,109.91 885.45,109.91 896.06,109.91 906.67,109.91 917.27,109.91 927.88,109.91 938.48,109.91 949.09,109.91 959.70,109.91 970.30,109.91 980.91,109.91 991.52,109.91 1002.12,109.91 1012.73,109.91 1023.33,109.91 1033.94,109.91 1044.55,109.91 1055.15,109.91 1065.76,109.91 1076.36,109.91 1086.97,109.91 1097.58,109.91 1108.18,109.91 1118.79,109.91 1129.39,109.91 1140.00,109.91"/>
<line x1="1166" y1="76" x2="1188" y2="76" stroke="#1f77b4" stroke-width="3.5"/>
<circle class="raw-point" cx="1177" cy="76" r="4.6" fill="#1f77b4" stroke="#1f77b4"/>
<text class="label" x="1198" y="81" font-size="16">Ratchet Plain</text>
<text class="subtle" x="1198" y="100" font-size="13">best val 0.435 / hidden 0.388</text>
<circle class="raw-point" cx="90.00" cy="603.51" r="4.6" fill="#d62728" stroke="#d62728"/>
<circle class="raw-point" cx="100.61" cy="603.51" r="4.6" fill="#d62728" stroke="#d62728"/>
<circle class="raw-point" cx="111.21" cy="603.51" r="4.6" fill="#d62728" stroke="#d62728"/>
<circle class="raw-point" cx="121.82" cy="603.51" r="4.6" fill="#d62728" stroke="#d62728"/>
<circle class="raw-point" cx="132.42" cy="603.51" r="4.6" fill="#d62728" stroke="#d62728"/>
<circle class="raw-point" cx="143.03" cy="692.18" r="4.6" fill="#d62728" stroke="#d62728"/>
<circle class="raw-point" cx="153.64" cy="234.05" r="4.6" fill="#d62728" stroke="#d62728"/>
<circle class="raw-point" cx="164.24" cy="234.05" r="4.6" fill="#d62728" stroke="#d62728"/>
<circle class="raw-point" cx="174.85" cy="234.05" r="4.6" fill="#d62728" stroke="#d62728"/>
<circle class="raw-point" cx="185.45" cy="242.92" r="4.6" fill="#d62728" stroke="#d62728"/>
<circle class="raw-point" cx="196.06" cy="630.11" r="4.6" fill="#d62728" stroke="#d62728"/>
<circle class="raw-point" cx="206.67" cy="228.14" r="4.6" fill="#d62728" stroke="#d62728"/>
<circle class="raw-point" cx="217.27" cy="219.27" r="4.6" fill="#d62728" stroke="#d62728"/>
<circle class="raw-point" cx="227.88" cy="239.96" r="4.6" fill="#d62728" stroke="#d62728"/>
<circle class="raw-point" cx="238.48" cy="195.62" r="4.6" fill="#d62728" stroke="#d62728"/>
<circle class="raw-point" cx="249.09" cy="269.52" r="4.6" fill="#d62728" stroke="#d62728"/>
<circle class="raw-point" cx="259.70" cy="364.10" r="4.6" fill="#d62728" stroke="#d62728"/>
<circle class="raw-point" cx="270.30" cy="260.65" r="4.6" fill="#d62728" stroke="#d62728"/>
<circle class="raw-point" cx="280.91" cy="310.90" r="4.6" fill="#d62728" stroke="#d62728"/>
<circle class="raw-point" cx="291.52" cy="556.22" r="4.6" fill="#d62728" stroke="#d62728"/>
<circle class="raw-point" cx="302.12" cy="213.36" r="4.6" fill="#d62728" stroke="#d62728"/>
<circle class="raw-point" cx="312.73" cy="216.31" r="4.6" fill="#d62728" stroke="#d62728"/>
<circle class="raw-point" cx="323.33" cy="222.23" r="4.6" fill="#d62728" stroke="#d62728"/>
<circle class="raw-point" cx="333.94" cy="704.00" r="4.6" fill="#d62728" stroke="#d62728"/>
<circle class="raw-point" cx="344.55" cy="340.45" r="4.6" fill="#d62728" stroke="#d62728"/>
<circle class="raw-point" cx="355.15" cy="186.76" r="4.6" fill="#d62728" stroke="#d62728"/>
<circle class="raw-point" cx="365.76" cy="198.58" r="4.6" fill="#d62728" stroke="#d62728"/>
<circle class="raw-point" cx="376.36" cy="166.07" r="4.6" fill="#d62728" stroke="#d62728"/>
<circle class="raw-point" cx="386.97" cy="166.07" r="4.6" fill="#d62728" stroke="#d62728"/>
<circle class="raw-point" cx="397.58" cy="248.83" r="4.6" fill="#d62728" stroke="#d62728"/>
<circle class="raw-point" cx="408.18" cy="154.25" r="4.6" fill="#d62728" stroke="#d62728"/>
<circle class="raw-point" cx="418.79" cy="160.16" r="4.6" fill="#d62728" stroke="#d62728"/>
<circle class="raw-point" cx="429.39" cy="148.34" r="4.6" fill="#d62728" stroke="#d62728"/>
<circle class="raw-point" cx="440.00" cy="148.34" r="4.6" fill="#d62728" stroke="#d62728"/>
<circle class="raw-point" cx="450.61" cy="302.03" r="4.6" fill="#d62728" stroke="#d62728"/>
<circle class="raw-point" cx="461.21" cy="479.37" r="4.6" fill="#d62728" stroke="#d62728"/>
<circle class="raw-point" cx="471.82" cy="251.78" r="4.6" fill="#d62728" stroke="#d62728"/>
<circle class="raw-point" cx="482.42" cy="222.23" r="4.6" fill="#d62728" stroke="#d62728"/>
<circle class="raw-point" cx="493.03" cy="228.14" r="4.6" fill="#d62728" stroke="#d62728"/>
<circle class="raw-point" cx="503.64" cy="183.80" r="4.6" fill="#d62728" stroke="#d62728"/>
<circle class="raw-point" cx="514.24" cy="139.47" r="4.6" fill="#d62728" stroke="#d62728"/>
<circle class="raw-point" cx="524.85" cy="148.34" r="4.6" fill="#d62728" stroke="#d62728"/>
<circle class="raw-point" cx="535.45" cy="136.51" r="4.6" fill="#d62728" stroke="#d62728"/>
<circle class="raw-point" cx="546.06" cy="177.89" r="4.6" fill="#d62728" stroke="#d62728"/>
<circle class="raw-point" cx="556.67" cy="225.18" r="4.6" fill="#d62728" stroke="#d62728"/>
<circle class="raw-point" cx="567.27" cy="302.03" r="4.6" fill="#d62728" stroke="#d62728"/>
<circle class="raw-point" cx="577.88" cy="174.94" r="4.6" fill="#d62728" stroke="#d62728"/>
<circle class="raw-point" cx="588.48" cy="216.31" r="4.6" fill="#d62728" stroke="#d62728"/>
<circle class="raw-point" cx="599.09" cy="260.65" r="4.6" fill="#d62728" stroke="#d62728"/>
<circle class="raw-point" cx="609.70" cy="154.25" r="4.6" fill="#d62728" stroke="#d62728"/>
<circle class="raw-point" cx="620.30" cy="517.79" r="4.6" fill="#d62728" stroke="#d62728"/>
<circle class="raw-point" cx="630.91" cy="186.76" r="4.6" fill="#d62728" stroke="#d62728"/>
<circle class="raw-point" cx="641.52" cy="139.47" r="4.6" fill="#d62728" stroke="#d62728"/>
<circle class="raw-point" cx="652.12" cy="254.74" r="4.6" fill="#d62728" stroke="#d62728"/>
<circle class="raw-point" cx="662.73" cy="245.87" r="4.6" fill="#d62728" stroke="#d62728"/>
<circle class="raw-point" cx="673.33" cy="248.83" r="4.6" fill="#d62728" stroke="#d62728"/>
<circle class="raw-point" cx="683.94" cy="145.38" r="4.6" fill="#d62728" stroke="#d62728"/>
<circle class="raw-point" cx="694.55" cy="166.07" r="4.6" fill="#d62728" stroke="#d62728"/>
<circle class="raw-point" cx="705.15" cy="160.16" r="4.6" fill="#d62728" stroke="#d62728"/>
<circle class="raw-point" cx="715.76" cy="245.87" r="4.6" fill="#d62728" stroke="#d62728"/>
<circle class="raw-point" cx="726.36" cy="204.49" r="4.6" fill="#d62728" stroke="#d62728"/>
<circle class="raw-point" cx="736.97" cy="148.34" r="4.6" fill="#d62728" stroke="#d62728"/>
<circle class="raw-point" cx="747.58" cy="166.07" r="4.6" fill="#d62728" stroke="#d62728"/>
<circle class="raw-point" cx="758.18" cy="136.51" r="4.6" fill="#d62728" stroke="#d62728"/>
<circle class="raw-point" cx="768.79" cy="222.23" r="4.6" fill="#d62728" stroke="#d62728"/>
<circle class="raw-point" cx="779.39" cy="284.29" r="4.6" fill="#d62728" stroke="#d62728"/>
<circle class="raw-point" cx="790.00" cy="251.78" r="4.6" fill="#d62728" stroke="#d62728"/>
<circle class="raw-point" cx="800.61" cy="142.42" r="4.6" fill="#d62728" stroke="#d62728"/>
<circle class="raw-point" cx="811.21" cy="204.49" r="4.6" fill="#d62728" stroke="#d62728"/>
<circle class="raw-point" cx="821.82" cy="118.78" r="4.6" fill="#d62728" stroke="#d62728"/>
<circle class="raw-point" cx="832.42" cy="201.54" r="4.6" fill="#d62728" stroke="#d62728"/>
<circle class="raw-point" cx="843.03" cy="160.16" r="4.6" fill="#d62728" stroke="#d62728"/>
<circle class="raw-point" cx="853.64" cy="260.65" r="4.6" fill="#d62728" stroke="#d62728"/>
<circle class="raw-point" cx="864.24" cy="163.11" r="4.6" fill="#d62728" stroke="#d62728"/>
<circle class="raw-point" cx="874.85" cy="503.02" r="4.6" fill="#d62728" stroke="#d62728"/>
<circle class="raw-point" cx="885.45" cy="186.76" r="4.6" fill="#d62728" stroke="#d62728"/>
<circle class="raw-point" cx="896.06" cy="154.25" r="4.6" fill="#d62728" stroke="#d62728"/>
<circle class="raw-point" cx="906.67" cy="245.87" r="4.6" fill="#d62728" stroke="#d62728"/>
<circle class="raw-point" cx="917.27" cy="245.87" r="4.6" fill="#d62728" stroke="#d62728"/>
<circle class="raw-point" cx="927.88" cy="269.52" r="4.6" fill="#d62728" stroke="#d62728"/>
<circle class="raw-point" cx="938.48" cy="169.02" r="4.6" fill="#d62728" stroke="#d62728"/>
<circle class="raw-point" cx="949.09" cy="133.56" r="4.6" fill="#d62728" stroke="#d62728"/>
<circle class="raw-point" cx="959.70" cy="169.02" r="4.6" fill="#d62728" stroke="#d62728"/>
<circle class="raw-point" cx="970.30" cy="266.56" r="4.6" fill="#d62728" stroke="#d62728"/>
<circle class="raw-point" cx="980.91" cy="160.16" r="4.6" fill="#d62728" stroke="#d62728"/>
<circle class="raw-point" cx="991.52" cy="251.78" r="4.6" fill="#d62728" stroke="#d62728"/>
<circle class="raw-point" cx="1002.12" cy="186.76" r="4.6" fill="#d62728" stroke="#d62728"/>
<circle class="raw-point" cx="1012.73" cy="260.65" r="4.6" fill="#d62728" stroke="#d62728"/>
<circle class="raw-point" cx="1023.33" cy="231.09" r="4.6" fill="#d62728" stroke="#d62728"/>
<circle class="raw-point" cx="1033.94" cy="154.25" r="4.6" fill="#d62728" stroke="#d62728"/>
<circle class="raw-point" cx="1044.55" cy="201.54" r="4.6" fill="#d62728" stroke="#d62728"/>
<circle class="raw-point" cx="1055.15" cy="171.98" r="4.6" fill="#d62728" stroke="#d62728"/>
<circle class="raw-point" cx="1065.76" cy="145.38" r="4.6" fill="#d62728" stroke="#d62728"/>
<circle class="raw-point" cx="1076.36" cy="278.38" r="4.6" fill="#d62728" stroke="#d62728"/>
<circle class="raw-point" cx="1086.97" cy="207.45" r="4.6" fill="#d62728" stroke="#d62728"/>
<circle class="raw-point" cx="1097.58" cy="307.94" r="4.6" fill="#d62728" stroke="#d62728"/>
<circle class="raw-point" cx="1108.18" cy="163.11" r="4.6" fill="#d62728" stroke="#d62728"/>
<circle class="raw-point" cx="1118.79" cy="198.58" r="4.6" fill="#d62728" stroke="#d62728"/>
<circle class="raw-point" cx="1129.39" cy="266.56" r="4.6" fill="#d62728" stroke="#d62728"/>
<circle class="raw-point" cx="1140.00" cy="169.02" r="4.6" fill="#d62728" stroke="#d62728"/>
<polyline class="best-line" stroke="#d62728" points="90.00,432.08 100.61,432.08 111.21,432.08 121.82,432.08 132.42,432.08 143.03,237.01 153.64,228.14 164.24,210.40 174.85,210.40 185.45,210.40 196.06,210.40 206.67,210.40 217.27,210.40 227.88,210.40 238.48,189.71 249.09,189.71 259.70,189.71 270.30,189.71 280.91,189.71 291.52,189.71 302.12,189.71 312.73,189.71 323.33,189.71 333.94,189.71 344.55,189.71 355.15,180.85 365.76,174.94 376.36,157.20 386.97,157.20 397.58,157.20 408.18,127.64 418.79,127.64 429.39,127.64 440.00,124.69 450.61,124.69 461.21,124.69 471.82,124.69 482.42,124.69 493.03,124.69 503.64,124.69 514.24,124.69 524.85,124.69 535.45,124.69 546.06,124.69 556.67,124.69 567.27,124.69 577.88,124.69 588.48,124.69 599.09,124.69 609.70,124.69 620.30,124.69 630.91,124.69 641.52,124.69 652.12,124.69 662.73,124.69 673.33,124.69 683.94,124.69 694.55,124.69 705.15,124.69 715.76,124.69 726.36,124.69 736.97,124.69 747.58,124.69 758.18,118.78 768.79,118.78 779.39,118.78 790.00,118.78 800.61,118.78 811.21,118.78 821.82,115.82 832.42,115.82 843.03,115.82 853.64,115.82 864.24,115.82 874.85,115.82 885.45,115.82 896.06,115.82 906.67,115.82 917.27,115.82 927.88,115.82 938.48,115.82 949.09,115.82 959.70,115.82 970.30,115.82 980.91,115.82 991.52,115.82 1002.12,104.00 1012.73,104.00 1023.33,104.00 1033.94,104.00 1044.55,104.00 1055.15,104.00 1065.76,104.00 1076.36,104.00 1086.97,104.00 1097.58,104.00 1108.18,104.00 1118.79,104.00 1129.39,104.00 1140.00,104.00"/>
<line x1="1166" y1="130" x2="1188" y2="130" stroke="#d62728" stroke-width="3.5"/>
<circle class="raw-point" cx="1177" cy="130" r="4.6" fill="#d62728" stroke="#d62728"/>
<text class="label" x="1198" y="135" font-size="16">Ratchet + TPE</text>
<text class="subtle" x="1198" y="154" font-size="13">best val 0.438 / hidden 0.373</text>
<circle class="raw-point" cx="90.00" cy="464.59" r="4.6" fill="#2ca02c" stroke="#2ca02c"/>
<circle class="raw-point" cx="100.61" cy="207.45" r="4.6" fill="#2ca02c" stroke="#2ca02c"/>
<circle class="raw-point" cx="111.21" cy="526.66" r="4.6" fill="#2ca02c" stroke="#2ca02c"/>
<circle class="raw-point" cx="121.82" cy="325.68" r="4.6" fill="#2ca02c" stroke="#2ca02c"/>
<circle class="raw-point" cx="132.42" cy="325.68" r="4.6" fill="#2ca02c" stroke="#2ca02c"/>
<circle class="raw-point" cx="143.03" cy="290.21" r="4.6" fill="#2ca02c" stroke="#2ca02c"/>
<circle class="raw-point" cx="153.64" cy="689.22" r="4.6" fill="#2ca02c" stroke="#2ca02c"/>
<circle class="raw-point" cx="164.24" cy="225.18" r="4.6" fill="#2ca02c" stroke="#2ca02c"/>
<circle class="raw-point" cx="174.85" cy="251.78" r="4.6" fill="#2ca02c" stroke="#2ca02c"/>
<circle class="raw-point" cx="185.45" cy="245.87" r="4.6" fill="#2ca02c" stroke="#2ca02c"/>
<circle class="raw-point" cx="196.06" cy="485.28" r="4.6" fill="#2ca02c" stroke="#2ca02c"/>
<circle class="raw-point" cx="206.67" cy="210.40" r="4.6" fill="#2ca02c" stroke="#2ca02c"/>
<circle class="raw-point" cx="217.27" cy="263.61" r="4.6" fill="#2ca02c" stroke="#2ca02c"/>
<circle class="raw-point" cx="227.88" cy="290.21" r="4.6" fill="#2ca02c" stroke="#2ca02c"/>
<circle class="raw-point" cx="238.48" cy="263.61" r="4.6" fill="#2ca02c" stroke="#2ca02c"/>
<circle class="raw-point" cx="249.09" cy="325.68" r="4.6" fill="#2ca02c" stroke="#2ca02c"/>
<circle class="raw-point" cx="259.70" cy="219.27" r="4.6" fill="#2ca02c" stroke="#2ca02c"/>
<circle class="raw-point" cx="270.30" cy="225.18" r="4.6" fill="#2ca02c" stroke="#2ca02c"/>
<circle class="raw-point" cx="280.91" cy="257.69" r="4.6" fill="#2ca02c" stroke="#2ca02c"/>
<circle class="raw-point" cx="291.52" cy="210.40" r="4.6" fill="#2ca02c" stroke="#2ca02c"/>
<circle class="raw-point" cx="302.12" cy="237.01" r="4.6" fill="#2ca02c" stroke="#2ca02c"/>
<circle class="raw-point" cx="312.73" cy="228.14" r="4.6" fill="#2ca02c" stroke="#2ca02c"/>
<circle class="raw-point" cx="323.33" cy="228.14" r="4.6" fill="#2ca02c" stroke="#2ca02c"/>
<circle class="raw-point" cx="333.94" cy="216.31" r="4.6" fill="#2ca02c" stroke="#2ca02c"/>
<circle class="raw-point" cx="344.55" cy="216.31" r="4.6" fill="#2ca02c" stroke="#2ca02c"/>
<circle class="raw-point" cx="355.15" cy="216.31" r="4.6" fill="#2ca02c" stroke="#2ca02c"/>
<circle class="raw-point" cx="365.76" cy="213.36" r="4.6" fill="#2ca02c" stroke="#2ca02c"/>
<circle class="raw-point" cx="376.36" cy="195.62" r="4.6" fill="#2ca02c" stroke="#2ca02c"/>
<circle class="raw-point" cx="386.97" cy="228.14" r="4.6" fill="#2ca02c" stroke="#2ca02c"/>
<circle class="raw-point" cx="397.58" cy="210.40" r="4.6" fill="#2ca02c" stroke="#2ca02c"/>
<circle class="raw-point" cx="408.18" cy="234.05" r="4.6" fill="#2ca02c" stroke="#2ca02c"/>
<circle class="raw-point" cx="418.79" cy="254.74" r="4.6" fill="#2ca02c" stroke="#2ca02c"/>
<circle class="raw-point" cx="429.39" cy="210.40" r="4.6" fill="#2ca02c" stroke="#2ca02c"/>
<circle class="raw-point" cx="440.00" cy="325.68" r="4.6" fill="#2ca02c" stroke="#2ca02c"/>
<circle class="raw-point" cx="450.61" cy="189.71" r="4.6" fill="#2ca02c" stroke="#2ca02c"/>
<circle class="raw-point" cx="461.21" cy="213.36" r="4.6" fill="#2ca02c" stroke="#2ca02c"/>
<circle class="raw-point" cx="471.82" cy="195.62" r="4.6" fill="#2ca02c" stroke="#2ca02c"/>
<circle class="raw-point" cx="482.42" cy="219.27" r="4.6" fill="#2ca02c" stroke="#2ca02c"/>
<circle class="raw-point" cx="493.03" cy="234.05" r="4.6" fill="#2ca02c" stroke="#2ca02c"/>
<circle class="raw-point" cx="503.64" cy="237.01" r="4.6" fill="#2ca02c" stroke="#2ca02c"/>
<circle class="raw-point" cx="514.24" cy="254.74" r="4.6" fill="#2ca02c" stroke="#2ca02c"/>
<circle class="raw-point" cx="524.85" cy="210.40" r="4.6" fill="#2ca02c" stroke="#2ca02c"/>
<circle class="raw-point" cx="535.45" cy="325.68" r="4.6" fill="#2ca02c" stroke="#2ca02c"/>
<circle class="raw-point" cx="546.06" cy="189.71" r="4.6" fill="#2ca02c" stroke="#2ca02c"/>
<circle class="raw-point" cx="556.67" cy="213.36" r="4.6" fill="#2ca02c" stroke="#2ca02c"/>
<circle class="raw-point" cx="567.27" cy="195.62" r="4.6" fill="#2ca02c" stroke="#2ca02c"/>
<circle class="raw-point" cx="577.88" cy="239.96" r="4.6" fill="#2ca02c" stroke="#2ca02c"/>
<circle class="raw-point" cx="588.48" cy="210.40" r="4.6" fill="#2ca02c" stroke="#2ca02c"/>
<circle class="raw-point" cx="599.09" cy="204.49" r="4.6" fill="#2ca02c" stroke="#2ca02c"/>
<circle class="raw-point" cx="609.70" cy="222.23" r="4.6" fill="#2ca02c" stroke="#2ca02c"/>
<circle class="raw-point" cx="620.30" cy="222.23" r="4.6" fill="#2ca02c" stroke="#2ca02c"/>
<circle class="raw-point" cx="630.91" cy="325.68" r="4.6" fill="#2ca02c" stroke="#2ca02c"/>
<circle class="raw-point" cx="641.52" cy="222.23" r="4.6" fill="#2ca02c" stroke="#2ca02c"/>
<circle class="raw-point" cx="652.12" cy="222.23" r="4.6" fill="#2ca02c" stroke="#2ca02c"/>
<circle class="raw-point" cx="662.73" cy="272.47" r="4.6" fill="#2ca02c" stroke="#2ca02c"/>
<circle class="raw-point" cx="673.33" cy="242.92" r="4.6" fill="#2ca02c" stroke="#2ca02c"/>
<circle class="raw-point" cx="683.94" cy="222.23" r="4.6" fill="#2ca02c" stroke="#2ca02c"/>
<circle class="raw-point" cx="694.55" cy="231.09" r="4.6" fill="#2ca02c" stroke="#2ca02c"/>
<circle class="raw-point" cx="705.15" cy="242.92" r="4.6" fill="#2ca02c" stroke="#2ca02c"/>
<circle class="raw-point" cx="715.76" cy="222.23" r="4.6" fill="#2ca02c" stroke="#2ca02c"/>
<circle class="raw-point" cx="726.36" cy="325.68" r="4.6" fill="#2ca02c" stroke="#2ca02c"/>
<circle class="raw-point" cx="736.97" cy="222.23" r="4.6" fill="#2ca02c" stroke="#2ca02c"/>
<circle class="raw-point" cx="747.58" cy="222.23" r="4.6" fill="#2ca02c" stroke="#2ca02c"/>
<circle class="raw-point" cx="758.18" cy="272.47" r="4.6" fill="#2ca02c" stroke="#2ca02c"/>
<circle class="raw-point" cx="768.79" cy="245.87" r="4.6" fill="#2ca02c" stroke="#2ca02c"/>
<circle class="raw-point" cx="779.39" cy="213.36" r="4.6" fill="#2ca02c" stroke="#2ca02c"/>
<circle class="raw-point" cx="790.00" cy="310.90" r="4.6" fill="#2ca02c" stroke="#2ca02c"/>
<circle class="raw-point" cx="800.61" cy="234.05" r="4.6" fill="#2ca02c" stroke="#2ca02c"/>
<circle class="raw-point" cx="811.21" cy="213.36" r="4.6" fill="#2ca02c" stroke="#2ca02c"/>
<circle class="raw-point" cx="821.82" cy="263.61" r="4.6" fill="#2ca02c" stroke="#2ca02c"/>
<circle class="raw-point" cx="832.42" cy="213.36" r="4.6" fill="#2ca02c" stroke="#2ca02c"/>
<circle class="raw-point" cx="843.03" cy="239.96" r="4.6" fill="#2ca02c" stroke="#2ca02c"/>
<circle class="raw-point" cx="853.64" cy="213.36" r="4.6" fill="#2ca02c" stroke="#2ca02c"/>
<circle class="raw-point" cx="864.24" cy="242.92" r="4.6" fill="#2ca02c" stroke="#2ca02c"/>
<circle class="raw-point" cx="874.85" cy="222.23" r="4.6" fill="#2ca02c" stroke="#2ca02c"/>
<circle class="raw-point" cx="885.45" cy="254.74" r="4.6" fill="#2ca02c" stroke="#2ca02c"/>
<circle class="raw-point" cx="896.06" cy="228.14" r="4.6" fill="#2ca02c" stroke="#2ca02c"/>
<circle class="raw-point" cx="906.67" cy="213.36" r="4.6" fill="#2ca02c" stroke="#2ca02c"/>
<circle class="raw-point" cx="917.27" cy="263.61" r="4.6" fill="#2ca02c" stroke="#2ca02c"/>
<circle class="raw-point" cx="927.88" cy="213.36" r="4.6" fill="#2ca02c" stroke="#2ca02c"/>
<circle class="raw-point" cx="938.48" cy="239.96" r="4.6" fill="#2ca02c" stroke="#2ca02c"/>
<circle class="raw-point" cx="949.09" cy="213.36" r="4.6" fill="#2ca02c" stroke="#2ca02c"/>
<circle class="raw-point" cx="959.70" cy="228.14" r="4.6" fill="#2ca02c" stroke="#2ca02c"/>
<circle class="raw-point" cx="970.30" cy="213.36" r="4.6" fill="#2ca02c" stroke="#2ca02c"/>
<circle class="raw-point" cx="980.91" cy="304.98" r="4.6" fill="#2ca02c" stroke="#2ca02c"/>
<circle class="raw-point" cx="991.52" cy="228.14" r="4.6" fill="#2ca02c" stroke="#2ca02c"/>
<circle class="raw-point" cx="1002.12" cy="213.36" r="4.6" fill="#2ca02c" stroke="#2ca02c"/>
<circle class="raw-point" cx="1012.73" cy="263.61" r="4.6" fill="#2ca02c" stroke="#2ca02c"/>
<circle class="raw-point" cx="1023.33" cy="213.36" r="4.6" fill="#2ca02c" stroke="#2ca02c"/>
<circle class="raw-point" cx="1033.94" cy="239.96" r="4.6" fill="#2ca02c" stroke="#2ca02c"/>
<circle class="raw-point" cx="1044.55" cy="213.36" r="4.6" fill="#2ca02c" stroke="#2ca02c"/>
<circle class="raw-point" cx="1055.15" cy="219.27" r="4.6" fill="#2ca02c" stroke="#2ca02c"/>
<circle class="raw-point" cx="1065.76" cy="222.23" r="4.6" fill="#2ca02c" stroke="#2ca02c"/>
<circle class="raw-point" cx="1076.36" cy="310.90" r="4.6" fill="#2ca02c" stroke="#2ca02c"/>
<circle class="raw-point" cx="1086.97" cy="234.05" r="4.6" fill="#2ca02c" stroke="#2ca02c"/>
<circle class="raw-point" cx="1097.58" cy="213.36" r="4.6" fill="#2ca02c" stroke="#2ca02c"/>
<circle class="raw-point" cx="1108.18" cy="263.61" r="4.6" fill="#2ca02c" stroke="#2ca02c"/>
<circle class="raw-point" cx="1118.79" cy="213.36" r="4.6" fill="#2ca02c" stroke="#2ca02c"/>
<circle class="raw-point" cx="1129.39" cy="239.96" r="4.6" fill="#2ca02c" stroke="#2ca02c"/>
<circle class="raw-point" cx="1140.00" cy="213.36" r="4.6" fill="#2ca02c" stroke="#2ca02c"/>
<polyline class="best-line" stroke="#2ca02c" points="90.00,219.27 100.61,198.58 111.21,198.58 121.82,198.58 132.42,198.58 143.03,198.58 153.64,198.58 164.24,198.58 174.85,198.58 185.45,198.58 196.06,198.58 206.67,198.58 217.27,198.58 227.88,198.58 238.48,198.58 249.09,198.58 259.70,192.67 270.30,192.67 280.91,192.67 291.52,192.67 302.12,192.67 312.73,192.67 323.33,192.67 333.94,189.71 344.55,189.71 355.15,189.71 365.76,189.71 376.36,189.71 386.97,189.71 397.58,189.71 408.18,189.71 418.79,189.71 429.39,189.71 440.00,189.71 450.61,189.71 461.21,189.71 471.82,189.71 482.42,189.71 493.03,189.71 503.64,189.71 514.24,189.71 524.85,189.71 535.45,189.71 546.06,189.71 556.67,189.71 567.27,189.71 577.88,189.71 588.48,189.71 599.09,189.71 609.70,171.98 620.30,171.98 630.91,171.98 641.52,171.98 652.12,171.98 662.73,171.98 673.33,171.98 683.94,171.98 694.55,171.98 705.15,171.98 715.76,171.98 726.36,171.98 736.97,171.98 747.58,171.98 758.18,171.98 768.79,171.98 779.39,169.02 790.00,169.02 800.61,169.02 811.21,169.02 821.82,169.02 832.42,169.02 843.03,169.02 853.64,169.02 864.24,169.02 874.85,169.02 885.45,169.02 896.06,169.02 906.67,169.02 917.27,169.02 927.88,169.02 938.48,169.02 949.09,169.02 959.70,169.02 970.30,169.02 980.91,169.02 991.52,169.02 1002.12,169.02 1012.73,169.02 1023.33,169.02 1033.94,169.02 1044.55,169.02 1055.15,169.02 1065.76,169.02 1076.36,169.02 1086.97,169.02 1097.58,169.02 1108.18,169.02 1118.79,169.02 1129.39,169.02 1140.00,169.02"/>
<line x1="1166" y1="184" x2="1188" y2="184" stroke="#2ca02c" stroke-width="3.5"/>
<circle class="raw-point" cx="1177" cy="184" r="4.6" fill="#2ca02c" stroke="#2ca02c"/>
<text class="label" x="1198" y="189" font-size="16">Ratchet + SMAC</text>
<text class="subtle" x="1198" y="208" font-size="13">best val 0.402 / hidden 0.410</text>
<circle class="raw-point" cx="90.00" cy="603.51" r="4.6" fill="#9467bd" stroke="#9467bd"/>
<circle class="raw-point" cx="100.61" cy="293.16" r="4.6" fill="#9467bd" stroke="#9467bd"/>
<circle class="raw-point" cx="111.21" cy="219.27" r="4.6" fill="#9467bd" stroke="#9467bd"/>
<circle class="raw-point" cx="121.82" cy="237.01" r="4.6" fill="#9467bd" stroke="#9467bd"/>
<circle class="raw-point" cx="132.42" cy="603.51" r="4.6" fill="#9467bd" stroke="#9467bd"/>
<circle class="raw-point" cx="143.03" cy="248.83" r="4.6" fill="#9467bd" stroke="#9467bd"/>
<circle class="raw-point" cx="153.64" cy="219.27" r="4.6" fill="#9467bd" stroke="#9467bd"/>
<circle class="raw-point" cx="164.24" cy="293.16" r="4.6" fill="#9467bd" stroke="#9467bd"/>
<circle class="raw-point" cx="174.85" cy="219.27" r="4.6" fill="#9467bd" stroke="#9467bd"/>
<circle class="raw-point" cx="185.45" cy="237.01" r="4.6" fill="#9467bd" stroke="#9467bd"/>
<circle class="raw-point" cx="196.06" cy="603.51" r="4.6" fill="#9467bd" stroke="#9467bd"/>
<circle class="raw-point" cx="206.67" cy="248.83" r="4.6" fill="#9467bd" stroke="#9467bd"/>
<circle class="raw-point" cx="217.27" cy="210.40" r="4.6" fill="#9467bd" stroke="#9467bd"/>
<circle class="raw-point" cx="227.88" cy="293.16" r="4.6" fill="#9467bd" stroke="#9467bd"/>
<circle class="raw-point" cx="238.48" cy="219.27" r="4.6" fill="#9467bd" stroke="#9467bd"/>
<circle class="raw-point" cx="249.09" cy="237.01" r="4.6" fill="#9467bd" stroke="#9467bd"/>
<circle class="raw-point" cx="259.70" cy="603.51" r="4.6" fill="#9467bd" stroke="#9467bd"/>
<circle class="raw-point" cx="270.30" cy="248.83" r="4.6" fill="#9467bd" stroke="#9467bd"/>
<circle class="raw-point" cx="280.91" cy="210.40" r="4.6" fill="#9467bd" stroke="#9467bd"/>
<circle class="raw-point" cx="291.52" cy="293.16" r="4.6" fill="#9467bd" stroke="#9467bd"/>
<circle class="raw-point" cx="302.12" cy="219.27" r="4.6" fill="#9467bd" stroke="#9467bd"/>
<circle class="raw-point" cx="312.73" cy="237.01" r="4.6" fill="#9467bd" stroke="#9467bd"/>
<circle class="raw-point" cx="323.33" cy="603.51" r="4.6" fill="#9467bd" stroke="#9467bd"/>
<circle class="raw-point" cx="333.94" cy="248.83" r="4.6" fill="#9467bd" stroke="#9467bd"/>
<circle class="raw-point" cx="344.55" cy="210.40" r="4.6" fill="#9467bd" stroke="#9467bd"/>
<circle class="raw-point" cx="355.15" cy="293.16" r="4.6" fill="#9467bd" stroke="#9467bd"/>
<circle class="raw-point" cx="365.76" cy="219.27" r="4.6" fill="#9467bd" stroke="#9467bd"/>
<circle class="raw-point" cx="376.36" cy="237.01" r="4.6" fill="#9467bd" stroke="#9467bd"/>
<circle class="raw-point" cx="386.97" cy="603.51" r="4.6" fill="#9467bd" stroke="#9467bd"/>
<circle class="raw-point" cx="397.58" cy="248.83" r="4.6" fill="#9467bd" stroke="#9467bd"/>
<circle class="raw-point" cx="408.18" cy="210.40" r="4.6" fill="#9467bd" stroke="#9467bd"/>
<circle class="raw-point" cx="418.79" cy="293.16" r="4.6" fill="#9467bd" stroke="#9467bd"/>
<circle class="raw-point" cx="429.39" cy="219.27" r="4.6" fill="#9467bd" stroke="#9467bd"/>
<circle class="raw-point" cx="440.00" cy="237.01" r="4.6" fill="#9467bd" stroke="#9467bd"/>
<circle class="raw-point" cx="450.61" cy="603.51" r="4.6" fill="#9467bd" stroke="#9467bd"/>
<circle class="raw-point" cx="461.21" cy="248.83" r="4.6" fill="#9467bd" stroke="#9467bd"/>
<circle class="raw-point" cx="471.82" cy="210.40" r="4.6" fill="#9467bd" stroke="#9467bd"/>
<circle class="raw-point" cx="482.42" cy="293.16" r="4.6" fill="#9467bd" stroke="#9467bd"/>
<circle class="raw-point" cx="493.03" cy="219.27" r="4.6" fill="#9467bd" stroke="#9467bd"/>
<circle class="raw-point" cx="503.64" cy="237.01" r="4.6" fill="#9467bd" stroke="#9467bd"/>
<circle class="raw-point" cx="514.24" cy="603.51" r="4.6" fill="#9467bd" stroke="#9467bd"/>
<circle class="raw-point" cx="524.85" cy="248.83" r="4.6" fill="#9467bd" stroke="#9467bd"/>
<circle class="raw-point" cx="535.45" cy="210.40" r="4.6" fill="#9467bd" stroke="#9467bd"/>
<circle class="raw-point" cx="546.06" cy="293.16" r="4.6" fill="#9467bd" stroke="#9467bd"/>
<circle class="raw-point" cx="556.67" cy="219.27" r="4.6" fill="#9467bd" stroke="#9467bd"/>
<circle class="raw-point" cx="567.27" cy="237.01" r="4.6" fill="#9467bd" stroke="#9467bd"/>
<circle class="raw-point" cx="577.88" cy="603.51" r="4.6" fill="#9467bd" stroke="#9467bd"/>
<circle class="raw-point" cx="588.48" cy="248.83" r="4.6" fill="#9467bd" stroke="#9467bd"/>
<circle class="raw-point" cx="599.09" cy="210.40" r="4.6" fill="#9467bd" stroke="#9467bd"/>
<circle class="raw-point" cx="609.70" cy="293.16" r="4.6" fill="#9467bd" stroke="#9467bd"/>
<circle class="raw-point" cx="620.30" cy="219.27" r="4.6" fill="#9467bd" stroke="#9467bd"/>
<circle class="raw-point" cx="630.91" cy="237.01" r="4.6" fill="#9467bd" stroke="#9467bd"/>
<circle class="raw-point" cx="641.52" cy="603.51" r="4.6" fill="#9467bd" stroke="#9467bd"/>
<circle class="raw-point" cx="652.12" cy="248.83" r="4.6" fill="#9467bd" stroke="#9467bd"/>
<circle class="raw-point" cx="662.73" cy="210.40" r="4.6" fill="#9467bd" stroke="#9467bd"/>
<circle class="raw-point" cx="673.33" cy="293.16" r="4.6" fill="#9467bd" stroke="#9467bd"/>
<circle class="raw-point" cx="683.94" cy="219.27" r="4.6" fill="#9467bd" stroke="#9467bd"/>
<circle class="raw-point" cx="694.55" cy="237.01" r="4.6" fill="#9467bd" stroke="#9467bd"/>
<circle class="raw-point" cx="705.15" cy="603.51" r="4.6" fill="#9467bd" stroke="#9467bd"/>
<circle class="raw-point" cx="715.76" cy="248.83" r="4.6" fill="#9467bd" stroke="#9467bd"/>
<circle class="raw-point" cx="726.36" cy="210.40" r="4.6" fill="#9467bd" stroke="#9467bd"/>
<circle class="raw-point" cx="736.97" cy="293.16" r="4.6" fill="#9467bd" stroke="#9467bd"/>
<circle class="raw-point" cx="747.58" cy="219.27" r="4.6" fill="#9467bd" stroke="#9467bd"/>
<circle class="raw-point" cx="758.18" cy="237.01" r="4.6" fill="#9467bd" stroke="#9467bd"/>
<circle class="raw-point" cx="768.79" cy="603.51" r="4.6" fill="#9467bd" stroke="#9467bd"/>
<circle class="raw-point" cx="779.39" cy="248.83" r="4.6" fill="#9467bd" stroke="#9467bd"/>
<circle class="raw-point" cx="790.00" cy="210.40" r="4.6" fill="#9467bd" stroke="#9467bd"/>
<circle class="raw-point" cx="800.61" cy="293.16" r="4.6" fill="#9467bd" stroke="#9467bd"/>
<circle class="raw-point" cx="811.21" cy="219.27" r="4.6" fill="#9467bd" stroke="#9467bd"/>
<circle class="raw-point" cx="821.82" cy="237.01" r="4.6" fill="#9467bd" stroke="#9467bd"/>
<circle class="raw-point" cx="832.42" cy="603.51" r="4.6" fill="#9467bd" stroke="#9467bd"/>
<circle class="raw-point" cx="843.03" cy="248.83" r="4.6" fill="#9467bd" stroke="#9467bd"/>
<circle class="raw-point" cx="853.64" cy="210.40" r="4.6" fill="#9467bd" stroke="#9467bd"/>
<circle class="raw-point" cx="864.24" cy="293.16" r="4.6" fill="#9467bd" stroke="#9467bd"/>
<circle class="raw-point" cx="874.85" cy="219.27" r="4.6" fill="#9467bd" stroke="#9467bd"/>
<circle class="raw-point" cx="885.45" cy="237.01" r="4.6" fill="#9467bd" stroke="#9467bd"/>
<circle class="raw-point" cx="896.06" cy="603.51" r="4.6" fill="#9467bd" stroke="#9467bd"/>
<circle class="raw-point" cx="906.67" cy="248.83" r="4.6" fill="#9467bd" stroke="#9467bd"/>
<circle class="raw-point" cx="917.27" cy="210.40" r="4.6" fill="#9467bd" stroke="#9467bd"/>
<circle class="raw-point" cx="927.88" cy="293.16" r="4.6" fill="#9467bd" stroke="#9467bd"/>
<circle class="raw-point" cx="938.48" cy="219.27" r="4.6" fill="#9467bd" stroke="#9467bd"/>
<circle class="raw-point" cx="949.09" cy="237.01" r="4.6" fill="#9467bd" stroke="#9467bd"/>
<circle class="raw-point" cx="959.70" cy="603.51" r="4.6" fill="#9467bd" stroke="#9467bd"/>
<circle class="raw-point" cx="970.30" cy="248.83" r="4.6" fill="#9467bd" stroke="#9467bd"/>
<circle class="raw-point" cx="980.91" cy="210.40" r="4.6" fill="#9467bd" stroke="#9467bd"/>
<circle class="raw-point" cx="991.52" cy="293.16" r="4.6" fill="#9467bd" stroke="#9467bd"/>
<circle class="raw-point" cx="1002.12" cy="219.27" r="4.6" fill="#9467bd" stroke="#9467bd"/>
<circle class="raw-point" cx="1012.73" cy="237.01" r="4.6" fill="#9467bd" stroke="#9467bd"/>
<circle class="raw-point" cx="1023.33" cy="603.51" r="4.6" fill="#9467bd" stroke="#9467bd"/>
<circle class="raw-point" cx="1033.94" cy="248.83" r="4.6" fill="#9467bd" stroke="#9467bd"/>
<circle class="raw-point" cx="1044.55" cy="210.40" r="4.6" fill="#9467bd" stroke="#9467bd"/>
<circle class="raw-point" cx="1055.15" cy="293.16" r="4.6" fill="#9467bd" stroke="#9467bd"/>
<circle class="raw-point" cx="1065.76" cy="219.27" r="4.6" fill="#9467bd" stroke="#9467bd"/>
<circle class="raw-point" cx="1076.36" cy="237.01" r="4.6" fill="#9467bd" stroke="#9467bd"/>
<circle class="raw-point" cx="1086.97" cy="603.51" r="4.6" fill="#9467bd" stroke="#9467bd"/>
<circle class="raw-point" cx="1097.58" cy="248.83" r="4.6" fill="#9467bd" stroke="#9467bd"/>
<circle class="raw-point" cx="1108.18" cy="210.40" r="4.6" fill="#9467bd" stroke="#9467bd"/>
<circle class="raw-point" cx="1118.79" cy="293.16" r="4.6" fill="#9467bd" stroke="#9467bd"/>
<circle class="raw-point" cx="1129.39" cy="219.27" r="4.6" fill="#9467bd" stroke="#9467bd"/>
<circle class="raw-point" cx="1140.00" cy="237.01" r="4.6" fill="#9467bd" stroke="#9467bd"/>
<polyline class="best-line" stroke="#9467bd" points="90.00,219.27 100.61,219.27 111.21,219.27 121.82,219.27 132.42,219.27 143.03,219.27 153.64,210.40 164.24,210.40 174.85,210.40 185.45,210.40 196.06,210.40 206.67,210.40 217.27,210.40 227.88,210.40 238.48,210.40 249.09,210.40 259.70,210.40 270.30,210.40 280.91,210.40 291.52,210.40 302.12,210.40 312.73,210.40 323.33,210.40 333.94,210.40 344.55,210.40 355.15,210.40 365.76,210.40 376.36,210.40 386.97,210.40 397.58,210.40 408.18,210.40 418.79,210.40 429.39,210.40 440.00,210.40 450.61,210.40 461.21,210.40 471.82,210.40 482.42,210.40 493.03,210.40 503.64,210.40 514.24,210.40 524.85,210.40 535.45,210.40 546.06,210.40 556.67,210.40 567.27,210.40 577.88,210.40 588.48,210.40 599.09,210.40 609.70,210.40 620.30,210.40 630.91,210.40 641.52,210.40 652.12,210.40 662.73,210.40 673.33,210.40 683.94,210.40 694.55,210.40 705.15,210.40 715.76,210.40 726.36,210.40 736.97,210.40 747.58,210.40 758.18,210.40 768.79,210.40 779.39,210.40 790.00,210.40 800.61,210.40 811.21,210.40 821.82,210.40 832.42,210.40 843.03,210.40 853.64,210.40 864.24,210.40 874.85,210.40 885.45,210.40 896.06,210.40 906.67,210.40 917.27,210.40 927.88,210.40 938.48,210.40 949.09,210.40 959.70,210.40 970.30,210.40 980.91,210.40 991.52,210.40 1002.12,210.40 1012.73,210.40 1023.33,210.40 1033.94,210.40 1044.55,210.40 1055.15,210.40 1065.76,210.40 1076.36,210.40 1086.97,210.40 1097.58,210.40 1108.18,210.40 1118.79,210.40 1129.39,210.40 1140.00,210.40"/>
<line x1="1166" y1="238" x2="1188" y2="238" stroke="#9467bd" stroke-width="3.5"/>
<circle class="raw-point" cx="1177" cy="238" r="4.6" fill="#9467bd" stroke="#9467bd"/>
<text class="label" x="1198" y="243" font-size="16">Ratchet + TPE + SMAC</text>
<text class="subtle" x="1198" y="262" font-size="13">best val 0.378 / hidden 0.348</text>
</svg>