<svg xmlns="http://www.w3.org/2000/svg" width="1200" height="620" viewBox="0 0 1200 620">
  <rect width="1200" height="620" fill="#f7f4ec"/>

  <circle cx="170" cy="92" r="26" fill="#1f3b2d"/>
  <text x="170" y="102" text-anchor="middle" font-family="Helvetica, Arial, sans-serif" font-size="26" font-weight="700" fill="#ffffff">1</text>
  <circle cx="450" cy="92" r="26" fill="#22477a"/>
  <text x="450" y="102" text-anchor="middle" font-family="Helvetica, Arial, sans-serif" font-size="26" font-weight="700" fill="#ffffff">2</text>
  <circle cx="730" cy="92" r="26" fill="#6d2f1f"/>
  <text x="730" y="102" text-anchor="middle" font-family="Helvetica, Arial, sans-serif" font-size="26" font-weight="700" fill="#ffffff">3</text>
  <circle cx="1010" cy="92" r="26" fill="#654600"/>
  <text x="1010" y="102" text-anchor="middle" font-family="Helvetica, Arial, sans-serif" font-size="26" font-weight="700" fill="#ffffff">4</text>

  <rect x="50" y="130" width="240" height="210" rx="28" fill="#d9e6d2" stroke="#1f3b2d" stroke-width="4"/>
  <text x="170" y="180" text-anchor="middle" font-family="Helvetica, Arial, sans-serif" font-size="32" font-weight="700" fill="#1f3b2d">Run History</text>
  <text x="170" y="226" text-anchor="middle" font-family="Helvetica, Arial, sans-serif" font-size="24" fill="#1f3b2d">past trials</text>
  <text x="170" y="258" text-anchor="middle" font-family="Helvetica, Arial, sans-serif" font-size="24" fill="#1f3b2d">configs + loss</text>
  <text x="170" y="302" text-anchor="middle" font-family="Helvetica, Arial, sans-serif" font-size="22" fill="#1f3b2d">evidence for</text>
  <text x="170" y="330" text-anchor="middle" font-family="Helvetica, Arial, sans-serif" font-size="22" fill="#1f3b2d">challengers</text>

  <rect x="330" y="130" width="240" height="210" rx="28" fill="#dce6ff" stroke="#22477a" stroke-width="4"/>
  <text x="450" y="180" text-anchor="middle" font-family="Helvetica, Arial, sans-serif" font-size="32" font-weight="700" fill="#22477a">Search Model</text>
  <text x="450" y="226" text-anchor="middle" font-family="Helvetica, Arial, sans-serif" font-size="24" fill="#22477a">surrogate predicts</text>
  <text x="450" y="258" text-anchor="middle" font-family="Helvetica, Arial, sans-serif" font-size="24" fill="#22477a">mean + uncertainty</text>
  <text x="450" y="302" text-anchor="middle" font-family="Helvetica, Arial, sans-serif" font-size="22" fill="#22477a">strong on mixed</text>
  <text x="450" y="330" text-anchor="middle" font-family="Helvetica, Arial, sans-serif" font-size="22" fill="#22477a">search spaces</text>

  <rect x="610" y="130" width="240" height="210" rx="28" fill="#ffd9c7" stroke="#6d2f1f" stroke-width="4"/>
  <text x="730" y="180" text-anchor="middle" font-family="Helvetica, Arial, sans-serif" font-size="32" font-weight="700" fill="#6d2f1f">Selection Rule</text>
  <text x="730" y="226" text-anchor="middle" font-family="Helvetica, Arial, sans-serif" font-size="24" fill="#6d2f1f">acquisition ranks</text>
  <text x="730" y="258" text-anchor="middle" font-family="Helvetica, Arial, sans-serif" font-size="24" fill="#6d2f1f">challengers</text>
  <text x="730" y="302" text-anchor="middle" font-family="Helvetica, Arial, sans-serif" font-size="22" fill="#6d2f1f">predicted gain +</text>
  <text x="730" y="330" text-anchor="middle" font-family="Helvetica, Arial, sans-serif" font-size="22" fill="#6d2f1f">uncertainty</text>

  <rect x="890" y="130" width="240" height="210" rx="28" fill="#f8e7b7" stroke="#654600" stroke-width="4"/>
  <text x="1010" y="180" text-anchor="middle" font-family="Helvetica, Arial, sans-serif" font-size="32" font-weight="700" fill="#654600">Next Trial</text>
  <text x="1010" y="226" text-anchor="middle" font-family="Helvetica, Arial, sans-serif" font-size="24" fill="#654600">race challenger</text>
  <text x="1010" y="258" text-anchor="middle" font-family="Helvetica, Arial, sans-serif" font-size="24" fill="#654600">vs incumbent</text>
  <text x="1010" y="302" text-anchor="middle" font-family="Helvetica, Arial, sans-serif" font-size="22" fill="#654600">more budget goes</text>
  <text x="1010" y="330" text-anchor="middle" font-family="Helvetica, Arial, sans-serif" font-size="22" fill="#654600">to strong configs</text>

  <path d="M290 235 C302 235, 314 235, 330 235" fill="none" stroke="#1f3b2d" stroke-width="5"/>
  <polygon points="318,224 342,235 318,246" fill="#1f3b2d"/>
  <path d="M570 235 C582 235, 594 235, 610 235" fill="none" stroke="#22477a" stroke-width="5"/>
  <polygon points="598,224 622,235 598,246" fill="#22477a"/>
  <path d="M850 235 C862 235, 874 235, 890 235" fill="none" stroke="#6d2f1f" stroke-width="5"/>
  <polygon points="878,224 902,235 878,246" fill="#6d2f1f"/>

  <text x="600" y="500" text-anchor="middle" font-family="Helvetica, Arial, sans-serif" font-size="28" fill="#50381a">
    SMAC3 combines a surrogate proposal step with aggressive racing over challengers.
  </text>
</svg>
