<svg xmlns="http://www.w3.org/2000/svg" width="1200" height="720" viewBox="0 0 1200 720">
<rect width="100%" height="100%" fill="#fffaf2"/>
<text x="90" y="30" font-size="28" font-family="Helvetica, Arial, sans-serif" fill="#222">20 Newsgroups NN-only MLP Search: Best-So-Far Validation</text>
<line x1="90" y1="50.0" x2="920" y2="50.0" stroke="#e4dccf" stroke-width="1"/>
<text x="78" y="55.0" text-anchor="end" font-size="16" font-family="Helvetica, Arial, sans-serif" fill="#444">0.554</text>
<line x1="90" y1="168.0" x2="920" y2="168.0" stroke="#e4dccf" stroke-width="1"/>
<text x="78" y="173.0" text-anchor="end" font-size="16" font-family="Helvetica, Arial, sans-serif" fill="#444">0.539</text>
<line x1="90" y1="286.0" x2="920" y2="286.0" stroke="#e4dccf" stroke-width="1"/>
<text x="78" y="291.0" text-anchor="end" font-size="16" font-family="Helvetica, Arial, sans-serif" fill="#444">0.524</text>
<line x1="90" y1="404.0" x2="920" y2="404.0" stroke="#e4dccf" stroke-width="1"/>
<text x="78" y="409.0" text-anchor="end" font-size="16" font-family="Helvetica, Arial, sans-serif" fill="#444">0.509</text>
<line x1="90" y1="522.0" x2="920" y2="522.0" stroke="#e4dccf" stroke-width="1"/>
<text x="78" y="527.0" text-anchor="end" font-size="16" font-family="Helvetica, Arial, sans-serif" fill="#444">0.494</text>
<line x1="90" y1="640.0" x2="920" y2="640.0" stroke="#e4dccf" stroke-width="1"/>
<text x="78" y="645.0" text-anchor="end" font-size="16" font-family="Helvetica, Arial, sans-serif" fill="#444">0.479</text>
<line x1="90.0" y1="50" x2="90.0" y2="640" stroke="#efe7da" stroke-width="1"/>
<text x="90.0" y="668" text-anchor="middle" font-size="16" font-family="Helvetica, Arial, sans-serif" fill="#444">1</text>
<line x1="190.1" y1="50" x2="190.1" y2="640" stroke="#efe7da" stroke-width="1"/>
<text x="190.1" y="668" text-anchor="middle" font-size="16" font-family="Helvetica, Arial, sans-serif" fill="#444">25</text>
<line x1="294.4" y1="50" x2="294.4" y2="640" stroke="#efe7da" stroke-width="1"/>
<text x="294.4" y="668" text-anchor="middle" font-size="16" font-family="Helvetica, Arial, sans-serif" fill="#444">50</text>
<line x1="502.9" y1="50" x2="502.9" y2="640" stroke="#efe7da" stroke-width="1"/>
<text x="502.9" y="668" text-anchor="middle" font-size="16" font-family="Helvetica, Arial, sans-serif" fill="#444">100</text>
<line x1="711.5" y1="50" x2="711.5" y2="640" stroke="#efe7da" stroke-width="1"/>
<text x="711.5" y="668" text-anchor="middle" font-size="16" font-family="Helvetica, Arial, sans-serif" fill="#444">150</text>
<line x1="920.0" y1="50" x2="920.0" y2="640" stroke="#efe7da" stroke-width="1"/>
<text x="920.0" y="668" text-anchor="middle" font-size="16" font-family="Helvetica, Arial, sans-serif" fill="#444">200</text>
<text x="505.0" y="698" text-anchor="middle" font-size="18" font-family="Helvetica, Arial, sans-serif" fill="#333">Round</text>
<text x="24" y="345.0" transform="rotate(-90 24 345.0)" text-anchor="middle" font-size="18" font-family="Helvetica, Arial, sans-serif" fill="#333">Validation Accuracy</text>
<polyline fill="none" stroke="#1768AC" stroke-width="4" points="90.00,561.33 94.17,561.33 98.34,561.33 102.51,561.33 106.68,561.33 110.85,561.33 115.03,561.33 119.20,561.33 123.37,561.33 127.54,561.33 131.71,561.33 135.88,561.33 140.05,561.33 144.22,561.33 148.39,561.33 152.56,561.33 156.73,561.33 160.90,561.33 165.08,561.33 169.25,561.33 173.42,561.33 177.59,561.33 181.76,561.33 185.93,561.33 190.10,561.33 194.27,561.33 198.44,561.33 202.61,561.33 206.78,561.33 210.95,561.33 215.13,561.33 219.30,561.33 223.47,561.33 227.64,561.33 231.81,561.33 235.98,561.33 240.15,561.33 244.32,561.33 248.49,561.33 252.66,561.33 256.83,561.33 261.01,561.33 265.18,561.33 269.35,561.33 273.52,561.33 277.69,561.33 281.86,561.33 286.03,561.33 290.20,561.33 294.37,561.33 298.54,561.33 302.71,561.33 306.88,561.33 311.06,561.33 315.23,561.33 319.40,561.33 323.57,561.33 327.74,561.33 331.91,561.33 336.08,561.33 340.25,561.33 344.42,561.33 348.59,561.33 352.76,561.33 356.93,561.33 361.11,561.33 365.28,561.33 369.45,561.33 373.62,561.33 377.79,561.33 381.96,561.33 386.13,561.33 390.30,561.33 394.47,561.33 398.64,561.33 402.81,561.33 406.98,561.33 411.16,561.33 415.33,561.33 419.50,561.33 423.67,561.33 427.84,561.33 432.01,561.33 436.18,561.33 440.35,561.33 444.52,561.33 448.69,561.33 452.86,561.33 457.04,561.33 461.21,561.33 465.38,561.33 469.55,561.33 473.72,561.33 477.89,561.33 482.06,561.33 486.23,561.33 490.40,561.33 494.57,561.33 498.74,561.33 502.91,561.33 507.09,561.33 511.26,561.33 515.43,561.33 519.60,561.33 523.77,561.33 527.94,561.33 532.11,561.33 536.28,561.33 540.45,561.33 544.62,561.33 548.79,561.33 552.96,561.33 557.14,561.33 561.31,561.33 565.48,561.33 569.65,561.33 573.82,561.33 577.99,561.33 582.16,561.33 586.33,561.33 590.50,561.33 594.67,561.33 598.84,561.33 603.02,561.33 607.19,561.33 611.36,561.33 615.53,561.33 619.70,561.33 623.87,561.33 628.04,561.33 632.21,561.33 636.38,561.33 640.55,561.33 644.72,561.33 648.89,561.33 653.07,561.33 657.24,561.33 661.41,561.33 665.58,561.33 669.75,561.33 673.92,561.33 678.09,561.33 682.26,561.33 686.43,561.33 690.60,561.33 694.77,561.33 698.94,561.33 703.12,561.33 707.29,561.33 711.46,561.33 715.63,561.33 719.80,561.33 723.97,561.33 728.14,561.33 732.31,561.33 736.48,561.33 740.65,561.33 744.82,561.33 748.99,561.33 753.17,561.33 757.34,561.33 761.51,561.33 765.68,561.33 769.85,561.33 774.02,561.33 778.19,561.33 782.36,561.33 786.53,561.33 790.70,561.33 794.87,561.33 799.05,561.33 803.22,561.33 807.39,561.33 811.56,561.33 815.73,561.33 819.90,561.33 824.07,561.33 828.24,561.33 832.41,561.33 836.58,561.33 840.75,561.33 844.92,561.33 849.10,561.33 853.27,561.33 857.44,561.33 861.61,561.33 865.78,561.33 869.95,561.33 874.12,561.33 878.29,561.33 882.46,561.33 886.63,561.33 890.80,561.33 894.97,561.33 899.15,561.33 903.32,561.33 907.49,561.33 911.66,561.33 915.83,561.33 920.00,561.33"/>
<circle cx="90.00" cy="561.33" r="3.2" fill="#1768AC"/>
<circle cx="94.17" cy="561.33" r="3.2" fill="#1768AC"/>
<circle cx="98.34" cy="561.33" r="3.2" fill="#1768AC"/>
<circle cx="102.51" cy="561.33" r="3.2" fill="#1768AC"/>
<circle cx="106.68" cy="561.33" r="3.2" fill="#1768AC"/>
<circle cx="110.85" cy="561.33" r="3.2" fill="#1768AC"/>
<circle cx="115.03" cy="561.33" r="3.2" fill="#1768AC"/>
<circle cx="119.20" cy="561.33" r="3.2" fill="#1768AC"/>
<circle cx="123.37" cy="561.33" r="3.2" fill="#1768AC"/>
<circle cx="127.54" cy="561.33" r="3.2" fill="#1768AC"/>
<circle cx="131.71" cy="561.33" r="3.2" fill="#1768AC"/>
<circle cx="135.88" cy="561.33" r="3.2" fill="#1768AC"/>
<circle cx="140.05" cy="561.33" r="3.2" fill="#1768AC"/>
<circle cx="144.22" cy="561.33" r="3.2" fill="#1768AC"/>
<circle cx="148.39" cy="561.33" r="3.2" fill="#1768AC"/>
<circle cx="152.56" cy="561.33" r="3.2" fill="#1768AC"/>
<circle cx="156.73" cy="561.33" r="3.2" fill="#1768AC"/>
<circle cx="160.90" cy="561.33" r="3.2" fill="#1768AC"/>
<circle cx="165.08" cy="561.33" r="3.2" fill="#1768AC"/>
<circle cx="169.25" cy="561.33" r="3.2" fill="#1768AC"/>
<circle cx="173.42" cy="561.33" r="3.2" fill="#1768AC"/>
<circle cx="177.59" cy="561.33" r="3.2" fill="#1768AC"/>
<circle cx="181.76" cy="561.33" r="3.2" fill="#1768AC"/>
<circle cx="185.93" cy="561.33" r="3.2" fill="#1768AC"/>
<circle cx="190.10" cy="561.33" r="3.2" fill="#1768AC"/>
<circle cx="194.27" cy="561.33" r="3.2" fill="#1768AC"/>
<circle cx="198.44" cy="561.33" r="3.2" fill="#1768AC"/>
<circle cx="202.61" cy="561.33" r="3.2" fill="#1768AC"/>
<circle cx="206.78" cy="561.33" r="3.2" fill="#1768AC"/>
<circle cx="210.95" cy="561.33" r="3.2" fill="#1768AC"/>
<circle cx="215.13" cy="561.33" r="3.2" fill="#1768AC"/>
<circle cx="219.30" cy="561.33" r="3.2" fill="#1768AC"/>
<circle cx="223.47" cy="561.33" r="3.2" fill="#1768AC"/>
<circle cx="227.64" cy="561.33" r="3.2" fill="#1768AC"/>
<circle cx="231.81" cy="561.33" r="3.2" fill="#1768AC"/>
<circle cx="235.98" cy="561.33" r="3.2" fill="#1768AC"/>
<circle cx="240.15" cy="561.33" r="3.2" fill="#1768AC"/>
<circle cx="244.32" cy="561.33" r="3.2" fill="#1768AC"/>
<circle cx="248.49" cy="561.33" r="3.2" fill="#1768AC"/>
<circle cx="252.66" cy="561.33" r="3.2" fill="#1768AC"/>
<circle cx="256.83" cy="561.33" r="3.2" fill="#1768AC"/>
<circle cx="261.01" cy="561.33" r="3.2" fill="#1768AC"/>
<circle cx="265.18" cy="561.33" r="3.2" fill="#1768AC"/>
<circle cx="269.35" cy="561.33" r="3.2" fill="#1768AC"/>
<circle cx="273.52" cy="561.33" r="3.2" fill="#1768AC"/>
<circle cx="277.69" cy="561.33" r="3.2" fill="#1768AC"/>
<circle cx="281.86" cy="561.33" r="3.2" fill="#1768AC"/>
<circle cx="286.03" cy="561.33" r="3.2" fill="#1768AC"/>
<circle cx="290.20" cy="561.33" r="3.2" fill="#1768AC"/>
<circle cx="294.37" cy="561.33" r="3.2" fill="#1768AC"/>
<circle cx="298.54" cy="561.33" r="3.2" fill="#1768AC"/>
<circle cx="302.71" cy="561.33" r="3.2" fill="#1768AC"/>
<circle cx="306.88" cy="561.33" r="3.2" fill="#1768AC"/>
<circle cx="311.06" cy="561.33" r="3.2" fill="#1768AC"/>
<circle cx="315.23" cy="561.33" r="3.2" fill="#1768AC"/>
<circle cx="319.40" cy="561.33" r="3.2" fill="#1768AC"/>
<circle cx="323.57" cy="561.33" r="3.2" fill="#1768AC"/>
<circle cx="327.74" cy="561.33" r="3.2" fill="#1768AC"/>
<circle cx="331.91" cy="561.33" r="3.2" fill="#1768AC"/>
<circle cx="336.08" cy="561.33" r="3.2" fill="#1768AC"/>
<circle cx="340.25" cy="561.33" r="3.2" fill="#1768AC"/>
<circle cx="344.42" cy="561.33" r="3.2" fill="#1768AC"/>
<circle cx="348.59" cy="561.33" r="3.2" fill="#1768AC"/>
<circle cx="352.76" cy="561.33" r="3.2" fill="#1768AC"/>
<circle cx="356.93" cy="561.33" r="3.2" fill="#1768AC"/>
<circle cx="361.11" cy="561.33" r="3.2" fill="#1768AC"/>
<circle cx="365.28" cy="561.33" r="3.2" fill="#1768AC"/>
<circle cx="369.45" cy="561.33" r="3.2" fill="#1768AC"/>
<circle cx="373.62" cy="561.33" r="3.2" fill="#1768AC"/>
<circle cx="377.79" cy="561.33" r="3.2" fill="#1768AC"/>
<circle cx="381.96" cy="561.33" r="3.2" fill="#1768AC"/>
<circle cx="386.13" cy="561.33" r="3.2" fill="#1768AC"/>
<circle cx="390.30" cy="561.33" r="3.2" fill="#1768AC"/>
<circle cx="394.47" cy="561.33" r="3.2" fill="#1768AC"/>
<circle cx="398.64" cy="561.33" r="3.2" fill="#1768AC"/>
<circle cx="402.81" cy="561.33" r="3.2" fill="#1768AC"/>
<circle cx="406.98" cy="561.33" r="3.2" fill="#1768AC"/>
<circle cx="411.16" cy="561.33" r="3.2" fill="#1768AC"/>
<circle cx="415.33" cy="561.33" r="3.2" fill="#1768AC"/>
<circle cx="419.50" cy="561.33" r="3.2" fill="#1768AC"/>
<circle cx="423.67" cy="561.33" r="3.2" fill="#1768AC"/>
<circle cx="427.84" cy="561.33" r="3.2" fill="#1768AC"/>
<circle cx="432.01" cy="561.33" r="3.2" fill="#1768AC"/>
<circle cx="436.18" cy="561.33" r="3.2" fill="#1768AC"/>
<circle cx="440.35" cy="561.33" r="3.2" fill="#1768AC"/>
<circle cx="444.52" cy="561.33" r="3.2" fill="#1768AC"/>
<circle cx="448.69" cy="561.33" r="3.2" fill="#1768AC"/>
<circle cx="452.86" cy="561.33" r="3.2" fill="#1768AC"/>
<circle cx="457.04" cy="561.33" r="3.2" fill="#1768AC"/>
<circle cx="461.21" cy="561.33" r="3.2" fill="#1768AC"/>
<circle cx="465.38" cy="561.33" r="3.2" fill="#1768AC"/>
<circle cx="469.55" cy="561.33" r="3.2" fill="#1768AC"/>
<circle cx="473.72" cy="561.33" r="3.2" fill="#1768AC"/>
<circle cx="477.89" cy="561.33" r="3.2" fill="#1768AC"/>
<circle cx="482.06" cy="561.33" r="3.2" fill="#1768AC"/>
<circle cx="486.23" cy="561.33" r="3.2" fill="#1768AC"/>
<circle cx="490.40" cy="561.33" r="3.2" fill="#1768AC"/>
<circle cx="494.57" cy="561.33" r="3.2" fill="#1768AC"/>
<circle cx="498.74" cy="561.33" r="3.2" fill="#1768AC"/>
<circle cx="502.91" cy="561.33" r="3.2" fill="#1768AC"/>
<circle cx="507.09" cy="561.33" r="3.2" fill="#1768AC"/>
<circle cx="511.26" cy="561.33" r="3.2" fill="#1768AC"/>
<circle cx="515.43" cy="561.33" r="3.2" fill="#1768AC"/>
<circle cx="519.60" cy="561.33" r="3.2" fill="#1768AC"/>
<circle cx="523.77" cy="561.33" r="3.2" fill="#1768AC"/>
<circle cx="527.94" cy="561.33" r="3.2" fill="#1768AC"/>
<circle cx="532.11" cy="561.33" r="3.2" fill="#1768AC"/>
<circle cx="536.28" cy="561.33" r="3.2" fill="#1768AC"/>
<circle cx="540.45" cy="561.33" r="3.2" fill="#1768AC"/>
<circle cx="544.62" cy="561.33" r="3.2" fill="#1768AC"/>
<circle cx="548.79" cy="561.33" r="3.2" fill="#1768AC"/>
<circle cx="552.96" cy="561.33" r="3.2" fill="#1768AC"/>
<circle cx="557.14" cy="561.33" r="3.2" fill="#1768AC"/>
<circle cx="561.31" cy="561.33" r="3.2" fill="#1768AC"/>
<circle cx="565.48" cy="561.33" r="3.2" fill="#1768AC"/>
<circle cx="569.65" cy="561.33" r="3.2" fill="#1768AC"/>
<circle cx="573.82" cy="561.33" r="3.2" fill="#1768AC"/>
<circle cx="577.99" cy="561.33" r="3.2" fill="#1768AC"/>
<circle cx="582.16" cy="561.33" r="3.2" fill="#1768AC"/>
<circle cx="586.33" cy="561.33" r="3.2" fill="#1768AC"/>
<circle cx="590.50" cy="561.33" r="3.2" fill="#1768AC"/>
<circle cx="594.67" cy="561.33" r="3.2" fill="#1768AC"/>
<circle cx="598.84" cy="561.33" r="3.2" fill="#1768AC"/>
<circle cx="603.02" cy="561.33" r="3.2" fill="#1768AC"/>
<circle cx="607.19" cy="561.33" r="3.2" fill="#1768AC"/>
<circle cx="611.36" cy="561.33" r="3.2" fill="#1768AC"/>
<circle cx="615.53" cy="561.33" r="3.2" fill="#1768AC"/>
<circle cx="619.70" cy="561.33" r="3.2" fill="#1768AC"/>
<circle cx="623.87" cy="561.33" r="3.2" fill="#1768AC"/>
<circle cx="628.04" cy="561.33" r="3.2" fill="#1768AC"/>
<circle cx="632.21" cy="561.33" r="3.2" fill="#1768AC"/>
<circle cx="636.38" cy="561.33" r="3.2" fill="#1768AC"/>
<circle cx="640.55" cy="561.33" r="3.2" fill="#1768AC"/>
<circle cx="644.72" cy="561.33" r="3.2" fill="#1768AC"/>
<circle cx="648.89" cy="561.33" r="3.2" fill="#1768AC"/>
<circle cx="653.07" cy="561.33" r="3.2" fill="#1768AC"/>
<circle cx="657.24" cy="561.33" r="3.2" fill="#1768AC"/>
<circle cx="661.41" cy="561.33" r="3.2" fill="#1768AC"/>
<circle cx="665.58" cy="561.33" r="3.2" fill="#1768AC"/>
<circle cx="669.75" cy="561.33" r="3.2" fill="#1768AC"/>
<circle cx="673.92" cy="561.33" r="3.2" fill="#1768AC"/>
<circle cx="678.09" cy="561.33" r="3.2" fill="#1768AC"/>
<circle cx="682.26" cy="561.33" r="3.2" fill="#1768AC"/>
<circle cx="686.43" cy="561.33" r="3.2" fill="#1768AC"/>
<circle cx="690.60" cy="561.33" r="3.2" fill="#1768AC"/>
<circle cx="694.77" cy="561.33" r="3.2" fill="#1768AC"/>
<circle cx="698.94" cy="561.33" r="3.2" fill="#1768AC"/>
<circle cx="703.12" cy="561.33" r="3.2" fill="#1768AC"/>
<circle cx="707.29" cy="561.33" r="3.2" fill="#1768AC"/>
<circle cx="711.46" cy="561.33" r="3.2" fill="#1768AC"/>
<circle cx="715.63" cy="561.33" r="3.2" fill="#1768AC"/>
<circle cx="719.80" cy="561.33" r="3.2" fill="#1768AC"/>
<circle cx="723.97" cy="561.33" r="3.2" fill="#1768AC"/>
<circle cx="728.14" cy="561.33" r="3.2" fill="#1768AC"/>
<circle cx="732.31" cy="561.33" r="3.2" fill="#1768AC"/>
<circle cx="736.48" cy="561.33" r="3.2" fill="#1768AC"/>
<circle cx="740.65" cy="561.33" r="3.2" fill="#1768AC"/>
<circle cx="744.82" cy="561.33" r="3.2" fill="#1768AC"/>
<circle cx="748.99" cy="561.33" r="3.2" fill="#1768AC"/>
<circle cx="753.17" cy="561.33" r="3.2" fill="#1768AC"/>
<circle cx="757.34" cy="561.33" r="3.2" fill="#1768AC"/>
<circle cx="761.51" cy="561.33" r="3.2" fill="#1768AC"/>
<circle cx="765.68" cy="561.33" r="3.2" fill="#1768AC"/>
<circle cx="769.85" cy="561.33" r="3.2" fill="#1768AC"/>
<circle cx="774.02" cy="561.33" r="3.2" fill="#1768AC"/>
<circle cx="778.19" cy="561.33" r="3.2" fill="#1768AC"/>
<circle cx="782.36" cy="561.33" r="3.2" fill="#1768AC"/>
<circle cx="786.53" cy="561.33" r="3.2" fill="#1768AC"/>
<circle cx="790.70" cy="561.33" r="3.2" fill="#1768AC"/>
<circle cx="794.87" cy="561.33" r="3.2" fill="#1768AC"/>
<circle cx="799.05" cy="561.33" r="3.2" fill="#1768AC"/>
<circle cx="803.22" cy="561.33" r="3.2" fill="#1768AC"/>
<circle cx="807.39" cy="561.33" r="3.2" fill="#1768AC"/>
<circle cx="811.56" cy="561.33" r="3.2" fill="#1768AC"/>
<circle cx="815.73" cy="561.33" r="3.2" fill="#1768AC"/>
<circle cx="819.90" cy="561.33" r="3.2" fill="#1768AC"/>
<circle cx="824.07" cy="561.33" r="3.2" fill="#1768AC"/>
<circle cx="828.24" cy="561.33" r="3.2" fill="#1768AC"/>
<circle cx="832.41" cy="561.33" r="3.2" fill="#1768AC"/>
<circle cx="836.58" cy="561.33" r="3.2" fill="#1768AC"/>
<circle cx="840.75" cy="561.33" r="3.2" fill="#1768AC"/>
<circle cx="844.92" cy="561.33" r="3.2" fill="#1768AC"/>
<circle cx="849.10" cy="561.33" r="3.2" fill="#1768AC"/>
<circle cx="853.27" cy="561.33" r="3.2" fill="#1768AC"/>
<circle cx="857.44" cy="561.33" r="3.2" fill="#1768AC"/>
<circle cx="861.61" cy="561.33" r="3.2" fill="#1768AC"/>
<circle cx="865.78" cy="561.33" r="3.2" fill="#1768AC"/>
<circle cx="869.95" cy="561.33" r="3.2" fill="#1768AC"/>
<circle cx="874.12" cy="561.33" r="3.2" fill="#1768AC"/>
<circle cx="878.29" cy="561.33" r="3.2" fill="#1768AC"/>
<circle cx="882.46" cy="561.33" r="3.2" fill="#1768AC"/>
<circle cx="886.63" cy="561.33" r="3.2" fill="#1768AC"/>
<circle cx="890.80" cy="561.33" r="3.2" fill="#1768AC"/>
<circle cx="894.97" cy="561.33" r="3.2" fill="#1768AC"/>
<circle cx="899.15" cy="561.33" r="3.2" fill="#1768AC"/>
<circle cx="903.32" cy="561.33" r="3.2" fill="#1768AC"/>
<circle cx="907.49" cy="561.33" r="3.2" fill="#1768AC"/>
<circle cx="911.66" cy="561.33" r="3.2" fill="#1768AC"/>
<circle cx="915.83" cy="561.33" r="3.2" fill="#1768AC"/>
<circle cx="920.00" cy="561.33" r="3.2" fill="#1768AC"/>
<line x1="944" y1="82" x2="966" y2="82" stroke="#1768AC" stroke-width="4"/>
<text x="976" y="87" font-size="17" font-family="Helvetica, Arial, sans-serif" fill="#222">01 Sequential</text>
<text x="976" y="108" font-size="14" font-family="Helvetica, Arial, sans-serif" fill="#555">best val 0.489 / hidden 0.482</text>
<polyline fill="none" stroke="#D7263D" stroke-width="4" points="90.00,561.33 94.17,561.33 98.34,561.33 102.51,515.45 106.68,502.33 110.85,502.33 115.03,502.33 119.20,397.45 123.37,397.45 127.54,397.45 131.71,397.45 135.88,397.45 140.05,345.00 144.22,345.00 148.39,345.00 152.56,299.11 156.73,253.23 160.90,253.23 165.08,253.23 169.25,253.23 173.42,253.23 177.59,253.23 181.76,253.23 185.93,154.89 190.10,154.89 194.27,154.89 198.44,154.89 202.61,154.89 206.78,128.67 210.95,128.67 215.13,128.67 219.30,128.67 223.47,128.67 227.64,128.67 231.81,128.67 235.98,128.67 240.15,128.67 244.32,128.67 248.49,128.67 252.66,128.67 256.83,128.67 261.01,128.67 265.18,128.67 269.35,128.67 273.52,128.67 277.69,128.67 281.86,128.67 286.03,128.67 290.20,128.67 294.37,128.67 298.54,128.67 302.71,128.67 306.88,128.67 311.06,128.67 315.23,128.67 319.40,128.67 323.57,128.67 327.74,128.67 331.91,128.67 336.08,128.67 340.25,128.67 344.42,128.67 348.59,128.67 352.76,128.67 356.93,128.67 361.11,128.67 365.28,128.67 369.45,128.67 373.62,128.67 377.79,128.67 381.96,128.67 386.13,128.67 390.30,128.67 394.47,128.67 398.64,128.67 402.81,128.67 406.98,128.67 411.16,128.67 415.33,128.67 419.50,128.67 423.67,128.67 427.84,128.67 432.01,128.67 436.18,128.67 440.35,128.67 444.52,128.67 448.69,128.67 452.86,128.67 457.04,128.67 461.21,128.67 465.38,128.67 469.55,128.67 473.72,128.67 477.89,128.67 482.06,128.67 486.23,128.67 490.40,128.67 494.57,128.67 498.74,128.67 502.91,128.67 507.09,128.67 511.26,128.67 515.43,128.67 519.60,128.67 523.77,128.67 527.94,128.67 532.11,128.67 536.28,128.67 540.45,128.67 544.62,128.67 548.79,128.67 552.96,128.67 557.14,128.67 561.31,128.67 565.48,128.67 569.65,128.67 573.82,128.67 577.99,128.67 582.16,128.67 586.33,128.67 590.50,128.67 594.67,128.67 598.84,128.67 603.02,128.67 607.19,128.67 611.36,128.67 615.53,128.67 619.70,128.67 623.87,128.67 628.04,128.67 632.21,128.67 636.38,128.67 640.55,128.67 644.72,128.67 648.89,128.67 653.07,128.67 657.24,128.67 661.41,128.67 665.58,128.67 669.75,128.67 673.92,128.67 678.09,128.67 682.26,128.67 686.43,128.67 690.60,128.67 694.77,128.67 698.94,128.67 703.12,128.67 707.29,128.67 711.46,128.67 715.63,128.67 719.80,128.67 723.97,128.67 728.14,128.67 732.31,128.67 736.48,128.67 740.65,128.67 744.82,128.67 748.99,128.67 753.17,128.67 757.34,128.67 761.51,128.67 765.68,128.67 769.85,128.67 774.02,128.67 778.19,128.67 782.36,128.67 786.53,128.67 790.70,128.67 794.87,128.67 799.05,128.67 803.22,128.67 807.39,128.67 811.56,128.67 815.73,128.67 819.90,128.67 824.07,128.67 828.24,128.67 832.41,128.67 836.58,128.67 840.75,128.67 844.92,128.67 849.10,128.67 853.27,128.67 857.44,128.67 861.61,128.67 865.78,128.67 869.95,128.67 874.12,128.67 878.29,128.67 882.46,128.67 886.63,128.67 890.80,128.67 894.97,128.67 899.15,128.67 903.32,128.67 907.49,128.67 911.66,128.67 915.83,128.67 920.00,128.67"/>
<circle cx="90.00" cy="561.33" r="3.2" fill="#D7263D"/>
<circle cx="94.17" cy="561.33" r="3.2" fill="#D7263D"/>
<circle cx="98.34" cy="561.33" r="3.2" fill="#D7263D"/>
<circle cx="102.51" cy="515.45" r="3.2" fill="#D7263D"/>
<circle cx="106.68" cy="502.33" r="3.2" fill="#D7263D"/>
<circle cx="110.85" cy="502.33" r="3.2" fill="#D7263D"/>
<circle cx="115.03" cy="502.33" r="3.2" fill="#D7263D"/>
<circle cx="119.20" cy="397.45" r="3.2" fill="#D7263D"/>
<circle cx="123.37" cy="397.45" r="3.2" fill="#D7263D"/>
<circle cx="127.54" cy="397.45" r="3.2" fill="#D7263D"/>
<circle cx="131.71" cy="397.45" r="3.2" fill="#D7263D"/>
<circle cx="135.88" cy="397.45" r="3.2" fill="#D7263D"/>
<circle cx="140.05" cy="345.00" r="3.2" fill="#D7263D"/>
<circle cx="144.22" cy="345.00" r="3.2" fill="#D7263D"/>
<circle cx="148.39" cy="345.00" r="3.2" fill="#D7263D"/>
<circle cx="152.56" cy="299.11" r="3.2" fill="#D7263D"/>
<circle cx="156.73" cy="253.23" r="3.2" fill="#D7263D"/>
<circle cx="160.90" cy="253.23" r="3.2" fill="#D7263D"/>
<circle cx="165.08" cy="253.23" r="3.2" fill="#D7263D"/>
<circle cx="169.25" cy="253.23" r="3.2" fill="#D7263D"/>
<circle cx="173.42" cy="253.23" r="3.2" fill="#D7263D"/>
<circle cx="177.59" cy="253.23" r="3.2" fill="#D7263D"/>
<circle cx="181.76" cy="253.23" r="3.2" fill="#D7263D"/>
<circle cx="185.93" cy="154.89" r="3.2" fill="#D7263D"/>
<circle cx="190.10" cy="154.89" r="3.2" fill="#D7263D"/>
<circle cx="194.27" cy="154.89" r="3.2" fill="#D7263D"/>
<circle cx="198.44" cy="154.89" r="3.2" fill="#D7263D"/>
<circle cx="202.61" cy="154.89" r="3.2" fill="#D7263D"/>
<circle cx="206.78" cy="128.67" r="3.2" fill="#D7263D"/>
<circle cx="210.95" cy="128.67" r="3.2" fill="#D7263D"/>
<circle cx="215.13" cy="128.67" r="3.2" fill="#D7263D"/>
<circle cx="219.30" cy="128.67" r="3.2" fill="#D7263D"/>
<circle cx="223.47" cy="128.67" r="3.2" fill="#D7263D"/>
<circle cx="227.64" cy="128.67" r="3.2" fill="#D7263D"/>
<circle cx="231.81" cy="128.67" r="3.2" fill="#D7263D"/>
<circle cx="235.98" cy="128.67" r="3.2" fill="#D7263D"/>
<circle cx="240.15" cy="128.67" r="3.2" fill="#D7263D"/>
<circle cx="244.32" cy="128.67" r="3.2" fill="#D7263D"/>
<circle cx="248.49" cy="128.67" r="3.2" fill="#D7263D"/>
<circle cx="252.66" cy="128.67" r="3.2" fill="#D7263D"/>
<circle cx="256.83" cy="128.67" r="3.2" fill="#D7263D"/>
<circle cx="261.01" cy="128.67" r="3.2" fill="#D7263D"/>
<circle cx="265.18" cy="128.67" r="3.2" fill="#D7263D"/>
<circle cx="269.35" cy="128.67" r="3.2" fill="#D7263D"/>
<circle cx="273.52" cy="128.67" r="3.2" fill="#D7263D"/>
<circle cx="277.69" cy="128.67" r="3.2" fill="#D7263D"/>
<circle cx="281.86" cy="128.67" r="3.2" fill="#D7263D"/>
<circle cx="286.03" cy="128.67" r="3.2" fill="#D7263D"/>
<circle cx="290.20" cy="128.67" r="3.2" fill="#D7263D"/>
<circle cx="294.37" cy="128.67" r="3.2" fill="#D7263D"/>
<circle cx="298.54" cy="128.67" r="3.2" fill="#D7263D"/>
<circle cx="302.71" cy="128.67" r="3.2" fill="#D7263D"/>
<circle cx="306.88" cy="128.67" r="3.2" fill="#D7263D"/>
<circle cx="311.06" cy="128.67" r="3.2" fill="#D7263D"/>
<circle cx="315.23" cy="128.67" r="3.2" fill="#D7263D"/>
<circle cx="319.40" cy="128.67" r="3.2" fill="#D7263D"/>
<circle cx="323.57" cy="128.67" r="3.2" fill="#D7263D"/>
<circle cx="327.74" cy="128.67" r="3.2" fill="#D7263D"/>
<circle cx="331.91" cy="128.67" r="3.2" fill="#D7263D"/>
<circle cx="336.08" cy="128.67" r="3.2" fill="#D7263D"/>
<circle cx="340.25" cy="128.67" r="3.2" fill="#D7263D"/>
<circle cx="344.42" cy="128.67" r="3.2" fill="#D7263D"/>
<circle cx="348.59" cy="128.67" r="3.2" fill="#D7263D"/>
<circle cx="352.76" cy="128.67" r="3.2" fill="#D7263D"/>
<circle cx="356.93" cy="128.67" r="3.2" fill="#D7263D"/>
<circle cx="361.11" cy="128.67" r="3.2" fill="#D7263D"/>
<circle cx="365.28" cy="128.67" r="3.2" fill="#D7263D"/>
<circle cx="369.45" cy="128.67" r="3.2" fill="#D7263D"/>
<circle cx="373.62" cy="128.67" r="3.2" fill="#D7263D"/>
<circle cx="377.79" cy="128.67" r="3.2" fill="#D7263D"/>
<circle cx="381.96" cy="128.67" r="3.2" fill="#D7263D"/>
<circle cx="386.13" cy="128.67" r="3.2" fill="#D7263D"/>
<circle cx="390.30" cy="128.67" r="3.2" fill="#D7263D"/>
<circle cx="394.47" cy="128.67" r="3.2" fill="#D7263D"/>
<circle cx="398.64" cy="128.67" r="3.2" fill="#D7263D"/>
<circle cx="402.81" cy="128.67" r="3.2" fill="#D7263D"/>
<circle cx="406.98" cy="128.67" r="3.2" fill="#D7263D"/>
<circle cx="411.16" cy="128.67" r="3.2" fill="#D7263D"/>
<circle cx="415.33" cy="128.67" r="3.2" fill="#D7263D"/>
<circle cx="419.50" cy="128.67" r="3.2" fill="#D7263D"/>
<circle cx="423.67" cy="128.67" r="3.2" fill="#D7263D"/>
<circle cx="427.84" cy="128.67" r="3.2" fill="#D7263D"/>
<circle cx="432.01" cy="128.67" r="3.2" fill="#D7263D"/>
<circle cx="436.18" cy="128.67" r="3.2" fill="#D7263D"/>
<circle cx="440.35" cy="128.67" r="3.2" fill="#D7263D"/>
<circle cx="444.52" cy="128.67" r="3.2" fill="#D7263D"/>
<circle cx="448.69" cy="128.67" r="3.2" fill="#D7263D"/>
<circle cx="452.86" cy="128.67" r="3.2" fill="#D7263D"/>
<circle cx="457.04" cy="128.67" r="3.2" fill="#D7263D"/>
<circle cx="461.21" cy="128.67" r="3.2" fill="#D7263D"/>
<circle cx="465.38" cy="128.67" r="3.2" fill="#D7263D"/>
<circle cx="469.55" cy="128.67" r="3.2" fill="#D7263D"/>
<circle cx="473.72" cy="128.67" r="3.2" fill="#D7263D"/>
<circle cx="477.89" cy="128.67" r="3.2" fill="#D7263D"/>
<circle cx="482.06" cy="128.67" r="3.2" fill="#D7263D"/>
<circle cx="486.23" cy="128.67" r="3.2" fill="#D7263D"/>
<circle cx="490.40" cy="128.67" r="3.2" fill="#D7263D"/>
<circle cx="494.57" cy="128.67" r="3.2" fill="#D7263D"/>
<circle cx="498.74" cy="128.67" r="3.2" fill="#D7263D"/>
<circle cx="502.91" cy="128.67" r="3.2" fill="#D7263D"/>
<circle cx="507.09" cy="128.67" r="3.2" fill="#D7263D"/>
<circle cx="511.26" cy="128.67" r="3.2" fill="#D7263D"/>
<circle cx="515.43" cy="128.67" r="3.2" fill="#D7263D"/>
<circle cx="519.60" cy="128.67" r="3.2" fill="#D7263D"/>
<circle cx="523.77" cy="128.67" r="3.2" fill="#D7263D"/>
<circle cx="527.94" cy="128.67" r="3.2" fill="#D7263D"/>
<circle cx="532.11" cy="128.67" r="3.2" fill="#D7263D"/>
<circle cx="536.28" cy="128.67" r="3.2" fill="#D7263D"/>
<circle cx="540.45" cy="128.67" r="3.2" fill="#D7263D"/>
<circle cx="544.62" cy="128.67" r="3.2" fill="#D7263D"/>
<circle cx="548.79" cy="128.67" r="3.2" fill="#D7263D"/>
<circle cx="552.96" cy="128.67" r="3.2" fill="#D7263D"/>
<circle cx="557.14" cy="128.67" r="3.2" fill="#D7263D"/>
<circle cx="561.31" cy="128.67" r="3.2" fill="#D7263D"/>
<circle cx="565.48" cy="128.67" r="3.2" fill="#D7263D"/>
<circle cx="569.65" cy="128.67" r="3.2" fill="#D7263D"/>
<circle cx="573.82" cy="128.67" r="3.2" fill="#D7263D"/>
<circle cx="577.99" cy="128.67" r="3.2" fill="#D7263D"/>
<circle cx="582.16" cy="128.67" r="3.2" fill="#D7263D"/>
<circle cx="586.33" cy="128.67" r="3.2" fill="#D7263D"/>
<circle cx="590.50" cy="128.67" r="3.2" fill="#D7263D"/>
<circle cx="594.67" cy="128.67" r="3.2" fill="#D7263D"/>
<circle cx="598.84" cy="128.67" r="3.2" fill="#D7263D"/>
<circle cx="603.02" cy="128.67" r="3.2" fill="#D7263D"/>
<circle cx="607.19" cy="128.67" r="3.2" fill="#D7263D"/>
<circle cx="611.36" cy="128.67" r="3.2" fill="#D7263D"/>
<circle cx="615.53" cy="128.67" r="3.2" fill="#D7263D"/>
<circle cx="619.70" cy="128.67" r="3.2" fill="#D7263D"/>
<circle cx="623.87" cy="128.67" r="3.2" fill="#D7263D"/>
<circle cx="628.04" cy="128.67" r="3.2" fill="#D7263D"/>
<circle cx="632.21" cy="128.67" r="3.2" fill="#D7263D"/>
<circle cx="636.38" cy="128.67" r="3.2" fill="#D7263D"/>
<circle cx="640.55" cy="128.67" r="3.2" fill="#D7263D"/>
<circle cx="644.72" cy="128.67" r="3.2" fill="#D7263D"/>
<circle cx="648.89" cy="128.67" r="3.2" fill="#D7263D"/>
<circle cx="653.07" cy="128.67" r="3.2" fill="#D7263D"/>
<circle cx="657.24" cy="128.67" r="3.2" fill="#D7263D"/>
<circle cx="661.41" cy="128.67" r="3.2" fill="#D7263D"/>
<circle cx="665.58" cy="128.67" r="3.2" fill="#D7263D"/>
<circle cx="669.75" cy="128.67" r="3.2" fill="#D7263D"/>
<circle cx="673.92" cy="128.67" r="3.2" fill="#D7263D"/>
<circle cx="678.09" cy="128.67" r="3.2" fill="#D7263D"/>
<circle cx="682.26" cy="128.67" r="3.2" fill="#D7263D"/>
<circle cx="686.43" cy="128.67" r="3.2" fill="#D7263D"/>
<circle cx="690.60" cy="128.67" r="3.2" fill="#D7263D"/>
<circle cx="694.77" cy="128.67" r="3.2" fill="#D7263D"/>
<circle cx="698.94" cy="128.67" r="3.2" fill="#D7263D"/>
<circle cx="703.12" cy="128.67" r="3.2" fill="#D7263D"/>
<circle cx="707.29" cy="128.67" r="3.2" fill="#D7263D"/>
<circle cx="711.46" cy="128.67" r="3.2" fill="#D7263D"/>
<circle cx="715.63" cy="128.67" r="3.2" fill="#D7263D"/>
<circle cx="719.80" cy="128.67" r="3.2" fill="#D7263D"/>
<circle cx="723.97" cy="128.67" r="3.2" fill="#D7263D"/>
<circle cx="728.14" cy="128.67" r="3.2" fill="#D7263D"/>
<circle cx="732.31" cy="128.67" r="3.2" fill="#D7263D"/>
<circle cx="736.48" cy="128.67" r="3.2" fill="#D7263D"/>
<circle cx="740.65" cy="128.67" r="3.2" fill="#D7263D"/>
<circle cx="744.82" cy="128.67" r="3.2" fill="#D7263D"/>
<circle cx="748.99" cy="128.67" r="3.2" fill="#D7263D"/>
<circle cx="753.17" cy="128.67" r="3.2" fill="#D7263D"/>
<circle cx="757.34" cy="128.67" r="3.2" fill="#D7263D"/>
<circle cx="761.51" cy="128.67" r="3.2" fill="#D7263D"/>
<circle cx="765.68" cy="128.67" r="3.2" fill="#D7263D"/>
<circle cx="769.85" cy="128.67" r="3.2" fill="#D7263D"/>
<circle cx="774.02" cy="128.67" r="3.2" fill="#D7263D"/>
<circle cx="778.19" cy="128.67" r="3.2" fill="#D7263D"/>
<circle cx="782.36" cy="128.67" r="3.2" fill="#D7263D"/>
<circle cx="786.53" cy="128.67" r="3.2" fill="#D7263D"/>
<circle cx="790.70" cy="128.67" r="3.2" fill="#D7263D"/>
<circle cx="794.87" cy="128.67" r="3.2" fill="#D7263D"/>
<circle cx="799.05" cy="128.67" r="3.2" fill="#D7263D"/>
<circle cx="803.22" cy="128.67" r="3.2" fill="#D7263D"/>
<circle cx="807.39" cy="128.67" r="3.2" fill="#D7263D"/>
<circle cx="811.56" cy="128.67" r="3.2" fill="#D7263D"/>
<circle cx="815.73" cy="128.67" r="3.2" fill="#D7263D"/>
<circle cx="819.90" cy="128.67" r="3.2" fill="#D7263D"/>
<circle cx="824.07" cy="128.67" r="3.2" fill="#D7263D"/>
<circle cx="828.24" cy="128.67" r="3.2" fill="#D7263D"/>
<circle cx="832.41" cy="128.67" r="3.2" fill="#D7263D"/>
<circle cx="836.58" cy="128.67" r="3.2" fill="#D7263D"/>
<circle cx="840.75" cy="128.67" r="3.2" fill="#D7263D"/>
<circle cx="844.92" cy="128.67" r="3.2" fill="#D7263D"/>
<circle cx="849.10" cy="128.67" r="3.2" fill="#D7263D"/>
<circle cx="853.27" cy="128.67" r="3.2" fill="#D7263D"/>
<circle cx="857.44" cy="128.67" r="3.2" fill="#D7263D"/>
<circle cx="861.61" cy="128.67" r="3.2" fill="#D7263D"/>
<circle cx="865.78" cy="128.67" r="3.2" fill="#D7263D"/>
<circle cx="869.95" cy="128.67" r="3.2" fill="#D7263D"/>
<circle cx="874.12" cy="128.67" r="3.2" fill="#D7263D"/>
<circle cx="878.29" cy="128.67" r="3.2" fill="#D7263D"/>
<circle cx="882.46" cy="128.67" r="3.2" fill="#D7263D"/>
<circle cx="886.63" cy="128.67" r="3.2" fill="#D7263D"/>
<circle cx="890.80" cy="128.67" r="3.2" fill="#D7263D"/>
<circle cx="894.97" cy="128.67" r="3.2" fill="#D7263D"/>
<circle cx="899.15" cy="128.67" r="3.2" fill="#D7263D"/>
<circle cx="903.32" cy="128.67" r="3.2" fill="#D7263D"/>
<circle cx="907.49" cy="128.67" r="3.2" fill="#D7263D"/>
<circle cx="911.66" cy="128.67" r="3.2" fill="#D7263D"/>
<circle cx="915.83" cy="128.67" r="3.2" fill="#D7263D"/>
<circle cx="920.00" cy="128.67" r="3.2" fill="#D7263D"/>
<line x1="944" y1="136" x2="966" y2="136" stroke="#D7263D" stroke-width="4"/>
<text x="976" y="141" font-size="17" font-family="Helvetica, Arial, sans-serif" fill="#222">02 Simple DoE</text>
<text x="976" y="162" font-size="14" font-family="Helvetica, Arial, sans-serif" fill="#555">best val 0.544 / hidden 0.532</text>
<polyline fill="none" stroke="#1B998B" stroke-width="4" points="90.00,561.33 94.17,561.33 98.34,561.33 102.51,561.33 106.68,561.33 110.85,561.33 115.03,561.33 119.20,561.33 123.37,561.33 127.54,561.33 131.71,561.33 135.88,561.33 140.05,561.33 144.22,561.33 148.39,561.33 152.56,561.33 156.73,561.33 160.90,561.33 165.08,561.33 169.25,561.33 173.42,561.33 177.59,561.33 181.76,561.33 185.93,561.33 190.10,561.33 194.27,561.33 198.44,561.33 202.61,561.33 206.78,561.33 210.95,561.33 215.13,561.33 219.30,561.33 223.47,561.33 227.64,561.33 231.81,561.33 235.98,561.33 240.15,561.33 244.32,561.33 248.49,561.33 252.66,561.33 256.83,561.33 261.01,561.33 265.18,561.33 269.35,561.33 273.52,561.33 277.69,561.33 281.86,561.33 286.03,561.33 290.20,561.33 294.37,561.33 298.54,561.33 302.71,561.33 306.88,561.33 311.06,561.33 315.23,561.33 319.40,561.33 323.57,561.33 327.74,561.33 331.91,561.33 336.08,561.33 340.25,561.33 344.42,561.33 348.59,561.33 352.76,561.33 356.93,561.33 361.11,561.33 365.28,561.33 369.45,561.33 373.62,561.33 377.79,561.33 381.96,561.33 386.13,561.33 390.30,561.33 394.47,561.33 398.64,561.33 402.81,561.33 406.98,561.33 411.16,561.33 415.33,561.33 419.50,561.33 423.67,561.33 427.84,561.33 432.01,561.33 436.18,561.33 440.35,561.33 444.52,561.33 448.69,561.33 452.86,561.33 457.04,561.33 461.21,561.33 465.38,561.33 469.55,561.33 473.72,561.33 477.89,561.33 482.06,561.33 486.23,561.33 490.40,561.33 494.57,561.33 498.74,561.33 502.91,561.33 507.09,561.33 511.26,561.33 515.43,561.33 519.60,561.33 523.77,561.33 527.94,561.33 532.11,561.33 536.28,561.33 540.45,561.33 544.62,561.33 548.79,561.33 552.96,561.33 557.14,561.33 561.31,561.33 565.48,561.33 569.65,561.33 573.82,561.33 577.99,561.33 582.16,561.33 586.33,561.33 590.50,561.33 594.67,561.33 598.84,561.33 603.02,561.33 607.19,561.33 611.36,561.33 615.53,561.33 619.70,561.33 623.87,561.33 628.04,561.33 632.21,561.33 636.38,561.33 640.55,561.33 644.72,561.33 648.89,561.33 653.07,561.33 657.24,561.33 661.41,561.33 665.58,561.33 669.75,561.33 673.92,561.33 678.09,561.33 682.26,561.33 686.43,561.33 690.60,561.33 694.77,561.33 698.94,561.33 703.12,561.33 707.29,561.33 711.46,561.33 715.63,561.33 719.80,561.33 723.97,561.33 728.14,561.33 732.31,561.33 736.48,561.33 740.65,561.33 744.82,561.33 748.99,561.33 753.17,561.33 757.34,561.33 761.51,561.33 765.68,561.33 769.85,561.33 774.02,561.33 778.19,561.33 782.36,561.33 786.53,561.33 790.70,561.33 794.87,561.33 799.05,561.33 803.22,561.33 807.39,561.33 811.56,561.33 815.73,561.33 819.90,561.33 824.07,561.33 828.24,561.33 832.41,561.33 836.58,561.33 840.75,561.33 844.92,561.33 849.10,561.33 853.27,561.33 857.44,561.33 861.61,561.33 865.78,561.33 869.95,561.33 874.12,561.33 878.29,561.33 882.46,561.33 886.63,561.33 890.80,561.33 894.97,561.33 899.15,561.33 903.32,561.33 907.49,561.33 911.66,561.33 915.83,561.33 920.00,561.33"/>
<circle cx="90.00" cy="561.33" r="3.2" fill="#1B998B"/>
<circle cx="94.17" cy="561.33" r="3.2" fill="#1B998B"/>
<circle cx="98.34" cy="561.33" r="3.2" fill="#1B998B"/>
<circle cx="102.51" cy="561.33" r="3.2" fill="#1B998B"/>
<circle cx="106.68" cy="561.33" r="3.2" fill="#1B998B"/>
<circle cx="110.85" cy="561.33" r="3.2" fill="#1B998B"/>
<circle cx="115.03" cy="561.33" r="3.2" fill="#1B998B"/>
<circle cx="119.20" cy="561.33" r="3.2" fill="#1B998B"/>
<circle cx="123.37" cy="561.33" r="3.2" fill="#1B998B"/>
<circle cx="127.54" cy="561.33" r="3.2" fill="#1B998B"/>
<circle cx="131.71" cy="561.33" r="3.2" fill="#1B998B"/>
<circle cx="135.88" cy="561.33" r="3.2" fill="#1B998B"/>
<circle cx="140.05" cy="561.33" r="3.2" fill="#1B998B"/>
<circle cx="144.22" cy="561.33" r="3.2" fill="#1B998B"/>
<circle cx="148.39" cy="561.33" r="3.2" fill="#1B998B"/>
<circle cx="152.56" cy="561.33" r="3.2" fill="#1B998B"/>
<circle cx="156.73" cy="561.33" r="3.2" fill="#1B998B"/>
<circle cx="160.90" cy="561.33" r="3.2" fill="#1B998B"/>
<circle cx="165.08" cy="561.33" r="3.2" fill="#1B998B"/>
<circle cx="169.25" cy="561.33" r="3.2" fill="#1B998B"/>
<circle cx="173.42" cy="561.33" r="3.2" fill="#1B998B"/>
<circle cx="177.59" cy="561.33" r="3.2" fill="#1B998B"/>
<circle cx="181.76" cy="561.33" r="3.2" fill="#1B998B"/>
<circle cx="185.93" cy="561.33" r="3.2" fill="#1B998B"/>
<circle cx="190.10" cy="561.33" r="3.2" fill="#1B998B"/>
<circle cx="194.27" cy="561.33" r="3.2" fill="#1B998B"/>
<circle cx="198.44" cy="561.33" r="3.2" fill="#1B998B"/>
<circle cx="202.61" cy="561.33" r="3.2" fill="#1B998B"/>
<circle cx="206.78" cy="561.33" r="3.2" fill="#1B998B"/>
<circle cx="210.95" cy="561.33" r="3.2" fill="#1B998B"/>
<circle cx="215.13" cy="561.33" r="3.2" fill="#1B998B"/>
<circle cx="219.30" cy="561.33" r="3.2" fill="#1B998B"/>
<circle cx="223.47" cy="561.33" r="3.2" fill="#1B998B"/>
<circle cx="227.64" cy="561.33" r="3.2" fill="#1B998B"/>
<circle cx="231.81" cy="561.33" r="3.2" fill="#1B998B"/>
<circle cx="235.98" cy="561.33" r="3.2" fill="#1B998B"/>
<circle cx="240.15" cy="561.33" r="3.2" fill="#1B998B"/>
<circle cx="244.32" cy="561.33" r="3.2" fill="#1B998B"/>
<circle cx="248.49" cy="561.33" r="3.2" fill="#1B998B"/>
<circle cx="252.66" cy="561.33" r="3.2" fill="#1B998B"/>
<circle cx="256.83" cy="561.33" r="3.2" fill="#1B998B"/>
<circle cx="261.01" cy="561.33" r="3.2" fill="#1B998B"/>
<circle cx="265.18" cy="561.33" r="3.2" fill="#1B998B"/>
<circle cx="269.35" cy="561.33" r="3.2" fill="#1B998B"/>
<circle cx="273.52" cy="561.33" r="3.2" fill="#1B998B"/>
<circle cx="277.69" cy="561.33" r="3.2" fill="#1B998B"/>
<circle cx="281.86" cy="561.33" r="3.2" fill="#1B998B"/>
<circle cx="286.03" cy="561.33" r="3.2" fill="#1B998B"/>
<circle cx="290.20" cy="561.33" r="3.2" fill="#1B998B"/>
<circle cx="294.37" cy="561.33" r="3.2" fill="#1B998B"/>
<circle cx="298.54" cy="561.33" r="3.2" fill="#1B998B"/>
<circle cx="302.71" cy="561.33" r="3.2" fill="#1B998B"/>
<circle cx="306.88" cy="561.33" r="3.2" fill="#1B998B"/>
<circle cx="311.06" cy="561.33" r="3.2" fill="#1B998B"/>
<circle cx="315.23" cy="561.33" r="3.2" fill="#1B998B"/>
<circle cx="319.40" cy="561.33" r="3.2" fill="#1B998B"/>
<circle cx="323.57" cy="561.33" r="3.2" fill="#1B998B"/>
<circle cx="327.74" cy="561.33" r="3.2" fill="#1B998B"/>
<circle cx="331.91" cy="561.33" r="3.2" fill="#1B998B"/>
<circle cx="336.08" cy="561.33" r="3.2" fill="#1B998B"/>
<circle cx="340.25" cy="561.33" r="3.2" fill="#1B998B"/>
<circle cx="344.42" cy="561.33" r="3.2" fill="#1B998B"/>
<circle cx="348.59" cy="561.33" r="3.2" fill="#1B998B"/>
<circle cx="352.76" cy="561.33" r="3.2" fill="#1B998B"/>
<circle cx="356.93" cy="561.33" r="3.2" fill="#1B998B"/>
<circle cx="361.11" cy="561.33" r="3.2" fill="#1B998B"/>
<circle cx="365.28" cy="561.33" r="3.2" fill="#1B998B"/>
<circle cx="369.45" cy="561.33" r="3.2" fill="#1B998B"/>
<circle cx="373.62" cy="561.33" r="3.2" fill="#1B998B"/>
<circle cx="377.79" cy="561.33" r="3.2" fill="#1B998B"/>
<circle cx="381.96" cy="561.33" r="3.2" fill="#1B998B"/>
<circle cx="386.13" cy="561.33" r="3.2" fill="#1B998B"/>
<circle cx="390.30" cy="561.33" r="3.2" fill="#1B998B"/>
<circle cx="394.47" cy="561.33" r="3.2" fill="#1B998B"/>
<circle cx="398.64" cy="561.33" r="3.2" fill="#1B998B"/>
<circle cx="402.81" cy="561.33" r="3.2" fill="#1B998B"/>
<circle cx="406.98" cy="561.33" r="3.2" fill="#1B998B"/>
<circle cx="411.16" cy="561.33" r="3.2" fill="#1B998B"/>
<circle cx="415.33" cy="561.33" r="3.2" fill="#1B998B"/>
<circle cx="419.50" cy="561.33" r="3.2" fill="#1B998B"/>
<circle cx="423.67" cy="561.33" r="3.2" fill="#1B998B"/>
<circle cx="427.84" cy="561.33" r="3.2" fill="#1B998B"/>
<circle cx="432.01" cy="561.33" r="3.2" fill="#1B998B"/>
<circle cx="436.18" cy="561.33" r="3.2" fill="#1B998B"/>
<circle cx="440.35" cy="561.33" r="3.2" fill="#1B998B"/>
<circle cx="444.52" cy="561.33" r="3.2" fill="#1B998B"/>
<circle cx="448.69" cy="561.33" r="3.2" fill="#1B998B"/>
<circle cx="452.86" cy="561.33" r="3.2" fill="#1B998B"/>
<circle cx="457.04" cy="561.33" r="3.2" fill="#1B998B"/>
<circle cx="461.21" cy="561.33" r="3.2" fill="#1B998B"/>
<circle cx="465.38" cy="561.33" r="3.2" fill="#1B998B"/>
<circle cx="469.55" cy="561.33" r="3.2" fill="#1B998B"/>
<circle cx="473.72" cy="561.33" r="3.2" fill="#1B998B"/>
<circle cx="477.89" cy="561.33" r="3.2" fill="#1B998B"/>
<circle cx="482.06" cy="561.33" r="3.2" fill="#1B998B"/>
<circle cx="486.23" cy="561.33" r="3.2" fill="#1B998B"/>
<circle cx="490.40" cy="561.33" r="3.2" fill="#1B998B"/>
<circle cx="494.57" cy="561.33" r="3.2" fill="#1B998B"/>
<circle cx="498.74" cy="561.33" r="3.2" fill="#1B998B"/>
<circle cx="502.91" cy="561.33" r="3.2" fill="#1B998B"/>
<circle cx="507.09" cy="561.33" r="3.2" fill="#1B998B"/>
<circle cx="511.26" cy="561.33" r="3.2" fill="#1B998B"/>
<circle cx="515.43" cy="561.33" r="3.2" fill="#1B998B"/>
<circle cx="519.60" cy="561.33" r="3.2" fill="#1B998B"/>
<circle cx="523.77" cy="561.33" r="3.2" fill="#1B998B"/>
<circle cx="527.94" cy="561.33" r="3.2" fill="#1B998B"/>
<circle cx="532.11" cy="561.33" r="3.2" fill="#1B998B"/>
<circle cx="536.28" cy="561.33" r="3.2" fill="#1B998B"/>
<circle cx="540.45" cy="561.33" r="3.2" fill="#1B998B"/>
<circle cx="544.62" cy="561.33" r="3.2" fill="#1B998B"/>
<circle cx="548.79" cy="561.33" r="3.2" fill="#1B998B"/>
<circle cx="552.96" cy="561.33" r="3.2" fill="#1B998B"/>
<circle cx="557.14" cy="561.33" r="3.2" fill="#1B998B"/>
<circle cx="561.31" cy="561.33" r="3.2" fill="#1B998B"/>
<circle cx="565.48" cy="561.33" r="3.2" fill="#1B998B"/>
<circle cx="569.65" cy="561.33" r="3.2" fill="#1B998B"/>
<circle cx="573.82" cy="561.33" r="3.2" fill="#1B998B"/>
<circle cx="577.99" cy="561.33" r="3.2" fill="#1B998B"/>
<circle cx="582.16" cy="561.33" r="3.2" fill="#1B998B"/>
<circle cx="586.33" cy="561.33" r="3.2" fill="#1B998B"/>
<circle cx="590.50" cy="561.33" r="3.2" fill="#1B998B"/>
<circle cx="594.67" cy="561.33" r="3.2" fill="#1B998B"/>
<circle cx="598.84" cy="561.33" r="3.2" fill="#1B998B"/>
<circle cx="603.02" cy="561.33" r="3.2" fill="#1B998B"/>
<circle cx="607.19" cy="561.33" r="3.2" fill="#1B998B"/>
<circle cx="611.36" cy="561.33" r="3.2" fill="#1B998B"/>
<circle cx="615.53" cy="561.33" r="3.2" fill="#1B998B"/>
<circle cx="619.70" cy="561.33" r="3.2" fill="#1B998B"/>
<circle cx="623.87" cy="561.33" r="3.2" fill="#1B998B"/>
<circle cx="628.04" cy="561.33" r="3.2" fill="#1B998B"/>
<circle cx="632.21" cy="561.33" r="3.2" fill="#1B998B"/>
<circle cx="636.38" cy="561.33" r="3.2" fill="#1B998B"/>
<circle cx="640.55" cy="561.33" r="3.2" fill="#1B998B"/>
<circle cx="644.72" cy="561.33" r="3.2" fill="#1B998B"/>
<circle cx="648.89" cy="561.33" r="3.2" fill="#1B998B"/>
<circle cx="653.07" cy="561.33" r="3.2" fill="#1B998B"/>
<circle cx="657.24" cy="561.33" r="3.2" fill="#1B998B"/>
<circle cx="661.41" cy="561.33" r="3.2" fill="#1B998B"/>
<circle cx="665.58" cy="561.33" r="3.2" fill="#1B998B"/>
<circle cx="669.75" cy="561.33" r="3.2" fill="#1B998B"/>
<circle cx="673.92" cy="561.33" r="3.2" fill="#1B998B"/>
<circle cx="678.09" cy="561.33" r="3.2" fill="#1B998B"/>
<circle cx="682.26" cy="561.33" r="3.2" fill="#1B998B"/>
<circle cx="686.43" cy="561.33" r="3.2" fill="#1B998B"/>
<circle cx="690.60" cy="561.33" r="3.2" fill="#1B998B"/>
<circle cx="694.77" cy="561.33" r="3.2" fill="#1B998B"/>
<circle cx="698.94" cy="561.33" r="3.2" fill="#1B998B"/>
<circle cx="703.12" cy="561.33" r="3.2" fill="#1B998B"/>
<circle cx="707.29" cy="561.33" r="3.2" fill="#1B998B"/>
<circle cx="711.46" cy="561.33" r="3.2" fill="#1B998B"/>
<circle cx="715.63" cy="561.33" r="3.2" fill="#1B998B"/>
<circle cx="719.80" cy="561.33" r="3.2" fill="#1B998B"/>
<circle cx="723.97" cy="561.33" r="3.2" fill="#1B998B"/>
<circle cx="728.14" cy="561.33" r="3.2" fill="#1B998B"/>
<circle cx="732.31" cy="561.33" r="3.2" fill="#1B998B"/>
<circle cx="736.48" cy="561.33" r="3.2" fill="#1B998B"/>
<circle cx="740.65" cy="561.33" r="3.2" fill="#1B998B"/>
<circle cx="744.82" cy="561.33" r="3.2" fill="#1B998B"/>
<circle cx="748.99" cy="561.33" r="3.2" fill="#1B998B"/>
<circle cx="753.17" cy="561.33" r="3.2" fill="#1B998B"/>
<circle cx="757.34" cy="561.33" r="3.2" fill="#1B998B"/>
<circle cx="761.51" cy="561.33" r="3.2" fill="#1B998B"/>
<circle cx="765.68" cy="561.33" r="3.2" fill="#1B998B"/>
<circle cx="769.85" cy="561.33" r="3.2" fill="#1B998B"/>
<circle cx="774.02" cy="561.33" r="3.2" fill="#1B998B"/>
<circle cx="778.19" cy="561.33" r="3.2" fill="#1B998B"/>
<circle cx="782.36" cy="561.33" r="3.2" fill="#1B998B"/>
<circle cx="786.53" cy="561.33" r="3.2" fill="#1B998B"/>
<circle cx="790.70" cy="561.33" r="3.2" fill="#1B998B"/>
<circle cx="794.87" cy="561.33" r="3.2" fill="#1B998B"/>
<circle cx="799.05" cy="561.33" r="3.2" fill="#1B998B"/>
<circle cx="803.22" cy="561.33" r="3.2" fill="#1B998B"/>
<circle cx="807.39" cy="561.33" r="3.2" fill="#1B998B"/>
<circle cx="811.56" cy="561.33" r="3.2" fill="#1B998B"/>
<circle cx="815.73" cy="561.33" r="3.2" fill="#1B998B"/>
<circle cx="819.90" cy="561.33" r="3.2" fill="#1B998B"/>
<circle cx="824.07" cy="561.33" r="3.2" fill="#1B998B"/>
<circle cx="828.24" cy="561.33" r="3.2" fill="#1B998B"/>
<circle cx="832.41" cy="561.33" r="3.2" fill="#1B998B"/>
<circle cx="836.58" cy="561.33" r="3.2" fill="#1B998B"/>
<circle cx="840.75" cy="561.33" r="3.2" fill="#1B998B"/>
<circle cx="844.92" cy="561.33" r="3.2" fill="#1B998B"/>
<circle cx="849.10" cy="561.33" r="3.2" fill="#1B998B"/>
<circle cx="853.27" cy="561.33" r="3.2" fill="#1B998B"/>
<circle cx="857.44" cy="561.33" r="3.2" fill="#1B998B"/>
<circle cx="861.61" cy="561.33" r="3.2" fill="#1B998B"/>
<circle cx="865.78" cy="561.33" r="3.2" fill="#1B998B"/>
<circle cx="869.95" cy="561.33" r="3.2" fill="#1B998B"/>
<circle cx="874.12" cy="561.33" r="3.2" fill="#1B998B"/>
<circle cx="878.29" cy="561.33" r="3.2" fill="#1B998B"/>
<circle cx="882.46" cy="561.33" r="3.2" fill="#1B998B"/>
<circle cx="886.63" cy="561.33" r="3.2" fill="#1B998B"/>
<circle cx="890.80" cy="561.33" r="3.2" fill="#1B998B"/>
<circle cx="894.97" cy="561.33" r="3.2" fill="#1B998B"/>
<circle cx="899.15" cy="561.33" r="3.2" fill="#1B998B"/>
<circle cx="903.32" cy="561.33" r="3.2" fill="#1B998B"/>
<circle cx="907.49" cy="561.33" r="3.2" fill="#1B998B"/>
<circle cx="911.66" cy="561.33" r="3.2" fill="#1B998B"/>
<circle cx="915.83" cy="561.33" r="3.2" fill="#1B998B"/>
<circle cx="920.00" cy="561.33" r="3.2" fill="#1B998B"/>
<line x1="944" y1="190" x2="966" y2="190" stroke="#1B998B" stroke-width="4"/>
<text x="976" y="195" font-size="17" font-family="Helvetica, Arial, sans-serif" fill="#222">03 Advanced DoE + Tic-Tac-To</text>
<text x="976" y="216" font-size="14" font-family="Helvetica, Arial, sans-serif" fill="#555">best val 0.489 / hidden 0.482</text>
</svg>