<svg xmlns="http://www.w3.org/2000/svg" width="1200" height="720" viewBox="0 0 1200 720">
<rect width="100%" height="100%" fill="#fffaf2"/>
<text x="90" y="30" font-size="28" font-family="Helvetica, Arial, sans-serif" fill="#222">20 Newsgroups MLP Best-So-Far (100 Runs, Program v1)</text>
<line x1="90" y1="50.0" x2="920" y2="50.0" stroke="#e4dccf" stroke-width="1"/>
<text x="78" y="55.0" text-anchor="end" font-size="16" font-family="Helvetica, Arial, sans-serif" fill="#444">0.524</text>
<line x1="90" y1="168.0" x2="920" y2="168.0" stroke="#e4dccf" stroke-width="1"/>
<text x="78" y="173.0" text-anchor="end" font-size="16" font-family="Helvetica, Arial, sans-serif" fill="#444">0.512</text>
<line x1="90" y1="286.0" x2="920" y2="286.0" stroke="#e4dccf" stroke-width="1"/>
<text x="78" y="291.0" text-anchor="end" font-size="16" font-family="Helvetica, Arial, sans-serif" fill="#444">0.501</text>
<line x1="90" y1="404.0" x2="920" y2="404.0" stroke="#e4dccf" stroke-width="1"/>
<text x="78" y="409.0" text-anchor="end" font-size="16" font-family="Helvetica, Arial, sans-serif" fill="#444">0.489</text>
<line x1="90" y1="522.0" x2="920" y2="522.0" stroke="#e4dccf" stroke-width="1"/>
<text x="78" y="527.0" text-anchor="end" font-size="16" font-family="Helvetica, Arial, sans-serif" fill="#444">0.477</text>
<line x1="90" y1="640.0" x2="920" y2="640.0" stroke="#e4dccf" stroke-width="1"/>
<text x="78" y="645.0" text-anchor="end" font-size="16" font-family="Helvetica, Arial, sans-serif" fill="#444">0.465</text>
<line x1="90.0" y1="50" x2="90.0" y2="640" stroke="#efe7da" stroke-width="1"/>
<text x="90.0" y="668" text-anchor="middle" font-size="16" font-family="Helvetica, Arial, sans-serif" fill="#444">1</text>
<line x1="165.5" y1="50" x2="165.5" y2="640" stroke="#efe7da" stroke-width="1"/>
<text x="165.5" y="668" text-anchor="middle" font-size="16" font-family="Helvetica, Arial, sans-serif" fill="#444">10</text>
<line x1="249.3" y1="50" x2="249.3" y2="640" stroke="#efe7da" stroke-width="1"/>
<text x="249.3" y="668" text-anchor="middle" font-size="16" font-family="Helvetica, Arial, sans-serif" fill="#444">20</text>
<line x1="333.1" y1="50" x2="333.1" y2="640" stroke="#efe7da" stroke-width="1"/>
<text x="333.1" y="668" text-anchor="middle" font-size="16" font-family="Helvetica, Arial, sans-serif" fill="#444">30</text>
<line x1="417.0" y1="50" x2="417.0" y2="640" stroke="#efe7da" stroke-width="1"/>
<text x="417.0" y="668" text-anchor="middle" font-size="16" font-family="Helvetica, Arial, sans-serif" fill="#444">40</text>
<line x1="500.8" y1="50" x2="500.8" y2="640" stroke="#efe7da" stroke-width="1"/>
<text x="500.8" y="668" text-anchor="middle" font-size="16" font-family="Helvetica, Arial, sans-serif" fill="#444">50</text>
<line x1="710.4" y1="50" x2="710.4" y2="640" stroke="#efe7da" stroke-width="1"/>
<text x="710.4" y="668" text-anchor="middle" font-size="16" font-family="Helvetica, Arial, sans-serif" fill="#444">75</text>
<line x1="920.0" y1="50" x2="920.0" y2="640" stroke="#efe7da" stroke-width="1"/>
<text x="920.0" y="668" text-anchor="middle" font-size="16" font-family="Helvetica, Arial, sans-serif" fill="#444">100</text>
<text x="505.0" y="698" text-anchor="middle" font-size="18" font-family="Helvetica, Arial, sans-serif" fill="#333">Round</text>
<text x="24" y="345.0" transform="rotate(-90 24 345.0)" text-anchor="middle" font-size="18" font-family="Helvetica, Arial, sans-serif" fill="#333">Validation Accuracy</text>
<polyline fill="none" stroke="#1768AC" stroke-width="4" points="90.00,523.66 98.38,423.94 106.77,149.72 115.15,149.72 123.54,149.72 131.92,149.72 140.30,149.72 148.69,149.72 157.07,149.72 165.45,149.72 173.84,149.72 182.22,149.72 190.61,149.72 198.99,149.72 207.37,149.72 215.76,149.72 224.14,149.72 232.53,149.72 240.91,149.72 249.29,149.72 257.68,149.72 266.06,149.72 274.44,149.72 282.83,149.72 291.21,149.72 299.60,149.72 307.98,149.72 316.36,149.72 324.75,149.72 333.13,149.72 341.52,149.72 349.90,149.72 358.28,149.72 366.67,149.72 375.05,149.72 383.43,149.72 391.82,149.72 400.20,149.72 408.59,149.72 416.97,149.72 425.35,149.72 433.74,149.72 442.12,149.72 450.51,149.72 458.89,149.72 467.27,149.72 475.66,149.72 484.04,149.72 492.42,149.72 500.81,149.72 509.19,149.72 517.58,149.72 525.96,149.72 534.34,149.72 542.73,149.72 551.11,149.72 559.49,149.72 567.88,149.72 576.26,149.72 584.65,149.72 593.03,149.72 601.41,149.72 609.80,149.72 618.18,149.72 626.57,149.72 634.95,149.72 643.33,149.72 651.72,149.72 660.10,149.72 668.48,149.72 676.87,149.72 685.25,149.72 693.64,149.72 702.02,149.72 710.40,149.72 718.79,149.72 727.17,149.72 735.56,149.72 743.94,149.72 752.32,149.72 760.71,149.72 769.09,149.72 777.47,149.72 785.86,149.72 794.24,149.72 802.63,149.72 811.01,149.72 819.39,149.72 827.78,149.72 836.16,149.72 844.55,149.72 852.93,149.72 861.31,149.72 869.70,149.72 878.08,149.72 886.46,149.72 894.85,149.72 903.23,149.72 911.62,149.72 920.00,149.72"/>
<circle cx="90.00" cy="523.66" r="3.2" fill="#1768AC"/>
<circle cx="98.38" cy="423.94" r="3.2" fill="#1768AC"/>
<circle cx="106.77" cy="149.72" r="3.2" fill="#1768AC"/>
<circle cx="115.15" cy="149.72" r="3.2" fill="#1768AC"/>
<circle cx="123.54" cy="149.72" r="3.2" fill="#1768AC"/>
<circle cx="131.92" cy="149.72" r="3.2" fill="#1768AC"/>
<circle cx="140.30" cy="149.72" r="3.2" fill="#1768AC"/>
<circle cx="148.69" cy="149.72" r="3.2" fill="#1768AC"/>
<circle cx="157.07" cy="149.72" r="3.2" fill="#1768AC"/>
<circle cx="165.45" cy="149.72" r="3.2" fill="#1768AC"/>
<circle cx="173.84" cy="149.72" r="3.2" fill="#1768AC"/>
<circle cx="182.22" cy="149.72" r="3.2" fill="#1768AC"/>
<circle cx="190.61" cy="149.72" r="3.2" fill="#1768AC"/>
<circle cx="198.99" cy="149.72" r="3.2" fill="#1768AC"/>
<circle cx="207.37" cy="149.72" r="3.2" fill="#1768AC"/>
<circle cx="215.76" cy="149.72" r="3.2" fill="#1768AC"/>
<circle cx="224.14" cy="149.72" r="3.2" fill="#1768AC"/>
<circle cx="232.53" cy="149.72" r="3.2" fill="#1768AC"/>
<circle cx="240.91" cy="149.72" r="3.2" fill="#1768AC"/>
<circle cx="249.29" cy="149.72" r="3.2" fill="#1768AC"/>
<circle cx="257.68" cy="149.72" r="3.2" fill="#1768AC"/>
<circle cx="266.06" cy="149.72" r="3.2" fill="#1768AC"/>
<circle cx="274.44" cy="149.72" r="3.2" fill="#1768AC"/>
<circle cx="282.83" cy="149.72" r="3.2" fill="#1768AC"/>
<circle cx="291.21" cy="149.72" r="3.2" fill="#1768AC"/>
<circle cx="299.60" cy="149.72" r="3.2" fill="#1768AC"/>
<circle cx="307.98" cy="149.72" r="3.2" fill="#1768AC"/>
<circle cx="316.36" cy="149.72" r="3.2" fill="#1768AC"/>
<circle cx="324.75" cy="149.72" r="3.2" fill="#1768AC"/>
<circle cx="333.13" cy="149.72" r="3.2" fill="#1768AC"/>
<circle cx="341.52" cy="149.72" r="3.2" fill="#1768AC"/>
<circle cx="349.90" cy="149.72" r="3.2" fill="#1768AC"/>
<circle cx="358.28" cy="149.72" r="3.2" fill="#1768AC"/>
<circle cx="366.67" cy="149.72" r="3.2" fill="#1768AC"/>
<circle cx="375.05" cy="149.72" r="3.2" fill="#1768AC"/>
<circle cx="383.43" cy="149.72" r="3.2" fill="#1768AC"/>
<circle cx="391.82" cy="149.72" r="3.2" fill="#1768AC"/>
<circle cx="400.20" cy="149.72" r="3.2" fill="#1768AC"/>
<circle cx="408.59" cy="149.72" r="3.2" fill="#1768AC"/>
<circle cx="416.97" cy="149.72" r="3.2" fill="#1768AC"/>
<circle cx="425.35" cy="149.72" r="3.2" fill="#1768AC"/>
<circle cx="433.74" cy="149.72" r="3.2" fill="#1768AC"/>
<circle cx="442.12" cy="149.72" r="3.2" fill="#1768AC"/>
<circle cx="450.51" cy="149.72" r="3.2" fill="#1768AC"/>
<circle cx="458.89" cy="149.72" r="3.2" fill="#1768AC"/>
<circle cx="467.27" cy="149.72" r="3.2" fill="#1768AC"/>
<circle cx="475.66" cy="149.72" r="3.2" fill="#1768AC"/>
<circle cx="484.04" cy="149.72" r="3.2" fill="#1768AC"/>
<circle cx="492.42" cy="149.72" r="3.2" fill="#1768AC"/>
<circle cx="500.81" cy="149.72" r="3.2" fill="#1768AC"/>
<circle cx="509.19" cy="149.72" r="3.2" fill="#1768AC"/>
<circle cx="517.58" cy="149.72" r="3.2" fill="#1768AC"/>
<circle cx="525.96" cy="149.72" r="3.2" fill="#1768AC"/>
<circle cx="534.34" cy="149.72" r="3.2" fill="#1768AC"/>
<circle cx="542.73" cy="149.72" r="3.2" fill="#1768AC"/>
<circle cx="551.11" cy="149.72" r="3.2" fill="#1768AC"/>
<circle cx="559.49" cy="149.72" r="3.2" fill="#1768AC"/>
<circle cx="567.88" cy="149.72" r="3.2" fill="#1768AC"/>
<circle cx="576.26" cy="149.72" r="3.2" fill="#1768AC"/>
<circle cx="584.65" cy="149.72" r="3.2" fill="#1768AC"/>
<circle cx="593.03" cy="149.72" r="3.2" fill="#1768AC"/>
<circle cx="601.41" cy="149.72" r="3.2" fill="#1768AC"/>
<circle cx="609.80" cy="149.72" r="3.2" fill="#1768AC"/>
<circle cx="618.18" cy="149.72" r="3.2" fill="#1768AC"/>
<circle cx="626.57" cy="149.72" r="3.2" fill="#1768AC"/>
<circle cx="634.95" cy="149.72" r="3.2" fill="#1768AC"/>
<circle cx="643.33" cy="149.72" r="3.2" fill="#1768AC"/>
<circle cx="651.72" cy="149.72" r="3.2" fill="#1768AC"/>
<circle cx="660.10" cy="149.72" r="3.2" fill="#1768AC"/>
<circle cx="668.48" cy="149.72" r="3.2" fill="#1768AC"/>
<circle cx="676.87" cy="149.72" r="3.2" fill="#1768AC"/>
<circle cx="685.25" cy="149.72" r="3.2" fill="#1768AC"/>
<circle cx="693.64" cy="149.72" r="3.2" fill="#1768AC"/>
<circle cx="702.02" cy="149.72" r="3.2" fill="#1768AC"/>
<circle cx="710.40" cy="149.72" r="3.2" fill="#1768AC"/>
<circle cx="718.79" cy="149.72" r="3.2" fill="#1768AC"/>
<circle cx="727.17" cy="149.72" r="3.2" fill="#1768AC"/>
<circle cx="735.56" cy="149.72" r="3.2" fill="#1768AC"/>
<circle cx="743.94" cy="149.72" r="3.2" fill="#1768AC"/>
<circle cx="752.32" cy="149.72" r="3.2" fill="#1768AC"/>
<circle cx="760.71" cy="149.72" r="3.2" fill="#1768AC"/>
<circle cx="769.09" cy="149.72" r="3.2" fill="#1768AC"/>
<circle cx="777.47" cy="149.72" r="3.2" fill="#1768AC"/>
<circle cx="785.86" cy="149.72" r="3.2" fill="#1768AC"/>
<circle cx="794.24" cy="149.72" r="3.2" fill="#1768AC"/>
<circle cx="802.63" cy="149.72" r="3.2" fill="#1768AC"/>
<circle cx="811.01" cy="149.72" r="3.2" fill="#1768AC"/>
<circle cx="819.39" cy="149.72" r="3.2" fill="#1768AC"/>
<circle cx="827.78" cy="149.72" r="3.2" fill="#1768AC"/>
<circle cx="836.16" cy="149.72" r="3.2" fill="#1768AC"/>
<circle cx="844.55" cy="149.72" r="3.2" fill="#1768AC"/>
<circle cx="852.93" cy="149.72" r="3.2" fill="#1768AC"/>
<circle cx="861.31" cy="149.72" r="3.2" fill="#1768AC"/>
<circle cx="869.70" cy="149.72" r="3.2" fill="#1768AC"/>
<circle cx="878.08" cy="149.72" r="3.2" fill="#1768AC"/>
<circle cx="886.46" cy="149.72" r="3.2" fill="#1768AC"/>
<circle cx="894.85" cy="149.72" r="3.2" fill="#1768AC"/>
<circle cx="903.23" cy="149.72" r="3.2" fill="#1768AC"/>
<circle cx="911.62" cy="149.72" r="3.2" fill="#1768AC"/>
<circle cx="920.00" cy="149.72" r="3.2" fill="#1768AC"/>
<line x1="944" y1="82" x2="966" y2="82" stroke="#1768AC" stroke-width="4"/>
<text x="976" y="87" font-size="17" font-family="Helvetica, Arial, sans-serif" fill="#222">01 Ratchet</text>
<text x="976" y="108" font-size="14" font-family="Helvetica, Arial, sans-serif" fill="#555">best val 0.514 / hidden 0.492</text>
<polyline fill="none" stroke="#D7263D" stroke-width="4" points="90.00,540.28 98.38,540.28 106.77,507.05 115.15,274.36 123.54,274.36 131.92,274.36 140.30,274.36 148.69,274.36 157.07,274.36 165.45,274.36 173.84,274.36 182.22,274.36 190.61,274.36 198.99,274.36 207.37,274.36 215.76,274.36 224.14,274.36 232.53,274.36 240.91,274.36 249.29,274.36 257.68,274.36 266.06,274.36 274.44,274.36 282.83,274.36 291.21,274.36 299.60,274.36 307.98,274.36 316.36,274.36 324.75,274.36 333.13,274.36 341.52,274.36 349.90,274.36 358.28,274.36 366.67,274.36 375.05,274.36 383.43,274.36 391.82,274.36 400.20,274.36 408.59,274.36 416.97,274.36 425.35,274.36 433.74,274.36 442.12,274.36 450.51,274.36 458.89,274.36 467.27,274.36 475.66,274.36 484.04,274.36 492.42,274.36 500.81,274.36 509.19,274.36 517.58,274.36 525.96,274.36 534.34,274.36 542.73,274.36 551.11,274.36 559.49,274.36 567.88,274.36 576.26,274.36 584.65,274.36 593.03,274.36 601.41,274.36 609.80,274.36 618.18,274.36 626.57,274.36 634.95,274.36 643.33,274.36 651.72,274.36 660.10,274.36 668.48,274.36 676.87,274.36 685.25,274.36 693.64,274.36 702.02,274.36 710.40,274.36 718.79,274.36 727.17,274.36 735.56,274.36 743.94,274.36 752.32,274.36 760.71,274.36 769.09,274.36 777.47,274.36 785.86,274.36 794.24,274.36 802.63,274.36 811.01,274.36 819.39,274.36 827.78,274.36 836.16,274.36 844.55,274.36 852.93,274.36 861.31,274.36 869.70,274.36 878.08,274.36 886.46,274.36 894.85,274.36 903.23,274.36 911.62,274.36 920.00,274.36"/>
<circle cx="90.00" cy="540.28" r="3.2" fill="#D7263D"/>
<circle cx="98.38" cy="540.28" r="3.2" fill="#D7263D"/>
<circle cx="106.77" cy="507.05" r="3.2" fill="#D7263D"/>
<circle cx="115.15" cy="274.36" r="3.2" fill="#D7263D"/>
<circle cx="123.54" cy="274.36" r="3.2" fill="#D7263D"/>
<circle cx="131.92" cy="274.36" r="3.2" fill="#D7263D"/>
<circle cx="140.30" cy="274.36" r="3.2" fill="#D7263D"/>
<circle cx="148.69" cy="274.36" r="3.2" fill="#D7263D"/>
<circle cx="157.07" cy="274.36" r="3.2" fill="#D7263D"/>
<circle cx="165.45" cy="274.36" r="3.2" fill="#D7263D"/>
<circle cx="173.84" cy="274.36" r="3.2" fill="#D7263D"/>
<circle cx="182.22" cy="274.36" r="3.2" fill="#D7263D"/>
<circle cx="190.61" cy="274.36" r="3.2" fill="#D7263D"/>
<circle cx="198.99" cy="274.36" r="3.2" fill="#D7263D"/>
<circle cx="207.37" cy="274.36" r="3.2" fill="#D7263D"/>
<circle cx="215.76" cy="274.36" r="3.2" fill="#D7263D"/>
<circle cx="224.14" cy="274.36" r="3.2" fill="#D7263D"/>
<circle cx="232.53" cy="274.36" r="3.2" fill="#D7263D"/>
<circle cx="240.91" cy="274.36" r="3.2" fill="#D7263D"/>
<circle cx="249.29" cy="274.36" r="3.2" fill="#D7263D"/>
<circle cx="257.68" cy="274.36" r="3.2" fill="#D7263D"/>
<circle cx="266.06" cy="274.36" r="3.2" fill="#D7263D"/>
<circle cx="274.44" cy="274.36" r="3.2" fill="#D7263D"/>
<circle cx="282.83" cy="274.36" r="3.2" fill="#D7263D"/>
<circle cx="291.21" cy="274.36" r="3.2" fill="#D7263D"/>
<circle cx="299.60" cy="274.36" r="3.2" fill="#D7263D"/>
<circle cx="307.98" cy="274.36" r="3.2" fill="#D7263D"/>
<circle cx="316.36" cy="274.36" r="3.2" fill="#D7263D"/>
<circle cx="324.75" cy="274.36" r="3.2" fill="#D7263D"/>
<circle cx="333.13" cy="274.36" r="3.2" fill="#D7263D"/>
<circle cx="341.52" cy="274.36" r="3.2" fill="#D7263D"/>
<circle cx="349.90" cy="274.36" r="3.2" fill="#D7263D"/>
<circle cx="358.28" cy="274.36" r="3.2" fill="#D7263D"/>
<circle cx="366.67" cy="274.36" r="3.2" fill="#D7263D"/>
<circle cx="375.05" cy="274.36" r="3.2" fill="#D7263D"/>
<circle cx="383.43" cy="274.36" r="3.2" fill="#D7263D"/>
<circle cx="391.82" cy="274.36" r="3.2" fill="#D7263D"/>
<circle cx="400.20" cy="274.36" r="3.2" fill="#D7263D"/>
<circle cx="408.59" cy="274.36" r="3.2" fill="#D7263D"/>
<circle cx="416.97" cy="274.36" r="3.2" fill="#D7263D"/>
<circle cx="425.35" cy="274.36" r="3.2" fill="#D7263D"/>
<circle cx="433.74" cy="274.36" r="3.2" fill="#D7263D"/>
<circle cx="442.12" cy="274.36" r="3.2" fill="#D7263D"/>
<circle cx="450.51" cy="274.36" r="3.2" fill="#D7263D"/>
<circle cx="458.89" cy="274.36" r="3.2" fill="#D7263D"/>
<circle cx="467.27" cy="274.36" r="3.2" fill="#D7263D"/>
<circle cx="475.66" cy="274.36" r="3.2" fill="#D7263D"/>
<circle cx="484.04" cy="274.36" r="3.2" fill="#D7263D"/>
<circle cx="492.42" cy="274.36" r="3.2" fill="#D7263D"/>
<circle cx="500.81" cy="274.36" r="3.2" fill="#D7263D"/>
<circle cx="509.19" cy="274.36" r="3.2" fill="#D7263D"/>
<circle cx="517.58" cy="274.36" r="3.2" fill="#D7263D"/>
<circle cx="525.96" cy="274.36" r="3.2" fill="#D7263D"/>
<circle cx="534.34" cy="274.36" r="3.2" fill="#D7263D"/>
<circle cx="542.73" cy="274.36" r="3.2" fill="#D7263D"/>
<circle cx="551.11" cy="274.36" r="3.2" fill="#D7263D"/>
<circle cx="559.49" cy="274.36" r="3.2" fill="#D7263D"/>
<circle cx="567.88" cy="274.36" r="3.2" fill="#D7263D"/>
<circle cx="576.26" cy="274.36" r="3.2" fill="#D7263D"/>
<circle cx="584.65" cy="274.36" r="3.2" fill="#D7263D"/>
<circle cx="593.03" cy="274.36" r="3.2" fill="#D7263D"/>
<circle cx="601.41" cy="274.36" r="3.2" fill="#D7263D"/>
<circle cx="609.80" cy="274.36" r="3.2" fill="#D7263D"/>
<circle cx="618.18" cy="274.36" r="3.2" fill="#D7263D"/>
<circle cx="626.57" cy="274.36" r="3.2" fill="#D7263D"/>
<circle cx="634.95" cy="274.36" r="3.2" fill="#D7263D"/>
<circle cx="643.33" cy="274.36" r="3.2" fill="#D7263D"/>
<circle cx="651.72" cy="274.36" r="3.2" fill="#D7263D"/>
<circle cx="660.10" cy="274.36" r="3.2" fill="#D7263D"/>
<circle cx="668.48" cy="274.36" r="3.2" fill="#D7263D"/>
<circle cx="676.87" cy="274.36" r="3.2" fill="#D7263D"/>
<circle cx="685.25" cy="274.36" r="3.2" fill="#D7263D"/>
<circle cx="693.64" cy="274.36" r="3.2" fill="#D7263D"/>
<circle cx="702.02" cy="274.36" r="3.2" fill="#D7263D"/>
<circle cx="710.40" cy="274.36" r="3.2" fill="#D7263D"/>
<circle cx="718.79" cy="274.36" r="3.2" fill="#D7263D"/>
<circle cx="727.17" cy="274.36" r="3.2" fill="#D7263D"/>
<circle cx="735.56" cy="274.36" r="3.2" fill="#D7263D"/>
<circle cx="743.94" cy="274.36" r="3.2" fill="#D7263D"/>
<circle cx="752.32" cy="274.36" r="3.2" fill="#D7263D"/>
<circle cx="760.71" cy="274.36" r="3.2" fill="#D7263D"/>
<circle cx="769.09" cy="274.36" r="3.2" fill="#D7263D"/>
<circle cx="777.47" cy="274.36" r="3.2" fill="#D7263D"/>
<circle cx="785.86" cy="274.36" r="3.2" fill="#D7263D"/>
<circle cx="794.24" cy="274.36" r="3.2" fill="#D7263D"/>
<circle cx="802.63" cy="274.36" r="3.2" fill="#D7263D"/>
<circle cx="811.01" cy="274.36" r="3.2" fill="#D7263D"/>
<circle cx="819.39" cy="274.36" r="3.2" fill="#D7263D"/>
<circle cx="827.78" cy="274.36" r="3.2" fill="#D7263D"/>
<circle cx="836.16" cy="274.36" r="3.2" fill="#D7263D"/>
<circle cx="844.55" cy="274.36" r="3.2" fill="#D7263D"/>
<circle cx="852.93" cy="274.36" r="3.2" fill="#D7263D"/>
<circle cx="861.31" cy="274.36" r="3.2" fill="#D7263D"/>
<circle cx="869.70" cy="274.36" r="3.2" fill="#D7263D"/>
<circle cx="878.08" cy="274.36" r="3.2" fill="#D7263D"/>
<circle cx="886.46" cy="274.36" r="3.2" fill="#D7263D"/>
<circle cx="894.85" cy="274.36" r="3.2" fill="#D7263D"/>
<circle cx="903.23" cy="274.36" r="3.2" fill="#D7263D"/>
<circle cx="911.62" cy="274.36" r="3.2" fill="#D7263D"/>
<circle cx="920.00" cy="274.36" r="3.2" fill="#D7263D"/>
<line x1="944" y1="136" x2="966" y2="136" stroke="#D7263D" stroke-width="4"/>
<text x="976" y="141" font-size="17" font-family="Helvetica, Arial, sans-serif" fill="#222">02 Screening DoE</text>
<text x="976" y="162" font-size="14" font-family="Helvetica, Arial, sans-serif" fill="#555">best val 0.502 / hidden 0.480</text>
<polyline fill="none" stroke="#1B998B" stroke-width="4" points="90.00,523.66 98.38,423.94 106.77,149.72 115.15,149.72 123.54,149.72 131.92,149.72 140.30,149.72 148.69,149.72 157.07,149.72 165.45,149.72 173.84,149.72 182.22,149.72 190.61,149.72 198.99,149.72 207.37,149.72 215.76,149.72 224.14,149.72 232.53,149.72 240.91,149.72 249.29,149.72 257.68,149.72 266.06,149.72 274.44,149.72 282.83,149.72 291.21,149.72 299.60,149.72 307.98,149.72 316.36,149.72 324.75,149.72 333.13,149.72 341.52,149.72 349.90,149.72 358.28,149.72 366.67,149.72 375.05,149.72 383.43,149.72 391.82,149.72 400.20,149.72 408.59,149.72 416.97,149.72 425.35,149.72 433.74,149.72 442.12,149.72 450.51,149.72 458.89,149.72 467.27,149.72 475.66,149.72 484.04,149.72 492.42,149.72 500.81,149.72 509.19,149.72 517.58,149.72 525.96,149.72 534.34,149.72 542.73,149.72 551.11,149.72 559.49,149.72 567.88,149.72 576.26,149.72 584.65,149.72 593.03,149.72 601.41,149.72 609.80,149.72 618.18,149.72 626.57,149.72 634.95,149.72 643.33,149.72 651.72,149.72 660.10,149.72 668.48,149.72 676.87,149.72 685.25,149.72 693.64,149.72 702.02,149.72 710.40,149.72 718.79,149.72 727.17,149.72 735.56,149.72 743.94,149.72 752.32,149.72 760.71,149.72 769.09,149.72 777.47,149.72 785.86,149.72 794.24,149.72 802.63,149.72 811.01,149.72 819.39,149.72 827.78,149.72 836.16,149.72 844.55,149.72 852.93,149.72 861.31,149.72 869.70,149.72 878.08,149.72 886.46,149.72 894.85,149.72 903.23,149.72 911.62,149.72 920.00,149.72"/>
<circle cx="90.00" cy="523.66" r="3.2" fill="#1B998B"/>
<circle cx="98.38" cy="423.94" r="3.2" fill="#1B998B"/>
<circle cx="106.77" cy="149.72" r="3.2" fill="#1B998B"/>
<circle cx="115.15" cy="149.72" r="3.2" fill="#1B998B"/>
<circle cx="123.54" cy="149.72" r="3.2" fill="#1B998B"/>
<circle cx="131.92" cy="149.72" r="3.2" fill="#1B998B"/>
<circle cx="140.30" cy="149.72" r="3.2" fill="#1B998B"/>
<circle cx="148.69" cy="149.72" r="3.2" fill="#1B998B"/>
<circle cx="157.07" cy="149.72" r="3.2" fill="#1B998B"/>
<circle cx="165.45" cy="149.72" r="3.2" fill="#1B998B"/>
<circle cx="173.84" cy="149.72" r="3.2" fill="#1B998B"/>
<circle cx="182.22" cy="149.72" r="3.2" fill="#1B998B"/>
<circle cx="190.61" cy="149.72" r="3.2" fill="#1B998B"/>
<circle cx="198.99" cy="149.72" r="3.2" fill="#1B998B"/>
<circle cx="207.37" cy="149.72" r="3.2" fill="#1B998B"/>
<circle cx="215.76" cy="149.72" r="3.2" fill="#1B998B"/>
<circle cx="224.14" cy="149.72" r="3.2" fill="#1B998B"/>
<circle cx="232.53" cy="149.72" r="3.2" fill="#1B998B"/>
<circle cx="240.91" cy="149.72" r="3.2" fill="#1B998B"/>
<circle cx="249.29" cy="149.72" r="3.2" fill="#1B998B"/>
<circle cx="257.68" cy="149.72" r="3.2" fill="#1B998B"/>
<circle cx="266.06" cy="149.72" r="3.2" fill="#1B998B"/>
<circle cx="274.44" cy="149.72" r="3.2" fill="#1B998B"/>
<circle cx="282.83" cy="149.72" r="3.2" fill="#1B998B"/>
<circle cx="291.21" cy="149.72" r="3.2" fill="#1B998B"/>
<circle cx="299.60" cy="149.72" r="3.2" fill="#1B998B"/>
<circle cx="307.98" cy="149.72" r="3.2" fill="#1B998B"/>
<circle cx="316.36" cy="149.72" r="3.2" fill="#1B998B"/>
<circle cx="324.75" cy="149.72" r="3.2" fill="#1B998B"/>
<circle cx="333.13" cy="149.72" r="3.2" fill="#1B998B"/>
<circle cx="341.52" cy="149.72" r="3.2" fill="#1B998B"/>
<circle cx="349.90" cy="149.72" r="3.2" fill="#1B998B"/>
<circle cx="358.28" cy="149.72" r="3.2" fill="#1B998B"/>
<circle cx="366.67" cy="149.72" r="3.2" fill="#1B998B"/>
<circle cx="375.05" cy="149.72" r="3.2" fill="#1B998B"/>
<circle cx="383.43" cy="149.72" r="3.2" fill="#1B998B"/>
<circle cx="391.82" cy="149.72" r="3.2" fill="#1B998B"/>
<circle cx="400.20" cy="149.72" r="3.2" fill="#1B998B"/>
<circle cx="408.59" cy="149.72" r="3.2" fill="#1B998B"/>
<circle cx="416.97" cy="149.72" r="3.2" fill="#1B998B"/>
<circle cx="425.35" cy="149.72" r="3.2" fill="#1B998B"/>
<circle cx="433.74" cy="149.72" r="3.2" fill="#1B998B"/>
<circle cx="442.12" cy="149.72" r="3.2" fill="#1B998B"/>
<circle cx="450.51" cy="149.72" r="3.2" fill="#1B998B"/>
<circle cx="458.89" cy="149.72" r="3.2" fill="#1B998B"/>
<circle cx="467.27" cy="149.72" r="3.2" fill="#1B998B"/>
<circle cx="475.66" cy="149.72" r="3.2" fill="#1B998B"/>
<circle cx="484.04" cy="149.72" r="3.2" fill="#1B998B"/>
<circle cx="492.42" cy="149.72" r="3.2" fill="#1B998B"/>
<circle cx="500.81" cy="149.72" r="3.2" fill="#1B998B"/>
<circle cx="509.19" cy="149.72" r="3.2" fill="#1B998B"/>
<circle cx="517.58" cy="149.72" r="3.2" fill="#1B998B"/>
<circle cx="525.96" cy="149.72" r="3.2" fill="#1B998B"/>
<circle cx="534.34" cy="149.72" r="3.2" fill="#1B998B"/>
<circle cx="542.73" cy="149.72" r="3.2" fill="#1B998B"/>
<circle cx="551.11" cy="149.72" r="3.2" fill="#1B998B"/>
<circle cx="559.49" cy="149.72" r="3.2" fill="#1B998B"/>
<circle cx="567.88" cy="149.72" r="3.2" fill="#1B998B"/>
<circle cx="576.26" cy="149.72" r="3.2" fill="#1B998B"/>
<circle cx="584.65" cy="149.72" r="3.2" fill="#1B998B"/>
<circle cx="593.03" cy="149.72" r="3.2" fill="#1B998B"/>
<circle cx="601.41" cy="149.72" r="3.2" fill="#1B998B"/>
<circle cx="609.80" cy="149.72" r="3.2" fill="#1B998B"/>
<circle cx="618.18" cy="149.72" r="3.2" fill="#1B998B"/>
<circle cx="626.57" cy="149.72" r="3.2" fill="#1B998B"/>
<circle cx="634.95" cy="149.72" r="3.2" fill="#1B998B"/>
<circle cx="643.33" cy="149.72" r="3.2" fill="#1B998B"/>
<circle cx="651.72" cy="149.72" r="3.2" fill="#1B998B"/>
<circle cx="660.10" cy="149.72" r="3.2" fill="#1B998B"/>
<circle cx="668.48" cy="149.72" r="3.2" fill="#1B998B"/>
<circle cx="676.87" cy="149.72" r="3.2" fill="#1B998B"/>
<circle cx="685.25" cy="149.72" r="3.2" fill="#1B998B"/>
<circle cx="693.64" cy="149.72" r="3.2" fill="#1B998B"/>
<circle cx="702.02" cy="149.72" r="3.2" fill="#1B998B"/>
<circle cx="710.40" cy="149.72" r="3.2" fill="#1B998B"/>
<circle cx="718.79" cy="149.72" r="3.2" fill="#1B998B"/>
<circle cx="727.17" cy="149.72" r="3.2" fill="#1B998B"/>
<circle cx="735.56" cy="149.72" r="3.2" fill="#1B998B"/>
<circle cx="743.94" cy="149.72" r="3.2" fill="#1B998B"/>
<circle cx="752.32" cy="149.72" r="3.2" fill="#1B998B"/>
<circle cx="760.71" cy="149.72" r="3.2" fill="#1B998B"/>
<circle cx="769.09" cy="149.72" r="3.2" fill="#1B998B"/>
<circle cx="777.47" cy="149.72" r="3.2" fill="#1B998B"/>
<circle cx="785.86" cy="149.72" r="3.2" fill="#1B998B"/>
<circle cx="794.24" cy="149.72" r="3.2" fill="#1B998B"/>
<circle cx="802.63" cy="149.72" r="3.2" fill="#1B998B"/>
<circle cx="811.01" cy="149.72" r="3.2" fill="#1B998B"/>
<circle cx="819.39" cy="149.72" r="3.2" fill="#1B998B"/>
<circle cx="827.78" cy="149.72" r="3.2" fill="#1B998B"/>
<circle cx="836.16" cy="149.72" r="3.2" fill="#1B998B"/>
<circle cx="844.55" cy="149.72" r="3.2" fill="#1B998B"/>
<circle cx="852.93" cy="149.72" r="3.2" fill="#1B998B"/>
<circle cx="861.31" cy="149.72" r="3.2" fill="#1B998B"/>
<circle cx="869.70" cy="149.72" r="3.2" fill="#1B998B"/>
<circle cx="878.08" cy="149.72" r="3.2" fill="#1B998B"/>
<circle cx="886.46" cy="149.72" r="3.2" fill="#1B998B"/>
<circle cx="894.85" cy="149.72" r="3.2" fill="#1B998B"/>
<circle cx="903.23" cy="149.72" r="3.2" fill="#1B998B"/>
<circle cx="911.62" cy="149.72" r="3.2" fill="#1B998B"/>
<circle cx="920.00" cy="149.72" r="3.2" fill="#1B998B"/>
<line x1="944" y1="190" x2="966" y2="190" stroke="#1B998B" stroke-width="4"/>
<text x="976" y="195" font-size="17" font-family="Helvetica, Arial, sans-serif" fill="#222">03 Advanced DoE</text>
<text x="976" y="216" font-size="14" font-family="Helvetica, Arial, sans-serif" fill="#555">best val 0.514 / hidden 0.492</text>
</svg>